<?xml version="1.0" encoding="utf-8" ?>
<svg xmlns="http://www.w3.org/2000/svg" xmlns:xlink="http://www.w3.org/1999/xlink" width="70" height="18">
	<defs>
		<clipPath id="clip_0">
			<rect x="-237.68005" y="-203.43994" width="1411.2001" height="7761.6001" clip-rule="evenodd"/>
		</clipPath>
	</defs>
	<g clip-path="url(#clip_0)">
		<path fill="rgb(43,43,43)" stroke="none" transform="matrix(0.98 0 0 0.98 1.43994 0.399902)" d="M8.8597 17C6.43309 17 4.07402 16.0655 2.52102 14.4918C0.935353 12.9379 0.0265395 10.7507 0 8.47482C0 7.36079 0.231361 6.26089 0.680854 5.20718C1.1012 4.18631 1.7313 3.24461 2.5173 2.46149C4.06156 0.896784 6.2356 0.0262213 8.6322 0C9.80793 0 10.9613 0.309131 11.9328 1.04662L12.2164 1.3252L11.448 2.27102L11.1429 2.11903C10.4226 1.56543 9.54427 1.33481 8.6322 1.33481C6.61193 1.33481 4.77312 2.06134 3.44628 3.38335C2.11139 4.71337 1.3397 6.57419 1.3397 8.47482C1.3397 10.3221 2.15978 12.2845 3.46942 13.5894C4.75312 14.8442 6.87477 15.6652 8.8597 15.6652C9.92047 15.6652 10.6852 15.4148 11.3629 14.856L11.7007 14.6786L12.4182 15.5617L12.272 15.8531L12.2202 15.8956C11.3039 16.6475 10.2228 17 8.8597 17ZM68.5956 0.0503704L70 0.0503704L63.9336 16.8489L60.6021 16.8489L60.4558 16.4117L60.4575 16.4162L60.754 16.3074L60.4543 16.407L60.4558 16.4116L54.4114 0.0503704L55.818 0.0503704L61.5306 15.5393L62.984 15.5393L68.5956 0.0503704ZM46.696 0.0755556L45.3538 0.0755556L40.905 14.5822L39.8028 14.5822L35.354 0.62963L31.7007 0.62963L27.631 14.5822L26.6842 14.5822L22.0838 0.0755556L20.7138 0.0755556L25.7153 15.917L28.611 15.917L32.6806 1.96444L34.4242 1.96444C34.6569 2.59932 35.0347 3.80823 35.9834 6.90451C37.4136 11.5263 38.1051 13.708 38.7149 15.4476L38.8563 15.917L41.8788 15.917L46.696 0.0755556Z" fill-rule="evenodd"/>
	</g>
	<defs>
		<clipPath id="clip_1">
			<rect x="-237.68005" y="-203.43994" width="1411.2001" height="7761.6001" clip-rule="evenodd"/>
		</clipPath>
	</defs>
	<g clip-path="url(#clip_1)">
		<path fill="none" stroke="rgb(43,43,43)" stroke-width="1" stroke-miterlimit="4" transform="matrix(0.98 0 0 0.98 1.43994 0.399902)" d="M8.8597 17C6.43309 17 4.07402 16.0655 2.52102 14.4918C0.935353 12.9379 0.0265395 10.7507 0 8.47482C0 7.36079 0.231361 6.26089 0.680854 5.20718C1.1012 4.18631 1.7313 3.24461 2.5173 2.46149C4.06156 0.896784 6.2356 0.0262213 8.6322 0C9.80793 0 10.9613 0.309131 11.9328 1.04662L12.2164 1.3252L11.448 2.27102L11.1429 2.11903C10.4226 1.56543 9.54427 1.33481 8.6322 1.33481C6.61193 1.33481 4.77312 2.06134 3.44628 3.38335C2.11139 4.71337 1.3397 6.57419 1.3397 8.47482C1.3397 10.3221 2.15978 12.2845 3.46942 13.5894C4.75312 14.8442 6.87477 15.6652 8.8597 15.6652C9.92047 15.6652 10.6852 15.4148 11.3629 14.856L11.7007 14.6786L12.4182 15.5617L12.272 15.8531L12.2202 15.8956C11.3039 16.6475 10.2228 17 8.8597 17ZM68.5956 0.0503704L70 0.0503704L63.9336 16.8489L60.6021 16.8489L60.4558 16.4117L60.4575 16.4162L60.754 16.3074L60.4543 16.407L60.4558 16.4116L54.4114 0.0503704L55.818 0.0503704L61.5306 15.5393L62.984 15.5393L68.5956 0.0503704ZM46.696 0.0755556L45.3538 0.0755556L40.905 14.5822L39.8028 14.5822L35.354 0.62963L31.7007 0.62963L27.631 14.5822L26.6842 14.5822L22.0838 0.0755556L20.7138 0.0755556L25.7153 15.917L28.611 15.917L32.6806 1.96444L34.4242 1.96444C34.6569 2.59932 35.0347 3.80823 35.9834 6.90451C37.4136 11.5263 38.1051 13.708 38.7149 15.4476L38.8563 15.917L41.8788 15.917L46.696 0.0755556Z" fill-rule="evenodd"/>
	</g>
</svg>
