<?xml version="1.0" encoding="utf-8" ?>
<svg xmlns="http://www.w3.org/2000/svg" xmlns:xlink="http://www.w3.org/1999/xlink" width="17" height="16">
	<defs>
		<clipPath id="clip_0">
			<rect x="-1254.9934" y="-36.047119" width="1432.656" height="7879.6074" clip-rule="evenodd"/>
		</clipPath>
	</defs>
	<g clip-path="url(#clip_0)">
		<path fill="rgb(55,56,59)" stroke="none" transform="matrix(0.9949 0 0 0.9949 0.570404 0.804932)" d="M15.9569 7.89744C15.9553 7.66359 15.9422 7.43097 15.92 7.20369C15.8462 6.4439 15.6652 5.71487 15.3928 5.03056C15.3719 4.98092 15.3526 4.928 15.3317 4.87836C14.9694 4.02092 14.4583 3.24021 13.8351 2.56574C13.7949 2.52226 13.753 2.47918 13.7116 2.43569C13.593 2.31426 13.4728 2.19405 13.3461 2.08C11.9278 0.788513 10.0431 0 7.97908 0C5.89744 0 3.99836 0.802872 2.57682 2.11364C2.24533 2.41969 1.94051 2.75323 1.66523 3.10892C0.621949 4.45826 0 6.14728 0 7.97908C0 12.3799 3.58031 15.9582 7.97908 15.9582C11.0753 15.9582 13.7612 14.1858 15.0851 11.6041C15.367 11.0527 15.5881 10.4648 15.7354 9.84779C15.7739 9.69067 15.8059 9.53354 15.8351 9.37354C15.9151 8.92144 15.9582 8.45497 15.9582 7.97908C15.9582 7.952 15.9569 7.92451 15.9569 7.89744ZM14.9633 5.95364L14.3799 5.95364L14.0242 5.68903L13.6492 5.72431L13.6492 5.95364L13.5303 5.95364L13.4023 5.86215L12.7549 5.69723L12.7549 5.27713L11.9327 5.34154L11.6779 5.47897L11.351 5.47897L11.1906 5.46133L10.7947 5.68287L10.7947 6.096L9.98564 6.67938L10.0529 6.92964L10.2178 6.92964L10.1748 7.16677L10.0595 7.20985L10.0529 7.83015L10.7516 8.6281L11.0576 8.6281L11.0753 8.57846L11.6234 8.57846L11.7805 8.43282L12.0915 8.43282L12.2613 8.60267L12.7245 8.65231L12.6634 9.26605L13.1778 10.1731L12.9071 10.6909L12.9247 10.9342L13.1376 11.1458L13.1376 11.7325L13.4166 12.1075L13.4166 12.5945L13.6587 12.5945C12.3159 14.2453 10.2691 15.303 7.97908 15.303C3.94051 15.303 0.657231 12.0176 0.657231 7.97908C0.657231 6.96328 0.865231 5.99344 1.24021 5.11385L1.24021 4.88451L1.50318 4.56738C1.40882 4.74503 1.32062 4.92636 1.24185 5.11385L1.24185 5.53026L1.54503 5.67631L1.54503 6.25641L1.83672 6.75323L2.07549 6.79015L2.10585 6.62031L1.82523 6.18749L1.77067 5.7678L1.93436 5.7678L2.00328 6.2002L2.40862 6.79015L2.30277 6.98092L2.56082 7.37518L3.20041 7.5319L3.20041 7.42933L3.45518 7.46626L3.43097 7.64759L3.63282 7.6841L3.94215 7.76903L4.3799 8.26913L4.94072 8.31097L4.99528 8.76759L4.6121 9.03508L4.59446 9.44246L4.53826 9.69231L5.09292 10.3861L5.13641 10.6236C5.13641 10.6236 5.33662 10.6777 5.36041 10.6777C5.38462 10.6777 5.81087 10.9998 5.81087 10.9998L5.81087 12.2548L5.96308 12.2966L5.85887 12.8751L6.11528 13.2164L6.06892 13.7883L6.40533 14.3832L6.8398 14.761L7.27549 14.7692L7.31733 14.6297L6.99856 14.359L7.0162 14.2261L7.07364 14.0607L7.08513 13.8942L6.86851 13.888L6.7598 13.7518L6.93908 13.577L6.96328 13.447L6.76267 13.3895L6.77415 13.2677L7.06092 13.2242L7.49662 13.0162L7.64267 12.7483L8.09928 12.1633L7.99508 11.7067L8.13456 11.463L8.55467 11.4761L8.83815 11.2533L8.92964 10.3717L9.24185 9.97292L9.29805 9.71774L9.01128 9.62502L8.82215 9.31569L8.17805 9.30913L7.66687 9.11549L7.64267 8.74995L7.47118 8.4521L7.00964 8.44554L6.74215 8.02544L6.50462 7.90851L6.4919 8.03692L6.06072 8.06236L5.90236 7.84287L5.4519 7.75179L5.0802 8.17928L4.49682 8.08164L4.45333 7.42318L4.02708 7.34933L4.19856 7.02728L4.14892 6.84144L3.58974 7.21641L3.23733 7.17292L3.11221 6.89723L3.18769 6.61374L3.38297 6.25477L3.83015 6.02872L4.69374 6.02872L4.69087 6.29169L5.00144 6.43733L4.97764 5.98728L5.20041 5.76123L5.6521 5.46462L5.6841 5.25621L6.13456 4.78687L6.6121 4.52226L6.57067 4.48697L6.89436 4.18256L7.01292 4.21333L7.06749 4.28185L7.19056 4.14564L7.22133 4.13128L7.08636 4.112L6.94892 4.06728L6.94892 3.936L7.02236 3.87651L7.18113 3.87651L7.25497 3.90851L7.31897 4.03692L7.39569 4.02421L7.39569 4.01272L7.41826 4.02092L7.64267 3.98728L7.67467 3.87651L7.80308 3.90851L7.80308 4.02872L7.6841 4.11077L7.70174 4.24041L8.10749 4.36554L8.10913 4.37005L8.20185 4.36226L8.20841 4.18585L7.88636 4.04021L7.86872 3.95528L8.13621 3.86379L8.14728 3.60738L7.86708 3.43754L7.84944 3.00636L7.46626 3.19385L7.32677 3.19385L7.36205 2.86523L6.84144 2.74215L6.62482 2.90544L6.62482 3.4039L6.23713 3.52574L6.08164 3.85108L5.9118 3.87815L5.9118 3.46297L5.5479 3.41169L5.36533 3.29313L5.29149 3.024L5.94379 2.64246L6.26462 2.54482L6.29662 2.75979L6.47426 2.75159L6.48697 2.64246L6.67323 2.61703L6.6761 2.57846L6.5961 2.54482L6.57846 2.43118L6.8078 2.4119L6.94564 2.26749L6.95344 2.25805L6.95508 2.25805L6.99692 2.21456L7.47774 2.15385L7.69067 2.33477L7.13313 2.63138L7.84123 2.79959L7.93436 2.56246L8.24369 2.56246L8.35405 2.35569L8.13456 2.29949L8.13456 2.03856L7.44697 1.73415L6.97272 1.78831L6.70523 1.92944L6.72287 2.26913L6.44226 2.22769L6.39918 2.03856L6.66831 1.79487L6.18092 1.77067L6.04185 1.81415L5.98072 1.97744L6.16328 2.00821L6.12677 2.19077L5.81579 2.21005L5.7678 2.33026L5.31733 2.34297C5.31733 2.34297 5.30626 2.08821 5.28697 2.08821L5.28636 2.08819C5.28636 2.0879 5.63938 2.08164 5.63938 2.08164L5.90851 1.81908L5.76123 1.74687L5.56718 1.936L5.24349 1.91672L5.04985 1.64923L4.63631 1.64923L4.20349 1.97128L4.59938 1.97128L4.63631 2.08821L4.53374 2.18256L4.97108 2.19569L5.03836 2.35405L4.54482 2.33477L4.52103 2.21333L4.21169 2.14564L4.04636 2.05456L3.67795 2.05785C4.88615 1.17785 6.37169 0.657231 7.97908 0.657231C9.83179 0.657231 11.5225 1.34933 12.8139 2.48574L12.7274 2.64082L12.3893 2.77415L12.247 2.928L12.279 3.10892L12.4533 3.13313L12.5592 3.39569L12.8591 3.27385L12.9087 3.62503L12.8189 3.62503L12.5723 3.5881L12.2983 3.63446L12.0336 4.00944L11.6537 4.06892L11.5992 4.39262L11.7596 4.43118L11.7132 4.63959L11.3366 4.5641L10.992 4.63959L10.9198 4.82995L10.9793 5.23405L11.1811 5.32841L11.5208 5.32677L11.7502 5.30626L11.8203 5.12328L12.1797 4.65846L12.4152 4.70687L12.6474 4.49682L12.6909 4.6601L13.2628 5.04656L13.1922 5.13928L12.9342 5.12656L13.0338 5.26605L13.1922 5.30133L13.3781 5.22421L13.3752 4.99979L13.4568 4.95836L13.3912 4.88779L13.0096 4.6761L12.9087 4.39262L13.2258 4.39262L13.3268 4.49354L13.6008 4.72903L13.6123 5.01292L13.8942 5.31405L14 4.90215L14.1957 4.79467L14.2322 5.13313L14.4246 5.34277L14.8062 5.33662C14.88 5.52574 14.9456 5.71938 15.0031 5.91672L14.9633 5.95364ZM1.50318 4.56738C1.59467 4.3959 1.69067 4.22769 1.79487 4.064L1.80759 4.19692L1.50318 4.56738ZM3.67631 2.57518L3.67631 2.41682L3.83672 2.41682L3.84944 2.36226L4.112 2.36226L4.112 2.4759L4.03692 2.57518L3.67631 2.57518ZM4.10585 2.75815C4.09149 2.75815 3.93272 2.78523 3.93272 2.78523L3.67631 2.85908L3.74523 2.94072L4.10585 2.91815C4.10585 2.91815 4.11856 2.75815 4.10585 2.75815ZM13.303 2.95836L13.3013 3.31569L12.9871 3.4761L13.0191 3.58031L13.5208 3.58482L13.6652 3.37026C13.5495 3.22913 13.4277 3.09128 13.303 2.95836ZM4.54318 3.53354L4.35241 3.62503L4.46974 3.86708L4.65723 3.80759L4.71631 3.57538L4.54318 3.53354ZM5.37026 4.17313L5.37026 4.32369L4.93128 4.32369L4.76759 4.27897L4.80944 4.17313L5.01908 4.08656L5.30626 4.08656L5.30626 4.17313L5.37026 4.17313ZM5.44697 4.32369L5.44697 4.15056L5.59795 4.28677L5.44697 4.32369ZM5.71159 4.42954L5.77887 4.36062L5.89087 4.42954L5.80144 4.50338L5.71159 4.42954ZM4.93579 4.38318L5.17785 4.38318L4.86851 4.81723L4.74051 4.74831L4.76759 4.56574L4.93579 4.38318ZM5.57046 4.52882L5.57046 4.38318L5.3239 4.38318L5.3239 4.62482L5.46133 4.59938L5.57046 4.52882ZM5.92615 4.76759L5.92615 4.62482L5.64923 4.54318L5.62995 4.54318L5.62995 4.67487L5.69395 4.76759L5.92615 4.76759ZM14.455 4.70851L14.5017 4.65559C14.5625 4.77415 14.6187 4.89436 14.6732 5.01456L14.5977 5.01292L14.455 5.03221L14.455 4.70851ZM5.5159 4.81723L5.5159 4.67487L5.34769 4.69867L5.32513 4.75323L5.21477 4.76267L5.17785 4.92144L5.41169 4.92144L5.5159 4.81723ZM15.1056 6.29662L15.0818 6.32205L15.1348 6.42133C15.1249 6.37826 15.1155 6.33641 15.1056 6.29662Z" fill-rule="evenodd"/>
	</g>
</svg>
