<?xml version="1.0" encoding="utf-8"?>
<!-- Generator: Adobe Illustrator 16.0.0, SVG Export Plug-In . SVG Version: 6.00 Build 0)  -->
<!DOCTYPE svg PUBLIC "-//W3C//DTD SVG 1.1//EN" "http://www.w3.org/Graphics/SVG/1.1/DTD/svg11.dtd">
<svg version="1.1" id="Layer_1" xmlns="http://www.w3.org/2000/svg" xmlns:xlink="http://www.w3.org/1999/xlink" x="0px" y="0px"
	 width="70px" height="70px" viewBox="0 0 70 70" enable-background="new 0 0 70 70" xml:space="preserve">
<g>
	<defs>
		<rect id="SVGID_1_" x="1" y="2" width="67.995" height="66.992"/>
	</defs>
	<clipPath id="SVGID_2_">
		<use xlink:href="#SVGID_1_"  overflow="visible"/>
	</clipPath>
	<g clip-path="url(#SVGID_2_)">
		<defs>
			<rect id="SVGID_3_" x="1" y="2" width="68" height="67"/>
		</defs>
		<clipPath id="SVGID_4_">
			<use xlink:href="#SVGID_3_"  overflow="visible"/>
		</clipPath>
		<g clip-path="url(#SVGID_4_)" enable-background="new    ">
			<g>
				<defs>
					<rect id="SVGID_5_" x="1" y="2" width="68" height="67"/>
				</defs>
				<clipPath id="SVGID_6_">
					<use xlink:href="#SVGID_5_"  overflow="visible"/>
				</clipPath>
				<g clip-path="url(#SVGID_6_)">
					<defs>
						<path id="SVGID_7_" d="M35,2c18.777,0,34,14.998,34,33.5S53.777,69,35,69S1,54.002,1,35.5S16.223,2,35,2"/>
					</defs>
					<clipPath id="SVGID_8_">
						<use xlink:href="#SVGID_7_"  overflow="visible"/>
					</clipPath>
					<g clip-path="url(#SVGID_8_)">
						<defs>
							<rect id="SVGID_9_" x="1" y="2" width="68" height="67"/>
						</defs>
						<clipPath id="SVGID_10_">
							<use xlink:href="#SVGID_9_"  overflow="visible"/>
						</clipPath>
						<rect x="-4" y="-3" clip-path="url(#SVGID_10_)" fill="#CCCBD6" width="78" height="77"/>
					</g>
				</g>
			</g>
		</g>
	</g>
</g>
<g>
	<defs>
		<polyline id="SVGID_11_" points="20.713,17.085 20.713,51.951 44.305,51.951 44.305,47.043 49.287,47.043 49.287,17.085 
			20.713,17.085 		"/>
	</defs>
	<clipPath id="SVGID_12_">
		<use xlink:href="#SVGID_11_"  overflow="visible"/>
	</clipPath>
	<g clip-path="url(#SVGID_12_)">
		<defs>
			<rect id="SVGID_13_" x="1" y="2" width="68" height="67"/>
		</defs>
		<clipPath id="SVGID_14_">
			<use xlink:href="#SVGID_13_"  overflow="visible"/>
		</clipPath>
		<rect x="15.713" y="12.084" clip-path="url(#SVGID_14_)" fill="#FFFFFF" width="38.574" height="44.867"/>
	</g>
</g>
<g>
	<defs>
		<polyline id="SVGID_15_" points="44.305,51.951 49.287,47.043 44.305,47.043 44.305,51.951 		"/>
	</defs>
	<clipPath id="SVGID_16_">
		<use xlink:href="#SVGID_15_"  overflow="visible"/>
	</clipPath>
	<g clip-path="url(#SVGID_16_)">
		<defs>
			<rect id="SVGID_17_" x="1" y="2" width="68" height="67"/>
		</defs>
		<clipPath id="SVGID_18_">
			<use xlink:href="#SVGID_17_"  overflow="visible"/>
		</clipPath>
		<rect x="39.305" y="42.043" clip-path="url(#SVGID_18_)" fill="#E6E9E9" width="14.982" height="14.908"/>
	</g>
</g>
<g>
	<defs>
		<path id="SVGID_19_" d="M37.801,13.145v-0.969c0-1.526-1.252-2.76-2.801-2.76s-2.801,1.234-2.801,2.76v0.969h-4.941v5.651h15.498
			v-5.651H37.801"/>
	</defs>
	<clipPath id="SVGID_20_">
		<use xlink:href="#SVGID_19_"  overflow="visible"/>
	</clipPath>
	<g clip-path="url(#SVGID_20_)">
		<defs>
			<rect id="SVGID_21_" x="1" y="2" width="68" height="67"/>
		</defs>
		<clipPath id="SVGID_22_">
			<use xlink:href="#SVGID_21_"  overflow="visible"/>
		</clipPath>
		<rect x="22.258" y="4.416" clip-path="url(#SVGID_22_)" fill="#FFFFFF" width="25.498" height="19.38"/>
	</g>
</g>
<g>
	<defs>
		<path id="SVGID_23_" d="M35,10.81c0.773,0,1.4,0.617,1.4,1.379s-0.627,1.38-1.4,1.38s-1.4-0.618-1.4-1.38S34.227,10.81,35,10.81"
			/>
	</defs>
	<clipPath id="SVGID_24_">
		<use xlink:href="#SVGID_23_"  overflow="visible"/>
	</clipPath>
	<g clip-path="url(#SVGID_24_)">
		<defs>
			<rect id="SVGID_25_" x="1" y="2" width="68" height="67"/>
		</defs>
		<clipPath id="SVGID_26_">
			<use xlink:href="#SVGID_25_"  overflow="visible"/>
		</clipPath>
		<rect x="28.6" y="5.809" clip-path="url(#SVGID_26_)" fill="#38393C" width="12.801" height="12.76"/>
	</g>
</g>
<g>
	<defs>
		<rect id="SVGID_27_" x="24.658" y="25.934" width="3.205" height="1.46"/>
	</defs>
	<clipPath id="SVGID_28_">
		<use xlink:href="#SVGID_27_"  overflow="visible"/>
	</clipPath>
	<g clip-path="url(#SVGID_28_)">
		<defs>
			<rect id="SVGID_29_" x="1" y="2" width="68" height="67"/>
		</defs>
		<clipPath id="SVGID_30_">
			<use xlink:href="#SVGID_29_"  overflow="visible"/>
		</clipPath>
		<rect x="19.658" y="20.935" clip-path="url(#SVGID_30_)" fill="#38393C" width="13.205" height="11.459"/>
	</g>
</g>
<g>
	<defs>
		<rect id="SVGID_31_" x="29.856" y="25.934" width="15.485" height="1.46"/>
	</defs>
	<clipPath id="SVGID_32_">
		<use xlink:href="#SVGID_31_"  overflow="visible"/>
	</clipPath>
	<g clip-path="url(#SVGID_32_)">
		<defs>
			<rect id="SVGID_33_" x="1" y="2" width="68" height="67"/>
		</defs>
		<clipPath id="SVGID_34_">
			<use xlink:href="#SVGID_33_"  overflow="visible"/>
		</clipPath>
		<rect x="24.856" y="20.935" clip-path="url(#SVGID_34_)" fill="#E6E9E9" width="25.485" height="11.459"/>
	</g>
</g>
<g>
	<defs>
		<rect id="SVGID_35_" x="24.658" y="30.485" width="3.205" height="1.459"/>
	</defs>
	<clipPath id="SVGID_36_">
		<use xlink:href="#SVGID_35_"  overflow="visible"/>
	</clipPath>
	<g clip-path="url(#SVGID_36_)">
		<defs>
			<rect id="SVGID_37_" x="1" y="2" width="68" height="67"/>
		</defs>
		<clipPath id="SVGID_38_">
			<use xlink:href="#SVGID_37_"  overflow="visible"/>
		</clipPath>
		<rect x="19.658" y="25.484" clip-path="url(#SVGID_38_)" fill="#38393C" width="13.205" height="11.459"/>
	</g>
</g>
<g>
	<defs>
		<rect id="SVGID_39_" x="29.856" y="30.485" width="15.485" height="1.459"/>
	</defs>
	<clipPath id="SVGID_40_">
		<use xlink:href="#SVGID_39_"  overflow="visible"/>
	</clipPath>
	<g clip-path="url(#SVGID_40_)">
		<defs>
			<rect id="SVGID_41_" x="1" y="2" width="68" height="67"/>
		</defs>
		<clipPath id="SVGID_42_">
			<use xlink:href="#SVGID_41_"  overflow="visible"/>
		</clipPath>
		<rect x="24.856" y="25.484" clip-path="url(#SVGID_42_)" fill="#E6E9E9" width="25.485" height="11.459"/>
	</g>
</g>
<g>
	<defs>
		<rect id="SVGID_43_" x="24.658" y="35.036" width="3.205" height="1.459"/>
	</defs>
	<clipPath id="SVGID_44_">
		<use xlink:href="#SVGID_43_"  overflow="visible"/>
	</clipPath>
	<g clip-path="url(#SVGID_44_)">
		<defs>
			<rect id="SVGID_45_" x="1" y="2" width="68" height="67"/>
		</defs>
		<clipPath id="SVGID_46_">
			<use xlink:href="#SVGID_45_"  overflow="visible"/>
		</clipPath>
		<rect x="19.658" y="30.036" clip-path="url(#SVGID_46_)" fill="#38393C" width="13.205" height="11.459"/>
	</g>
</g>
<g>
	<defs>
		<rect id="SVGID_47_" x="29.856" y="35.036" width="15.485" height="1.459"/>
	</defs>
	<clipPath id="SVGID_48_">
		<use xlink:href="#SVGID_47_"  overflow="visible"/>
	</clipPath>
	<g clip-path="url(#SVGID_48_)">
		<defs>
			<rect id="SVGID_49_" x="1" y="2" width="68" height="67"/>
		</defs>
		<clipPath id="SVGID_50_">
			<use xlink:href="#SVGID_49_"  overflow="visible"/>
		</clipPath>
		<rect x="24.856" y="30.036" clip-path="url(#SVGID_50_)" fill="#E6E9E9" width="25.485" height="11.459"/>
	</g>
</g>
<g>
	<defs>
		<rect id="SVGID_51_" x="24.658" y="39.586" width="3.205" height="1.46"/>
	</defs>
	<clipPath id="SVGID_52_">
		<use xlink:href="#SVGID_51_"  overflow="visible"/>
	</clipPath>
	<g clip-path="url(#SVGID_52_)">
		<defs>
			<rect id="SVGID_53_" x="1" y="2" width="68" height="67"/>
		</defs>
		<clipPath id="SVGID_54_">
			<use xlink:href="#SVGID_53_"  overflow="visible"/>
		</clipPath>
		<rect x="19.658" y="34.586" clip-path="url(#SVGID_54_)" fill="#38393C" width="13.205" height="11.459"/>
	</g>
</g>
<g>
	<defs>
		<rect id="SVGID_55_" x="29.856" y="39.586" width="15.485" height="1.46"/>
	</defs>
	<clipPath id="SVGID_56_">
		<use xlink:href="#SVGID_55_"  overflow="visible"/>
	</clipPath>
	<g clip-path="url(#SVGID_56_)">
		<defs>
			<rect id="SVGID_57_" x="1" y="2" width="68" height="67"/>
		</defs>
		<clipPath id="SVGID_58_">
			<use xlink:href="#SVGID_57_"  overflow="visible"/>
		</clipPath>
		<rect x="24.856" y="34.586" clip-path="url(#SVGID_58_)" fill="#E6E9E9" width="25.485" height="11.459"/>
	</g>
</g>
</svg>
