<?xml version="1.0" encoding="utf-8"?>
<!-- Generator: Adobe Illustrator 16.0.0, SVG Export Plug-In . SVG Version: 6.00 Build 0)  -->
<!DOCTYPE svg PUBLIC "-//W3C//DTD SVG 1.1//EN" "http://www.w3.org/Graphics/SVG/1.1/DTD/svg11.dtd">
<svg version="1.1" id="Layer_1" xmlns="http://www.w3.org/2000/svg" xmlns:xlink="http://www.w3.org/1999/xlink" x="0px" y="0px"
	 width="19px" height="12px" viewBox="0 0 19 12" enable-background="new 0 0 19 12" xml:space="preserve">
<g>
	<defs>
		<path id="SVGID_1_" d="M13.46,0.18c-0.231-0.24-0.615-0.24-0.854,0c-0.231,0.233-0.231,0.62,0,0.853l4.334,4.361H6.649
			c-0.334,0-0.6,0.267-0.6,0.603c0,0.334,0.266,0.611,0.6,0.611h10.291l-4.334,4.351c-0.231,0.241-0.231,0.63,0,0.861
			c0.239,0.24,0.623,0.24,0.854,0l5.36-5.395c0.239-0.233,0.239-0.619,0-0.849L13.46,0.18z"/>
	</defs>
	<clipPath id="SVGID_2_">
		<use xlink:href="#SVGID_1_"  overflow="visible"/>
	</clipPath>
	<g clip-path="url(#SVGID_2_)">
		<defs>
			<rect id="SVGID_3_" x="-412" y="-2922" width="1440" height="7920"/>
		</defs>
		<clipPath id="SVGID_4_">
			<use xlink:href="#SVGID_3_"  overflow="visible"/>
		</clipPath>
		<rect x="1.049" y="-5" clip-path="url(#SVGID_4_)" fill="#FFFFFF" width="22.951" height="22"/>
	</g>
</g>
<g>
	<defs>
		<circle id="SVGID_5_" cx="1" cy="6" r="1"/>
	</defs>
	<clipPath id="SVGID_6_">
		<use xlink:href="#SVGID_5_"  overflow="visible"/>
	</clipPath>
	<g clip-path="url(#SVGID_6_)">
		<defs>
			<rect id="SVGID_7_" x="-412" y="-2922" width="1440" height="7920"/>
		</defs>
		<clipPath id="SVGID_8_">
			<use xlink:href="#SVGID_7_"  overflow="visible"/>
		</clipPath>
		<rect x="-5" clip-path="url(#SVGID_8_)" fill="#FFFFFF" width="12" height="12"/>
	</g>
</g>
<g>
	<defs>
		<circle id="SVGID_9_" cx="4" cy="6" r="1"/>
	</defs>
	<clipPath id="SVGID_10_">
		<use xlink:href="#SVGID_9_"  overflow="visible"/>
	</clipPath>
	<g clip-path="url(#SVGID_10_)">
		<defs>
			<rect id="SVGID_11_" x="-412" y="-2922" width="1440" height="7920"/>
		</defs>
		<clipPath id="SVGID_12_">
			<use xlink:href="#SVGID_11_"  overflow="visible"/>
		</clipPath>
		<rect x="-2" clip-path="url(#SVGID_12_)" fill="#FFFFFF" width="12" height="12"/>
	</g>
</g>
</svg>
