<?xml version="1.0" standalone="no"?>
<!DOCTYPE svg PUBLIC "-//W3C//DTD SVG 1.1//EN" "http://www.w3.org/Graphics/SVG/1.1/DTD/svg11.dtd" >
<svg>
<metadata>
Created by FontForge 20090622 at Wed Jul 18 05:52:10 2018
 By deploy user
Copyright 2018 The Inter UI project authors
</metadata>
<defs>
<font id="InterUI-BlackItalic" horiz-adv-x="0" >
  <font-face 
    font-family="Inter UI Black"
    font-weight="900"
    font-style="italic"
    font-stretch="normal"
    units-per-em="2816"
    panose-1="2 11 9 2 3 0 0 0 0 4"
    ascent="2252"
    descent="-564"
    x-height="1536"
    cap-height="2048"
    bbox="-2195 -1098 4419 2928.02"
    underline-thickness="256"
    underline-position="-294"
    slope="-9.39999"
    unicode-range="U+0002-U+1F16B"
  />
<missing-glyph horiz-adv-x="2848" 
d="M272 2176v512h2304v-512h-2304zM272 1472v512h2304v-512h-2304zM272 768v512h2304v-512h-2304zM272 64v512h2304v-512h-2304zM272 -640v512h2304v-512h-2304z" />
    <glyph glyph-name=".notdef" horiz-adv-x="2848" 
d="M272 2176v512h2304v-512h-2304zM272 1472v512h2304v-512h-2304zM272 768v512h2304v-512h-2304zM272 64v512h2304v-512h-2304zM272 -640v512h2304v-512h-2304z" />
    <glyph glyph-name=".null" 
 />
    <glyph glyph-name="nonmarkingreturn" horiz-adv-x="938" 
 />
    <glyph glyph-name="controlSOT" 
 />
    <glyph glyph-name="controlHT" unicode="&#x9;" horiz-adv-x="796" 
 />
    <glyph glyph-name="CR" unicode="&#xd;" horiz-adv-x="796" 
 />
    <glyph glyph-name="space" unicode=" " horiz-adv-x="764" 
 />
    <glyph glyph-name="exclam" unicode="!" horiz-adv-x="792" 
d="M920 2048l-342 -1413l-357 1l231 1412h468zM299 -26q-98 1 -164.5 64t-68.5 161q-2 105 67.5 174.5t175.5 68.5q98 -1 165 -64.5t69 -160.5q3 -105 -68 -174t-176 -69z" />
    <glyph glyph-name="quotedbl" unicode="&#x22;" horiz-adv-x="1048" 
d="M663 2048l-138 -792h-309l138 792h309zM1160 2048l-138 -792h-309l137 792h310z" />
    <glyph glyph-name="numbersign" unicode="#" horiz-adv-x="1816" 
d="M215 0l222 562l-309 2l45 252l343 1l149 361l-308 2l44 252h344l212 572h268l-224 -571l230 -1l210 572h273l-224 -570l309 -2l-45 -252l-344 -1l-149 -361l309 -2l-44 -252h-345l-209 -564h-272l221 562l-230 2l-208 -564h-268zM773 818l229 -2l147 362l-229 2z" />
    <glyph glyph-name="dollar" unicode="$" horiz-adv-x="1815" 
d="M636 -256l55 234q-194 11 -335 102t-211.5 242t-66.5 344l435 -1q-1 -128 52 -205t174 -102l115 512q-24 10 -36 14l-36 12q-106 38 -193.5 90.5t-160 125.5t-109.5 171t-28 210q9 113 58.5 208.5t125 161t173.5 112.5t201.5 70.5t210.5 27.5l52 231h181l-55 -239
q248 -34 381 -203.5t131 -423.5l-427 1q1 90 -28.5 148.5t-106.5 88.5l-106 -460l6 -3q193 -102 271 -157q174 -125 217 -288q22 -84 13 -185q-12 -140 -75.5 -253t-163 -185.5t-221 -114.5t-258.5 -52l-53 -234h-182zM729 1486q-19 -93 97 -159q23 -13 84 -41l97 402
q-47 -8 -88.5 -22.5t-82.5 -37.5t-69.5 -59.5t-37.5 -82.5zM1153 581q14 71 -21 121t-106 94l-105 -432q88 28 151.5 82t80.5 135z" />
    <glyph glyph-name="percent" unicode="%" horiz-adv-x="2327" 
d="M403 1556l14 107q14 99 54.5 184.5t103.5 149.5t151 99.5t190 32.5q127 -3 218 -67.5t130.5 -168.5t24.5 -229l-14 -108q-19 -132 -83 -236.5t-172.5 -166t-243.5 -58.5q-127 3 -218 66.5t-130.5 166.5t-24.5 228zM2335 2099l-1878 -2151l-381 1l1878 2151zM718 1664
l-17 -111q-24 -183 90 -187q76 -3 122 53t61 137l18 109q29 188 -90 193q-77 3 -123 -54.5t-61 -139.5zM1149 384l14 106q28 205 163 338.5t337 128.5q95 -3 171.5 -41t123.5 -101t68 -146.5t10 -176.5l-15 -108q-28 -204 -162.5 -337t-336.5 -128q-127 3 -218 67.5
t-130 168.5t-25 229zM1465 492l-17 -112q-24 -181 89 -187q77 -3 123 53t61 138l17 110q4 42 5 83.5t-22.5 74.5t-72.5 35q-52 2 -92.5 -28t-61 -72.5t-29.5 -94.5z" />
    <glyph glyph-name="ampersand" unicode="&#x26;" horiz-adv-x="2070" 
d="M1284 0l-66 109q-247 -140 -514 -136q-168 3 -299.5 71.5t-203.5 199.5t-58 301q6 75 34.5 144t67.5 121.5t97.5 103.5t113 87.5t124.5 76.5q-5 15 -15 42.5l-16 43.5t-14.5 42l-14 43.5t-12.5 42.5t-10.5 44t-7.5 43t-5.5 45t-1.5 45t2 47q23 247 193 406t416 154
q205 -5 333 -142.5t113 -341.5q-20 -265 -314 -461l-158 -104l229 -357q126 170 144 351l361 1q-10 -191 -82.5 -367t-201.5 -303l236 -352h-470zM854 1520q-11 -56 3 -110.5t46 -125.5l102 61q156 97 176 213q11 61 -21.5 106t-94.5 46q-81 1 -138.5 -53.5t-72.5 -136.5z
M587 570q-15 -93 28 -161t135 -71q99 -4 259 60l-259 420l-25 -15q-56 -42 -91.5 -102.5t-46.5 -130.5z" />
    <glyph glyph-name="quotesingle" unicode="'" horiz-adv-x="536" 
d="M663 2048l-138 -792h-309l138 792h309z" />
    <glyph glyph-name="parenleft" unicode="(" horiz-adv-x="1063" 
d="M794 -390l-337 5q-81 127 -132.5 279t-71 310t-17 313.5t26.5 310.5q51 335 199.5 647.5t374.5 571.5h372l-109.5 -196l-112 -199t-97.5 -188t-92.5 -204t-70 -203.5t-54.5 -227.5q-37 -213 -42 -412.5t34 -414t129 -392.5z" />
    <glyph glyph-name="parenright" unicode=")" horiz-adv-x="1063" 
d="M-124 -383l107.5 196l110.5 199t97.5 188.5t92 204t69.5 203.5t54 226q128 729 -124 1220l338 -5q81 -127 133.5 -279.5t72 -310.5t17 -314t-26.5 -311q-51 -334 -198 -645t-372 -572h-371z" />
    <glyph glyph-name="asterisk" unicode="*" horiz-adv-x="1560" 
d="M349 960l385 360l-414 130l128 243l398 -185l63 496l290 -1l-146 -483l442 171l48 -274l-482 -128l232 -366l-248 -156l-161 407l-321 -386z" />
    <glyph glyph-name="plus" unicode="+" horiz-adv-x="1559" 
d="M1476 1072l-66 -352h-456l-89 -464h-353l107 463l-459 1l66 352h457l89 464h352l-106 -463z" />
    <glyph glyph-name="comma" unicode="," horiz-adv-x="792" 
d="M536 348l-59 -291q-33 -176 -129.5 -330.5t-239.5 -265.5l-221 111q27 57 81 141.5t93.5 160t56.5 154.5l59 320h359z" />
    <glyph glyph-name="hyphen" unicode="-" horiz-adv-x="1302" 
d="M1217 1028l-60 -328h-1001l60 328h1001z" />
    <glyph glyph-name="period" unicode="." horiz-adv-x="790" 
d="M296 -30q-97 1 -163 73.5t-68 171.5q-2 105 71 182.5t178 76.5q96 -1 163 -72t69 -168q2 -107 -71 -186t-179 -78z" />
    <glyph glyph-name="slash" unicode="/" horiz-adv-x="1177" 
d="M1361 2048l-1067 -2356h-401l1066 2356h402z" />
    <glyph glyph-name="zero" unicode="0" horiz-adv-x="1702" 
d="M1656 1204l-67 -339q-27 -142 -72.5 -268.5t-119.5 -244t-167.5 -201.5t-223 -133t-279.5 -46q-121 2 -218.5 39.5t-162 102t-108 149t-62 185t-18.5 204.5t18 212l66 340q25 137 72 262t121.5 239t168.5 196.5t222 130t274 44.5q101 -2 186 -29.5t147 -74.5t109 -112.5
t75 -141.5t42 -162t13 -174t-16 -178zM1138 803l88 463q70 423 -155 436q-69 4 -127.5 -22t-98.5 -69.5t-71.5 -104.5t-50 -119.5t-29.5 -121.5l-88 -462q-5 -34 -8.5 -55t-7.5 -60t-4.5 -66t1.5 -64t8.5 -63t19.5 -54t31.5 -45.5t46.5 -30t64 -14.5q71 -4 131 23t100 71.5
t71.5 108.5t49 123.5t29.5 125.5z" />
    <glyph glyph-name="one" unicode="1" horiz-adv-x="1398" 
d="M1263 2047l-418 -2047h-417l319 1468l-7 -1q-23 -31 -53 -54t-69 -37t-69.5 -23t-80.5 -13t-74.5 -5.5t-77.5 -2.5l49 372q101 1 204 42t182 123.5t92 186.5z" />
    <glyph glyph-name="two" unicode="2" horiz-adv-x="1688" 
d="M1466 384l-67 -384h-1369l62 354l739 646q63 56 105.5 98.5t95.5 104.5t86.5 127t45.5 131q18 99 -25.5 174t-141.5 79q-66 3 -122 -25t-93 -75.5t-60 -105.5t-30 -120l-431 -2q5 147 71.5 277.5t171.5 221t242 142.5t282 50q127 -2 237.5 -47.5t189 -123.5t118.5 -190.5
t27 -241.5q-7 -68 -29.5 -137t-51.5 -126t-75.5 -121t-86 -110.5t-100 -107l-100 -97l-102.5 -93.5l-20 -18l-316 -261l-11 -28z" />
    <glyph glyph-name="three" unicode="3" horiz-adv-x="1686" 
d="M624 832l67 384l191 -2q130 1 218.5 79.5t108.5 207.5q15 96 -35 155t-148 62q-96 2 -173.5 -47.5t-92.5 -138.5l-434 -2q3 105 46 196t113 154.5t160 109t188.5 66.5t197.5 20q132 -1 246 -37t201 -104t132 -177.5t34 -246.5q-14 -167 -122 -288t-275 -195
q138 -64 206 -183.5t56 -272.5q-9 -118 -58 -218t-126 -170t-176 -119t-207.5 -72t-221.5 -21q-272 3 -441.5 160.5t-168.5 425.5l430 -1q-2 -99 57.5 -160t159.5 -64q119 -4 214 64.5t113 182.5q40 245 -221 251z" />
    <glyph glyph-name="four" unicode="4" horiz-adv-x="1748" 
d="M1666 784l-73 -384h-303l-75 -400h-410l93 399h-847l63 332l1054 1317h465l-272 -1263zM573 786l395 -2l151 683l-29 -39z" />
    <glyph glyph-name="five" unicode="5" horiz-adv-x="1687" 
d="M604 918l-351 93l296 1037h1127l-67 -384h-768l-141 -443q51 65 132.5 93.5t174.5 26.5q105 -1 192.5 -39.5t146.5 -103.5t98 -149.5t52.5 -179t2.5 -192.5q-16 -150 -79.5 -281t-162 -226t-233.5 -148.5t-287 -50.5q-193 4 -331 91t-205 234t-64 338h432q1 -48 4.5 -83
t15.5 -78.5t31 -71.5t54 -48t83 -22q70 -3 127.5 28t94.5 84t59.5 114t31.5 128q5 51 5.5 98.5t-13 90t-37.5 74.5t-66.5 51.5t-99.5 20.5q-154 3 -255 -102z" />
    <glyph glyph-name="six" unicode="6" horiz-adv-x="1675" 
d="M1205 1502q-36 205 -204 214q-61 3 -113.5 -16t-90.5 -56.5t-68.5 -83t-53.5 -103t-40 -109l-34 -107.5l-16 -55q151 171 383 166q133 -2 239.5 -61.5t169.5 -156t91 -217t14 -247.5q-15 -146 -80.5 -276t-165.5 -224t-235.5 -148t-283.5 -51q-90 2 -168 24t-137.5 61
t-107.5 92.5t-81 118t-55 136.5t-31 150t-8.5 157t11.5 158l12 80q15 93 30 171.5t39 174t51 174t67 162.5t85.5 149.5t107 125t132 98.5t160.5 61t191 20q135 -2 241 -45t178.5 -122t118 -182.5t67.5 -234.5zM1049 673q11 57 2.5 114t-28.5 103t-66 75.5t-110 31.5
q-118 4 -212 -72t-113 -192l-4 -23q-4 -47 -6 -97.5t10 -100t32.5 -89t62 -65t98.5 -27.5q69 -3 129 26t101.5 78.5t68 110.5t35.5 127z" />
    <glyph glyph-name="seven" unicode="7" horiz-adv-x="1687" 
d="M1751 2049l-42 -272l-1012 -1777h-475l980 1662l-884 2l67 384z" />
    <glyph glyph-name="eight" unicode="8" horiz-adv-x="1663" 
d="M1469 573q-11 -117 -57 -215.5t-117.5 -170t-164 -121t-198.5 -73t-220 -21.5q-133 2 -245 41.5t-193 111.5t-121 183t-27 247q18 181 126 307t286 198q-194 187 -171 430q10 111 52 206.5t109 165.5t153.5 119.5t188 73t210.5 21.5q172 -3 301 -69.5t196 -195.5t50 -302
q-29 -311 -359 -461q229 -193 201 -475zM1187 1486q7 58 1 107t-42 82t-98 35q-104 4 -171.5 -66.5t-84.5 -177.5q-7 -58 -2 -109.5t41 -88t99 -38.5q54 -2 99.5 18.5t77 57.5t52 82.5t28.5 97.5zM1045 610q18 106 -23 180.5t-145 78.5q-118 4 -203 -77.5t-106 -202.5
q-11 -67 2.5 -121.5t57 -90.5t113.5 -39q118 -4 201 74.5t103 197.5z" />
    <glyph glyph-name="nine" unicode="9" horiz-adv-x="1676" 
d="M536 546q38 -205 205 -214q61 -3 113.5 16t90.5 56.5t68.5 83t53.5 103t40 109l34 107.5l16 55q-151 -171 -383 -166q-133 2 -239.5 61.5t-169.5 156t-91 216.5t-15 247q16 146 81.5 276t165.5 224t235 148t283 51q103 -1 190 -29.5t149.5 -78t112.5 -117t77.5 -146
t45 -166.5t15.5 -178.5t-12 -180.5l-13 -80q-14 -93 -29 -172t-39 -174t-51 -173.5t-67 -162.5t-85.5 -149.5t-107 -125t-132 -98t-160 -60.5t-190.5 -21q-265 4 -412.5 158t-193.5 426zM693 1376q-11 -57 -2.5 -114t28.5 -103t66 -76t110 -32q117 -4 211.5 72t113.5 192
l4 23q4 47 6 97.5t-10 100t-32.5 89t-62 65t-98.5 27.5q-91 3 -165.5 -47.5t-115 -127.5t-53.5 -166z" />
    <glyph glyph-name="colon" unicode=":" horiz-adv-x="790" 
d="M510 1002q-97 1 -163 73.5t-68 171.5q-2 105 71 182.5t178 76.5q96 -1 162.5 -72t68.5 -168q2 -107 -70.5 -186t-178.5 -78zM296 -30q-97 1 -163 73.5t-68 171.5q-2 105 71 182.5t178 76.5q96 -1 163 -72t69 -168q2 -107 -71 -186t-179 -78z" />
    <glyph glyph-name="semicolon" unicode=";" horiz-adv-x="792" 
d="M522 1054q-97 1 -163.5 73.5t-68.5 171.5q-2 105 71.5 182.5t178.5 76.5q96 -1 162.5 -72t68.5 -168q2 -107 -70.5 -186t-178.5 -78zM536 348l-59 -291q-33 -176 -129.5 -330.5t-239.5 -265.5l-221 111q27 58 81 141.5t93.5 159.5t56.5 155l59 320h359z" />
    <glyph glyph-name="less" unicode="&#x3c;" horiz-adv-x="1303" 
d="M1099 401l-289 -230l-656 739l912 710l232 -258l-615 -455l-11 -24z" />
    <glyph glyph-name="equal" unicode="=" horiz-adv-x="1559" 
d="M355 1396h1126l-65 -352h-1126zM221 748h1126l-65 -352h-1127z" />
    <glyph glyph-name="greater" unicode="&#x3e;" horiz-adv-x="1303" 
d="M59 422l614 463l11 24l-427 482l289 230l656 -739l-912 -710z" />
    <glyph glyph-name="question" unicode="?" horiz-adv-x="1560" 
d="M943 635l-361 -4q5 92 34.5 172t73.5 139t96 113t106.5 104.5t102 101.5t84.5 117.5t51 139.5q18 89 -10 144t-115 59q-96 4 -156 -62t-79 -167l-432 -2q8 140 66.5 253.5t153 186t216.5 110.5t260 36q126 -2 229 -37.5t176.5 -102t108.5 -169t23 -230.5
q-8 -86 -44 -161.5t-87.5 -133.5t-112.5 -112l-123.5 -107.5t-115.5 -109t-92.5 -127t-52.5 -151.5zM656 -18q-98 1 -165 64t-70 161q-2 105 69 174t177 68q97 -1 163 -64.5t68 -159.5q2 -104 -67.5 -173.5t-174.5 -69.5z" />
    <glyph glyph-name="at" unicode="@" horiz-adv-x="2839" 
d="M1695 2052q255 -2 464.5 -87.5t346.5 -236t194.5 -367.5t16.5 -471q-15 -94 -35.5 -180.5t-54 -182t-74.5 -176t-99 -155t-126.5 -126t-159 -81.5t-193.5 -29q-55 1 -93 4.5t-79 16.5t-65 35.5t-38 62.5t-11 96l-6 -1q-73 -111 -216 -164.5t-284 -37.5
q-97 11 -173.5 47.5t-126.5 91.5t-85 126.5t-48 151.5t-16.5 166.5t10.5 172.5q17 130 69.5 251t133.5 219.5t195.5 166t246.5 85.5q41 6 90 7t108 -6t108.5 -22.5t89.5 -46.5t54 -75l17 -1l24 119l329 -1l-218 -1051q-4 -32 1.5 -42.5t32.5 -11.5q40 -2 76.5 12.5t64 36
t53 60t42.5 71t33.5 84.5t25.5 84.5t20 86.5t14.5 75l10.5 66q67 412 -104.5 610t-590.5 200q-209 1 -401 -78t-336.5 -215t-246 -317.5t-141.5 -384.5q-29 -138 -26.5 -262.5t29.5 -230.5t87.5 -191.5t146.5 -146t206 -93.5t266 -34q280 -1 560 103l75 -315
q-165 -143 -656 -140q-200 0 -369 44t-295 126t-219 199t-140.5 263.5t-59 319.5t24.5 367q48 282 183 528t331 424.5t457 280.5t549 100zM1476 1103q-145 1 -244 -105.5t-126 -257.5q-9 -50 -13 -87t-5.5 -87.5t8.5 -86.5t29.5 -70t57.5 -53t91 -21q92 -4 171.5 28.5
t134.5 92t91.5 136.5t50.5 166q25 159 -32.5 250.5t-213.5 94.5z" />
    <glyph glyph-name="A" unicode="A" horiz-adv-x="2159" 
d="M445 0h-507l1158 2048h484l324 -2048h-484l-45 384h-725zM1233 1472l-402 -714l500 -2l-77 715z" />
    <glyph glyph-name="B" unicode="B" horiz-adv-x="1777" 
d="M857 0h-847l418 2048l723 -1q134 -2 249 -34.5t206.5 -96.5t138.5 -171.5t35 -247.5q-17 -189 -129.5 -297.5t-302.5 -131.5l-16 -38q65 -1 119 -32t87.5 -80.5t55.5 -111.5t29 -123.5t2 -117.5q-10 -116 -59 -212t-123 -161t-170.5 -109.5t-200.5 -64t-215 -18.5z
M809 1664l-106 -467l236 -3q332 -2 380 240q22 111 -31.5 168t-168.5 61zM1194 630q21 108 -23.5 174t-152.5 71l-372 1l-112 -491l309 -3q88 0 159 24t123.5 81t68.5 143z" />
    <glyph glyph-name="C" unicode="C" horiz-adv-x="1975" 
d="M1995 1399l-444 -62q-59 312 -319 323q-104 4 -193 -33.5t-151.5 -101t-111 -151t-76.5 -177t-44 -185.5q-10 -59 -15.5 -110.5t-7 -116.5t5.5 -117.5t26 -105.5t51 -89t84 -60t121 -26q152 -6 273 78t179 229l436 -61q-54 -196 -195 -349t-331 -234t-393 -78
q-122 2 -226 34t-180.5 87.5t-135.5 132.5t-95 168t-54.5 193.5t-18 209.5t17.5 216q22 138 68 269t113.5 251t160 219.5t201 172.5t243 113t280.5 38q123 -1 228.5 -35.5t185 -94t143 -145t105.5 -185t69 -217.5z" />
    <glyph glyph-name="D" unicode="D" horiz-adv-x="1951" 
d="M744 0h-734l418 2048h681q126 -2 234.5 -30t192 -79t150 -122t108 -158t66.5 -188.5t25 -212t-16 -229.5q-35 -221 -129.5 -409.5t-236.5 -326.5t-338 -216t-421 -77zM1062 1647l-257 1l-267 -1247l210 -2q144 -1 260.5 45.5t197 133t132.5 200.5t75 255
q14 82 17.5 152.5t-3 142t-31.5 126.5t-66 99t-109.5 68t-158.5 26z" />
    <glyph glyph-name="E" unicode="E" horiz-adv-x="1649" 
d="M1419 384l-72 -384h-1337l418 2048h1336l-72 -384h-883l-103 -447l750 -1l-73 -384h-746l-104 -447z" />
    <glyph glyph-name="F" unicode="F" horiz-adv-x="1649" 
d="M1456 1216l-73 -384h-747l-166 -832h-460l418 2048h1336l-72 -384h-883l-103 -447z" />
    <glyph glyph-name="G" unicode="G" horiz-adv-x="1991" 
d="M1917 1096l-69 -338q-41 -231 -178 -411.5t-341 -279t-439 -95.5q-122 1 -226 33t-180.5 87.5t-135.5 132.5t-94.5 168t-54 194t-18 210t17.5 216q26 165 85 320t153 291.5t213.5 237.5t276.5 159t331 56q119 -1 221.5 -34t182 -90t144 -138t109 -176.5t75.5 -207.5
l-462 -62q-58 281 -303 291q-102 4 -190 -34t-149.5 -102t-110 -152t-76 -177t-43.5 -184q-98 -613 267 -625q176 -5 307.5 98.5t189.5 274.5l-398 -3l63 340h832z" />
    <glyph glyph-name="H" unicode="H" horiz-adv-x="1944" 
d="M888 2048l-182 -831l720 -1l166 832h460l-418 -2048h-460l182 831l-720 1l-166 -832h-460l418 2048h460z" />
    <glyph glyph-name="I" unicode="I" horiz-adv-x="744" 
d="M888 2048l-418 -2048h-460l418 2048h460z" />
    <glyph glyph-name="J" unicode="J" horiz-adv-x="1604" 
d="M981 628l285 1420h456l-292 -1420q-50 -293 -262 -477.5t-508 -180.5q-293 4 -440.5 172.5t-137.5 463.5h452q-11 -255 158 -263q79 -4 142 38.5t97.5 105.5t49.5 141z" />
    <glyph glyph-name="K" unicode="K" horiz-adv-x="2040" 
d="M1247 0l-377 759l-308 -281l-92 -478h-460l418 2048h460l-191 -861h18l926 861l632 -1l-1074 -964l575 -1083h-527z" />
    <glyph glyph-name="L" unicode="L" horiz-adv-x="1559" 
d="M1345 384l-72 -384h-1263l418 2048h460l-355 -1663z" />
    <glyph glyph-name="M" unicode="M" horiz-adv-x="2553" 
d="M428 2048h579l231 -1315h24l783 1315h597l-419 -2048h-459l288 1338h-9l-760 -1306h-305l-210 1311l-18 1l-280 -1344h-460z" />
    <glyph glyph-name="N" unicode="N" horiz-adv-x="1944" 
d="M2052 2048l-418 -2048h-437l-443 1262l-20 2l-264 -1264h-460l418 2048h441l439 -1262l20 -2l264 1264h460z" />
    <glyph glyph-name="O" unicode="O" horiz-adv-x="2031" 
d="M1947 1027q-26 -164 -85 -318t-153.5 -289.5t-213.5 -235.5t-275 -157t-329 -55q-122 2 -225.5 34t-180.5 88t-135.5 132.5t-94.5 167.5t-54.5 193.5t-18 209.5t17.5 216q26 165 85 320.5t154.5 291.5t216 237t278 158.5t331.5 55.5q122 -2 225 -34.5t178.5 -89.5
t133.5 -135t92.5 -170t52.5 -195.5t17.5 -210t-17.5 -214.5zM1489 1028q10 59 15.5 109t7.5 116.5t-4 119t-24 107.5t-49 92t-82.5 62t-119.5 27q-104 3 -193 -34.5t-151 -101t-111 -151t-77 -177t-44 -185.5q-10 -59 -15.5 -110.5t-6.5 -116.5t5.5 -117t26 -105t51 -89.5
t83.5 -60.5t121 -26q103 -3 191 34t149 99t108.5 149t75 175t43.5 184z" />
    <glyph glyph-name="P" unicode="P" horiz-adv-x="1787" 
d="M956 703l-347 1l-139 -704h-460l418 2048l747 -1q317 -5 478.5 -180.5t121.5 -487.5q-43 -330 -261.5 -503.5t-557.5 -172.5zM809 1664l-130 -579l299 -3q139 -1 231.5 80.5t117.5 219.5q11 75 3.5 135.5t-52.5 101t-124 44.5z" />
    <glyph glyph-name="Q" unicode="Q" horiz-adv-x="2030" 
d="M1949 1026q-20 -125 -58 -242.5t-95 -229t-141 -207t-186 -161.5l187 -377l-405 -1l-88 205q-137 -41 -274 -40q-107 1 -200 25.5t-164.5 68.5t-130 105t-98.5 135t-67 158t-38 175t-9.5 184.5t16.5 188.5q26 166 85.5 321t154.5 291t215.5 237t278 158.5t331.5 55.5
q122 -2 225 -34.5t179 -89.5t134.5 -135.5t94 -170.5t53.5 -195t17.5 -210t-17.5 -215zM827 703l358 1l74 -170q179 179 232 492q105 623 -259 635q-104 3 -193 -34.5t-151 -101t-111 -151t-77 -177t-44 -185.5q-10 -61 -16 -113t-7 -116.5t6 -116t26.5 -104t51.5 -88
t84.5 -59.5t121.5 -27q19 -1 57 -1z" />
    <glyph glyph-name="R" unicode="R" horiz-adv-x="1787" 
d="M1091 0l-201 752h-271l-149 -752h-460l418 2048l743 -1q147 -2 267 -44t203 -119.5t121 -197t20 -269.5q-24 -205 -136.5 -354t-302.5 -227l234 -836h-486zM809 1664l-119 -531l294 -3q135 -1 229.5 72.5t118.5 204.5q20 112 -25.5 182t-156.5 74z" />
    <glyph glyph-name="S" unicode="S" horiz-adv-x="1766" 
d="M1353 1438q3 243 -234 249q-55 2 -109.5 -8.5t-106.5 -33t-90 -63.5t-52 -95q-10 -37 1.5 -69t33 -54t59 -43.5t67.5 -33.5l71 -27.5t58 -23.5l49 -25q94 -42 162 -80.5t138.5 -95t112 -118.5t63.5 -147t12 -185q-13 -124 -65.5 -227t-132 -174t-182 -120t-215 -71.5
t-231.5 -20.5q-324 4 -509 188.5t-175 505.5h436q-5 -145 63 -225.5t212 -84.5q125 -2 229.5 55t133.5 169q38 152 -181 252q-44 20 -136 52l-36 13q-83 29 -154.5 67.5t-135.5 93t-107.5 118t-65.5 144.5t-14 171q10 117 65 216t137 167t187 115t215 68t221 19
q297 -5 467.5 -174.5t165.5 -463.5h-427z" />
    <glyph glyph-name="T" unicode="T" horiz-adv-x="1811" 
d="M1984 2048l-72 -384h-589l-338 -1664h-456l355 1663l-591 1l72 384h1619z" />
    <glyph glyph-name="U" unicode="U" horiz-adv-x="1944" 
d="M1592 2048h460l-278 -1351q-42 -231 -173 -397.5t-324.5 -250t-429.5 -80.5q-162 2 -299 52.5t-233 141t-139.5 229t-17.5 304.5l270 1352h460l-275 -1337q-25 -144 49 -231.5t220 -92.5q160 -5 284 83.5t157 241.5z" />
    <glyph glyph-name="V" unicode="V" horiz-adv-x="2160" 
d="M782 2050l238 -1472l21 -1l748 1471h493l-1089 -2048h-483l-388 2047z" />
    <glyph glyph-name="W" unicode="W" horiz-adv-x="2887" 
d="M744 2050l99 -1381h14l588 1379h398l101 -1383h14l578 1383h422l-859 -2048h-461l-101 1287h-14l-557 -1287h-461l-156 2047z" />
    <glyph glyph-name="X" unicode="X" horiz-adv-x="1969" 
d="M824 2050l243 -671l14 -1l477 670h535l-776 -1043l425 -1005h-507l-243 673l-14 1l-486 -674h-543l792 1043l-408 1004z" />
    <glyph glyph-name="Y" unicode="Y" horiz-adv-x="2144" 
d="M825 2051l304 -872l20 -1l667 870l522 -1l-1043 -1290l-147 -757h-460l173 802l-508 1245z" />
    <glyph glyph-name="Z" unicode="Z" horiz-adv-x="1815" 
d="M1589 384l-72 -384h-1514l54 294l1241 1368l-951 2l72 384l1514 1l-54 -295l-1241 -1368z" />
    <glyph glyph-name="bracketleft" unicode="[" horiz-adv-x="1065" 
d="M1248 2348l-60 -340h-287l-377 -2151l292 -1l-59 -336h-686l491 2828h686z" />
    <glyph glyph-name="backslash" unicode="\" horiz-adv-x="1175" 
d="M383 2048h384l102 -2356h-385z" />
    <glyph glyph-name="bracketright" unicode="]" horiz-adv-x="1065" 
d="M391 2348h686l-491 -2828h-685l58 336h287l377 2151l-292 1z" />
    <glyph glyph-name="asciicircum" unicode="^" horiz-adv-x="1303" 
d="M953 1004l-99 613l-355 -613h-351l603 1000h321l208 -999z" />
    <glyph glyph-name="underscore" unicode="_" horiz-adv-x="1304" 
d="M1114 0l-63 -344h-1219l63 344h1219z" />
    <glyph glyph-name="grave" unicode="`" horiz-adv-x="1048" 
d="M855 2112l202 -431l-334 -1l-313 430z" />
    <glyph glyph-name="a" unicode="a" horiz-adv-x="1544" 
d="M823 0l35 161l-11 -2q-142 -192 -380 -188q-194 4 -310.5 131.5t-103.5 321.5q7 103 51.5 186.5t111 138.5t155.5 94t178.5 58.5t187.5 26.5q5 0 37 1.5t45 3t43 5.5t46 10t36.5 16t33 25t19.5 35l8 32q12 65 -21.5 107.5t-99.5 46.5q-81 4 -147.5 -42.5t-91.5 -123.5
l-424 38q14 80 51 149.5t90 121.5t119 92t140 64.5t151.5 36.5t154.5 10q117 -2 217.5 -36.5t175 -97t110.5 -161.5t20 -221l-204 -1040h-423zM889 491l59 202q-40 -34 -155 -51q-45 -7 -79.5 -15t-74 -24t-67 -37t-49.5 -55t-30 -77q-12 -60 19 -95t93 -38q91 -3 175.5 51
t108.5 139z" />
    <glyph glyph-name="b" unicode="b" horiz-adv-x="1644" 
d="M428 2048h456l-155 -680l7 1q58 96 151 143.5t209 44.5q86 -2 157 -29t120 -72t85.5 -106.5t56.5 -130.5t29.5 -146t8 -150.5t-11.5 -146.5q-16 -115 -51 -226.5t-95.5 -218t-138.5 -186t-187 -126t-233 -43.5q-69 2 -129.5 19t-112.5 60t-72 106h-24l-35 -161h-453z
M1119 777q63 406 -181 416q-69 3 -127 -22.5t-97.5 -68t-70 -102t-47.5 -118t-27 -122.5q-7 -40 -11 -71.5t-6 -77t1.5 -79.5t14.5 -71.5t30.5 -62t53 -41.5t78.5 -19q70 -3 130.5 22t102.5 68t74.5 102.5t52 120.5t29.5 126z" />
    <glyph glyph-name="c" unicode="c" horiz-adv-x="1578" 
d="M1536 1029l-419 -80q-9 53 -22 91.5t-36.5 74t-61.5 55.5t-90 22q-70 3 -128 -22t-97 -67t-68.5 -100.5t-45.5 -117.5t-25 -124q-57 -414 188 -422q98 -4 169.5 53.5t108.5 153.5l409 -73q-27 -117 -97.5 -214t-167 -159.5t-211 -96t-233.5 -31.5q-130 2 -237 45.5
t-178.5 118t-117 174t-60 214t0.5 237.5q15 130 59.5 249.5t117 220t166 174t214.5 113.5t256 38q244 -4 401 -144.5t205 -382.5z" />
    <glyph glyph-name="d" unicode="d" horiz-adv-x="1643" 
d="M1342 0h-452l48 160l-12 -1q-58 -95 -150 -141t-208 -44q-87 2 -158 29t-120 72.5t-85.5 107.5t-56.5 131t-29 146.5t-7.5 151.5t11.5 147q13 95 40 188t69 184.5t101.5 168.5t131.5 136t165.5 90.5t197.5 28.5q69 -2 128.5 -20t111 -61t71.5 -106l19 -1l146 681h456z
M545 759q-67 -411 180 -421q70 -3 128.5 22.5t97.5 68.5t69.5 103.5t47.5 119t27 123.5q6 41 10 71.5t6 76t-1.5 79t-14.5 70.5t-31 61t-53 41t-78 19q-70 3 -130.5 -21.5t-102.5 -67t-74.5 -101t-51.5 -119t-29 -125.5z" />
    <glyph glyph-name="e" unicode="e" horiz-adv-x="1626" 
d="M740 -29q-133 2 -243 40.5t-187.5 108t-127.5 164t-67.5 209.5t-2.5 244q20 169 87 318t172.5 262t255 177.5t322.5 62.5q153 -2 273 -60t193 -156t102.5 -229t10.5 -280l-30 -192l-967 1q-14 -130 42 -214.5t184 -87.5q104 -3 182.5 49.5t117.5 150.5l386 -106
q-23 -113 -95.5 -204t-171.5 -146.5t-211.5 -84t-224.5 -27.5zM924 1193q-62 2 -115.5 -18t-95.5 -59.5t-73.5 -82.5t-62.5 -101l544 2q25 112 -28.5 183.5t-168.5 75.5z" />
    <glyph glyph-name="f" unicode="f" horiz-adv-x="1095" 
d="M125 0l261 1215l-191 1l63 320l173 -4l7 32q25 117 72 209.5t117 162.5t168 107t219 36q134 -1 319 -47l-117 -340q-64 23 -125 24q-154 3 -204 -153l-10 -31l290 4l-58 -320h-283l-245 -1216h-456z" />
    <glyph glyph-name="g" unicode="g" horiz-adv-x="1643" 
d="M1200 1529l452 -1l-300 -1459q-36 -209 -152 -360t-289.5 -226t-387.5 -71q-158 2 -307 51t-260 146l225 308q152 -130 348 -135q155 -4 255.5 76t137.5 232l31 106l-15 -1q-57 -85 -152.5 -125.5t-207.5 -38.5q-84 1 -154 25.5t-119.5 66t-87 98.5t-59 122t-32.5 138
t-10.5 145t9.5 145q12 94 39.5 186.5t69.5 182t102 165.5t132 133.5t164.5 88.5t195.5 28q69 -2 129 -20t112 -61t71 -107h24zM547 770q-8 -54 -10.5 -101.5t5.5 -100.5t28.5 -90.5t62 -63.5t101.5 -28q82 -3 148 31t108.5 94.5t68.5 129t39 147.5q61 394 -165 405
q-68 3 -127.5 -21t-101.5 -65t-75 -98t-52.5 -116.5t-29.5 -122.5z" />
    <glyph glyph-name="h" unicode="h" horiz-adv-x="1604" 
d="M626 816l-160 -816h-456l419 2048h440l-156 -680l6 1q168 193 413 186q79 -2 143 -28t105 -69t70 -100.5t39.5 -122.5t13 -135.5t-9.5 -139.5l-189 -960h-456l197 966q6 34 8 61t-1.5 59t-15 54t-35.5 37.5t-61 17.5q-59 3 -108 -20t-82 -61t-59 -91.5t-40.5 -102.5
t-24.5 -104z" />
    <glyph glyph-name="i" unicode="i" horiz-adv-x="772" 
d="M629 1618q-92 1 -161.5 65t-73.5 156q-4 99 70.5 169t174.5 70q92 -1 160.5 -65t71.5 -156q4 -99 -69 -169.5t-173 -69.5zM793 1536l-312 -1536h-456l312 1536h456z" />
    <glyph glyph-name="j" unicode="j" horiz-adv-x="941" 
d="M798 1619q-92 1 -161.5 64.5t-73.5 155.5q-3 99 71 169t174 69q92 -1 160 -64.5t71 -155.5q4 -99 -68.5 -169t-172.5 -69zM506 1536h455l-324 -1583q-28 -177 -121 -298t-232 -179t-319 -57l-194 1l75 359l66 -1q233 0 274 182z" />
    <glyph glyph-name="k" unicode="k" horiz-adv-x="1581" 
d="M946 0l-241 582l-156 -146l-83 -436h-456l418 2048h456l-225 -1025h12l501 513l556 -1l-700 -671l389 -864h-471z" />
    <glyph glyph-name="l" unicode="l" horiz-adv-x="740" 
d="M884 2048l-418 -2048h-456l418 2048h456z" />
    <glyph glyph-name="m" unicode="m" horiz-adv-x="2431" 
d="M1468 953l-188 -953h-440l197 961q15 97 -16 162.5t-123 70.5q-98 5 -159.5 -59.5t-81.5 -165.5l-191 -969h-456l313 1536l443 1l-49 -169l2 1q178 194 417 188q56 -1 107.5 -14t97.5 -37.5t79.5 -66.5t46.5 -96h12q188 219 455 213q81 -2 145 -27.5t105 -68.5t70 -100
t39 -122.5t12 -136.5t-10 -141l-188 -960h-456l196 961q35 225 -122 233q-72 4 -127 -29.5t-85.5 -87t-44.5 -124.5z" />
    <glyph glyph-name="n" unicode="n" horiz-adv-x="1647" 
d="M626 816l-160 -816h-456l313 1536l420 1l-49 -169l6 1q84 93 193.5 141.5t234.5 45.5q81 -2 148.5 -26.5t114 -65.5t81 -97.5t49.5 -122t20 -138t-7 -146.5l-187 -960h-456l193 946q9 44 5 87t-18 78t-48 57.5t-84 25.5q-59 3 -108.5 -20t-82 -60t-58.5 -91t-40 -102.5
t-24 -104.5z" />
    <glyph glyph-name="o" unicode="o" horiz-adv-x="1632" 
d="M710 -28q-130 2 -236.5 46t-178.5 118.5t-117.5 174t-59.5 214t0 237.5q19 163 84.5 307.5t167.5 254t247.5 172.5t312.5 60q161 -3 285.5 -68t196.5 -173.5t101 -247.5t11 -293q-19 -163 -84.5 -308.5t-168 -256.5t-248 -175.5t-313.5 -61.5zM733 339q70 -3 128 23
t97.5 68.5t69 102t45.5 118.5t25 124q5 40 8 74.5t2.5 78t-6.5 78.5t-20 70.5t-36 59.5t-57 39.5t-81 17.5q-70 3 -128 -22.5t-97 -67.5t-68.5 -100.5t-46 -117.5t-24.5 -124q-56 -413 189 -422z" />
    <glyph glyph-name="p" unicode="p" horiz-adv-x="1644" 
d="M-109 -576l431 2112l452 1l-49 -169l11 1q58 96 151 143.5t209 44.5q86 -2 157 -29t120 -72t85.5 -106.5t56.5 -130.5t29.5 -146t8 -150.5t-11.5 -146.5q-13 -95 -40 -188.5t-69 -185.5t-101.5 -169.5t-131.5 -136.5t-165.5 -91t-197.5 -29q-109 3 -196 47.5t-117 136.5
l-19 1l-157 -737h-456zM1119 777q63 406 -181 417q-69 3 -127 -22.5t-97.5 -68t-70 -102.5t-47.5 -118.5t-27 -122.5q-7 -40 -11 -71.5t-6 -76.5t1.5 -79t14.5 -71.5t30.5 -62t53 -42t78.5 -19.5q70 -3 130.5 22t102.5 68.5t74.5 103t52 120t29.5 125.5z" />
    <glyph glyph-name="q" unicode="q" horiz-adv-x="1643" 
d="M1654 1536l-431 -2112h-456l167 736l-8 -1q-58 -95 -150 -141t-208 -44q-87 2 -158 29.5t-120.5 73t-85.5 107.5t-56 131t-29.5 146.5t-8 151.5t11.5 147q16 114 51 225t96 216.5t139.5 184.5t187 125.5t232.5 43.5q69 -2 129 -20t112 -61t71 -107h25l36 170zM545 759
q-67 -411 180 -421q70 -3 128 23t97.5 69t69.5 103.5t47 118.5t28 123q6 41 10 71.5t6 76t-1.5 79t-14.5 70.5t-31 61t-53 41t-78 19q-70 3 -130.5 -21.5t-102.5 -67t-74.5 -101t-51.5 -119t-29 -125.5z" />
    <glyph glyph-name="r" unicode="r" horiz-adv-x="1187" 
d="M1310 1506l-191 -390q-53 34 -136 36q-121 3 -218.5 -79t-124.5 -201l-174 -872h-456l313 1536l444 1l-57 -201l17 2q50 111 140 167t213 54q121 -3 230 -53z" />
    <glyph glyph-name="s" unicode="s" horiz-adv-x="1544" 
d="M1489 1081l-407 -23q-10 80 -62 121.5t-135 42.5q-79 2 -152.5 -33.5t-89.5 -104.5q-6 -28 2 -48.5t30.5 -33.5t40.5 -20t47 -14l289 -65q172 -41 270 -142t90 -269q-6 -112 -55.5 -202.5t-125.5 -149t-175.5 -98t-200.5 -55.5t-204 -15q-259 3 -416 128t-196 375l435 23
q14 -91 70 -143t148 -53q35 -1 73 5.5t76.5 21t67 41.5t36.5 62q7 32 0.5 54.5t-28.5 36.5t-41 21t-52 15l-256 62q-175 45 -278 153t-94 278q5 108 52 195.5t119 144.5t166.5 95.5t192 54t197.5 14.5q247 -3 393 -120t173 -355z" />
    <glyph glyph-name="t" unicode="t" horiz-adv-x="1041" 
d="M1104 1536l-61 -320h-240l-150 -734q-10 -63 5.5 -94t73.5 -32q33 0 95 12l36 -347q-35 -22 -92.5 -32t-107.5 -9.5t-98 0.5q-120 3 -210 65t-131 163.5t-27 219.5l165 787l-174 1l64 320h173l58 328h458l-78 -327z" />
    <glyph glyph-name="u" unicode="u" horiz-adv-x="1649" 
d="M1043 720l160 816h456l-313 -1536h-420l49 168l-6 -1q-84 -94 -194 -143.5t-234 -46.5q-81 2 -148.5 26.5t-114 66.5t-81 98.5t-50 122.5t-20.5 138.5t7 146.5l188 960h456l-193 -946q-7 -61 -1 -114.5t44 -91.5t103 -42q59 -3 108.5 20t82 60t58 91t39.5 102.5t24 104.5
z" />
    <glyph glyph-name="v" unicode="v" horiz-adv-x="1660" 
d="M1732 1536l-813 -1536h-421l-287 1535l454 1l119 -958l14 -1l458 959h476z" />
    <glyph glyph-name="w" unicode="w" horiz-adv-x="2197" 
d="M2244 1536l-684 -1536h-362l-57 856h-21l-420 -856h-364l-59 1536h430l-51 -925h16l426 925h305l33 -916l19 -1l347 917h442z" />
    <glyph glyph-name="x" unicode="x" horiz-adv-x="1560" 
d="M696 1536l135 -437l297 437h475l-545 -787l283 -749h-441l-160 434l-307 -434h-480l560 788l-263 747z" />
    <glyph glyph-name="y" unicode="y" horiz-adv-x="1661" 
d="M442 -27l30 49l-233 1513l456 1l93 -915l17 -1l481 916l480 -1l-986 -1755q-95 -178 -244 -281t-341 -102q-102 1 -243 47l144 351q53 -17 97 -17.5t77 12t64.5 41.5t54.5 61t53 81z" />
    <glyph glyph-name="z" unicode="z" horiz-adv-x="1535" 
d="M1305 360l-66 -360h-1228l52 281l848 893l-629 2l67 360l1184 1l-52 -282l-847 -893z" />
    <glyph glyph-name="braceleft" unicode="{" horiz-adv-x="1063" 
d="M758 -252l-100 -245q-219 80 -318.5 246.5t-68.5 398.5l44 277q9 74 2.5 132t-48.5 95t-120 41l33 315q119 0 190.5 73t92.5 195l46 280q77 503 573 644l63 -247q-203 -77 -256 -397l-45 -280q-21 -155 -102.5 -260t-225.5 -171q100 -77 144 -185t30 -236l-43 -277
q-7 -45 -10.5 -75.5t-5.5 -75t4.5 -77t19 -67.5t38.5 -61t63 -43z" />
    <glyph glyph-name="bar" unicode="|" horiz-adv-x="943" 
d="M908 2048l-421 -2432h-399l422 2432h398z" />
    <glyph glyph-name="braceright" unicode="}" horiz-adv-x="1065" 
d="M-59 -249q202 74 257 397l44 276q22 156 103 262t226 173q-99 76 -144 183.5t-31 233.5l43 281q7 45 10.5 75t5.5 74.5t-4.5 77.5t-19 67.5t-38.5 61t-63 43.5l102 240q217 -75 317 -242.5t69 -397.5l-45 -281q-9 -74 -2 -131t49.5 -93t119.5 -40l-33 -315
q-119 0 -191 -75t-93 -197l-45 -276q-39 -252 -180 -412.5t-387 -236.5z" />
    <glyph glyph-name="asciitilde" unicode="~" horiz-adv-x="1815" 
d="M1382 1100l308 2q-4 -88 -25 -173t-62.5 -163.5t-98 -137.5t-137.5 -93t-176 -32q-193 4 -350 177q-30 33 -49.5 51.5t-52.5 35.5t-68 18q-94 3 -147 -60t-65 -161l-311 -2q5 89 27 173.5t64.5 161.5t100.5 134.5t139.5 90.5t176.5 31q195 -6 343 -177q31 -36 50 -54.5
t53 -38t69 -20.5q96 -4 146.5 64.5t64.5 172.5z" />
    <glyph glyph-name="nbspace" unicode="&#xa0;" horiz-adv-x="764" 
 />
    <glyph glyph-name="exclamdown" unicode="&#xa1;" horiz-adv-x="792" 
d="M540 1558q98 -1 165 -64.5t70 -160.5q2 -105 -69 -174t-176 -69q-98 1 -164 64t-68 161q-3 105 66.5 174.5t175.5 68.5zM393 -516h-467l341 1413l358 -1z" />
    <glyph glyph-name="cent" unicode="&#xa2;" horiz-adv-x="1580" 
d="M1554 1028l-421 -79q-9 53 -20.5 90.5t-33.5 74t-59 56t-89 22.5q-70 3 -129.5 -21.5t-100.5 -66t-72.5 -100.5t-49.5 -118.5t-29 -125.5q-7 -48 -10.5 -86t-4.5 -90t9 -91t29 -75.5t56.5 -57t90.5 -22.5q99 -4 173 53.5t112 154.5l409 -73q-49 -204 -214.5 -331
t-383.5 -155l-70 -324l-279 1l81 323q-89 17 -162 59t-121.5 100.5t-83.5 131.5t-49 152.5t-18 164.5t10 166q21 151 79 283.5t148 238.5t218 174.5t279 85.5l59 270l279 -1l-71 -273q94 -20 170.5 -67.5t129 -116.5t87 -150.5t52.5 -176.5z" />
    <glyph glyph-name="sterling" unicode="&#xa3;" horiz-adv-x="1816" 
d="M1288 820h-407l-28 -191q-11 -82 -42 -139.5t-93 -112.5l833 7l-72 -384h-1433l75 384l116 -5q72 22 104.5 77.5t49.5 144.5l46 218l-226 1l70 360h215l46 295q38 280 228 443.5t474 157.5q273 -5 413 -161t134 -429l-426 1q3 47 -1.5 83t-19.5 67.5t-47 49t-80 19.5
q-93 4 -151 -63.5t-76 -167.5l-55 -294l420 -1z" />
    <glyph glyph-name="currency" unicode="&#xa4;" horiz-adv-x="2070" 
d="M258 830q46 310 255 512l-160 215l212 184l144 -201q242 159 492 156q122 -2 235.5 -42.5t197.5 -118.5l241 204l174 -216l-247 -191q73 -277 43 -490q-44 -294 -238 -493l157 -202l-216 -184l-128 184q-256 -179 -515 -175q-126 2 -244.5 46.5t-206.5 128.5l-215 -183
l-170 217l225 173q-67 270 -36 476zM509 826q-14 -86 -10.5 -169t34.5 -157.5t79 -131.5t123.5 -91.5t168.5 -37.5q124 -3 242 46.5t208 134t153.5 195.5t86.5 230q16 70 12 140.5t-19 135t-49.5 120.5t-81 97.5t-112 67t-142.5 27.5q-125 3 -244 -45.5t-209 -133
t-153.5 -196t-86.5 -232.5z" />
    <glyph glyph-name="yen" unicode="&#xa5;" horiz-adv-x="1556" 
d="M1353 668l-46 -260h-376l-77 -408h-457l95 407l-411 1l46 260l408 1l39 134l-411 1l46 260h342l-225 983l454 1l113 -726l416 726h483l-637 -982l281 -2l-47 -260l-373 -1l-39 -134z" />
    <glyph glyph-name="brokenbar" unicode="&#xa6;" horiz-adv-x="944" 
d="M957 2048l-192 -956h-406l192 956h406zM246 576h406l-193 -960h-405z" />
    <glyph glyph-name="section" unicode="&#xa7;" horiz-adv-x="1606" 
d="M1536 1533l-388 1q5 152 -143 156q-75 2 -137 -33.5t-79 -103.5q-26 -101 110 -172l321 -170q133 -75 200 -191t45 -262q-17 -108 -92 -178.5t-185 -90.5l-27 -17q110 -172 93 -363q-11 -123 -68.5 -224t-146 -166t-200 -99t-233.5 -32q-253 4 -393.5 155t-136.5 403h388
q-4 -88 41.5 -131.5t134.5 -40.5q77 2 142 36t83 101q25 98 -106 172l-321 166q-133 73 -199 192t-45 267q16 113 93 180t194 83l12 25q-104 182 -89 359q11 118 67 218.5t142.5 167t196 102.5t226.5 33q157 -3 271.5 -74.5t172 -192t56.5 -276.5zM1084 729q43 89 -82 159
l-269 136q-49 20 -94.5 -8.5t-69.5 -80.5q-43 -91 82 -158l274 -137q48 -17 92 11t67 78z" />
    <glyph glyph-name="dieresis" unicode="&#xa8;" horiz-adv-x="1304" 
d="M586 1711q-77 -1 -134 48.5t-61 125.5q-4 81 50 136t135 56q78 1 133 -50t59 -129t-49.5 -132t-132.5 -55zM1141 1711q-77 -1 -134.5 48.5t-61.5 125.5q-4 81 50.5 136t135.5 56q78 1 133 -50t59 -129t-49.5 -132t-132.5 -55z" />
    <glyph glyph-name="copyright" unicode="&#xa9;" horiz-adv-x="2326" 
d="M251 998q21 161 86 315.5t168 284.5t232.5 228.5t288 153t324.5 52.5q161 -2 300 -59t237.5 -156t164.5 -227.5t89.5 -277.5t4.5 -302q-26 -203 -122 -392t-239.5 -333t-337.5 -230t-402 -83q-101 1 -195 25t-171 66t-145 101.5t-117.5 131.5t-88.5 154.5t-58.5 172.5
t-26 184.5t7.5 190.5zM416 997q-13 -90 -12.5 -178t22.5 -171.5t56 -158t88.5 -137.5t121 -108.5t152.5 -72t182 -27.5q175 -3 340 68.5t289 192t210 278.5t115 328q20 104 11 206.5t-36 196.5t-81.5 174.5t-125.5 140.5t-168.5 94.5t-209.5 36.5q-140 2 -274.5 -43.5
t-245.5 -127.5t-201.5 -191t-150 -238t-82.5 -263zM1377 820l205 3q-6 -208 -137.5 -324t-342.5 -111q-86 2 -157 32t-119.5 80.5t-80 117.5t-42.5 144t-2 158l22 164q15 109 56.5 204.5t106.5 170.5t160.5 117.5t208.5 40.5q200 -4 307.5 -119.5t105.5 -315.5l-211 1
q8 118 -35 182.5t-156 68.5q-72 2 -131 -27.5t-98 -81t-64 -112t-36 -129.5l-25 -165q-7 -48 -7.5 -91.5t8.5 -90.5t28.5 -81.5t57.5 -58t91 -25.5q124 -7 197 59t90 189z" />
    <glyph glyph-name="ordfeminine" unicode="&#xaa;" horiz-adv-x="1304" 
d="M925 963q-3 55 1 104q-120 -116 -281 -115q-139 2 -222.5 83.5t-80.5 219.5q2 77 33 136t79 94.5t114 57.5t130 30t136 7l148 -2l22 78q9 44 7 81.5t-28 63.5t-74 28q-79 4 -136.5 -31t-72.5 -107l-236 15q2 84 41 149.5t102 103.5t138 57t156 17q170 -5 265 -108.5
t76 -272.5l-83 -432q-32 -150 -9 -258zM689 1147q93 -2 227 87l55 185l-113 3q-44 0 -86.5 -9t-82 -27t-68.5 -51t-40 -77q-13 -56 18 -83t90 -28z" />
    <glyph glyph-name="guillemotleft" unicode="&#xab;" horiz-adv-x="1558" 
d="M1295 161l-258 -1l-267 533l1 33l460 534l303 -1l-455 -568zM756 161l-259 -1l-266 532l2 34l459 534l303 -1l-456 -568z" />
    <glyph glyph-name="logicalnot" unicode="&#xac;" horiz-adv-x="1559" 
d="M1422 1108l-115 -592l-280 1l85 354l-853 1l40 236h1123z" />
    <glyph glyph-name="softhyphen" unicode="&#xad;" horiz-adv-x="1302" 
d="M1212 1028l-60 -328h-1001l60 328h1001z" />
    <glyph glyph-name="registered" unicode="&#xae;" horiz-adv-x="2327" 
d="M251 998q21 161 86 315.5t168.5 284.5t233 228.5t288 153t324.5 52.5q161 -2 300 -59t237.5 -156t164.5 -227.5t89.5 -277.5t4.5 -302q-26 -203 -122 -392t-239.5 -333t-337.5 -230t-402 -83q-101 1 -195 25t-171 66t-145 101t-117.5 131t-88.5 155t-58.5 172.5
t-26.5 184.5t7 191zM417 997q-13 -90 -12.5 -178t22.5 -171.5t56 -158t88.5 -137.5t121 -108.5t152.5 -72t182 -27.5q175 -3 340 68.5t289 191.5t210 278.5t115 327.5q26 157 -2.5 307.5t-103.5 270.5t-206.5 194.5t-297.5 77.5q-140 2 -274.5 -43.5t-245.5 -127.5
t-201.5 -191t-150 -238t-82.5 -263zM1224 898l-231 2l-81 -464h-205l203 1168l348 -1q84 -2 156.5 -24t129 -64.5t87 -111t26.5 -156.5q-3 -86 -52 -143t-137 -103q108 -97 88 -293l-10 -76q-10 -78 1 -173l-1 -26h-200q-20 71 -2 200l11 77q13 90 -15.5 137t-115.5 51z
M1084 1420l-65 -335l153 -3q62 1 118.5 15.5t105 54t61.5 99.5q20 95 -29 130.5t-151 38.5h-193z" />
    <glyph glyph-name="macron" unicode="&#xaf;" horiz-adv-x="1558" 
d="M1462 2004l-41 -236h-926l41 236h926z" />
    <glyph glyph-name="degree" unicode="&#xb0;" horiz-adv-x="1047" 
d="M680 1227q-162 5 -266.5 125t-95.5 282q6 116 70.5 218.5t169.5 163t222 57.5q107 -3 190 -64t124 -155.5t35 -199.5q-11 -177 -141.5 -304.5t-307.5 -122.5zM681 1471q75 -2 135 53.5t74 130.5q12 64 -18.5 114.5t-94.5 51.5q-75 2 -137 -55t-76 -133q-12 -62 21 -111.5
t96 -50.5z" />
    <glyph glyph-name="plusminus" unicode="&#xb1;" horiz-adv-x="1559" 
d="M1497 1280l-61 -352h-450l-73 -416h-345l78 415l-459 1l62 352h453l81 464h345l-86 -463zM1332 352l-61 -352h-1237l62 352h1236z" />
    <glyph glyph-name="twosuperior" unicode="&#xb2;" horiz-adv-x="1303" 
d="M1298 1156l-41 -240l-842 -1l39 223l432 331l77 63t64 68t49 86q13 44 -6.5 70t-65.5 27q-63 1 -104 -41t-53 -106l-296 -3q3 116 64.5 206t159.5 136t214 44q82 -2 152 -22.5t126 -60t86 -105.5t26 -151q-2 -37 -10.5 -71.5t-27 -66t-35.5 -57t-48 -54l-51.5 -46.5
t-59.5 -44.5l-58 -39l-60 -38.5q-13 -8 -19 -12l-163 -93z" />
    <glyph glyph-name="threesuperior" unicode="&#xb3;" horiz-adv-x="1303" 
d="M661 1372l43 196l95 -1q67 2 117 32t66 90q12 44 -15 65.5t-75 23.5q-108 2 -139 -74l-303 -2q2 83 39.5 146.5t99.5 100t135 54t154 15.5q75 -2 143.5 -19t129.5 -51t96.5 -94.5t33.5 -140.5q-1 -51 -20 -91t-54 -69t-71.5 -48t-87.5 -38q76 -29 114 -92t37 -147
q-1 -71 -32 -129t-80 -95t-112.5 -62t-128.5 -35t-129 -8q-111 3 -198.5 42t-142 119.5t-57.5 191.5l289 -2q1 -53 35.5 -78.5t92.5 -25.5q62 -1 114.5 30.5t67.5 88.5q14 56 -16 79.5t-90 26.5z" />
    <glyph glyph-name="acute" unicode="&#xb4;" horiz-adv-x="1049" 
d="M320 1680l339 432l490 -1l-444 -431h-385z" />
    <glyph glyph-name="mu" unicode="&#xb5;" horiz-adv-x="1657" 
d="M1060 692l167 844h440l-313 -1536h-406l24 82q-125 -116 -294 -111q-121 3 -207 82l-139 -625h-440l431 2108h440l-173 -853l-8 -60.5t-5.5 -63.5t0.5 -66.5t12 -58.5t25.5 -51t44 -33.5t65.5 -15.5q60 -3 111 17t87 54t64.5 82.5t45.5 98.5t28 106z" />
    <glyph glyph-name="paragraph" unicode="&#xb6;" horiz-adv-x="1303" 
d="M1051 0h-312l156 715l-84 1q-282 6 -434.5 181.5t-118.5 455.5q24 198 129.5 346.5t268.5 227t362 78.5l443 -1z" />
    <glyph glyph-name="periodcentered" unicode="&#xb7;" horiz-adv-x="790" 
d="M446 694q-97 1 -163 73.5t-68 171.5q-2 105 71 182.5t178 76.5q96 -1 163 -72t69 -168q2 -107 -71 -186t-179 -78z" />
    <glyph glyph-name="cedilla" unicode="&#xb8;" horiz-adv-x="1047" 
d="M137 16l332 3l-36 -99q78 -11 120 -74t41 -145q0 -82 -35.5 -145.5t-89 -101t-128.5 -61.5t-143 -33.5t-144 -11.5l16 262q59 2 102.5 29.5t57.5 82.5q6 13 3.5 24l-4.5 19.5t-10.5 15t-15.5 11t-19 7.5t-21.5 5t-23 3t-22.5 1.5t-21.5 1t-19.5 1.5z" />
    <glyph glyph-name="onesuperior" unicode="&#xb9;" horiz-adv-x="1048" 
d="M1049 1998l-205 -1082h-297l161 726l-259 -48l44 243l521 160z" />
    <glyph glyph-name="ordmasculine" unicode="&#xba;" horiz-adv-x="1304" 
d="M347 1436l14 103q31 218 174.5 358.5t358.5 135.5q135 -4 231 -72t136.5 -178t25.5 -243l-15 -104q-30 -216 -172 -355t-356 -134q-202 6 -311.5 146t-85.5 343zM599 1540l-18 -106q-10 -48 -6 -97.5t18 -90t51.5 -67t94.5 -29.5q80 -4 144.5 37.5t100.5 105.5t51 143
l18 105q10 47 6.5 97.5t-16.5 92t-50 69t-94 30.5q-61 3 -114 -20.5t-89.5 -65.5t-61 -94t-35.5 -110z" />
    <glyph glyph-name="guillemotright" unicode="&#xbb;" horiz-adv-x="1559" 
d="M141 161l450 566l-210 528l253 1l271 -534l-1 -28l-464 -534zM685 161l449 567l-210 527l253 1l271 -534l-1 -29l-464 -533z" />
    <glyph glyph-name="onequarter" unicode="&#xbc;" horiz-adv-x="2071" 
d="M929 1994l-205 -1082h-297l161 726l-259 -48l44 243l521 160zM1754 1711l-1254 -1543l-203 121l1255 1543zM1859 460l-49 -244h-116l-30 -216h-307l58 215l-455 -1l17 224l591 646h311l-136 -623zM1260 462l199 -3l69 271l-28 -36z" />
    <glyph glyph-name="onehalf" unicode="&#xbd;" horiz-adv-x="2328" 
d="M1036 2006l-205 -1082h-296l160 726l-259 -48l44 243l521 160zM1832 1711l-1254 -1543l-203 121l1255 1543zM2079 240l-41 -240h-843l39 222l433 331q42 34 57 47l50.5 46t55 63t28.5 61q13 44 -7.5 70t-66.5 27q-63 1 -104 -41t-52 -106l-296 -3q4 175 131 282t305 104
q82 -2 153 -22.5t127 -60t86.5 -106t25.5 -151.5q-8 -161 -177 -297q-52 -42 -192 -131l-163 -93z" />
    <glyph glyph-name="threequarters" unicode="&#xbe;" horiz-adv-x="2326" 
d="M739 1372l42 196l95 -1q66 2 116 32t66 90q12 44 -15 65.5t-75 23.5q-107 2 -137 -74l-304 -2q2 84 40 147.5t100 100t135 53.5t154 15q76 -2 144 -19t129.5 -51t96.5 -94.5t33 -140.5q-1 -51 -20.5 -91t-54.5 -69t-71.5 -48t-86.5 -38q76 -29 114.5 -92t36.5 -147
q-1 -88 -47.5 -155.5t-119.5 -104t-154 -54t-163 -15.5q-171 3 -282 95t-114 258l289 -2q3 -102 128 -104q62 -1 114.5 30.5t67.5 88.5q27 102 -106 106zM2079 1711l-1254 -1543l-202 121l1254 1543zM2196 460l-49 -244h-116l-31 -216h-306l58 215l-456 -1l17 224l592 646
h311l-136 -623zM1596 462l200 -3l68 271l-28 -36z" />
    <glyph glyph-name="questiondown" unicode="&#xbf;" horiz-adv-x="1559" 
d="M893 1529q98 0 165.5 -63t70.5 -161q2 -106 -69 -175t-177 -68q-96 1 -162.5 65t-68.5 160q-3 104 67 173.5t174 68.5zM608 877l366 2q-7 -91 -37 -170.5t-74.5 -138.5t-97 -113t-107 -104.5t-102 -102t-84.5 -117.5t-51 -139q-17 -89 10.5 -144t114.5 -58
q96 -4 156 61.5t78 166.5l432 3q-8 -140 -66 -253.5t-152 -187t-216.5 -111.5t-260.5 -36q-126 2 -229 38t-177 102t-109 169t-23 231q8 85 83.5 221t176.5 268t201.5 244.5t167.5 168.5z" />
    <glyph glyph-name="Agrave" unicode="&#xc0;" horiz-adv-x="2159" 
d="M1374 2536l202 -431l-334 -1l-313 430zM441 0h-507l1158 2048h484l324 -2048h-484l-45 384h-725zM1229 1472l-402 -714l500 -2l-77 715z" />
    <glyph glyph-name="Aacute" unicode="&#xc1;" horiz-adv-x="2159" 
d="M1163 2104l339 432l490 -1l-444 -431h-385zM441 0h-507l1158 2048h484l324 -2048h-484l-45 384h-725zM1229 1472l-402 -714l500 -2l-77 715z" />
    <glyph glyph-name="Acircumflex" unicode="&#xc2;" horiz-adv-x="2160" 
d="M1214 2202l-392 -11l-1 31l484 382h277l368 -384v-31l-351 11l-155 183zM441 0h-507l1158 2048h484l324 -2048h-484l-45 384h-725zM1229 1472l-402 -714l500 -2l-77 715z" />
    <glyph glyph-name="Atilde" unicode="&#xc3;" horiz-adv-x="2159" 
d="M1703 2546l236 -12q-2 -57 -16 -112.5t-42 -105t-66 -87.5t-91.5 -59.5t-114.5 -20.5q-56 1 -118 31.5l-122.5 61t-114.5 30.5q-104 0 -134 -130l-250 12q5 95 45 181.5t118.5 144.5t176.5 56q43 -1 92 -20t86 -41.5t85 -40.5t91 -18q56 0 90.5 36t48.5 94zM445 0h-507
l1158 2048h484l324 -2048h-484l-45 384h-725zM1233 1472l-402 -714l500 -2l-77 715z" />
    <glyph glyph-name="Adieresis" unicode="&#xc4;" horiz-adv-x="2159" 
d="M1134 2134q-77 -2 -134 48t-61 126q-5 82 48 137t136 57q77 1 132.5 -50t59.5 -128q4 -79 -49 -134t-132 -56zM1689 2134q-77 -2 -134.5 48t-61.5 126q-4 82 49.5 137t135.5 57q77 1 132.5 -50t59.5 -128q4 -79 -49 -134t-132 -56zM445 0h-507l1158 2048h484l324 -2048
h-484l-45 384h-725zM1233 1472l-402 -714l500 -2l-77 715z" />
    <glyph glyph-name="Aring" unicode="&#xc5;" horiz-adv-x="2159" 
d="M1132 2366q-1 126 93.5 209.5t221.5 81.5q117 -2 199 -79t83 -192q0 -84 -44.5 -150t-116.5 -100.5t-154 -32.5q-116 2 -198.5 75t-83.5 188zM1292 2367q-11 -56 14.5 -95.5t81.5 -40.5q65 -1 116.5 44.5t63.5 109.5q12 56 -13.5 95.5t-81.5 40.5q-65 1 -116.5 -44
t-64.5 -110zM440 0h-507l1158 2048h484l324 -2048h-484l-45 384h-725zM1228 1472l-402 -714l500 -2l-77 715z" />
    <glyph glyph-name="AE" unicode="&#xc6;" horiz-adv-x="2736" 
d="M2486 364l-68 -364h-1205l74 383l-570 1l-253 -384h-529l1426 2048h1392l-68 -364h-758l-90 -479l633 -1l-67 -360h-618l-90 -479zM942 758l399 -2l134 784z" />
    <glyph glyph-name="Ccedilla" unicode="&#xc7;" horiz-adv-x="1975" 
d="M1990 1399l-444 -62q-59 312 -319 323q-104 4 -193 -33.5t-151.5 -101t-111 -151t-76.5 -177t-44 -185.5q-10 -59 -15.5 -110.5t-7 -116.5t5.5 -117.5t26 -105.5t51 -89t84 -60t121 -26q152 -6 273 78t179 229l436 -61q-48 -174 -166 -315.5t-277.5 -227.5t-338.5 -110
l-22 -60q78 -11 120 -74t41 -145q0 -82 -35.5 -145.5t-89 -101t-128.5 -61.5t-143 -33.5t-144 -11.5l16 262q59 2 102.5 29.5t57.5 82.5q6 13 3.5 24l-4.5 19.5t-10.5 15t-15.5 11t-19 7.5t-21.5 5t-23 3t-22.5 1.5t-21.5 1t-19.5 1.5l55 184q-106 26 -193.5 81.5
t-147 130.5t-102 169.5t-59.5 198t-20 215.5t17 223q22 138 68 269t113.5 251t160 219.5t201 172.5t243 113t280.5 38q123 -1 228.5 -35.5t185 -94t143 -145t105.5 -185t69 -217.5z" />
    <glyph glyph-name="Egrave" unicode="&#xc8;" horiz-adv-x="1649" 
d="M1138 2536l202 -431l-334 -1l-313 430zM1415 384l-72 -384h-1337l418 2048h1336l-72 -384h-883l-103 -447l750 -1l-73 -384h-746l-104 -447z" />
    <glyph glyph-name="Eacute" unicode="&#xc9;" horiz-adv-x="1649" 
d="M927 2104l339 432l490 -1l-444 -431h-385zM1415 384l-72 -384h-1337l418 2048h1336l-72 -384h-883l-103 -447l750 -1l-73 -384h-746l-104 -447z" />
    <glyph glyph-name="Ecircumflex" unicode="&#xca;" horiz-adv-x="1649" 
d="M978 2202l-392 -11l-1 31l484 382h277l368 -384v-31l-351 11l-155 183zM1415 384l-72 -384h-1337l418 2048h1336l-72 -384h-883l-103 -447l750 -1l-73 -384h-746l-104 -447z" />
    <glyph glyph-name="Edieresis" unicode="&#xcb;" horiz-adv-x="1648" 
d="M902 2139q-77 -1 -134.5 48.5t-61.5 125.5q-4 81 50.5 136t135.5 56q78 1 133 -50t59 -129t-49.5 -132t-132.5 -55zM1457 2139q-78 -1 -135 48.5t-61 125.5q-4 81 50.5 136t135.5 56q78 1 133 -50t59 -129t-49.5 -132t-132.5 -55zM1415 384l-72 -384h-1337l418 2048h1336
l-72 -384h-883l-103 -447l750 -1l-73 -384h-746l-104 -447z" />
    <glyph glyph-name="Igrave" unicode="&#xcc;" horiz-adv-x="744" 
d="M666 2536l202 -431l-334 -1l-313 430zM884 2048l-418 -2048h-460l418 2048h460z" />
    <glyph glyph-name="Iacute" unicode="&#xcd;" horiz-adv-x="744" 
d="M455 2104l339 432l490 -1l-444 -431h-385zM884 2048l-418 -2048h-460l418 2048h460z" />
    <glyph glyph-name="Icircumflex" unicode="&#xce;" horiz-adv-x="745" 
d="M506 2202l-392 -11l-1 31l484 382h277l368 -384v-31l-351 11l-155 183zM884 2048l-418 -2048h-460l418 2048h460z" />
    <glyph glyph-name="Idieresis" unicode="&#xcf;" horiz-adv-x="1112" 
d="M625 2134q-78 -2 -135 48t-61 127q-4 81 49 136t135 57q78 1 133.5 -50t59.5 -128q4 -79 -49 -134t-132 -56zM1180 2134q-78 -2 -135 48t-61 127q-4 81 49 136t135 57q78 1 133.5 -50t59.5 -128q4 -79 -49 -134t-132 -56zM1066 2048l-419 -2048h-459l418 2048h460z" />
    <glyph glyph-name="Eth" unicode="&#xd0;" horiz-adv-x="1981" 
d="M770 0h-734l179 876h-77l46 264h85l185 908h681q126 -2 234.5 -30t192 -79t150 -122t108 -158t66.5 -188.5t25 -212t-16 -229.5q-35 -221 -129.5 -409.5t-236.5 -326.5t-338 -216t-421 -77zM1154 1140l-46 -264h-442l-102 -475l210 -2q144 -1 260.5 45.5t197 133
t132.5 200.5t75 255q14 82 17.5 152.5t-3 142t-31.5 126.5t-66 99t-109.5 68t-158.5 26l-257 1l-109 -508h432z" />
    <glyph glyph-name="Ntilde" unicode="&#xd1;" horiz-adv-x="1944" 
d="M1668 2544l241 -14q-2 -56 -16.5 -111t-43 -104.5t-67 -86.5t-91.5 -58.5t-113 -20.5q-45 1 -95 20t-87 42t-86 41.5t-92 18.5q-103 0 -131 -127l-247 10q2 70 26 138t65.5 123.5t104.5 88.5t137 32q44 -1 93.5 -19.5t87 -41t86.5 -40.5t92 -18q105 0 136 127zM2048 2048
l-418 -2048h-437l-443 1262l-20 2l-264 -1264h-460l418 2048h441l439 -1262l20 -2l264 1264h460z" />
    <glyph glyph-name="Ograve" unicode="&#xd2;" horiz-adv-x="2031" 
d="M1314 2536l202 -431l-334 -1l-313 430zM1943 1027q-26 -164 -85 -318t-153.5 -289.5t-213.5 -235.5t-275 -157t-329 -55q-122 2 -225.5 34t-180.5 88t-135.5 132.5t-94.5 167.5t-54.5 193.5t-18 209.5t17.5 216q26 165 85 320.5t154.5 291.5t216 237t278 158.5
t331.5 55.5q122 -2 225 -34.5t178.5 -89.5t133.5 -135t92.5 -170t52.5 -195.5t17.5 -210t-17.5 -214.5zM1485 1028q10 59 15.5 109t7.5 116.5t-4 119t-24 107.5t-49 92t-82.5 62t-119.5 27q-104 3 -193 -34.5t-151 -101t-111 -151t-77 -177t-44 -185.5q-10 -59 -15.5 -110.5
t-6.5 -116.5t5.5 -117t26 -105t51 -89.5t83.5 -60.5t121 -26q103 -3 191 34t149 99t108.5 149t75 175t43.5 184z" />
    <glyph glyph-name="Oacute" unicode="&#xd3;" horiz-adv-x="2031" 
d="M1103 2104l339 432l490 -1l-444 -431h-385zM1943 1027q-26 -164 -85 -318t-153.5 -289.5t-213.5 -235.5t-275 -157t-329 -55q-122 2 -225.5 34t-180.5 88t-135.5 132.5t-94.5 167.5t-54.5 193.5t-18 209.5t17.5 216q26 165 85 320.5t154.5 291.5t216 237t278 158.5
t331.5 55.5q122 -2 225 -34.5t178.5 -89.5t133.5 -135t92.5 -170t52.5 -195.5t17.5 -210t-17.5 -214.5zM1485 1028q10 59 15.5 109t7.5 116.5t-4 119t-24 107.5t-49 92t-82.5 62t-119.5 27q-104 3 -193 -34.5t-151 -101t-111 -151t-77 -177t-44 -185.5q-10 -59 -15.5 -110.5
t-6.5 -116.5t5.5 -117t26 -105t51 -89.5t83.5 -60.5t121 -26q103 -3 191 34t149 99t108.5 149t75 175t43.5 184z" />
    <glyph glyph-name="Ocircumflex" unicode="&#xd4;" horiz-adv-x="2031" 
d="M1153 2202l-392 -11l-1 31l484 382h277l368 -384v-31l-351 11l-155 183zM1942 1027q-26 -164 -85 -318t-153.5 -289.5t-213.5 -235.5t-275 -157t-329 -55q-122 2 -225.5 34t-180.5 88t-135.5 132.5t-94.5 167.5t-54.5 193.5t-18 209.5t17.5 216q26 165 85 320.5
t154.5 291.5t216 237t278 158.5t331.5 55.5q122 -2 225 -34.5t178.5 -89.5t133.5 -135t92.5 -170t52.5 -195.5t17.5 -210t-17.5 -214.5zM1484 1028q10 59 15.5 109t7.5 116.5t-4 119t-24 107.5t-49 92t-82.5 62t-119.5 27q-104 3 -193 -34.5t-151 -101t-111 -151t-77 -177
t-44 -185.5q-10 -59 -15.5 -110.5t-6.5 -116.5t5.5 -117t26 -105t51 -89.5t83.5 -60.5t121 -26q103 -3 191 34t149 99t108.5 149t75 175t43.5 184z" />
    <glyph glyph-name="Otilde" unicode="&#xd5;" horiz-adv-x="2031" 
d="M1641 2545l237 -11q-2 -72 -24 -140.5t-62 -124t-103.5 -89t-139.5 -32.5q-45 1 -94.5 20.5t-86 42.5t-85 42t-91.5 19q-56 0 -89 -35.5t-45 -94.5l-250 11q4 96 43 182.5t117 144.5t177 56q44 -1 93 -20t86.5 -41t86.5 -40.5t92 -18.5q56 0 90 35.5t48 93.5zM1947 1026
q-26 -164 -85 -317.5t-153.5 -289t-213.5 -235.5t-275 -157t-329 -55q-107 1 -200 26t-165 69t-130.5 105t-98.5 135t-67 157.5t-38 174.5t-9.5 185t16.5 189q26 166 85.5 321t155 291t216 237t278 158.5t331.5 55.5q122 -2 225 -34.5t179 -89.5t133.5 -135t92.5 -170
t52.5 -195.5t17 -210t-17.5 -215.5zM1489 1028q10 59 15.5 109t7.5 116.5t-4 119t-24 107.5t-49 92t-82.5 62t-119.5 27q-104 4 -193 -33.5t-151 -101t-111 -151.5t-77 -177.5t-44 -186.5q-10 -59 -15.5 -110t-6.5 -116t5.5 -117.5t26 -105.5t51 -89t83.5 -60t121 -26
q103 -3 191 33.5t149.5 99t109 149t75 175t42.5 184.5z" />
    <glyph glyph-name="Odieresis" unicode="&#xd6;" horiz-adv-x="2031" 
d="M1072 2134q-77 -1 -134.5 48.5t-61.5 125.5q-4 82 49.5 137.5t135.5 56.5q77 1 132.5 -50t59.5 -128q4 -79 -48.5 -133.5t-132.5 -56.5zM1627 2134q-77 -1 -134.5 48.5t-61.5 125.5q-4 82 49 137.5t135 56.5q78 1 133.5 -50t59.5 -128q4 -80 -49 -134t-132 -56z
M1947 1027q-26 -164 -85 -318t-153.5 -289.5t-213.5 -235.5t-275 -157t-329 -55q-122 2 -225.5 34t-180.5 88t-135.5 132.5t-94.5 167.5t-54.5 193.5t-18 209.5t17.5 216q26 165 85 320.5t154.5 291.5t216 237t278 158.5t331.5 55.5q122 -2 225 -34.5t178.5 -89.5
t133.5 -135t92.5 -170t52.5 -195.5t17.5 -210t-17.5 -214.5zM1489 1028q10 59 15.5 109t7.5 116.5t-4 119t-24 107.5t-49 92t-82.5 62t-119.5 27q-104 4 -193 -33.5t-151 -101.5t-111 -151.5t-77 -177t-44 -185.5q-10 -59 -15.5 -110.5t-6.5 -116.5t5.5 -117t26 -105
t51 -89.5t83.5 -60.5t121 -26q103 -3 191 34t149 99t108.5 149t75 175t43.5 184z" />
    <glyph glyph-name="multiply" unicode="&#xd7;" horiz-adv-x="1560" 
d="M324 240l-222 268l481 404l-314 404l285 237l297 -399l462 398l222 -267l-483 -403l315 -406l-284 -237l-297 399z" />
    <glyph glyph-name="Oslash" unicode="&#xd8;" horiz-adv-x="2031" 
d="M282 -97l-187 153l195 200q-78 192 -99.5 371.5t10.5 385.5q27 166 86 321t153.5 291.5t214 237t277 158t332.5 55.5q266 -3 446 -142l184 207l187 -153l-210 -219q67 -190 84.5 -366t-12.5 -377q-26 -165 -85 -318.5t-152.5 -288.5t-212.5 -235t-274.5 -157t-329.5 -55
q-253 2 -432 127zM659 1015q-42 -228 -44 -365l817 937q-55 71 -198 75q-105 3 -193.5 -35t-150 -100.5t-109.5 -150.5t-76 -175.5t-46 -185.5zM1486 1026q38 205 49 338l-801 -920q55 -54 187 -58q104 -2 191.5 35.5t147.5 98.5t106.5 148t74 173.5t45.5 184.5z" />
    <glyph glyph-name="Ugrave" unicode="&#xd9;" horiz-adv-x="1944" 
d="M1266 2536l202 -431l-334 -1l-313 430zM1588 2048h460l-278 -1351q-42 -231 -173 -397.5t-324.5 -250t-429.5 -80.5q-162 2 -299 52.5t-233 141t-139.5 229t-17.5 304.5l270 1352h460l-275 -1337q-25 -144 49 -231.5t220 -92.5q160 -5 284 83.5t157 241.5z" />
    <glyph glyph-name="Uacute" unicode="&#xda;" horiz-adv-x="1944" 
d="M1055 2104l339 432l490 -1l-444 -431h-385zM1588 2048h460l-278 -1351q-42 -231 -173 -397.5t-324.5 -250t-429.5 -80.5q-162 2 -299 52.5t-233 141t-139.5 229t-17.5 304.5l270 1352h460l-275 -1337q-25 -144 49 -231.5t220 -92.5q160 -5 284 83.5t157 241.5z" />
    <glyph glyph-name="Ucircumflex" unicode="&#xdb;" horiz-adv-x="1943" 
d="M1105 2202l-392 -11l-1 31l484 382h277l368 -384v-31l-351 11l-155 183zM1587 2048h460l-278 -1351q-42 -231 -173 -397.5t-324.5 -250t-429.5 -80.5q-162 2 -299 52.5t-233 141t-139.5 229t-17.5 304.5l270 1352h460l-275 -1337q-25 -144 49 -231.5t220 -92.5
q160 -5 284 83.5t157 241.5z" />
    <glyph glyph-name="Udieresis" unicode="&#xdc;" horiz-adv-x="1944" 
d="M1030 2139q-77 -1 -134.5 48.5t-61.5 125.5q-4 81 50.5 136t135.5 56q78 1 133 -50t59 -129t-49.5 -132t-132.5 -55zM1585 2139q-78 -1 -135 48.5t-61 125.5q-4 81 50.5 136t135.5 56q78 1 133 -50t59 -129t-49.5 -132t-132.5 -55zM1588 2048h460l-278 -1351
q-42 -231 -173 -397.5t-324.5 -250t-429.5 -80.5q-162 2 -299 52.5t-233 141t-139.5 229t-17.5 304.5l270 1352h460l-275 -1337q-25 -144 49 -231.5t220 -92.5q160 -5 284 83.5t157 241.5z" />
    <glyph glyph-name="Yacute" unicode="&#xdd;" horiz-adv-x="2144" 
d="M1154 2104l339 432l490 -1l-444 -431h-385zM820 2051l304 -872l20 -1l667 870l522 -1l-1043 -1290l-147 -757h-460l173 802l-508 1245z" />
    <glyph glyph-name="Thorn" unicode="&#xde;" horiz-adv-x="1814" 
d="M427 2048h461l-86 -367l233 -2q143 -2 265 -43.5t211.5 -118t133.5 -195.5t27 -266q-18 -158 -94.5 -282.5t-192.5 -201.5t-256.5 -117t-295.5 -40l-285 1l-79 -416h-460zM1021 1323l-284 1l-123 -551l234 -3q146 0 254.5 73.5t135.5 210.5q25 122 -33.5 193t-183.5 76z
" />
    <glyph glyph-name="germandbls" unicode="&#xdf;" horiz-adv-x="1758" 
d="M738 1441l-289 -1441h-440l296 1440q51 299 241.5 470t490.5 167q117 -2 219.5 -36t179.5 -97t116.5 -162t27.5 -221q-8 -77 -46 -154.5t-83.5 -158t-62.5 -146.5q-14 -51 6 -109t57.5 -113l76 -111.5t65 -123t21.5 -127.5q-8 -106 -51.5 -196.5t-112 -154.5
t-156.5 -109.5t-185.5 -67t-198.5 -20.5q-219 3 -373 76l144 338q114 -54 250 -54q93 0 164.5 48t91.5 136q10 51 1 89t-32 78t-53 72t-61.5 70t-57.5 74t-40.5 83t-11.5 97q4 63 32.5 127t62 110.5t68 109.5t46.5 120q15 72 -23.5 114.5t-113.5 45.5q-58 3 -105 -17.5
t-78.5 -59t-52 -85t-30.5 -101.5z" />
    <glyph glyph-name="agrave" unicode="&#xe0;" horiz-adv-x="1544" 
d="M983 2112l202 -431l-335 -1l-312 430zM819 0l35 161l-11 -2q-142 -192 -380 -188q-194 4 -310.5 131.5t-103.5 321.5q7 103 51.5 186.5t111 138.5t155.5 94t178.5 58.5t187.5 26.5q5 0 37 1.5t45 3t43 5.5t46 10t36.5 16t33 25t19.5 35l8 32q12 65 -21.5 107.5
t-99.5 46.5q-81 4 -147.5 -42.5t-91.5 -123.5l-424 38q14 80 51 149.5t90 121.5t119 92t140 64.5t151.5 36.5t154.5 10q117 -2 217.5 -36.5t175 -97t110.5 -161.5t20 -221l-204 -1040h-423zM885 491l59 202q-40 -34 -155 -51q-45 -7 -79.5 -15t-74 -24t-67 -37t-49.5 -55
t-30 -77q-12 -60 19 -95t93 -38q91 -3 175.5 51t108.5 139z" />
    <glyph glyph-name="aacute" unicode="&#xe1;" horiz-adv-x="1545" 
d="M772 1680l338 432l491 -1l-444 -431h-385zM819 0l35 161l-11 -2q-142 -192 -380 -188q-194 4 -310.5 131.5t-103.5 321.5q7 103 51.5 186.5t111 138.5t155.5 94t178.5 58.5t187.5 26.5q5 0 37 1.5t45 3t43 5.5t46 10t36.5 16t33 25t19.5 35l8 32q12 65 -21.5 107.5
t-99.5 46.5q-81 4 -147.5 -42.5t-91.5 -123.5l-424 38q14 80 51 149.5t90 121.5t119 92t140 64.5t151.5 36.5t154.5 10q117 -2 217.5 -36.5t175 -97t110.5 -161.5t20 -221l-204 -1040h-423zM885 491l59 202q-40 -34 -155 -51q-45 -7 -79.5 -15t-74 -24t-67 -37t-49.5 -55
t-30 -77q-12 -60 19 -95t93 -38q91 -3 175.5 51t108.5 139z" />
    <glyph glyph-name="acircumflex" unicode="&#xe2;" horiz-adv-x="1544" 
d="M822 1778l-392 -11l-1 31l485 382h277l367 -384v-31l-350 11l-155 183zM819 0l35 161l-11 -2q-142 -192 -380 -188q-194 4 -310.5 131.5t-103.5 321.5q7 103 51.5 186.5t111 138.5t155.5 94t178.5 58.5t187.5 26.5q5 0 37 1.5t45 3t43 5.5t46 10t36.5 16t33 25t19.5 35
l8 32q12 65 -21.5 107.5t-99.5 46.5q-81 4 -147.5 -42.5t-91.5 -123.5l-424 38q14 80 51 149.5t90 121.5t119 92t140 64.5t151.5 36.5t154.5 10q117 -2 217.5 -36.5t175 -97t110.5 -161.5t20 -221l-204 -1040h-423zM885 491l59 202q-40 -34 -155 -51q-45 -7 -79.5 -15
t-74 -24t-67 -37t-49.5 -55t-30 -77q-12 -60 19 -95t93 -38q91 -3 175.5 51t108.5 139z" />
    <glyph glyph-name="atilde" unicode="&#xe3;" horiz-adv-x="1552" 
d="M1302 2126l244 -15q-4 -97 -43 -183t-116 -143.5t-177 -55.5q-45 1 -94.5 20t-86.5 42t-85.5 42t-91.5 19q-105 0 -137 -128l-246 9q4 96 43 182.5t116.5 144.5t176.5 56q55 -1 117.5 -31l124.5 -59.5t116 -29.5q108 0 139 130zM823 0l35 161l-11 -2q-143 -192 -380 -188
q-194 4 -310.5 132t-103.5 321q8 103 52 186.5t110.5 138.5t155.5 94t178.5 58.5t187.5 26.5q5 0 37 1.5t45 3t43 5.5t46 10t36.5 16t33 25t19.5 35l8 32q13 65 -20.5 107.5t-100.5 46.5q-81 4 -147.5 -42.5t-90.5 -123.5l-425 38q21 119 91 213t169.5 150t213.5 84.5
t232 26.5q117 -2 217.5 -36.5t175 -97t110.5 -161.5t20 -221l-204 -1040h-423zM889 491l59 202q-40 -34 -155 -51q-45 -7 -79.5 -15t-74 -24t-67 -37t-49.5 -55t-30 -77q-12 -60 19 -95t92 -38q91 -3 176 51t109 139z" />
    <glyph glyph-name="adieresis" unicode="&#xe4;" horiz-adv-x="1552" 
d="M755 1710q-77 -1 -134.5 48.5t-61.5 125.5q-4 82 49.5 137.5t135.5 56.5q77 1 132.5 -50t59.5 -129q4 -79 -48.5 -133t-132.5 -56zM1310 1710q-78 -1 -135 48.5t-61 125.5q-5 82 48.5 137.5t135.5 56.5q78 1 133 -50t59 -129q4 -79 -48.5 -133t-131.5 -56zM823 0l35 161
l-11 -2q-143 -192 -380 -188q-193 4 -310 131.5t-103 321.5q7 103 51.5 186.5t110.5 138.5t155 94t178.5 58.5t187.5 26.5q5 0 37 1.5t45 3t43 5.5t46 10t36.5 16t33 25t19.5 35l8 32q13 65 -20.5 108t-100.5 46q-81 4 -147.5 -42.5t-90.5 -123.5l-425 38q14 80 51 149.5
t90 121.5t119 92t140.5 64.5t151.5 36.5t154 11q93 -2 176.5 -23.5t152.5 -65t117 -103.5t69 -143.5t8 -181.5l-204 -1040h-423zM889 491l59 202q-40 -34 -155 -51q-57 -9 -99.5 -21t-87.5 -34.5t-74 -61t-40 -92.5q-12 -60 19 -95t92 -37q91 -4 176.5 50.5t109.5 139.5z
" />
    <glyph glyph-name="aring" unicode="&#xe5;" horiz-adv-x="1543" 
d="M742 1942q-1 126 93 209.5t222 81.5q116 -2 198.5 -79t83.5 -192q0 -126 -94 -205.5t-221 -77.5q-117 2 -199.5 75t-82.5 188zM901 1943q-11 -56 14.5 -95.5t81.5 -40.5q65 -1 116.5 44t64.5 110q11 56 -14.5 95.5t-81.5 40.5q-65 1 -116.5 -44t-64.5 -110zM819 0l35 161
l-11 -2q-142 -192 -380 -188q-194 4 -310.5 131.5t-103.5 321.5q7 103 51.5 186.5t111 138.5t155.5 94t178.5 58.5t187.5 26.5q5 0 37 1.5t45 3t43 5.5t46 10t36.5 16t33 25t19.5 35l8 32q12 65 -21.5 107.5t-99.5 46.5q-81 4 -147.5 -42.5t-91.5 -123.5l-424 38
q14 80 51 149.5t90 121.5t119 92t140 64.5t151.5 36.5t154.5 10q117 -2 217.5 -36.5t175 -97t110.5 -161.5t20 -221l-204 -1040h-423zM885 491l59 202q-40 -34 -155 -51q-45 -7 -79.5 -15t-74 -24t-67 -37t-49.5 -55t-30 -77q-12 -60 19 -95t93 -38q91 -3 175.5 51
t108.5 139z" />
    <glyph glyph-name="ae" unicode="&#xe6;" horiz-adv-x="2435" 
d="M228 1082q21 119 91 213t170 150t213.5 84.5t231.5 27.5q262 -4 398 -120q210 122 429 118q154 -2 271.5 -59.5t185.5 -156t94.5 -228t7.5 -278.5l-17 -144l-989 -97q-8 -113 46.5 -181.5t167.5 -72.5q106 -3 187 50t121 151l385 -105q-24 -112 -98 -203.5t-175 -147
t-215 -85t-225 -27.5q-146 2 -267 55.5t-186 166.5l-15 1q-77 -116 -207.5 -170.5t-282.5 -52.5q-104 1 -194.5 31t-159.5 85t-106 142t-30 194q7 103 51.5 187t110.5 139t155.5 94t179 58.5t187.5 26.5q5 0 37 1.5t45 3t43 5.5t46 10t36.5 16t33.5 25t20 35l7 32
q12 62 -29 99t-107 39q-82 4 -143.5 -44.5t-91.5 -129.5zM1732 1194q-72 3 -132.5 -22t-107.5 -75t-79.5 -100.5t-66.5 -119.5l569 57q30 111 -18.5 183t-164.5 77zM896 491l59 202q-40 -34 -155 -51q-58 -9 -100.5 -20.5t-87 -34t-73.5 -61t-39 -92.5q-12 -60 18.5 -95.5
t92.5 -37.5q91 -3 176 51t109 139z" />
    <glyph glyph-name="ccedilla" unicode="&#xe7;" horiz-adv-x="1579" 
d="M1532 1029l-419 -80q-9 53 -22 91.5t-36.5 74t-61.5 55.5t-90 22q-70 3 -128 -22t-97 -67t-68.5 -100.5t-45.5 -117.5t-25 -124q-57 -414 188 -422q98 -4 169.5 53.5t108.5 153.5l409 -73q-47 -199 -206.5 -329.5t-368.5 -162.5l-21 -61q77 -11 119 -74t41 -145
q0 -82 -35.5 -145.5t-89 -101t-128.5 -61.5t-143 -33.5t-144 -11.5l16 262q60 2 103 29.5t57 82.5q6 13 3.5 24l-4.5 19.5t-10.5 15t-15 11t-19 7.5l-21.5 5t-22.5 3t-23 1.5t-22 1t-19.5 1.5l56 189q-151 47 -250.5 163.5t-136.5 270t-16 327.5q15 130 59.5 249.5t117 220
t166 174t214.5 113.5t256 38q244 -4 401 -144.5t205 -382.5z" />
    <glyph glyph-name="egrave" unicode="&#xe8;" horiz-adv-x="1627" 
d="M967 2112l202 -431l-334 -1l-313 430zM736 -29q-133 2 -243 40.5t-187.5 108t-127.5 164t-67.5 209.5t-2.5 244q20 169 87 318t172.5 262t255 177.5t322.5 62.5q153 -2 273 -60t193 -156t102.5 -229t10.5 -280l-30 -192l-967 1q-14 -130 42 -214.5t184 -87.5
q104 -3 182.5 49.5t117.5 150.5l386 -106q-23 -113 -95.5 -204t-171.5 -146.5t-211.5 -84t-224.5 -27.5zM920 1193q-62 2 -115.5 -18t-95.5 -59.5t-73.5 -82.5t-62.5 -101l544 2q25 112 -28.5 183.5t-168.5 75.5z" />
    <glyph glyph-name="eacute" unicode="&#xe9;" horiz-adv-x="1627" 
d="M755 1680l339 432l490 -1l-444 -431h-385zM735 -29q-133 2 -243 40.5t-187.5 108t-127.5 164t-67.5 209.5t-2.5 244q20 169 87 318t172.5 262t255 177.5t322.5 62.5q153 -2 273 -60t193 -156t102.5 -229t10.5 -280l-30 -192l-967 1q-14 -130 42 -214.5t184 -87.5
q104 -3 182.5 49.5t117.5 150.5l386 -106q-23 -113 -95.5 -204t-171.5 -146.5t-211.5 -84t-224.5 -27.5zM919 1193q-62 2 -115.5 -18t-95.5 -59.5t-73.5 -82.5t-62.5 -101l544 2q25 112 -28.5 183.5t-168.5 75.5z" />
    <glyph glyph-name="ecircumflex" unicode="&#xea;" horiz-adv-x="1628" 
d="M807 1778l-392 -11l-2 31l485 382h277l368 -384v-31l-351 11l-155 183zM736 -29q-133 2 -243 40.5t-187.5 108t-127.5 164t-67.5 209.5t-2.5 244q20 169 87 318t172.5 262t255 177.5t322.5 62.5q153 -2 273 -60t193 -156t102.5 -229t10.5 -280l-30 -192l-967 1
q-14 -130 42 -214.5t184 -87.5q104 -3 182.5 49.5t117.5 150.5l386 -106q-23 -113 -95.5 -204t-171.5 -146.5t-211.5 -84t-224.5 -27.5zM920 1193q-62 2 -115.5 -18t-95.5 -59.5t-73.5 -82.5t-62.5 -101l544 2q25 112 -28.5 183.5t-168.5 75.5z" />
    <glyph glyph-name="edieresis" unicode="&#xeb;" horiz-adv-x="1627" 
d="M790 1710q-77 -2 -134.5 47.5t-61.5 126.5q-4 82 49.5 137.5t135.5 56.5q77 1 132.5 -50.5t59.5 -128.5q4 -79 -49 -133.5t-132 -55.5zM1345 1710q-78 -2 -135 47.5t-61 126.5q-5 82 48.5 137.5t135.5 56.5q77 1 132.5 -50.5t59.5 -128.5q4 -79 -48.5 -133.5
t-131.5 -55.5zM726 -29q-165 3 -292.5 63t-203 162.5t-105 241.5t-6.5 299q23 169 94 318.5t179 262.5t260 177.5t326 61.5q154 -3 272 -61t186.5 -156t94.5 -228.5t5 -278.5l-28 -193l-973 2q-11 -60 -2.5 -114t31.5 -95.5t70 -67t112 -27.5q105 -3 186 50t121 151
l385 -105q-25 -114 -98.5 -205.5t-174 -146.5t-213.5 -84t-226 -27zM948 1193q-51 2 -97.5 -12t-82 -37t-70 -59.5t-60 -72t-51.5 -81.5l544 3q31 111 -18 183t-165 76z" />
    <glyph glyph-name="igrave" unicode="&#xec;" horiz-adv-x="772" 
d="M587 2080l202 -431l-334 -1l-313 430zM788 1536l-312 -1536h-456l312 1536h456z" />
    <glyph glyph-name="iacute" unicode="&#xed;" horiz-adv-x="772" 
d="M376 1648l339 432l490 -1l-444 -431h-385zM788 1536l-312 -1536h-456l312 1536h456z" />
    <glyph glyph-name="icircumflex" unicode="&#xee;" horiz-adv-x="772" 
d="M427 1746l-392 -11l-2 31l485 382h277l367 -384l1 -31l-351 11l-155 183zM788 1536l-312 -1536h-456l312 1536h456z" />
    <glyph glyph-name="idieresis" unicode="&#xef;" horiz-adv-x="888" 
d="M428 1710q-77 -2 -134 48t-61 127q-5 81 48.5 136t135.5 57q77 1 132.5 -50t59.5 -128q4 -80 -48.5 -134.5t-132.5 -55.5zM983 1710q-77 -2 -134.5 48t-61.5 127q-4 81 49.5 136t135.5 57q77 1 132.5 -50t59.5 -128q4 -80 -49 -134.5t-132 -55.5zM855 1536l-312 -1536
h-456l312 1536h456z" />
    <glyph glyph-name="eth" unicode="&#xf0;" horiz-adv-x="1527" 
d="M643 -33q-100 2 -185 31.5t-145.5 79.5t-106.5 118t-69 148t-31.5 169.5t6.5 181.5q12 94 41.5 187.5t79 183t112.5 162t149 124.5t182 70q93 17 182 -3t146 -84l34 -1q-26 122 -121 263l-369 -182l-93 246l268 119q-11 12 -25 24l-23.5 19.5t-29.5 21t-25.5 16.5
t-30.5 19t-27 17l228 279q161 -95 274 -215l281 136l90 -247l-195 -81q129 -272 177.5 -508.5t7.5 -501.5q-20 -127 -61.5 -242t-109.5 -217.5t-155.5 -177t-204.5 -116.5t-251 -39zM688 322q63 -3 117 20t90.5 61.5t64.5 93t43.5 108.5t24.5 112q5 35 8 64t4 67.5t-2.5 69
t-14.5 62t-29 53t-48 36t-69 16.5q-63 3 -116.5 -19t-90 -59.5t-64.5 -90t-44 -106t-25 -112.5q-5 -35 -8 -64t-4 -68.5t2.5 -70.5t14.5 -63.5t29 -55t47.5 -37.5t69.5 -17z" />
    <glyph glyph-name="ntilde" unicode="&#xf1;" horiz-adv-x="1647" 
d="M1348 2126l244 -15q-4 -97 -42.5 -183t-115.5 -143.5t-177 -55.5q-45 1 -94.5 20t-86.5 42t-85.5 42t-91.5 19q-106 0 -137 -128l-247 9q4 96 43.5 182.5t117 144.5t176.5 56q44 -1 93 -20t86.5 -41t86.5 -40.5t92 -18.5q107 0 138 130zM626 816l-160 -816h-456l313 1536
l420 1l-49 -169l6 1q84 93 193.5 141t234.5 46q81 -1 148.5 -25.5t114 -66t80.5 -98t49 -122t20.5 -138t-6.5 -146.5l-187 -960h-456l193 946q9 43 4.5 86.5t-18 78.5t-47.5 58t-84 26q-59 3 -108.5 -20t-82 -60t-58 -91.5t-39.5 -103t-25 -104.5z" />
    <glyph glyph-name="ograve" unicode="&#xf2;" horiz-adv-x="1631" 
d="M951 2112l202 -431l-334 -1l-313 430zM706 -28q-130 2 -236.5 46t-178.5 118.5t-117.5 174t-59.5 214t0 237.5q19 163 84.5 307.5t167.5 254t247.5 172.5t312.5 60q161 -3 285.5 -68t196.5 -173.5t101 -247.5t11 -293q-19 -163 -84.5 -308.5t-168 -256.5t-248 -175.5
t-313.5 -61.5zM729 339q70 -3 128 23t97.5 68.5t69 102t45.5 118.5t25 124q5 40 8 74.5t2.5 78t-6.5 78.5t-20 70.5t-36 59.5t-57 39.5t-81 17.5q-70 3 -128 -22.5t-97 -67.5t-68.5 -100.5t-46 -117.5t-24.5 -124q-56 -413 189 -422z" />
    <glyph glyph-name="oacute" unicode="&#xf3;" horiz-adv-x="1632" 
d="M740 1680l339 432l490 -1l-444 -431h-385zM706 -28q-130 2 -236.5 46t-178.5 118.5t-117.5 174t-59.5 214t0 237.5q19 163 84.5 307.5t167.5 254t247.5 172.5t312.5 60q161 -3 285.5 -68t196.5 -173.5t101 -247.5t11 -293q-19 -163 -84.5 -308.5t-168 -256.5t-248 -175.5
t-313.5 -61.5zM729 339q70 -3 128 23t97.5 68.5t69 102t45.5 118.5t25 124q5 40 8 74.5t2.5 78t-6.5 78.5t-20 70.5t-36 59.5t-57 39.5t-81 17.5q-70 3 -128 -22.5t-97 -67.5t-68.5 -100.5t-46 -117.5t-24.5 -124q-56 -413 189 -422z" />
    <glyph glyph-name="ocircumflex" unicode="&#xf4;" horiz-adv-x="1632" 
d="M791 1778l-392 -11l-2 31l485 382h277l368 -384v-31l-351 11l-155 183zM706 -28q-130 2 -236.5 46t-178.5 118.5t-117.5 174t-59.5 214t0 237.5q19 163 84.5 307.5t167.5 254t247.5 172.5t312.5 60q161 -3 285.5 -68t196.5 -173.5t101 -247.5t11 -293
q-19 -163 -84.5 -308.5t-168 -256.5t-248 -175.5t-313.5 -61.5zM729 339q70 -3 128 23t97.5 68.5t69 102t45.5 118.5t25 124q5 40 8 74.5t2.5 78t-6.5 78.5t-20 70.5t-36 59.5t-57 39.5t-81 17.5q-70 3 -128 -22.5t-97 -67.5t-68.5 -100.5t-46 -117.5t-24.5 -124
q-56 -413 189 -422z" />
    <glyph glyph-name="otilde" unicode="&#xf5;" horiz-adv-x="1630" 
d="M1359 2126l244 -15q-4 -97 -43 -183t-116 -143.5t-177 -55.5q-45 1 -94.5 20t-86 42t-85 42t-91.5 19q-106 0 -135 -130l-249 11q3 71 27 139t65.5 123.5t105.5 89t139 31.5q44 -1 93 -20t86.5 -41t86.5 -40.5t92 -18.5q107 0 138 130zM693 -28q-94 2 -175 25t-143 64
t-111.5 98t-80.5 125t-50 146t-19.5 161t9.5 170q23 164 92 309t173.5 254.5t252 172t316.5 59.5q108 -2 200 -32.5t157.5 -83.5t115.5 -126t74 -159t32.5 -182.5t-7.5 -197.5q-18 -130 -65.5 -250.5t-122.5 -222t-171 -176.5t-219 -116t-258 -38zM721 338q87 -4 157 34
t114 105.5t70.5 141.5t39.5 157q7 48 11 86.5t4.5 89.5t-10 89.5t-30 74t-57 55.5t-90.5 22q-70 3 -130 -21.5t-100.5 -67t-72.5 -101.5t-50 -118.5t-28 -124.5q-6 -40 -10 -73.5t-5 -77.5t3 -79t16.5 -71.5t33 -61t54.5 -41t80 -18.5z" />
    <glyph glyph-name="odieresis" unicode="&#xf6;" horiz-adv-x="1630" 
d="M789 1710q-77 -1 -134.5 48.5t-61.5 125.5q-4 82 49.5 137.5t135.5 56.5q77 1 132.5 -50t59.5 -128q4 -79 -48.5 -133.5t-132.5 -56.5zM1344 1710q-77 -1 -134.5 48.5t-61.5 125.5q-4 82 49.5 137.5t135.5 56.5q77 1 132.5 -50t59.5 -128q4 -79 -48.5 -133.5
t-132.5 -56.5zM693 -28q-94 2 -175 25t-142.5 64t-111.5 98t-80.5 125t-50 146t-20 161t9.5 170q23 164 92 309t173.5 254.5t252 172t316.5 59.5q108 -2 200 -32.5t157.5 -83.5t115.5 -126t74 -159t32.5 -182.5t-8.5 -197.5q-18 -130 -65 -250.5t-122 -222t-171 -176.5
t-219 -116t-258 -38zM721 338q71 -3 130.5 22.5t100.5 68t72.5 102.5t49.5 120t28 125q7 48 11 86.5t4.5 89.5t-10 89.5t-30 74t-57 56t-90.5 22.5q-70 3 -130 -22t-100.5 -67.5t-72.5 -101.5t-50 -118.5t-28 -124.5q-6 -40 -10 -73.5t-5 -77.5t3 -79t16.5 -71.5t33 -61
t54.5 -41t80 -18.5z" />
    <glyph glyph-name="divide" unicode="&#xf7;" horiz-adv-x="1559" 
d="M691 1440q-2 104 69 171t176 66q99 -1 166.5 -62t69.5 -158q3 -104 -68 -170t-176 -65q-98 1 -166 61t-71 157zM1475 1072l-65 -352h-1250l65 352h1250zM461 328q-3 104 68.5 171t176.5 66q98 -1 165.5 -62t70.5 -158q3 -104 -68 -170t-177 -65q-98 1 -165.5 61
t-70.5 157z" />
    <glyph glyph-name="oslash" unicode="&#xf8;" horiz-adv-x="1632" 
d="M241 -97l-186 153l143 143q-115 277 -73 561q24 165 92.5 309.5t173 254.5t251.5 172.5t316 60.5q181 -2 317 -76l128 140l186 -154l-135 -133q114 -275 74 -559q-23 -165 -92 -310.5t-173.5 -257t-252.5 -175.5t-317 -61q-181 2 -321 80zM546 764q-20 -91 -36 -187
l525 597q-33 20 -99 22q-71 2 -131 -23t-100.5 -66t-73 -100.5t-52 -117.5t-33.5 -125zM716 336q72 -2 132 23.5t101 67t73.5 102t51.5 118t34 125.5q26 124 35 187l-527 -599q36 -22 100 -24z" />
    <glyph glyph-name="ugrave" unicode="&#xf9;" horiz-adv-x="1649" 
d="M1007 2112l202 -431l-335 -1l-312 430zM1039 720l160 816h456l-313 -1536h-420l49 168l-6 -1q-84 -94 -194 -143.5t-234 -46.5q-81 2 -148.5 26.5t-114 66.5t-81 98.5t-50 122.5t-20.5 138.5t7 146.5l188 960h456l-193 -946q-7 -61 -1 -114.5t44 -91.5t103 -42
q59 -3 108.5 20t82 60t58 91t39.5 102.5t24 104.5z" />
    <glyph glyph-name="uacute" unicode="&#xfa;" horiz-adv-x="1649" 
d="M796 1680l338 432l491 -1l-444 -431h-385zM1039 720l160 816h456l-313 -1536h-420l49 168l-6 -1q-84 -94 -194 -143.5t-234 -46.5q-81 2 -148.5 26.5t-114 66.5t-81 98.5t-50 122.5t-20.5 138.5t7 146.5l188 960h456l-193 -946q-7 -61 -1 -114.5t44 -91.5t103 -42
q59 -3 108.5 20t82 60t58 91t39.5 102.5t24 104.5z" />
    <glyph glyph-name="ucircumflex" unicode="&#xfb;" horiz-adv-x="1649" 
d="M846 1778l-392 -11l-1 31l485 382h277l367 -384v-31l-350 11l-155 183zM1039 720l160 816h456l-313 -1536h-420l49 168l-6 -1q-84 -94 -194 -143.5t-234 -46.5q-81 2 -148.5 26.5t-114 66.5t-81 98.5t-50 122.5t-20.5 138.5t7 146.5l188 960h456l-193 -946
q-7 -61 -1 -114.5t44 -91.5t103 -42q59 -3 108.5 20t82 60t58 91t39.5 102.5t24 104.5z" />
    <glyph glyph-name="udieresis" unicode="&#xfc;" horiz-adv-x="1649" 
d="M798 1711q-77 -2 -134 47.5t-62 125.5q-4 82 49 137t135 56q77 1 132 -49.5t60 -127.5q4 -79 -48.5 -133.5t-131.5 -55.5zM1353 1711q-77 -2 -134.5 47.5t-61.5 125.5q-4 82 49 137t135 56q77 1 132 -49.5t60 -127.5q4 -79 -48.5 -133.5t-131.5 -55.5zM1043 720l160 816
h456l-313 -1536h-420l49 168l-6 -1q-171 -192 -428 -186q-120 2 -208.5 53.5t-135 136t-62.5 188t-1 217.5l188 960h456l-193 -946q-9 -44 -4.5 -87t18.5 -77.5t47.5 -57t83.5 -25.5q59 -3 108.5 20t82 60t58 90.5t40 102t24.5 104.5z" />
    <glyph glyph-name="yacute" unicode="&#xfd;" horiz-adv-x="1661" 
d="M788 1680l338 432l491 -1l-444 -431h-385zM438 -27l30 49l-233 1513l456 1l93 -915l17 -1l481 916l480 -1l-986 -1755q-95 -178 -244 -281t-341 -102q-102 1 -243 47l144 351q53 -17 97 -17.5t77 12t64.5 41.5t54.5 61t53 81z" />
    <glyph glyph-name="thorn" unicode="&#xfe;" horiz-adv-x="1644" 
d="M428 2048h456l-155 -680l7 1q58 96 151 143.5t209 44.5q86 -2 157 -29t120 -72t85.5 -106.5t56.5 -130.5t29.5 -146t8 -150.5t-11.5 -146.5q-16 -115 -51 -226.5t-95.5 -218t-138.5 -186t-187 -126t-233 -43.5q-109 3 -196 47.5t-117 136.5l-19 1l-157 -737h-456z
M1119 777q63 406 -181 416q-69 3 -127 -22.5t-97.5 -68t-70 -102t-47.5 -118t-27 -122.5q-7 -40 -11 -71.5t-6 -77t1.5 -79.5t14.5 -71.5t30.5 -62t53 -41.5t78.5 -19q70 -3 130.5 22t102.5 68t74.5 102.5t52 120.5t29.5 126z" />
    <glyph glyph-name="ydieresis" unicode="&#xff;" horiz-adv-x="1559" 
d="M754 1710q-77 -1 -134 48.5t-61 125.5q-5 82 48.5 137t135.5 57q77 1 132.5 -50.5t59.5 -128.5q4 -79 -49 -133t-132 -56zM1309 1710q-77 -1 -134 48.5t-61 125.5q-5 82 48.5 137t135.5 57q77 1 132 -50.5t59 -128.5q4 -79 -48.5 -133t-131.5 -56zM442 -28l30 50
l-234 1513l456 1l93 -915l17 -1l481 916l479 -1l-985 -1756q-95 -178 -243.5 -281t-340.5 -100q-104 1 -243 47l143 350q53 -18 97.5 -18.5t77.5 11.5t64.5 41t55 61t52.5 82z" />
    <glyph glyph-name="Amacron" unicode="&#x100;" horiz-adv-x="2159" 
d="M1884 2420l-41 -236h-927l42 236h926zM441 0h-507l1158 2048h484l324 -2048h-484l-45 384h-725zM1229 1472l-402 -714l500 -2l-77 715z" />
    <glyph glyph-name="amacron" unicode="&#x101;" horiz-adv-x="1544" 
d="M1493 1996l-42 -236h-926l41 236h927zM819 0l35 161l-11 -2q-142 -192 -380 -188q-194 4 -310.5 131.5t-103.5 321.5q7 103 51.5 186.5t111 138.5t155.5 94t178.5 58.5t187.5 26.5q5 0 37 1.5t45 3t43 5.5t46 10t36.5 16t33 25t19.5 35l8 32q12 65 -21.5 107.5
t-99.5 46.5q-81 4 -147.5 -42.5t-91.5 -123.5l-424 38q14 80 51 149.5t90 121.5t119 92t140 64.5t151.5 36.5t154.5 10q117 -2 217.5 -36.5t175 -97t110.5 -161.5t20 -221l-204 -1040h-423zM885 491l59 202q-40 -34 -155 -51q-45 -7 -79.5 -15t-74 -24t-67 -37t-49.5 -55
t-30 -77q-12 -60 19 -95t93 -38q91 -3 175.5 51t108.5 139z" />
    <glyph glyph-name="Abreve" unicode="&#x102;" horiz-adv-x="2159" 
d="M1619 2541l297 3q-1 -103 -44.5 -186.5t-115.5 -136t-163.5 -80t-191.5 -25.5q-198 4 -320.5 118t-125.5 308l295 -1q-5 -174 152 -178q88 -3 147 45t70 133zM441 0h-507l1158 2048h484l324 -2048h-484l-45 384h-725zM1229 1472l-402 -714l500 -2l-77 715z" />
    <glyph glyph-name="abreve" unicode="&#x103;" horiz-adv-x="1543" 
d="M1227 2117l297 3q-1 -103 -44.5 -186.5t-115.5 -136t-163.5 -80t-191.5 -25.5q-197 4 -319.5 118t-125.5 308l294 -1q-5 -174 153 -178q87 -3 146 45t70 133zM819 0l35 161l-11 -2q-142 -192 -380 -188q-194 4 -310.5 131.5t-103.5 321.5q7 103 51.5 186.5t111 138.5
t155.5 94t178.5 58.5t187.5 26.5q5 0 37 1.5t45 3t43 5.5t46 10t36.5 16t33 25t19.5 35l8 32q12 65 -21.5 107.5t-99.5 46.5q-81 4 -147.5 -42.5t-91.5 -123.5l-424 38q14 80 51 149.5t90 121.5t119 92t140 64.5t151.5 36.5t154.5 10q117 -2 217.5 -36.5t175 -97
t110.5 -161.5t20 -221l-204 -1040h-423zM885 491l59 202q-40 -34 -155 -51q-45 -7 -79.5 -15t-74 -24t-67 -37t-49.5 -55t-30 -77q-12 -60 19 -95t93 -38q91 -3 175.5 51t108.5 139z" />
    <glyph glyph-name="Aogonek" unicode="&#x104;" horiz-adv-x="2159" 
d="M441 0h-507l1158 2048h484l324 -2048h-115l16 -6q-3 -2 -30 -16.5t-34 -19t-31 -18.5t-33.5 -22l-28.5 -23t-28.5 -27l-21.5 -28t-18.5 -33t-9.5 -35q-13 -77 55 -77q25 -1 95 24l37 -235q-83 -57 -212 -55q-130 2 -214 78.5t-82 204.5q4 172 171 292l-45 380h-725z
M1229 1472l-402 -714l500 -2l-77 715z" />
    <glyph glyph-name="aogonek" unicode="&#x105;" horiz-adv-x="1543" 
d="M819 0l35 161l-11 -2q-142 -192 -380 -188q-194 4 -310.5 131.5t-103.5 321.5q7 103 51.5 186.5t111 138.5t155.5 94t178.5 58.5t187.5 26.5q5 0 37 1.5t45 3t43 5.5t46 10t36.5 16t33 25t19.5 35l8 32q12 65 -21.5 107.5t-99.5 46.5q-81 4 -147.5 -42.5t-91.5 -123.5
l-424 38q14 80 51 149.5t90 121.5t119 92t140 64.5t151.5 36.5t154.5 10q117 -2 217.5 -36.5t175 -97t110.5 -161.5t20 -221l-204 -1040h-13l16 -6q-3 -2 -30 -16.5t-34 -19t-31 -18.5t-33.5 -22l-28.5 -23t-28.5 -27l-21.5 -28t-18.5 -33t-9.5 -35q-13 -77 55 -77
q25 -1 95 24l37 -235q-83 -57 -212 -55q-130 2 -214 78.5t-82 204.5q4 169 165 288h-35zM885 491l59 202q-40 -34 -155 -51q-45 -7 -79.5 -15t-74 -24t-67 -37t-49.5 -55t-30 -77q-12 -60 19 -95t93 -38q91 -3 175.5 51t108.5 139z" />
    <glyph glyph-name="Cacute" unicode="&#x106;" horiz-adv-x="1974" 
d="M1102 2104l339 432l490 -1l-444 -431h-385zM1990 1399l-444 -62q-59 312 -319 323q-104 4 -193 -33.5t-151.5 -101t-111 -151t-76.5 -177t-44 -185.5q-10 -59 -15.5 -110.5t-7 -116.5t5.5 -117.5t26 -105.5t51 -89t84 -60t121 -26q152 -6 273 78t179 229l436 -61
q-54 -196 -195 -349t-331 -234t-393 -78q-122 2 -226 34t-180.5 87.5t-135.5 132.5t-95 168t-54.5 193.5t-18 209.5t17.5 216q22 138 68 269t113.5 251t160 219.5t201 172.5t243 113t280.5 38q123 -1 228.5 -35.5t185 -94t143 -145t105.5 -185t69 -217.5z" />
    <glyph glyph-name="cacute" unicode="&#x107;" horiz-adv-x="1580" 
d="M767 1680l339 432l490 -1l-444 -431h-385zM1531 1029l-419 -80q-9 53 -22 91.5t-36.5 74t-61.5 55.5t-90 22q-70 3 -128 -22t-97 -67t-68.5 -100.5t-45.5 -117.5t-25 -124q-57 -414 188 -422q98 -4 169.5 53.5t108.5 153.5l409 -73q-27 -117 -97.5 -214t-167 -159.5
t-211 -96t-233.5 -31.5q-130 2 -237 45.5t-178.5 118t-117 174t-60 214t0.5 237.5q15 130 59.5 249.5t117 220t166 174t214.5 113.5t256 38q244 -4 401 -144.5t205 -382.5z" />
    <glyph glyph-name="Ccircumflex" unicode="&#x108;" horiz-adv-x="1975" 
d="M1153 2202l-392 -11l-1 31l484 382h277l368 -384v-31l-351 11l-155 183zM1990 1399l-444 -62q-59 312 -319 323q-104 4 -193 -33.5t-151.5 -101t-111 -151t-76.5 -177t-44 -185.5q-10 -59 -15.5 -110.5t-7 -116.5t5.5 -117.5t26 -105.5t51 -89t84 -60t121 -26
q152 -6 273 78t179 229l436 -61q-54 -196 -195 -349t-331 -234t-393 -78q-122 2 -226 34t-180.5 87.5t-135.5 132.5t-95 168t-54.5 193.5t-18 209.5t17.5 216q22 138 68 269t113.5 251t160 219.5t201 172.5t243 113t280.5 38q123 -1 228.5 -35.5t185 -94t143 -145
t105.5 -185t69 -217.5z" />
    <glyph glyph-name="ccircumflex" unicode="&#x109;" horiz-adv-x="1580" 
d="M819 1778l-392 -11l-2 31l485 382h277l368 -384v-31l-351 11l-155 183zM1532 1029l-419 -80q-9 53 -22 91.5t-36.5 74t-61.5 55.5t-90 22q-70 3 -128 -22t-97 -67t-68.5 -100.5t-45.5 -117.5t-25 -124q-57 -414 188 -422q98 -4 169.5 53.5t108.5 153.5l409 -73
q-27 -117 -97.5 -214t-167 -159.5t-211 -96t-233.5 -31.5q-130 2 -237 45.5t-178.5 118t-117 174t-60 214t0.5 237.5q15 130 59.5 249.5t117 220t166 174t214.5 113.5t256 38q244 -4 401 -144.5t205 -382.5z" />
    <glyph glyph-name="Cdotaccent" unicode="&#x10a;" horiz-adv-x="1974" 
d="M1152 2344q-4 91 57 150t154 60q88 0 150 -53.5t66 -140.5q4 -91 -57.5 -150t-154.5 -60q-88 0 -149.5 53.5t-65.5 140.5zM1990 1399l-444 -62q-59 312 -319 323q-104 4 -193 -33.5t-151.5 -101t-111 -151t-76.5 -177t-44 -185.5q-10 -59 -15.5 -110.5t-7 -116.5
t5.5 -117.5t26 -105.5t51 -89t84 -60t121 -26q152 -6 273 78t179 229l436 -61q-54 -196 -195 -349t-331 -234t-393 -78q-122 2 -226 34t-180.5 87.5t-135.5 132.5t-95 168t-54.5 193.5t-18 209.5t17.5 216q22 138 68 269t113.5 251t160 219.5t201 172.5t243 113t280.5 38
q123 -1 228.5 -35.5t185 -94t143 -145t105.5 -185t69 -217.5z" />
    <glyph glyph-name="cdotaccent" unicode="&#x10b;" horiz-adv-x="1579" 
d="M817 1920q-4 91 57 150t154 60q88 0 150 -53.5t66 -140.5q4 -91 -57.5 -150t-154.5 -60q-88 0 -149.5 53.5t-65.5 140.5zM1531 1029l-419 -80q-9 53 -22 91.5t-36.5 74t-61.5 55.5t-90 22q-70 3 -128 -22t-97 -67t-68.5 -100.5t-45.5 -117.5t-25 -124q-57 -414 188 -422
q98 -4 169.5 53.5t108.5 153.5l409 -73q-27 -117 -97.5 -214t-167 -159.5t-211 -96t-233.5 -31.5q-130 2 -237 45.5t-178.5 118t-117 174t-60 214t0.5 237.5q15 130 59.5 249.5t117 220t166 174t214.5 113.5t256 38q244 -4 401 -144.5t205 -382.5z" />
    <glyph glyph-name="Ccaron" unicode="&#x10c;" horiz-adv-x="1974" 
d="M1174 2536l159 -183l231 182l383 10l1 -31l-480 -382h-277l-371 384l-1 31zM1990 1399l-444 -62q-59 312 -319 323q-104 4 -193 -33.5t-151.5 -101t-111 -151t-76.5 -177t-44 -185.5q-10 -59 -15.5 -110.5t-7 -116.5t5.5 -117.5t26 -105.5t51 -89t84 -60t121 -26
q152 -6 273 78t179 229l436 -61q-54 -196 -195 -349t-331 -234t-393 -78q-122 2 -226 34t-180.5 87.5t-135.5 132.5t-95 168t-54.5 193.5t-18 209.5t17.5 216q22 138 68 269t113.5 251t160 219.5t201 172.5t243 113t280.5 38q123 -1 228.5 -35.5t185 -94t143 -145
t105.5 -185t69 -217.5z" />
    <glyph glyph-name="ccaron" unicode="&#x10d;" horiz-adv-x="1580" 
d="M840 2112l158 -183l232 182l383 10l1 -31l-480 -382h-277l-372 384v31zM1532 1029l-419 -80q-9 53 -22 91.5t-36.5 74t-61.5 55.5t-90 22q-70 3 -128 -22t-97 -67t-68.5 -100.5t-45.5 -117.5t-25 -124q-57 -414 188 -422q98 -4 169.5 53.5t108.5 153.5l409 -73
q-27 -117 -97.5 -214t-167 -159.5t-211 -96t-233.5 -31.5q-130 2 -237 45.5t-178.5 118t-117 174t-60 214t0.5 237.5q15 130 59.5 249.5t117 220t166 174t214.5 113.5t256 38q244 -4 401 -144.5t205 -382.5z" />
    <glyph glyph-name="Dcaron" unicode="&#x10e;" horiz-adv-x="1951" 
d="M935 2536l159 -183l231 182l383 10l1 -31l-480 -382h-277l-371 384l-1 31zM740 0h-734l418 2048h681q126 -2 234.5 -30t192 -79t150 -122t108 -158t66.5 -188.5t25 -212t-16 -229.5q-35 -221 -129.5 -409.5t-236.5 -326.5t-338 -216t-421 -77zM1058 1647l-257 1
l-267 -1247l210 -2q144 -1 260.5 45.5t197 133t132.5 200.5t75 255q14 82 17.5 152.5t-3 142t-31.5 126.5t-66 99t-109.5 68t-158.5 26z" />
    <glyph glyph-name="dcaron" unicode="&#x10f;" horiz-adv-x="1794" 
d="M2355 2112l-47 -227q-68 -365 -280 -560l-220 111q14 29 65.5 125t77 159t39.5 136l45 256h320zM1337 0h-452l48 160l-12 -1q-58 -95 -150 -141t-208 -44q-87 2 -158 29t-120 72.5t-85.5 107.5t-56.5 131t-29 146.5t-7.5 151.5t11.5 147q13 95 40 188t69 184.5
t101.5 168.5t131.5 136t165.5 90.5t197.5 28.5q69 -2 128.5 -20t111 -61t71.5 -106l19 -1l146 681h456zM540 759q-67 -411 180 -421q70 -3 128.5 22.5t97.5 68.5t69.5 103.5t47.5 119t27 123.5q6 41 10 71.5t6 76t-1.5 79t-14.5 70.5t-31 61t-53 41t-78 19
q-70 3 -130.5 -21.5t-102.5 -67t-74.5 -101t-51.5 -119t-29 -125.5z" />
    <glyph glyph-name="Dcroat" unicode="&#x110;" horiz-adv-x="1981" 
d="M770 0h-734l179 876h-77l46 264h85l185 908h681q126 -2 234.5 -30t192 -79t150 -122t108 -158t66.5 -188.5t25 -212t-16 -229.5q-35 -221 -129.5 -409.5t-236.5 -326.5t-338 -216t-421 -77zM1154 1140l-46 -264h-442l-102 -475l210 -2q144 -1 260.5 45.5t197 133
t132.5 200.5t75 255q14 82 17.5 152.5t-3 142t-31.5 126.5t-66 99t-109.5 68t-158.5 26l-257 1l-109 -508h432z" />
    <glyph glyph-name="dcroat" unicode="&#x111;" horiz-adv-x="1704" 
d="M1343 0h-452l48 160l-12 -1q-58 -95 -150 -141t-208 -44q-87 2 -158 29.5t-120 72.5t-85.5 107t-56.5 131.5t-29.5 147t-8 151t11.5 146.5q13 95 40.5 188t69.5 184.5t101.5 168.5t131.5 136t165.5 90.5t197.5 28.5q69 -2 128.5 -20t110.5 -60.5t71 -105.5h18l75 250
l-341 1l47 264h343l24 164l459 -1l-45 -162l190 -1l-50 -264h-189zM545 759q-64 -411 181 -421q70 -3 128.5 22.5t97.5 68.5t69.5 103.5t47.5 119t27 123.5q6 41 10 71.5t6 76t-1.5 79t-14.5 70.5t-31 61t-53 41t-78 19q-70 3 -130.5 -21.5t-102.5 -67t-74.5 -101t-52 -119
t-29.5 -125.5z" />
    <glyph glyph-name="Emacron" unicode="&#x112;" horiz-adv-x="1649" 
d="M1648 2420l-41 -236h-927l42 236h926zM1415 384l-72 -384h-1337l418 2048h1336l-72 -384h-883l-103 -447l750 -1l-73 -384h-746l-104 -447z" />
    <glyph glyph-name="emacron" unicode="&#x113;" horiz-adv-x="1627" 
d="M1477 1996l-41 -236h-927l42 236h926zM736 -29q-133 2 -243 40.5t-187.5 108t-127.5 164t-67.5 209.5t-2.5 244q20 169 87 318t172.5 262t255 177.5t322.5 62.5q153 -2 273 -60t193 -156t102.5 -229t10.5 -280l-30 -192l-967 1q-14 -130 42 -214.5t184 -87.5
q104 -3 182.5 49.5t117.5 150.5l386 -106q-23 -113 -95.5 -204t-171.5 -146.5t-211.5 -84t-224.5 -27.5zM920 1193q-62 2 -115.5 -18t-95.5 -59.5t-73.5 -82.5t-62.5 -101l544 2q25 112 -28.5 183.5t-168.5 75.5z" />
    <glyph glyph-name="Ebreve" unicode="&#x114;" horiz-adv-x="1649" 
d="M1383 2541l297 3q-1 -103 -44.5 -186.5t-115.5 -136t-163.5 -80t-191.5 -25.5q-198 4 -320.5 118t-125.5 308l295 -1q-5 -174 152 -178q88 -3 147 45t70 133zM1415 384l-72 -384h-1337l418 2048h1336l-72 -384h-883l-103 -447l750 -1l-73 -384h-746l-104 -447z" />
    <glyph glyph-name="ebreve" unicode="&#x115;" horiz-adv-x="1627" 
d="M1211 2117l297 3q-1 -103 -44.5 -186.5t-116 -136t-164 -80t-190.5 -25.5q-198 4 -320.5 118t-125.5 308l295 -1q-5 -174 152 -178q87 -3 146 45t71 133zM735 -29q-133 2 -243 40.5t-187.5 108t-127.5 164t-67.5 209.5t-2.5 244q20 169 87 318t172.5 262t255 177.5
t322.5 62.5q153 -2 273 -60t193 -156t102.5 -229t10.5 -280l-30 -192l-967 1q-14 -130 42 -214.5t184 -87.5q104 -3 182.5 49.5t117.5 150.5l386 -106q-23 -113 -95.5 -204t-171.5 -146.5t-211.5 -84t-224.5 -27.5zM919 1193q-62 2 -115.5 -18t-95.5 -59.5t-73.5 -82.5
t-62.5 -101l544 2q25 112 -28.5 183.5t-168.5 75.5z" />
    <glyph glyph-name="Edotaccent" unicode="&#x116;" horiz-adv-x="1646" 
d="M976 2344q-4 91 57 150t154 60q88 0 150 -53.5t66 -140.5q4 -91 -57.5 -150t-154.5 -60q-88 0 -149.5 53.5t-65.5 140.5zM1414 384l-72 -384h-1337l418 2048h1336l-72 -384h-883l-103 -447l750 -1l-73 -384h-746l-104 -447z" />
    <glyph glyph-name="edotaccent" unicode="&#x117;" horiz-adv-x="1627" 
d="M805 1920q-4 91 57 150t154 60q88 0 150 -53.5t66 -140.5q4 -91 -57.5 -150t-154.5 -60q-88 0 -149.5 53.5t-65.5 140.5zM735 -29q-133 2 -243 40.5t-187.5 108t-127.5 164t-67.5 209.5t-2.5 244q20 169 87 318t172.5 262t255 177.5t322.5 62.5q153 -2 273 -60t193 -156
t102.5 -229t10.5 -280l-30 -192l-967 1q-14 -130 42 -214.5t184 -87.5q104 -3 182.5 49.5t117.5 150.5l386 -106q-23 -113 -95.5 -204t-171.5 -146.5t-211.5 -84t-224.5 -27.5zM919 1193q-62 2 -115.5 -18t-95.5 -59.5t-73.5 -82.5t-62.5 -101l544 2q25 112 -28.5 183.5
t-168.5 75.5z" />
    <glyph glyph-name="Eogonek" unicode="&#x118;" horiz-adv-x="1647" 
d="M1415 384l-72 -384h-218l16 -6q-3 -2 -30 -16.5t-34 -19t-31 -18.5t-33.5 -22l-28.5 -23t-28.5 -27l-21.5 -28t-18.5 -33t-9.5 -35q-13 -77 55 -77q25 -1 95 24l37 -235q-83 -57 -212 -55q-130 2 -214 78.5t-82 204.5q4 169 165 288h-744l418 2048h1336l-72 -384h-883
l-103 -447l750 -1l-73 -384h-746l-104 -447z" />
    <glyph glyph-name="eogonek" unicode="&#x119;" horiz-adv-x="1627" 
d="M1033 -468q-84 -57 -212 -55q-131 2 -215 78.5t-81 204.5q3 124 90 221q-181 28 -305 134.5t-175 266.5t-28 355q20 169 87 318t172.5 262t255 177.5t322.5 62.5q153 -2 273 -60t193 -156t102.5 -229t10.5 -280l-30 -192l-967 1q-14 -130 42 -214.5t184 -87.5
q104 -3 182.5 49.5t117.5 150.5l386 -106q-30 -143 -132.5 -246t-249.5 -159q-43 -24 -68 -39.5t-60 -43t-55.5 -58.5t-26.5 -67q-13 -77 54 -77q27 -1 95 24zM919 1193q-62 2 -115.5 -18t-95.5 -59.5t-73.5 -82.5t-62.5 -101l544 2q25 112 -28.5 183.5t-168.5 75.5z" />
    <glyph glyph-name="Ecaron" unicode="&#x11a;" horiz-adv-x="1648" 
d="M999 2536l159 -183l231 182l383 10l1 -31l-480 -382h-277l-371 384l-1 31zM1415 384l-72 -384h-1337l418 2048h1336l-72 -384h-883l-103 -447l750 -1l-73 -384h-746l-104 -447z" />
    <glyph glyph-name="ecaron" unicode="&#x11b;" horiz-adv-x="1627" 
d="M828 2112l158 -183l232 182l383 10l1 -31l-480 -382h-277l-372 384v31zM736 -29q-133 2 -243 40.5t-187.5 108t-127.5 164t-67.5 209.5t-2.5 244q20 169 87 318t172.5 262t255 177.5t322.5 62.5q153 -2 273 -60t193 -156t102.5 -229t10.5 -280l-30 -192l-967 1
q-14 -130 42 -214.5t184 -87.5q104 -3 182.5 49.5t117.5 150.5l386 -106q-23 -113 -95.5 -204t-171.5 -146.5t-211.5 -84t-224.5 -27.5zM920 1193q-62 2 -115.5 -18t-95.5 -59.5t-73.5 -82.5t-62.5 -101l544 2q25 112 -28.5 183.5t-168.5 75.5z" />
    <glyph glyph-name="Gcircumflex" unicode="&#x11c;" horiz-adv-x="1991" 
d="M1153 2202l-392 -11l-1 31l484 382h277l368 -384v-31l-351 11l-155 183zM1912 1096l-69 -338q-41 -231 -178 -411.5t-341 -279t-439 -95.5q-122 1 -226 33t-180.5 87.5t-135.5 132.5t-94.5 168t-54 194t-18 210t17.5 216q26 165 85 320t153 291.5t213.5 237.5t276.5 159
t331 56q119 -1 221.5 -34t182 -90t144 -138t109 -176.5t75.5 -207.5l-462 -62q-58 281 -303 291q-102 4 -190 -34t-149.5 -102t-110 -152t-76 -177t-43.5 -184q-98 -613 267 -625q176 -5 307.5 98.5t189.5 274.5l-398 -3l63 340h832z" />
    <glyph glyph-name="gcircumflex" unicode="&#x11d;" horiz-adv-x="1643" 
d="M818 1778l-392 -11l-1 31l485 382h277l367 -384v-31l-350 11l-155 183zM1196 1529l452 -1l-300 -1459q-36 -209 -152 -360t-289.5 -226t-387.5 -71q-158 2 -307 51t-260 146l225 308q152 -130 348 -135q155 -4 255.5 76t137.5 232l31 106l-15 -1q-57 -85 -152.5 -125.5
t-207.5 -38.5q-84 1 -154 25.5t-119.5 66t-87 98.5t-59 122t-32.5 138t-10.5 145t9.5 145q12 94 39.5 186.5t69.5 182t102 165.5t132 133.5t164.5 88.5t195.5 28q69 -2 129 -20t112 -61t71 -107h24zM543 770q-8 -54 -10.5 -101.5t5.5 -100.5t28.5 -90.5t62 -63.5t101.5 -28
q82 -3 148 31t108.5 94.5t68.5 129t39 147.5q61 394 -165 405q-68 3 -127.5 -21t-101.5 -65t-75 -98t-52.5 -116.5t-29.5 -122.5z" />
    <glyph glyph-name="Gbreve" unicode="&#x11e;" horiz-adv-x="1991" 
d="M1559 2541l297 3q-1 -103 -44.5 -186.5t-115.5 -136t-163.5 -80t-191.5 -25.5q-198 4 -320.5 118t-125.5 308l295 -1q-5 -174 152 -178q88 -3 147 45t70 133zM1913 1096l-69 -338q-41 -231 -178 -411.5t-341 -279t-439 -95.5q-122 1 -226 33t-180.5 87.5t-135.5 132.5
t-94.5 168t-54 194t-18 210t17.5 216q26 165 85 320t153 291.5t213.5 237.5t276.5 159t331 56q119 -1 221.5 -34t182 -90t144 -138t109 -176.5t75.5 -207.5l-462 -62q-58 281 -303 291q-102 4 -190 -34t-149.5 -102t-110 -152t-76 -177t-43.5 -184q-98 -613 267 -625
q176 -5 307.5 98.5t189.5 274.5l-398 -3l63 340h832z" />
    <glyph glyph-name="gbreve" unicode="&#x11f;" horiz-adv-x="1642" 
d="M1222 2117l297 3q-1 -103 -44.5 -186.5t-115.5 -136t-163.5 -80t-191.5 -25.5q-197 4 -319.5 118t-125.5 308l294 -1q-5 -174 153 -178q87 -3 146 45t70 133zM1195 1529l452 -1l-300 -1459q-36 -209 -152 -360t-289.5 -226t-387.5 -71q-158 2 -307 51t-260 146l225 308
q152 -130 348 -135q155 -4 255.5 76t137.5 232l31 106l-15 -1q-57 -85 -152.5 -125.5t-207.5 -38.5q-84 1 -154 25.5t-119.5 66t-87 98.5t-59 122t-32.5 138t-10.5 145t9.5 145q12 94 39.5 186.5t69.5 182t102 165.5t132 133.5t164.5 88.5t195.5 28q69 -2 129 -20t112 -61
t71 -107h24zM542 770q-8 -54 -10.5 -101.5t5.5 -100.5t28.5 -90.5t62 -63.5t101.5 -28q82 -3 148 31t108.5 94.5t68.5 129t39 147.5q61 394 -165 405q-68 3 -127.5 -21t-101.5 -65t-75 -98t-52.5 -116.5t-29.5 -122.5z" />
    <glyph glyph-name="Gdotaccent" unicode="&#x120;" horiz-adv-x="1990" 
d="M1152 2344q-4 91 57 150t154 60q88 0 150 -53.5t66 -140.5q4 -91 -57.5 -150t-154.5 -60q-88 0 -149.5 53.5t-65.5 140.5zM1912 1096l-69 -338q-41 -231 -178 -411.5t-341 -279t-439 -95.5q-122 1 -226 33t-180.5 87.5t-135.5 132.5t-94.5 168t-54 194t-18 210t17.5 216
q26 165 85 320t153 291.5t213.5 237.5t276.5 159t331 56q119 -1 221.5 -34t182 -90t144 -138t109 -176.5t75.5 -207.5l-462 -62q-58 281 -303 291q-102 4 -190 -34t-149.5 -102t-110 -152t-76 -177t-43.5 -184q-98 -613 267 -625q176 -5 307.5 98.5t189.5 274.5l-398 -3
l63 340h832z" />
    <glyph glyph-name="gdotaccent" unicode="&#x121;" horiz-adv-x="1644" 
d="M817 1920q-4 91 57.5 150t154.5 60q88 0 149.5 -53.5t65.5 -140.5q4 -91 -57 -150t-154 -60q-88 0 -150 53.5t-66 140.5zM1196 1529l452 -1l-300 -1459q-36 -209 -152 -360t-289.5 -226t-387.5 -71q-158 2 -307 51t-260 146l225 308q152 -130 348 -135q155 -4 255.5 76
t137.5 232l31 106l-15 -1q-57 -85 -152.5 -125.5t-207.5 -38.5q-84 1 -154 25.5t-119.5 66t-87 98.5t-59 122t-32.5 138t-10.5 145t9.5 145q12 94 39.5 186.5t69.5 182t102 165.5t132 133.5t164.5 88.5t195.5 28q69 -2 129 -20t112 -61t71 -107h24zM543 770
q-8 -54 -10.5 -101.5t5.5 -100.5t28.5 -90.5t62 -63.5t101.5 -28q82 -3 148 31t108.5 94.5t68.5 129t39 147.5q61 394 -165 405q-68 3 -127.5 -21t-101.5 -65t-75 -98t-52.5 -116.5t-29.5 -122.5z" />
    <glyph glyph-name="Gcommaaccent" unicode="&#x122;" horiz-adv-x="1990" 
d="M1912 1096l-69 -338q-41 -231 -178 -411.5t-341 -279t-439 -95.5q-122 1 -226 33t-180.5 87.5t-135.5 132.5t-94.5 168t-54 194t-18 210t17.5 216q26 165 85 320t153 291.5t213.5 237.5t276.5 159t331 56q119 -1 221.5 -34t182 -90t144 -138t109 -176.5t75.5 -207.5
l-462 -62q-58 281 -303 291q-102 4 -190 -34t-149.5 -102t-110 -152t-76 -177t-43.5 -184q-98 -613 267 -625q176 -5 307.5 98.5t189.5 274.5l-398 -3l63 340h832zM1019 -116l-47 -227q-68 -365 -280 -560l-220 111q14 29 65.5 125t77 159t39.5 136l45 256h320z" />
    <glyph glyph-name="gcommaaccent" unicode="&#x123;" horiz-adv-x="1643" 
d="M831 1736l37 191q58 333 259 457l220 -104l-68.5 -124t-50 -109t-43.5 -135l-34 -177zM1195 1529l452 -1l-300 -1459q-36 -209 -152 -360t-289.5 -226t-387.5 -71q-158 2 -307 51t-260 146l225 308q152 -130 348 -135q155 -4 255.5 76t137.5 232l31 106l-15 -1
q-57 -85 -152.5 -125.5t-207.5 -38.5q-84 1 -154 25.5t-119.5 66t-87 98.5t-59 122t-32.5 138t-10.5 145t9.5 145q12 94 39.5 186.5t69.5 182t102 165.5t132 133.5t164.5 88.5t195.5 28q69 -2 129 -20t112 -61t71 -107h24zM542 770q-8 -54 -10.5 -101.5t5.5 -100.5
t28.5 -90.5t62 -63.5t101.5 -28q82 -3 148 31t108.5 94.5t68.5 129t39 147.5q61 394 -165 405q-68 3 -127.5 -21t-101.5 -65t-75 -98t-52.5 -116.5t-29.5 -122.5z" />
    <glyph glyph-name="Hcircumflex" unicode="&#x124;" horiz-adv-x="1944" 
d="M1178 2202l-392 -11l-1 31l484 382h277l368 -384v-31l-351 11l-155 183zM884 2048l-182 -831l720 -1l166 832h460l-418 -2048h-460l182 831l-720 1l-166 -832h-460l418 2048h460z" />
    <glyph glyph-name="hcircumflex" unicode="&#x125;" horiz-adv-x="1604" 
d="M1068 2330l-392 -11l-1 31l484 382h278l367 -384v-31l-350 11l-155 183zM622 816l-160 -816h-456l419 2048h440l-156 -680l6 1q168 193 413 186q79 -2 143 -28t105 -69t70 -100.5t39.5 -122.5t13 -135.5t-9.5 -139.5l-189 -960h-456l197 966q6 34 8 61t-1.5 59t-15 54
t-35.5 37.5t-61 17.5q-59 3 -108 -20t-82 -61t-59 -91.5t-40.5 -102.5t-24.5 -104z" />
    <glyph glyph-name="Hbar" unicode="&#x126;" horiz-adv-x="1944" 
d="M890 2048l-82 -339l722 -1l62 340h462l-82 -339l157 -1l-46 -248h-155l-294 -1460h-460l182 831l-720 1l-166 -832h-460l312 1459l-157 1l47 248h156l60 341zM706 1217h718l63 242h-718z" />
    <glyph glyph-name="hbar" unicode="&#x127;" horiz-adv-x="1634" 
d="M652 816l-160 -816h-456l341 1668h-207l46 264h215l24 116h440l-27 -116h318l-46 -264h-332l-69 -300l6 1q168 193 413 186q79 -2 143 -28t105 -69t70 -100.5t39.5 -122.5t13 -135.5t-9.5 -139.5l-189 -960h-456l197 966q6 34 8 61t-1.5 59t-15 54t-35.5 37.5t-61 17.5
q-59 3 -108 -20t-82 -61t-59 -91.5t-40.5 -102.5t-24.5 -104z" />
    <glyph glyph-name="Itilde" unicode="&#x128;" horiz-adv-x="745" 
d="M996 2544l241 -14q-2 -56 -16.5 -111t-43 -104.5t-67 -86.5t-91.5 -58.5t-113 -20.5q-45 1 -95 20t-87 42t-86 41.5t-92 18.5q-103 0 -131 -127l-247 10q2 70 26 138t65.5 123.5t104.5 88.5t137 32q44 -1 93.5 -19.5t87 -41t86.5 -40.5t92 -18q105 0 136 127zM884 2048
l-418 -2048h-460l418 2048h460z" />
    <glyph glyph-name="itilde" unicode="&#x129;" horiz-adv-x="985" 
d="M1049 2124l241 -13q-4 -97 -43 -183.5t-116 -144t-177 -55.5q-45 1 -94.5 20.5t-86.5 42.5t-85.5 42t-91.5 19q-105 0 -137 -128l-247 9q3 71 27 139.5t66 124t106 89t139 31.5q55 -1 117.5 -31.5l124.5 -60t116 -29.5q106 0 141 128zM898 1536l-312 -1536h-456l312 1536
h456z" />
    <glyph glyph-name="Imacron" unicode="&#x12a;" horiz-adv-x="744" 
d="M1176 2420l-41 -236h-927l42 236h926zM884 2048l-418 -2048h-460l418 2048h460z" />
    <glyph glyph-name="imacron" unicode="&#x12b;" horiz-adv-x="771" 
d="M1097 1964l-41 -236h-927l42 236h926zM788 1536l-312 -1536h-456l312 1536h456z" />
    <glyph glyph-name="Ibreve" unicode="&#x12c;" horiz-adv-x="744" 
d="M911 2541l297 3q-1 -103 -44.5 -186.5t-115.5 -136t-163.5 -80t-191.5 -25.5q-198 4 -320.5 118t-125.5 308l295 -1q-5 -174 152 -178q88 -3 147 45t70 133zM884 2048l-418 -2048h-460l418 2048h460z" />
    <glyph glyph-name="ibreve" unicode="&#x12d;" horiz-adv-x="772" 
d="M832 2085l297 3q-1 -103 -44.5 -186.5t-116 -136t-164 -80t-190.5 -25.5q-198 4 -320.5 118t-125.5 308l295 -1q-5 -174 152 -178q87 -3 146 45t71 133zM788 1536l-312 -1536h-456l312 1536h456z" />
    <glyph glyph-name="Iogonek" unicode="&#x12e;" horiz-adv-x="743" 
d="M884 2048l-418 -2048h-121l16 -6q-3 -2 -30 -16.5t-34 -19t-31 -18.5t-33.5 -22l-28.5 -23t-28.5 -27l-21.5 -28t-18.5 -33t-9.5 -35q-13 -77 55 -77q25 -1 95 24l37 -235q-83 -57 -212 -55q-130 2 -214 78.5t-82 204.5q4 190 207 316l412 2020h460z" />
    <glyph glyph-name="iogonek" unicode="&#x12f;" horiz-adv-x="771" 
d="M625 1618q-92 1 -161.5 65t-73.5 156q-4 99 70.5 169t174.5 70q92 -1 160.5 -65t71.5 -156q4 -99 -69 -169.5t-173 -69.5zM789 1536l-312 -1536h-104l16 -6q-3 -2 -30 -16.5t-34 -19t-31 -18.5t-33.5 -22l-28.5 -23t-28.5 -27l-21.5 -28t-18.5 -33t-9.5 -35
q-13 -77 55 -77q25 -1 95 24l37 -235q-83 -57 -212 -55q-130 2 -214 78.5t-82 204.5q4 182 191 306l309 1518h456z" />
    <glyph glyph-name="Idotaccent" unicode="&#x130;" horiz-adv-x="742" 
d="M504 2344q-4 91 57 150t154 60q88 0 150 -53.5t66 -140.5q4 -91 -57.5 -150t-154.5 -60q-88 0 -149.5 53.5t-65.5 140.5zM883 2048l-418 -2048h-460l418 2048h460z" />
    <glyph glyph-name="dotlessi" unicode="&#x131;" horiz-adv-x="772" 
d="M793 1536l-312 -1536h-456l312 1536h456z" />
    <glyph glyph-name="IJ" unicode="&#x132;" horiz-adv-x="2612" 
d="M1985 628l285 1420h456l-292 -1420q-50 -293 -262 -477.5t-508 -180.5q-293 4 -440.5 172.5t-137.5 463.5h452q-11 -255 158 -263q79 -4 142 38.5t97.5 105.5t49.5 141zM1140 2048l-418 -2048h-460l418 2048h460z" />
    <glyph glyph-name="ij" unicode="&#x133;" horiz-adv-x="1976" 
d="M881 1618q-92 1 -161.5 65t-73.5 156q-4 99 70.5 169t174.5 70q92 -1 160.5 -65t71.5 -156q4 -99 -69 -169.5t-173 -69.5zM1830 1619q-92 1 -161.5 64.5t-73.5 155.5q-3 99 71 169t174 69q92 -1 160 -64.5t71 -155.5q4 -99 -68.5 -169t-172.5 -69zM1045 1536l-312 -1536
h-456l312 1536h456zM1538 1536h455l-324 -1583q-28 -177 -121 -298t-232 -179t-319 -57l-194 1l75 359l66 -1q233 0 274 182z" />
    <glyph glyph-name="Jcircumflex" unicode="&#x134;" horiz-adv-x="1605" 
d="M1358 2202l-392 -11l-1 31l484 382h277l368 -384v-31l-351 11l-155 183zM977 628l285 1420h456l-292 -1420q-50 -293 -262 -477.5t-508 -180.5q-293 4 -440.5 172.5t-137.5 463.5h452q-11 -255 158 -263q79 -4 142 38.5t97.5 105.5t49.5 141z" />
    <glyph glyph-name="jcircumflex" unicode="&#x135;" horiz-adv-x="942" 
d="M597 1746l-392 -11l-2 31l485 382h277l367 -384l1 -31l-351 11l-155 183zM503 1536h455l-324 -1583q-43 -262 -221.5 -398.5t-450.5 -135.5l-194 1l75 359l66 -1q231 0 274 182z" />
    <glyph glyph-name="Kcommaaccent" unicode="&#x136;" horiz-adv-x="2040" 
d="M1243 0l-377 759l-308 -281l-92 -478h-460l418 2048h460l-191 -861h18l926 861l632 -1l-1074 -964l575 -1083h-527zM936 -114l-46 -227q-68 -364 -280 -560l-221 111l65.5 125t76.5 158.5t41 136.5l45 256h319z" />
    <glyph glyph-name="kcommaaccent" unicode="&#x137;" horiz-adv-x="1581" 
d="M942 0l-241 582l-156 -146l-83 -436h-456l418 2048h456l-225 -1025h12l501 513l556 -1l-700 -671l389 -864h-471zM780 -116l-47 -227q-68 -365 -280 -560l-220 111q14 29 65.5 125t77 159t39.5 136l45 256h320z" />
    <glyph glyph-name="kgreenlandic" unicode="&#x138;" horiz-adv-x="1816" 
d="M937 0l-181 520h-177l-102 -520h-440l303 1488h440l-116 -535l107 -2l433 537l582 -1l-647 -726l340 -761h-542z" />
    <glyph glyph-name="Lacute" unicode="&#x139;" horiz-adv-x="1559" 
d="M451 2104l339 432l490 -1l-444 -431h-385zM1341 384l-72 -384h-1263l418 2048h460l-355 -1663z" />
    <glyph glyph-name="lacute" unicode="&#x13a;" horiz-adv-x="740" 
d="M478 2212l338 432l490 -1l-443 -431h-385zM880 2048l-418 -2048h-456l418 2048h456z" />
    <glyph glyph-name="Lcommaaccent" unicode="&#x13b;" horiz-adv-x="1559" 
d="M1341 384l-72 -384h-1263l418 2048h460l-355 -1663zM783 -100l-46 -227q-68 -364 -280 -560l-221 111l65.5 125t76.5 158.5t41 136.5l45 256h319z" />
    <glyph glyph-name="lcommaaccent" unicode="&#x13c;" horiz-adv-x="740" 
d="M880 2048l-418 -2048h-456l418 2048h456zM372 -116l-47 -227q-68 -365 -280 -560l-220 111q14 29 65.5 125t77 159t39.5 136l45 256h320z" />
    <glyph glyph-name="Lcaron" unicode="&#x13d;" horiz-adv-x="1560" 
d="M1341 384l-72 -384h-1263l418 2048h460l-355 -1663zM1534 2004l-47 -227q-68 -364 -280 -560l-220 111q16 34 65.5 126t76 156.5t40.5 137.5l45 256h320z" />
    <glyph glyph-name="lcaron" unicode="&#x13e;" horiz-adv-x="891" 
d="M1408 2112l-47 -227q-68 -365 -280 -560l-220 111q14 29 65.5 125t77 159t39.5 136l45 256h320zM880 2048l-418 -2048h-456l418 2048h456z" />
    <glyph glyph-name="Ldot" unicode="&#x13f;" horiz-adv-x="1559" 
d="M1341 384l-72 -384h-1263l418 2048h460l-355 -1663zM890 1148q-4 91 57 150t154 60q88 0 150 -53.5t66 -140.5q4 -91 -57.5 -150t-154.5 -60q-88 0 -149.5 53.5t-65.5 140.5z" />
    <glyph glyph-name="ldot" unicode="&#x140;" horiz-adv-x="960" 
d="M880 2048l-418 -2048h-456l418 2048h456zM810 1052q-4 91 57.5 150t153.5 60q88 0 150 -53.5t66 -140.5q4 -91 -57.5 -150t-153.5 -60q-88 0 -150 53.5t-66 140.5z" />
    <glyph glyph-name="L_slash" unicode="&#x141;" horiz-adv-x="1814" 
d="M1511 384l-72 -384h-1263l189 879l-228 -59l49 260l228 61l180 907h460l-170 -776l259 69l-47 -264l-259 -68l-138 -624z" />
    <glyph glyph-name="lslash" unicode="&#x142;" horiz-adv-x="739" 
d="M906 1354l-49 -266l-186 -56l-206 -1032h-456l191 884l-194 -58l50 267l193 58l178 897h456l-164 -750z" />
    <glyph glyph-name="Nacute" unicode="&#x143;" horiz-adv-x="1944" 
d="M1127 2104l339 432l490 -1l-444 -431h-385zM2048 2048l-418 -2048h-437l-443 1262l-20 2l-264 -1264h-460l418 2048h441l439 -1262l20 -2l264 1264h460z" />
    <glyph glyph-name="nacute" unicode="&#x144;" horiz-adv-x="1649" 
d="M824 1680l338 432l491 -1l-444 -431h-385zM622 816l-160 -816h-456l313 1536l420 1l-49 -169l6 1q84 93 193.5 141.5t234.5 45.5q81 -2 148.5 -26.5t114 -65.5t81 -97.5t49.5 -122t20 -138t-7 -146.5l-187 -960h-456l193 946q9 44 5 87t-18 78t-48 57.5t-84 25.5
q-59 3 -108.5 -20t-82 -60t-58.5 -91t-40 -102.5t-24 -104.5z" />
    <glyph glyph-name="Ncommaaccent" unicode="&#x145;" horiz-adv-x="1944" 
d="M2048 2048l-418 -2048h-437l-443 1262l-20 2l-264 -1264h-460l418 2048h441l439 -1262l20 -2l264 1264h460zM1044 -116l-47 -227q-68 -365 -280 -560l-220 111q14 29 65.5 125t77 159t39.5 136l45 256h320z" />
    <glyph glyph-name="ncommaaccent" unicode="&#x146;" horiz-adv-x="1647" 
d="M622 816l-160 -816h-456l313 1536l420 1l-49 -169l6 1q84 93 193.5 141.5t234.5 45.5q81 -2 148.5 -26.5t114 -65.5t81 -97.5t49.5 -122t20 -138t-7 -146.5l-187 -960h-456l193 946q9 44 5 87t-18 78t-48 57.5t-84 25.5q-59 3 -108.5 -20t-82 -60t-58.5 -91t-40 -102.5
t-24 -104.5zM828 -116l-47 -227q-68 -365 -280 -560l-220 111q14 29 65.5 125t77 159t39.5 136l45 256h320z" />
    <glyph glyph-name="Ncaron" unicode="&#x147;" horiz-adv-x="1944" 
d="M1199 2536l159 -183l231 182l383 10l1 -31l-480 -382h-277l-371 384l-1 31zM2048 2048l-418 -2048h-437l-443 1262l-20 2l-264 -1264h-460l418 2048h441l439 -1262l20 -2l264 1264h460z" />
    <glyph glyph-name="ncaron" unicode="&#x148;" horiz-adv-x="1649" 
d="M895 2112l159 -183l232 182l383 10l1 -31l-481 -382h-276l-372 384v31zM622 816l-160 -816h-456l313 1536l420 1l-49 -169l6 1q84 93 193.5 141.5t234.5 45.5q81 -2 148.5 -26.5t114 -65.5t81 -97.5t49.5 -122t20 -138t-7 -146.5l-187 -960h-456l193 946q9 44 5 87
t-18 78t-48 57.5t-84 25.5q-59 3 -108.5 -20t-82 -60t-58.5 -91t-40 -102.5t-24 -104.5z" />
    <glyph glyph-name="napostrophe" unicode="&#x149;" horiz-adv-x="1648" 
d="M623 816l-160 -816h-456l292 1435q-43 -60 -102 -114l-220 111q14 29 65.5 125t77 159t39.5 136l46 256h319l-47 -227q-37 -200 -114 -345l377 1l-49 -169l6 1q84 93 193.5 141.5t234.5 45.5q81 -2 148.5 -26.5t114 -65.5t81 -97.5t49.5 -122t20 -138t-7 -146.5
l-187 -960h-456l193 946q9 44 5 87t-18 78t-48 57.5t-84 25.5q-59 3 -108.5 -20t-82 -60t-58.5 -91t-40 -102.5t-24 -104.5z" />
    <glyph glyph-name="Eng" unicode="&#x14a;" horiz-adv-x="1943" 
d="M2052 2048l-428 -2079q-44 -276 -236 -430.5t-475 -152.5q-122 0 -218 12l48 377q78 -8 116 -9q229 -7 328 225l5 9l-438 1262l-20 2l-264 -1264h-460l418 2048h441l439 -1262l20 -2l264 1264h460z" />
    <glyph glyph-name="eng" unicode="&#x14b;" horiz-adv-x="1648" 
d="M626 816l-160 -816h-456l313 1536l420 1l-49 -169l6 1q173 193 428 187q81 -2 148.5 -26t114 -65.5t81 -97.5t49.5 -122t20 -138.5t-7 -146.5l-195 -980q-43 -267 -210 -425t-432 -157q-112 0 -241 21l85 374q65 -21 128 -22q91 -2 146 56.5t74 152.5l195 966
q9 43 5 86.5t-18 78.5t-48 57.5t-84 25.5q-59 3 -108.5 -20t-82 -60t-58 -91t-40 -102.5t-24.5 -104.5z" />
    <glyph glyph-name="Omacron" unicode="&#x14c;" horiz-adv-x="2031" 
d="M1824 2420l-41 -236h-927l42 236h926zM1943 1027q-26 -164 -85 -318t-153.5 -289.5t-213.5 -235.5t-275 -157t-329 -55q-122 2 -225.5 34t-180.5 88t-135.5 132.5t-94.5 167.5t-54.5 193.5t-18 209.5t17.5 216q26 165 85 320.5t154.5 291.5t216 237t278 158.5t331.5 55.5
q122 -2 225 -34.5t178.5 -89.5t133.5 -135t92.5 -170t52.5 -195.5t17.5 -210t-17.5 -214.5zM1485 1028q10 59 15.5 109t7.5 116.5t-4 119t-24 107.5t-49 92t-82.5 62t-119.5 27q-104 3 -193 -34.5t-151 -101t-111 -151t-77 -177t-44 -185.5q-10 -59 -15.5 -110.5
t-6.5 -116.5t5.5 -117t26 -105t51 -89.5t83.5 -60.5t121 -26q103 -3 191 34t149 99t108.5 149t75 175t43.5 184z" />
    <glyph glyph-name="omacron" unicode="&#x14d;" horiz-adv-x="1631" 
d="M1461 1996l-41 -236h-927l42 236h926zM706 -28q-130 2 -236.5 46t-178.5 118.5t-117.5 174t-59.5 214t0 237.5q19 163 84.5 307.5t167.5 254t247.5 172.5t312.5 60q161 -3 285.5 -68t196.5 -173.5t101 -247.5t11 -293q-19 -163 -84.5 -308.5t-168 -256.5t-248 -175.5
t-313.5 -61.5zM729 339q70 -3 128 23t97.5 68.5t69 102t45.5 118.5t25 124q5 40 8 74.5t2.5 78t-6.5 78.5t-20 70.5t-36 59.5t-57 39.5t-81 17.5q-70 3 -128 -22.5t-97 -67.5t-68.5 -100.5t-46 -117.5t-24.5 -124q-56 -413 189 -422z" />
    <glyph glyph-name="Obreve" unicode="&#x14e;" horiz-adv-x="2030" 
d="M1558 2541l297 3q-1 -103 -44.5 -186.5t-115.5 -136t-163.5 -80t-191.5 -25.5q-198 4 -320.5 118t-125.5 308l295 -1q-5 -174 152 -178q88 -3 147 45t70 133zM1942 1027q-26 -164 -85 -318t-153.5 -289.5t-213.5 -235.5t-275 -157t-329 -55q-122 2 -225.5 34t-180.5 88
t-135.5 132.5t-94.5 167.5t-54.5 193.5t-18 209.5t17.5 216q26 165 85 320.5t154.5 291.5t216 237t278 158.5t331.5 55.5q122 -2 225 -34.5t178.5 -89.5t133.5 -135t92.5 -170t52.5 -195.5t17.5 -210t-17.5 -214.5zM1484 1028q10 59 15.5 109t7.5 116.5t-4 119t-24 107.5
t-49 92t-82.5 62t-119.5 27q-104 3 -193 -34.5t-151 -101t-111 -151t-77 -177t-44 -185.5q-10 -59 -15.5 -110.5t-6.5 -116.5t5.5 -117t26 -105t51 -89.5t83.5 -60.5t121 -26q103 -3 191 34t149 99t108.5 149t75 175t43.5 184z" />
    <glyph glyph-name="obreve" unicode="&#x14f;" horiz-adv-x="1631" 
d="M1195 2117l297 3q-1 -103 -44.5 -186.5t-116 -136t-164 -80t-190.5 -25.5q-198 4 -320.5 118t-125.5 308l295 -1q-5 -174 152 -178q87 -3 146 45t71 133zM705 -28q-130 2 -236.5 46t-178.5 118.5t-117.5 174t-59.5 214t0 237.5q19 163 84.5 307.5t167.5 254t247.5 172.5
t312.5 60q161 -3 285.5 -68t196.5 -173.5t101 -247.5t11 -293q-19 -163 -84.5 -308.5t-168 -256.5t-248 -175.5t-313.5 -61.5zM728 339q70 -3 128 23t97.5 68.5t69 102t45.5 118.5t25 124q5 40 8 74.5t2.5 78t-6.5 78.5t-20 70.5t-36 59.5t-57 39.5t-81 17.5
q-70 3 -128 -22.5t-97 -67.5t-68.5 -100.5t-46 -117.5t-24.5 -124q-56 -413 189 -422z" />
    <glyph glyph-name="Ohungarumlaut" unicode="&#x150;" horiz-adv-x="2031" 
d="M868 2125l345 411l398 -1l-400 -411zM1370 2125l385 411l400 -1l-438 -411zM1942 1027q-26 -164 -85 -318t-153.5 -289.5t-213.5 -235.5t-275 -157t-329 -55q-122 2 -225.5 34t-180.5 88t-135.5 132.5t-94.5 167.5t-54.5 193.5t-18 209.5t17.5 216q26 165 85 320.5
t154.5 291.5t216 237t278 158.5t331.5 55.5q122 -2 225 -34.5t178.5 -89.5t133.5 -135t92.5 -170t52.5 -195.5t17.5 -210t-17.5 -214.5zM1484 1028q10 59 15.5 109t7.5 116.5t-4 119t-24 107.5t-49 92t-82.5 62t-119.5 27q-104 3 -193 -34.5t-151 -101t-111 -151t-77 -177
t-44 -185.5q-10 -59 -15.5 -110.5t-6.5 -116.5t5.5 -117t26 -105t51 -89.5t83.5 -60.5t121 -26q103 -3 191 34t149 99t108.5 149t75 175t43.5 184z" />
    <glyph glyph-name="ohungarumlaut" unicode="&#x151;" horiz-adv-x="1632" 
d="M505 1701l346 411l398 -1l-400 -411zM1008 1701l385 411l400 -1l-438 -411zM706 -28q-130 2 -236.5 46t-178.5 118.5t-117.5 174t-59.5 214t0 237.5q19 163 84.5 307.5t167.5 254t247.5 172.5t312.5 60q161 -3 285.5 -68t196.5 -173.5t101 -247.5t11 -293
q-19 -163 -84.5 -308.5t-168 -256.5t-248 -175.5t-313.5 -61.5zM729 339q70 -3 128 23t97.5 68.5t69 102t45.5 118.5t25 124q5 40 8 74.5t2.5 78t-6.5 78.5t-20 70.5t-36 59.5t-57 39.5t-81 17.5q-70 3 -128 -22.5t-97 -67.5t-68.5 -100.5t-46 -117.5t-24.5 -124
q-56 -413 189 -422z" />
    <glyph glyph-name="OE" unicode="&#x152;" horiz-adv-x="2839" 
d="M1243 2048h1587l-72 -384h-883l-103 -447l750 -1l-72 -384h-747l-104 -447l886 -1l-72 -384h-1534q-171 3 -313 66.5t-234.5 171t-131.5 258t-11 320.5l82 420q66 365 333 588.5t639 223.5zM894 361l257 -1l284 1327l-207 3q-209 2 -345 -121t-178 -333l-83 -421
q-10 -68 -12 -132.5t15 -122t48 -101t87.5 -70t133.5 -28.5z" />
    <glyph glyph-name="oe" unicode="&#x153;" horiz-adv-x="2638" 
d="M692 -28q-93 2 -174.5 25.5t-143 64.5t-111.5 97.5t-80.5 124.5t-50 145.5t-20 161t9.5 169.5q23 164 92 309t174 255t252.5 172.5t316.5 59.5q138 -2 262 -50t197 -147q245 203 544 197q103 -2 190.5 -29t152.5 -74t113.5 -113t74 -146t34 -171.5t-7.5 -189.5l-29 -193
l-972 2q-11 -60 -3 -114t31 -95.5t70 -67t112 -27.5q106 -3 186.5 50t121.5 151l384 -105q-24 -114 -97.5 -205.5t-174 -146.5t-214 -84t-226.5 -27q-147 2 -279.5 48t-210.5 145q-239 -196 -524 -192zM720 338q87 -4 157 34t114 105.5t70.5 141.5t39.5 157q7 48 11 86.5
t4.5 89.5t-10 89.5t-30 74t-57 55.5t-90.5 22q-70 3 -130 -21.5t-100.5 -67t-72.5 -101.5t-50 -118.5t-28 -124.5q-6 -40 -10 -73.5t-5 -77.5t3 -79t16.5 -71.5t33 -61t54.5 -41t80 -18.5zM1929 1193q-51 2 -97.5 -12t-82 -37t-70 -59.5t-60 -72t-51.5 -81.5l544 3
q31 111 -18 183t-165 76z" />
    <glyph glyph-name="Racute" unicode="&#x154;" horiz-adv-x="1788" 
d="M979 2104l339 432l490 -1l-444 -431h-385zM1087 0l-201 752h-271l-149 -752h-460l418 2048l743 -1q147 -2 267 -44t203 -119.5t121 -197t20 -269.5q-24 -205 -136.5 -354t-302.5 -227l234 -836h-486zM805 1664l-119 -531l294 -3q135 -1 229.5 72.5t118.5 204.5
q20 112 -25.5 182t-156.5 74z" />
    <glyph glyph-name="racute" unicode="&#x155;" horiz-adv-x="1189" 
d="M612 1680l338 432l491 -1l-444 -431h-385zM1306 1506l-191 -390q-53 34 -136 36q-121 3 -218.5 -79t-124.5 -201l-174 -872h-456l313 1536l444 1l-57 -201l17 2q50 111 140 167t213 54q121 -3 230 -53z" />
    <glyph glyph-name="Rcommaaccent" unicode="&#x156;" horiz-adv-x="1787" 
d="M1087 0l-201 752h-271l-149 -752h-460l418 2048l743 -1q147 -2 267 -44t203 -119.5t121 -197t20 -269.5q-24 -205 -136.5 -354t-302.5 -227l234 -836h-486zM805 1664l-119 -531l294 -3q135 -1 229.5 72.5t118.5 204.5q20 112 -25.5 182t-156.5 74zM923 -100l-46 -227
q-68 -364 -280 -560l-221 111l65.5 125t76.5 158.5t41 136.5l45 256h319z" />
    <glyph glyph-name="rcommaaccent" unicode="&#x157;" horiz-adv-x="1187" 
d="M1306 1506l-191 -390q-53 34 -136 36q-121 3 -218.5 -79t-124.5 -201l-174 -872h-456l313 1536l444 1l-57 -201l17 2q50 111 140 167t213 54q121 -3 230 -53zM372 -116l-47 -227q-68 -365 -280 -560l-220 111q14 29 65.5 125t77 159t39.5 136l45 256h320z" />
    <glyph glyph-name="Rcaron" unicode="&#x158;" horiz-adv-x="1788" 
d="M1051 2536l159 -183l231 182l383 10l1 -31l-480 -382h-277l-371 384l-1 31zM1087 0l-201 752h-271l-149 -752h-460l418 2048l743 -1q147 -2 267 -44t203 -119.5t121 -197t20 -269.5q-24 -205 -136.5 -354t-302.5 -227l234 -836h-486zM805 1664l-119 -531l294 -3
q135 -1 229.5 72.5t118.5 204.5q20 112 -25.5 182t-156.5 74z" />
    <glyph glyph-name="rcaron" unicode="&#x159;" horiz-adv-x="1189" 
d="M683 2112l159 -183l232 182l383 10l1 -31l-481 -382h-276l-372 384v31zM1306 1506l-191 -390q-53 34 -136 36q-121 3 -218.5 -79t-124.5 -201l-174 -872h-456l313 1536l444 1l-57 -201l17 2q50 111 140 167t213 54q121 -3 230 -53z" />
    <glyph glyph-name="Sacute" unicode="&#x15a;" horiz-adv-x="1768" 
d="M991 2104l339 432l490 -1l-444 -431h-385zM1349 1438q3 243 -234 249q-55 2 -109.5 -8.5t-106.5 -33t-90 -63.5t-52 -95q-10 -37 1.5 -69t33 -54t59 -43.5t67.5 -33.5l71 -27.5t58 -23.5l49 -25q94 -42 162 -80.5t138.5 -95t112 -118.5t63.5 -147t12 -185
q-13 -124 -65.5 -227t-132 -174t-182 -120t-215 -71.5t-231.5 -20.5q-324 4 -509 188.5t-175 505.5h436q-5 -145 63 -225.5t212 -84.5q125 -2 229.5 55t133.5 169q38 152 -181 252q-44 20 -136 52l-36 13q-83 29 -154.5 67.5t-135.5 93t-107.5 118t-65.5 144.5t-14 171
q10 117 65 216t137 167t187 115t215 68t221 19q297 -5 467.5 -174.5t165.5 -463.5h-427z" />
    <glyph glyph-name="sacute" unicode="&#x15b;" horiz-adv-x="1545" 
d="M740 1680l339 432l490 -1l-444 -431h-385zM1485 1081l-407 -23q-10 80 -62 121.5t-135 42.5q-79 2 -152.5 -33.5t-89.5 -104.5q-6 -28 2 -48.5t30.5 -33.5t40.5 -20t47 -14l289 -65q172 -41 270 -142t90 -269q-6 -112 -55.5 -202.5t-125.5 -149t-175.5 -98t-200.5 -55.5
t-204 -15q-259 3 -416 128t-196 375l435 23q14 -91 70 -143t148 -53q35 -1 73 5.5t76.5 21t67 41.5t36.5 62q7 32 0.5 54.5t-28.5 36.5t-41 21t-52 15l-256 62q-175 45 -278 153t-94 278q5 108 52 195.5t119 144.5t166.5 95.5t192 54t197.5 14.5q247 -3 393 -120t173 -355z
" />
    <glyph glyph-name="Scircumflex" unicode="&#x15c;" horiz-adv-x="1768" 
d="M1041 2202l-392 -11l-1 31l484 382h277l368 -384v-31l-351 11l-155 183zM1348 1438q3 243 -234 249q-55 2 -109.5 -8.5t-106.5 -33t-90 -63.5t-52 -95q-10 -37 1.5 -69t33 -54t59 -43.5t67.5 -33.5l71 -27.5t58 -23.5l49 -25q94 -42 162 -80.5t138.5 -95t112 -118.5
t63.5 -147t12 -185q-13 -124 -65.5 -227t-132 -174t-182 -120t-215 -71.5t-231.5 -20.5q-324 4 -509 188.5t-175 505.5h436q-5 -145 63 -225.5t212 -84.5q125 -2 229.5 55t133.5 169q38 152 -181 252q-44 20 -136 52l-36 13q-83 29 -154.5 67.5t-135.5 93t-107.5 118
t-65.5 144.5t-14 171q10 117 65 216t137 167t187 115t215 68t221 19q297 -5 467.5 -174.5t165.5 -463.5h-427z" />
    <glyph glyph-name="scircumflex" unicode="&#x15d;" horiz-adv-x="1544" 
d="M791 1778l-392 -11l-2 31l485 382h277l368 -384v-31l-351 11l-155 183zM1485 1081l-407 -23q-10 80 -62 121.5t-135 42.5q-79 2 -152.5 -33.5t-89.5 -104.5q-6 -28 2 -48.5t30.5 -33.5t40.5 -20t47 -14l289 -65q172 -41 270 -142t90 -269q-6 -112 -55.5 -202.5
t-125.5 -149t-175.5 -98t-200.5 -55.5t-204 -15q-259 3 -416 128t-196 375l435 23q14 -91 70 -143t148 -53q35 -1 73 5.5t76.5 21t67 41.5t36.5 62q7 32 0.5 54.5t-28.5 36.5t-41 21t-52 15l-256 62q-175 45 -278 153t-94 278q5 108 52 195.5t119 144.5t166.5 95.5t192 54
t197.5 14.5q247 -3 393 -120t173 -355z" />
    <glyph glyph-name="Scedilla" unicode="&#x15e;" horiz-adv-x="1766" 
d="M1348 1438q3 243 -234 249q-55 2 -109.5 -8.5t-106.5 -33t-90 -63.5t-52 -95q-10 -37 1.5 -69t33 -54t59 -43.5t67.5 -33.5l71 -27.5t58 -23.5l49 -25q94 -42 162 -80.5t138.5 -95t112 -118.5t63.5 -147t12 -185q-13 -134 -73 -243t-153 -182.5t-205.5 -118.5t-241.5 -61
l-22 -60q78 -11 120 -74t41 -145q0 -82 -35.5 -145.5t-89 -101t-128.5 -61.5t-143 -33.5t-144 -11.5l16 262q59 2 102.5 29.5t57.5 82.5q6 13 3.5 24l-4.5 19.5t-10.5 15t-15.5 11t-19 7.5t-21.5 5t-23 3t-22.5 1.5t-21.5 1t-19.5 1.5l53 178q-248 49 -383.5 225.5
t-127.5 451.5h436q-5 -145 63 -225.5t212 -84.5q125 -2 229.5 55t133.5 169q38 152 -181 252q-44 20 -136 52l-36 13q-83 29 -154.5 67.5t-135.5 93t-107.5 118t-65.5 144.5t-14 171q10 117 65 216t137 167t187 115t215 68t221 19q297 -5 467.5 -174.5t165.5 -463.5h-427z
" />
    <glyph glyph-name="scedilla" unicode="&#x15f;" horiz-adv-x="1544" 
d="M1485 1081l-407 -23q-10 80 -62 121.5t-135 42.5q-79 2 -152.5 -33.5t-89.5 -104.5q-6 -28 2 -48.5t30.5 -33.5t40.5 -20t47 -14l289 -65q172 -41 270 -142t90 -269q-5 -94 -41.5 -174t-93 -136t-133 -98.5t-158.5 -66.5t-172 -36l-26 -73q77 -11 119 -74t41 -145
q0 -82 -35.5 -145.5t-89 -101t-128.5 -61.5t-143 -33.5t-144 -11.5l16 262q60 2 103 29.5t57 82.5q6 13 3.5 24l-4.5 19.5t-10.5 15t-15 11t-19 7.5l-21.5 5t-22.5 3t-23 1.5t-22 1t-19.5 1.5l56 189q-382 76 -447 487l435 23q14 -91 70 -143t148 -53q35 -1 73 5.5t76.5 21
t67 41.5t36.5 62q7 32 0.5 54.5t-28.5 36.5t-41 21t-52 15l-256 62q-175 45 -278 153t-94 278q5 108 52 195.5t119 144.5t166.5 95.5t192 54t197.5 14.5q247 -3 393 -120t173 -355z" />
    <glyph glyph-name="Scaron" unicode="&#x160;" horiz-adv-x="1768" 
d="M1063 2536l159 -183l231 182l383 10l1 -31l-480 -382h-277l-371 384l-1 31zM1349 1438q3 243 -234 249q-55 2 -109.5 -8.5t-106.5 -33t-90 -63.5t-52 -95q-10 -37 1.5 -69t33 -54t59 -43.5t67.5 -33.5l71 -27.5t58 -23.5l49 -25q94 -42 162 -80.5t138.5 -95t112 -118.5
t63.5 -147t12 -185q-13 -124 -65.5 -227t-132 -174t-182 -120t-215 -71.5t-231.5 -20.5q-324 4 -509 188.5t-175 505.5h436q-5 -145 63 -225.5t212 -84.5q125 -2 229.5 55t133.5 169q38 152 -181 252q-44 20 -136 52l-36 13q-83 29 -154.5 67.5t-135.5 93t-107.5 118
t-65.5 144.5t-14 171q10 117 65 216t137 167t187 115t215 68t221 19q297 -5 467.5 -174.5t165.5 -463.5h-427z" />
    <glyph glyph-name="scaron" unicode="&#x161;" horiz-adv-x="1544" 
d="M812 2112l158 -183l232 182l383 10l1 -31l-480 -382h-277l-372 384v31zM1485 1081l-407 -23q-10 80 -62 121.5t-135 42.5q-79 2 -152.5 -33.5t-89.5 -104.5q-6 -28 2 -48.5t30.5 -33.5t40.5 -20t47 -14l289 -65q172 -41 270 -142t90 -269q-6 -112 -55.5 -202.5
t-125.5 -149t-175.5 -98t-200.5 -55.5t-204 -15q-259 3 -416 128t-196 375l435 23q14 -91 70 -143t148 -53q35 -1 73 5.5t76.5 21t67 41.5t36.5 62q7 32 0.5 54.5t-28.5 36.5t-41 21t-52 15l-256 62q-175 45 -278 153t-94 278q5 108 52 195.5t119 144.5t166.5 95.5t192 54
t197.5 14.5q247 -3 393 -120t173 -355z" />
    <glyph glyph-name="Tcommaaccent" unicode="&#x162;" horiz-adv-x="1811" 
d="M1979 2048l-72 -384h-589l-338 -1664h-77l-23 -64q77 -11 119 -74t42 -145q0 -69 -24 -125t-67 -93t-94.5 -63.5t-115.5 -41t-120.5 -21.5t-119.5 -9l16 262q60 2 103 29.5t57 82.5q6 13 3.5 24l-4.5 19.5t-10.5 15t-15 11t-19 7.5l-21.5 5t-22.5 3t-23 1.5t-22 1
t-19.5 1.5l52 173h-50l355 1663l-591 1l72 384h1619z" />
    <glyph glyph-name="tcommaaccent" unicode="&#x163;" horiz-adv-x="1040" 
d="M300 16l101 1q-111 53 -168 164.5t-41 246.5l165 787l-174 1l64 320h173l58 328h458l-78 -327l241 -1l-61 -320h-240l-150 -734q-10 -63 5.5 -94t73.5 -32q33 0 95 12l36 -347q-71 -44 -241 -42l-21 -59q78 -11 120 -74t41 -145q0 -82 -35.5 -145.5t-89 -101
t-128.5 -61.5t-143 -33.5t-144 -11.5l16 262q59 2 102.5 29.5t57.5 82.5q6 13 3.5 24l-4.5 19.5t-10.5 15t-15.5 11t-19 7.5t-21.5 5t-23 3t-22.5 1.5t-21.5 1t-19.5 1.5z" />
    <glyph glyph-name="Tcaron" unicode="&#x164;" horiz-adv-x="1811" 
d="M1050 2536l159 -183l231 182l383 10l1 -31l-480 -382h-277l-371 384l-1 31zM1979 2048l-72 -384h-589l-338 -1664h-456l355 1663l-591 1l72 384h1619z" />
    <glyph glyph-name="tcaron" unicode="&#x165;" horiz-adv-x="1081" 
d="M1582 2296l-47 -227q-68 -365 -280 -560l-220 111q16 34 65.5 126t76 156.5t40.5 137.5l45 256h320zM1100 1536l-61 -320h-240l-150 -734q-10 -63 5.5 -94t73.5 -32q33 0 95 12l36 -347q-35 -22 -92.5 -32t-107.5 -9.5t-98 0.5q-120 3 -210 65t-131 163.5t-27 219.5
l165 787l-174 1l64 320h173l58 328h458l-78 -327z" />
    <glyph glyph-name="Tbar" unicode="&#x166;" horiz-adv-x="1811" 
d="M1456 1260l-46 -264h-228l-202 -996h-456l212 996h-296l46 264h307l86 403l-591 1l72 384h1619l-72 -384h-589l-82 -404h220z" />
    <glyph glyph-name="tbar" unicode="&#x167;" horiz-adv-x="1041" 
d="M1013 964l-46 -264h-272l-45 -218q-10 -63 5.5 -94t73.5 -32q33 0 95 12l36 -347q-35 -22 -92.5 -32t-107.5 -9.5t-98 0.5q-120 3 -210 65t-131 163.5t-27 219.5l57 272h-254l46 264h263l53 251l-174 1l64 320h173l58 328h458l-78 -327l241 -1l-61 -320h-240l-51 -252
h264z" />
    <glyph glyph-name="Utilde" unicode="&#x168;" horiz-adv-x="1944" 
d="M1596 2544l241 -14q-2 -56 -16.5 -111t-43 -104.5t-67 -86.5t-91.5 -58.5t-113 -20.5q-45 1 -95 20t-87 42t-86 41.5t-92 18.5q-103 0 -131 -127l-247 10q2 70 26 138t65.5 123.5t104.5 88.5t137 32q44 -1 93.5 -19.5t87 -41t86.5 -40.5t92 -18q105 0 136 127zM1588 2048
h460l-278 -1351q-42 -231 -173 -397.5t-324.5 -250t-429.5 -80.5q-162 2 -299 52.5t-233 141t-139.5 229t-17.5 304.5l270 1352h460l-275 -1337q-25 -144 49 -231.5t220 -92.5q160 -5 284 83.5t157 241.5z" />
    <glyph glyph-name="utilde" unicode="&#x169;" horiz-adv-x="1649" 
d="M1368 2125l244 -14q-4 -97 -43 -183t-116 -143.5t-177 -56.5q-45 1 -94.5 20t-86 42t-85 42.5t-91.5 19.5q-106 0 -135 -130l-250 11q4 96 43.5 182.5t117 144.5t176.5 56q44 -1 93.5 -20t86.5 -41t86.5 -40.5t92.5 -18.5q56 0 90 35.5t48 93.5zM1043 720l160 816h456
l-313 -1536h-420l49 168l-6 -1q-175 -194 -428 -188q-82 2 -149.5 26.5t-114 66t-81 97.5t-49.5 121.5t-20 138.5t7 147l188 960h456l-193 -946q-9 -44 -4 -87.5t19 -78.5t48 -57.5t84 -25.5q59 -3 108.5 20t81.5 60.5t57.5 91.5t39.5 102.5t24 104.5z" />
    <glyph glyph-name="Umacron" unicode="&#x16a;" horiz-adv-x="1944" 
d="M1776 2420l-41 -236h-927l42 236h926zM1588 2048h460l-278 -1351q-42 -231 -173 -397.5t-324.5 -250t-429.5 -80.5q-162 2 -299 52.5t-233 141t-139.5 229t-17.5 304.5l270 1352h460l-275 -1337q-25 -144 49 -231.5t220 -92.5q160 -5 284 83.5t157 241.5z" />
    <glyph glyph-name="umacron" unicode="&#x16b;" horiz-adv-x="1649" 
d="M1517 1996l-42 -236h-926l41 236h927zM1039 720l160 816h456l-313 -1536h-420l49 168l-6 -1q-84 -94 -194 -143.5t-234 -46.5q-81 2 -148.5 26.5t-114 66.5t-81 98.5t-50 122.5t-20.5 138.5t7 146.5l188 960h456l-193 -946q-7 -61 -1 -114.5t44 -91.5t103 -42
q59 -3 108.5 20t82 60t58 91t39.5 102.5t24 104.5z" />
    <glyph glyph-name="Ubreve" unicode="&#x16c;" horiz-adv-x="1944" 
d="M1511 2541l297 3q-1 -103 -44.5 -186.5t-115.5 -136t-163.5 -80t-191.5 -25.5q-198 4 -320.5 118t-125.5 308l295 -1q-5 -174 152 -178q88 -3 147 45t70 133zM1588 2048h460l-278 -1351q-42 -231 -173 -397.5t-324.5 -250t-429.5 -80.5q-162 2 -299 52.5t-233 141
t-139.5 229t-17.5 304.5l270 1352h460l-275 -1337q-25 -144 49 -231.5t220 -92.5q160 -5 284 83.5t157 241.5z" />
    <glyph glyph-name="ubreve" unicode="&#x16d;" horiz-adv-x="1649" 
d="M1251 2117l297 3q-1 -103 -44.5 -186.5t-115.5 -136t-163.5 -80t-191.5 -25.5q-197 4 -319.5 118t-125.5 308l294 -1q-5 -174 153 -178q87 -3 146 45t70 133zM1039 720l160 816h456l-313 -1536h-420l49 168l-6 -1q-84 -94 -194 -143.5t-234 -46.5q-81 2 -148.5 26.5
t-114 66.5t-81 98.5t-50 122.5t-20.5 138.5t7 146.5l188 960h456l-193 -946q-7 -61 -1 -114.5t44 -91.5t103 -42q59 -3 108.5 20t82 60t58 91t39.5 102.5t24 104.5z" />
    <glyph glyph-name="Uring" unicode="&#x16e;" horiz-adv-x="1943" 
d="M1024 2366q-1 126 93.5 209.5t221.5 81.5q117 -2 199 -79t83 -192q0 -84 -44.5 -150t-116.5 -100.5t-154 -32.5q-116 2 -198.5 75t-83.5 188zM1184 2367q-11 -56 14.5 -95.5t81.5 -40.5q65 -1 116.5 44.5t63.5 109.5q12 56 -13.5 95.5t-81.5 40.5q-65 1 -116.5 -44
t-64.5 -110zM1587 2048h460l-278 -1351q-42 -231 -173 -397.5t-324.5 -250t-429.5 -80.5q-162 2 -299 52.5t-233 141t-139.5 229t-17.5 304.5l270 1352h460l-275 -1337q-25 -144 49 -231.5t220 -92.5q160 -5 284 83.5t157 241.5z" />
    <glyph glyph-name="uring" unicode="&#x16f;" horiz-adv-x="1647" 
d="M766 1942q-1 126 93 209.5t222 81.5q116 -2 198.5 -79t83.5 -192q0 -126 -94 -205.5t-221 -77.5q-117 2 -199.5 75t-82.5 188zM925 1943q-11 -56 14.5 -95.5t81.5 -40.5q65 -1 116.5 44t64.5 110q11 56 -14.5 95.5t-81.5 40.5q-65 1 -116.5 -44t-64.5 -110zM1039 720
l160 816h456l-313 -1536h-420l49 168l-6 -1q-84 -94 -194 -143.5t-234 -46.5q-81 2 -148.5 26.5t-114 66.5t-81 98.5t-50 122.5t-20.5 138.5t7 146.5l188 960h456l-193 -946q-7 -61 -1 -114.5t44 -91.5t103 -42q59 -3 108.5 20t82 60t58 91t39.5 102.5t24 104.5z" />
    <glyph glyph-name="Uhungarumlaut" unicode="&#x170;" horiz-adv-x="1943" 
d="M820 2125l345 411l398 -1l-400 -411zM1322 2125l385 411l400 -1l-438 -411zM1587 2048h460l-278 -1351q-42 -231 -173 -397.5t-324.5 -250t-429.5 -80.5q-162 2 -299 52.5t-233 141t-139.5 229t-17.5 304.5l270 1352h460l-275 -1337q-25 -144 49 -231.5t220 -92.5
q160 -5 284 83.5t157 241.5z" />
    <glyph glyph-name="uhungarumlaut" unicode="&#x171;" horiz-adv-x="1649" 
d="M561 1701l346 411l397 -1l-399 -411zM1064 1701l385 411l400 -1l-439 -411zM1039 720l160 816h456l-313 -1536h-420l49 168l-6 -1q-84 -94 -194 -143.5t-234 -46.5q-81 2 -148.5 26.5t-114 66.5t-81 98.5t-50 122.5t-20.5 138.5t7 146.5l188 960h456l-193 -946
q-7 -61 -1 -114.5t44 -91.5t103 -42q59 -3 108.5 20t82 60t58 91t39.5 102.5t24 104.5z" />
    <glyph glyph-name="Uogonek" unicode="&#x172;" horiz-adv-x="1943" 
d="M1587 2048h460l-278 -1351q-49 -272 -219 -452t-422 -243q-69 -59 -81 -126q-13 -77 54 -77q27 -1 95 24l38 -235q-84 -57 -212 -55q-131 2 -215 78.5t-81 204.5q1 82 42 157q-149 12 -271.5 67t-208 145t-122.5 222t-13 289l270 1352h460l-275 -1337q-25 -144 49 -231.5
t220 -92.5q160 -5 284 83.5t157 241.5z" />
    <glyph glyph-name="uogonek" unicode="&#x173;" horiz-adv-x="1647" 
d="M1039 720l160 816h456l-313 -1536h-97l16 -6q-3 -2 -30 -16.5t-34 -19t-31 -18.5t-33.5 -22l-28.5 -23t-28.5 -27l-21.5 -28t-18.5 -33t-9.5 -35q-13 -77 55 -77q25 -1 95 24l37 -235q-83 -57 -212 -55q-130 2 -214 78.5t-82 204.5q4 199 229 330l37 126l-6 -1
q-84 -94 -194 -143.5t-234 -46.5q-81 2 -148.5 26.5t-114 66.5t-81 98.5t-50 122.5t-20.5 138.5t7 146.5l188 960h456l-193 -946q-7 -61 -1 -114.5t44 -91.5t103 -42q59 -3 108.5 20t82 60t58 91t39.5 102.5t24 104.5z" />
    <glyph glyph-name="Wcircumflex" unicode="&#x174;" horiz-adv-x="2887" 
d="M1523 2202l-392 -11l-1 31l484 382h278l367 -384v-31l-351 11l-155 183zM739 2050l99 -1381h14l588 1379h398l101 -1383h14l578 1383h422l-859 -2048h-461l-101 1287h-14l-557 -1287h-461l-156 2047z" />
    <glyph glyph-name="wcircumflex" unicode="&#x175;" horiz-adv-x="2197" 
d="M1142 1778l-392 -11l-1 31l485 382h277l367 -384v-31l-350 11l-155 183zM2240 1536l-684 -1536h-362l-57 856h-21l-420 -856h-364l-59 1536h430l-51 -925h16l426 925h305l33 -916l19 -1l347 917h442z" />
    <glyph glyph-name="Ycircumflex" unicode="&#x176;" horiz-adv-x="2144" 
d="M1205 2202l-392 -11l-1 31l484 382h277l368 -384v-31l-351 11l-155 183zM820 2051l304 -872l20 -1l667 870l522 -1l-1043 -1290l-147 -757h-460l173 802l-508 1245z" />
    <glyph glyph-name="ycircumflex" unicode="&#x177;" horiz-adv-x="1661" 
d="M838 1778l-392 -11l-1 31l485 382h277l367 -384v-31l-350 11l-155 183zM438 -27l30 49l-233 1513l456 1l93 -915l17 -1l481 916l480 -1l-986 -1755q-95 -178 -244 -281t-341 -102q-102 1 -243 47l144 351q53 -17 97 -17.5t77 12t64.5 41.5t54.5 61t53 81z" />
    <glyph glyph-name="Ydieresis" unicode="&#x178;" horiz-adv-x="2144" 
d="M1130 2139q-77 -1 -134.5 48.5t-61.5 125.5q-4 81 50.5 136t135.5 56q78 1 133 -50t59 -129t-49.5 -132t-132.5 -55zM1685 2139q-78 -1 -135 48.5t-61 125.5q-4 81 50.5 136t135.5 56q78 1 133 -50t59 -129t-49.5 -132t-132.5 -55zM821 2051l304 -872l20 -1l667 870
l522 -1l-1043 -1290l-147 -757h-460l173 802l-508 1245z" />
    <glyph glyph-name="Zacute" unicode="&#x179;" horiz-adv-x="1816" 
d="M995 2104l339 432l490 -1l-444 -431h-385zM1585 384l-72 -384h-1514l54 294l1241 1368l-951 2l72 384l1514 1l-54 -295l-1241 -1368z" />
    <glyph glyph-name="zacute" unicode="&#x17a;" horiz-adv-x="1537" 
d="M756 1680l338 432l491 -1l-444 -431h-385zM1301 360l-66 -360h-1228l52 281l848 893l-629 2l67 360l1184 1l-52 -282l-847 -893z" />
    <glyph glyph-name="Zdotaccent" unicode="&#x17b;" horiz-adv-x="1814" 
d="M1044 2344q-4 91 57 150t154 60q88 0 150 -53.5t66 -140.5q4 -91 -57.5 -150t-154.5 -60q-88 0 -149.5 53.5t-65.5 140.5zM1584 384l-72 -384h-1514l54 294l1241 1368l-951 2l72 384l1514 1l-54 -295l-1241 -1368z" />
    <glyph glyph-name="zdotaccent" unicode="&#x17c;" horiz-adv-x="1536" 
d="M805 1920q-4 91 57.5 150t154.5 60q88 0 149.5 -53.5t65.5 -140.5q4 -91 -57 -150t-154 -60q-88 0 -150 53.5t-66 140.5zM1301 360l-66 -360h-1228l52 281l848 893l-629 2l67 360l1184 1l-52 -282l-847 -893z" />
    <glyph glyph-name="Zcaron" unicode="&#x17d;" horiz-adv-x="1816" 
d="M1067 2536l159 -183l231 182l383 10l1 -31l-480 -382h-277l-371 384l-1 31zM1585 384l-72 -384h-1514l54 294l1241 1368l-951 2l72 384l1514 1l-54 -295l-1241 -1368z" />
    <glyph glyph-name="zcaron" unicode="&#x17e;" horiz-adv-x="1537" 
d="M827 2112l159 -183l232 182l383 10l1 -31l-481 -382h-276l-372 384v31zM1301 360l-66 -360h-1228l52 281l848 893l-629 2l67 360l1184 1l-52 -282l-847 -893z" />
    <glyph glyph-name="longs" unicode="&#x17f;" horiz-adv-x="794" 
d="M311 0h-440l331 1606q43 259 210 399t432 138q66 -1 233 -29l-74 -343q-57 15 -126 17q-93 2 -156.5 -44.5t-83.5 -135.5z" />
    <glyph glyph-name="bbar" unicode="&#x180;" horiz-adv-x="1814" 
d="M597 2049l459 -2l-37 -122l264 -1l-48 -264h-262l-74 -292l7 1q58 96 151 143.5t208 44.5q86 -2 157.5 -29t120.5 -72t85.5 -106.5t56.5 -130t29.5 -146t8 -151t-11.5 -146.5q-16 -115 -51 -226.5t-95.5 -218t-138.5 -186t-187 -126t-234 -43.5q-69 2 -129 19t-112.5 60
t-71.5 106h-24l-36 -161h-452l352 1659l-267 1l48 264h269zM1288 777q63 406 -180 416q-69 3 -127.5 -22.5t-97.5 -68t-69.5 -102t-47.5 -118t-27 -122.5q-7 -40 -11 -71.5t-6 -77t1.5 -79.5t14.5 -71.5t30.5 -62t52.5 -41.5t78 -19q70 -3 130.5 22t103 68t75 102.5
t51.5 120.5t29 126z" />
    <glyph glyph-name="Bhook" unicode="&#x181;" horiz-adv-x="2303" 
d="M1369 0h-846l355 1674h-30q-111 -2 -178.5 -74.5t-89.5 -187.5l-19 -129l-409 1l41 212q43 265 226.5 409.5t456.5 143.5l787 -2q107 -2 201.5 -22t178.5 -63t142.5 -105t87.5 -154.5t19 -205.5q-17 -189 -129 -297.5t-303 -131.5l-16 -38q55 -1 101.5 -23t79 -59t57 -84
t37.5 -99t17.5 -103t0.5 -97q-10 -116 -59 -212t-123 -161t-170.5 -109.5t-200.5 -64t-215 -18.5zM1321 1664l-106 -467l236 -3q333 -2 380 239q22 112 -31 169t-169 61zM1706 629q22 108 -23 174.5t-153 71.5l-372 1l-112 -491l309 -3q136 0 231.5 60.5t119.5 186.5z" />
    <glyph glyph-name="Btopbar" unicode="&#x182;" horiz-adv-x="1780" 
d="M1737 2048l-72 -384h-855l-83 -351l241 -2q116 -2 220 -28.5t191 -80t147.5 -128.5t88 -179t13.5 -225q-15 -129 -70 -239t-139 -189t-191.5 -134.5t-227 -82t-244.5 -25.5h-746l418 2048h1309zM532 373l243 -3q149 1 263 84t142 225q24 120 -41 190t-188 74l-292 1z" />
    <glyph glyph-name="btopbar" unicode="&#x183;" horiz-adv-x="1815" 
d="M428 2048h1154l-72 -380h-704l-77 -300l7 1q58 96 151 143t209 45q86 -2 157 -28.5t120.5 -71.5t85.5 -106.5t56 -130.5t29.5 -146t8 -150.5t-11.5 -147.5q-16 -115 -51 -226.5t-95.5 -218t-138.5 -186t-187 -126t-233 -43.5q-69 2 -129.5 19t-112.5 60t-72 106h-24
l-35 -161h-453zM1118 776q66 407 -180 417q-69 3 -127 -22.5t-97.5 -68t-70 -102t-47.5 -118t-27 -122.5q-7 -40 -11 -71.5t-6 -77t1.5 -79.5t14.5 -71.5t30.5 -62t53 -41.5t78.5 -19q70 -3 130.5 22t102.5 68t74.5 102.5t51.5 120t29 125.5z" />
    <glyph glyph-name="Tonesix" unicode="&#x184;" horiz-adv-x="2155" 
d="M246 1664l73 384h925l-161 -735l241 -2q116 -2 220 -28.5t191 -80t147.5 -128t88 -178.5t14.5 -225q-18 -160 -99 -290.5t-202 -212.5t-268 -125.5t-304 -42.5h-746l355 1663zM888 373l243 -3q149 0 263 83t142 225q24 120 -41 190.5t-188 74.5l-292 1z" />
    <glyph glyph-name="tonesix" unicode="&#x185;" horiz-adv-x="1815" 
d="M634 2113l75 3l-16 -73l389 5l-155 -680l7 1q58 96 151 143.5t208 44.5q86 -2 157.5 -29t120.5 -72t85.5 -106.5t56.5 -130t29.5 -146t8 -151t-11.5 -146.5q-16 -115 -51 -226.5t-95.5 -218t-138.5 -186t-187 -126t-234 -43.5q-69 2 -129 19t-112.5 60t-71.5 106h-24
l-35 -161h-453l313 1467l-209 216l41 219zM1316 777q66 406 -180 416q-69 3 -127 -22.5t-97.5 -68t-70 -102t-47.5 -118t-27 -122.5q-7 -40 -11 -71.5t-6 -77t1.5 -79.5t14.5 -71.5t30.5 -62t53 -41.5t78.5 -19q70 -3 130.5 22t102.5 68t74.5 102.5t51.5 120.5t29 126z" />
    <glyph glyph-name="Oopen" unicode="&#x186;" horiz-adv-x="1974" 
d="M276 1403q54 197 195.5 353.5t333.5 240t396 80.5q123 -2 227 -34.5t180.5 -89.5t135 -134.5t94 -169.5t53.5 -195.5t17.5 -210.5t-17.5 -217q-26 -165 -85.5 -319t-154.5 -289t-215.5 -235t-277.5 -156.5t-330 -54.5q-152 2 -276 52t-211.5 140.5t-146.5 208.5t-91 265
l443 61q58 -302 313 -311q104 -4 192.5 32.5t151 98.5t111 148.5t76.5 175t44 185.5q10 59 15.5 110.5t7 117.5t-5.5 119t-26 107t-50.5 91t-83.5 61.5t-121 26.5q-156 6 -280 -82t-182 -237z" />
    <glyph glyph-name="Chook" unicode="&#x187;" horiz-adv-x="2224" 
d="M1977 1340l-426 -3q-56 314 -318 323q-104 4 -193 -33t-151.5 -100.5t-111 -151.5t-77 -177.5t-44.5 -186.5q-10 -59 -15.5 -110.5t-6.5 -116.5t6 -117t26.5 -105t51 -89.5t83.5 -60.5t121 -26q153 -5 273.5 79t178.5 229l436 -61q-54 -196 -195 -349t-331 -233.5
t-393 -78.5q-122 1 -226 33t-180.5 88t-135.5 132.5t-95 167.5t-54.5 193.5t-18 209.5t17.5 217q26 166 85.5 321t155 291.5t216 237.5t278 158t331.5 55q135 -2 258.5 -41.5t215.5 -120.5q233 227 556 227q120 0 222 -11l-48 -377q-91 9 -117 10q-130 5 -228.5 -68
t-122.5 -199z" />
    <glyph glyph-name="chook" unicode="&#x188;" horiz-adv-x="1748" 
d="M1549 1027l-416 -78q-9 53 -20.5 90.5t-33.5 74t-59 56.5t-89 23q-70 3 -129.5 -21.5t-100.5 -67t-72.5 -101.5t-49.5 -118.5t-29 -124.5q-6 -39 -10 -72t-5.5 -77.5t2.5 -79.5t16.5 -71.5t32.5 -61.5t54.5 -41.5t79.5 -18.5q100 -4 173.5 53.5t111.5 154.5l408 -73
q-37 -156 -149 -273t-260.5 -174t-309.5 -54q-109 2 -201 33t-157.5 85t-115 128t-73 160.5t-32 183.5t8.5 198q23 165 92 309.5t174 254.5t252.5 172.5t316.5 60.5q181 -2 319 -75q187 205 456 204q70 -1 190 -24l-33 -301q-71 17 -100 19q-94 5 -148.5 -47.5t-71.5 -148.5
z" />
    <glyph glyph-name="Dbar1" unicode="&#x189;" horiz-adv-x="2134" 
d="M921 0h-733l195 895l-253 1l47 264h252l177 888h680q126 -2 234.5 -30t192 -79t150.5 -122t108.5 -158t66.5 -188.5t25 -212t-17 -229.5q-34 -221 -128.5 -409.5t-237 -326.5t-338.5 -216t-421 -77zM1148 1160l-47 -264h-275l-111 -495l211 -2q143 -1 260 45.5
t197.5 132.5t132.5 200.5t75 255.5q16 100 19 182.5t-14 164t-57 138t-115.5 92t-183.5 37.5l-257 1l-111 -487z" />
    <glyph glyph-name="Dhook" unicode="&#x18a;" horiz-adv-x="2482" 
d="M1259 0h-734l351 1654h-33q-110 -2 -177 -67t-87 -175l-19 -129l-409 1l41 212q43 265 226.5 409.5t456.5 143.5l749 -1q126 -2 234.5 -30t192 -79t150 -122t108 -158t66.5 -188.5t25 -212t-16 -229.5q-35 -221 -129.5 -409.5t-236.5 -326.5t-338 -216t-421 -77z
M1577 1647l-257 1l-267 -1247l210 -2q143 -1 260 45.5t197.5 132.5t132.5 200.5t75 255.5q12 70 16.5 131t1.5 124t-17 114.5t-41.5 97t-69 77t-102.5 50.5t-139 20z" />
    <glyph glyph-name="Dtopbar" unicode="&#x18b;" horiz-adv-x="1814" 
d="M1505 0l-692 1q-117 2 -221.5 30.5t-190.5 83.5t-146 131.5t-87 181.5t-13 227q15 130 70.5 238.5t139 185t190.5 129.5t225.5 78.5t244.5 25.5h295l85 355l-863 1l71 380h1310zM1126 372l128 571l-248 3q-94 1 -176.5 -30t-144 -97.5t-79.5 -159.5q-25 -124 37 -202
t188 -83z" />
    <glyph glyph-name="dtopbar" unicode="&#x18c;" horiz-adv-x="1560" 
d="M1351 0h-452l47 160l-11 -1q-58 -95 -150.5 -141t-208.5 -44q-86 2 -157 29t-120.5 72.5t-85.5 107.5t-56 131t-29.5 146.5t-8 151.5t11.5 147q16 115 51 226t96 217t139 185t187 125.5t233 42.5q68 -2 128 -20t111 -60.5t71 -105.5l18 -1l86 299l-743 1l71 380h1190z
M553 759q-64 -411 181 -422q70 -3 128 23t97.5 69t69.5 103.5t47 119t27 123.5q7 40 10.5 71.5t6 76t-1 78.5t-14.5 71t-31 61t-53 41t-78 19q-70 3 -130.5 -21.5t-102.5 -67t-74.5 -101t-52 -119t-29.5 -125.5z" />
    <glyph glyph-name="deltaturn" unicode="&#x18d;" horiz-adv-x="1815" 
d="M1189 -517l-1095 1l66 356l545 -3q-29 39 -97 101t-77 72q-356 360 -308 743l4 29q23 158 91.5 293.5t171.5 234.5t245 154t303 52q196 -3 337.5 -89t207 -238t41.5 -346l-4 -29q-14 -97 -50 -193.5t-94 -185t-131 -158t-167.5 -113.5t-197.5 -50l-69 1
q38 -67 95.5 -144.5t99 -127l113.5 -131.5zM1173 764l5 28q6 37 9 68t3.5 70t-4.5 69t-17 61t-32 51.5t-52 34.5t-74 16q-64 3 -118.5 -18t-93 -57.5t-68.5 -88t-48 -105t-28 -112.5l-5 -27q-44 -286 103 -408q33 -10 57 -10q68 -3 125 22.5t95.5 67.5t68.5 101t47 116.5
t27 120.5z" />
    <glyph glyph-name="Eturn" unicode="&#x18e;" horiz-adv-x="1650" 
d="M-19 0l72 384h883l103 447l-750 1l72 384h747l104 447l-886 1l72 384h1337l-418 -2048h-1336z" />
    <glyph glyph-name="Schwa" unicode="&#x18f;" horiz-adv-x="2072" 
d="M910 -29q-117 1 -217.5 28t-176 75t-135.5 114.5t-96 148t-57 175.5t-19 196t18 211l40 245l1241 -3q50 210 -56 332t-324 126q-260 5 -556 -78l-23 394q58 34 138 55t176 29t162 10t157 2q200 -1 361.5 -69t263.5 -187.5t143 -290t7 -368.5l-45 -236
q-35 -186 -122.5 -351t-214.5 -290.5t-300 -198t-365 -69.5zM942 379q319 -9 508 409l-792 -2l-13 -45q-43 -166 40.5 -262t256.5 -100z" />
    <glyph glyph-name="Epsilon1" unicode="&#x190;" horiz-adv-x="1815" 
d="M971 1201l271 -1l-68 -357l-218 3q-154 1 -252.5 -68t-123.5 -216q-20 -115 49.5 -166t192.5 -54q57 -1 111 10.5t102 35.5t81 67.5t42 101.5l449 1q-5 -119 -56.5 -218.5t-132.5 -167t-185.5 -114t-214.5 -67t-221 -19.5q-113 1 -214.5 21t-192 64.5t-153.5 110t-95 164
t-21 219.5q34 356 436 482q-234 174 -214 417q10 122 62.5 222t132.5 166.5t184 112t214 64.5t225 17q178 -3 319 -68.5t226.5 -196.5t85.5 -310l-447 1q5 101 -50 148.5t-161 49.5q-80 2 -150 -17t-127 -70.5t-73 -129.5q-23 -113 24.5 -173.5t162.5 -64.5z" />
    <glyph glyph-name="Fhook" unicode="&#x191;" horiz-adv-x="1648" 
d="M1457 1216l-73 -384h-747l-185 -912q-39 -254 -193.5 -377.5t-413.5 -121.5q-136 0 -218 9l46 356q32 -6 74 -8q91 -3 159 30t89 112l434 2128h1336l-72 -384h-883l-103 -447z" />
    <glyph glyph-name="florin" unicode="&#x192;" horiz-adv-x="1303" 
d="M1253 1488l-56 -320h-283l-208 -1216q-17 -124 -61.5 -224.5t-116 -175t-174 -115t-229.5 -40.5q-97 0 -221 22l57 354q60 -21 118 -21q161 -4 193 200l212 1215l-215 1l58 320h209l17 120q35 256 202.5 396t427.5 138q75 0 234 -29l-67 -342q-69 16 -131 16
q-89 0 -149.5 -46.5t-79.5 -132.5l-26 -119z" />
    <glyph glyph-name="Ghook" unicode="&#x193;" horiz-adv-x="2310" 
d="M1916 1096l-69 -338q-41 -230 -178 -411t-341 -279.5t-439 -96.5q-122 1 -226 33t-180.5 88t-135.5 133t-94.5 168t-54 194t-18 210t17.5 216q26 166 84.5 320.5t153 291t213.5 237.5t276 158.5t331 55.5q235 -3 405 -110q119 160 283 244t362 83q80 0 220 -23l-47 -373
q-94 17 -116 18q-79 4 -142.5 -13.5t-113 -65.5t-66.5 -124l-61 -340l-454 -3q-56 281 -302 291q-102 4 -190.5 -34t-150 -102t-109.5 -152.5t-76 -177t-43 -183.5q-100 -613 266 -625q176 -6 308 97.5t190 275.5l-398 -3l63 340h832z" />
    <glyph glyph-name="Gamma1" unicode="&#x194;" horiz-adv-x="2071" 
d="M402 2003l512 1l179 -931l563 931h543l-990 -1473q12 -88 50 -227t63.5 -263.5t18.5 -229.5q-6 -87 -39.5 -157.5t-86 -118t-122.5 -79.5t-146.5 -45.5t-158.5 -11.5q-74 2 -142 16.5t-130 46t-106 76t-67.5 110.5t-17.5 146q5 67 38.5 147.5t92 168.5t106.5 152.5
l120.5 154.5l95.5 120zM796 -195q-3 -19 -4 -29.5t-0.5 -28t10 -26.5t27.5 -10q41 -1 64.5 31t32.5 78q4 23 5.5 46t-0.5 52.5t-3.5 44t-6.5 52.5t-6 45q-33 -53 -50 -83t-39 -80t-30 -92z" />
    <glyph glyph-name="hv" unicode="&#x195;" horiz-adv-x="2452" 
d="M626 816l-160 -816h-456l419 2048h440l-156 -680l6 1q169 193 415 187q80 -2 143.5 -28t104 -69t69.5 -101t39 -123.5t12 -135.5t-10 -139l-68 -366q-38 -236 120 -245q103 -6 167.5 65.5t85.5 180.5l186 941h456l-193 -940q-50 -284 -250 -456.5t-487 -167.5
q-133 2 -242 50t-180 129.5t-101.5 197t-10.5 247.5l70 370q7 44 7.5 76.5t-6.5 69.5t-33.5 58.5t-71.5 24.5q-59 3 -108.5 -20t-82.5 -60.5t-59 -91.5t-40.5 -103t-24.5 -104z" />
    <glyph glyph-name="Iota1" unicode="&#x196;" horiz-adv-x="1048" 
d="M865 2112l-330 -1611q-27 -160 122 -166q57 -2 140 12l-10 -352q-121 -25 -204 -24q-244 3 -378.5 147.5t-101.5 385.5l323 1608h439z" />
    <glyph glyph-name="Istroke" unicode="&#x197;" horiz-adv-x="1303" 
d="M1230 1160l-47 -264h-275l-178 -896h-460l196 895l-254 1l48 264h252l176 888h460l-194 -887z" />
    <glyph glyph-name="Khook" unicode="&#x198;" horiz-adv-x="2000" 
d="M1247 0l-377 759l-308 -281l-92 -478h-460l418 2048h460l-191 -861l18 1l595 552l136 130q337 328 763 112l-179 -333q-39 22 -76 26.5t-71.5 -8.5t-63 -33t-63.5 -53l-79 -76l-478 -421l575 -1084h-527z" />
    <glyph glyph-name="khook" unicode="&#x199;" horiz-adv-x="1579" 
d="M946 0l-229 548l-181 -175l-70 -373h-456l322 1580q35 252 190.5 376.5t412.5 122.5q101 -1 241 -17l-45 -352q-53 12 -96 13q-91 3 -159 -30.5t-89 -112.5l-128 -557h12l501 513l556 -1l-702 -672l391 -863h-471z" />
    <glyph glyph-name="lbar" unicode="&#x19a;" horiz-adv-x="1302" 
d="M1253 1272l-49 -264h-243l-201 -1008h-456l218 1007l-287 1l48 264h285l154 776h456l-169 -775z" />
    <glyph glyph-name="lambdabar" unicode="&#x19b;" horiz-adv-x="1815" 
d="M1302 1880l-40 -279l-43 -11l193 -1099q5 -26 8 -38.5t12 -37.5t18.5 -38.5t26 -25.5t37.5 -14l53 -1l-46 -359q-54 -7 -145 -3q-149 4 -247 88t-129 230l-80 568l-445 -860h-484l820 1451l-397 -121l55 299l292 79q-15 39 -44.5 53.5t-76.5 15.5q-20 1 -94 -4l30 338
q104 30 233 27q126 -2 218.5 -62.5t120.5 -176.5l13 -64z" />
    <glyph glyph-name="mcapturn" unicode="&#x19c;" horiz-adv-x="2582" 
d="M1817 0l30 168q-169 -202 -422 -196q-64 1 -121.5 14.5t-109.5 41t-90 74t-54 108.5q-205 -246 -480 -242q-89 1 -158.5 25t-114.5 66.5t-74.5 97.5t-40.5 124.5t-10.5 142.5t12.5 155l285 1425h436l-292 -1425q-40 -239 119 -247q153 -7 277 127l24 121l289 1424h437
l-292 -1426q-40 -237 117 -245q150 -7 271 117l321 1554h440l-410 -2004h-389z" />
    <glyph glyph-name="Nhook" unicode="&#x19d;" horiz-adv-x="1943" 
d="M2052 2048l-418 -2048h-437l-443 1262l-20 2l-283 -1344q-77 -502 -608 -499q-136 0 -217 9l46 356q31 -6 75 -8q58 -2 105 9.5t87.5 45t54.5 88.5l434 2127h441l439 -1262l20 -2l264 1264h460z" />
    <glyph glyph-name="nlegrightlong" unicode="&#x19e;" horiz-adv-x="1648" 
d="M622 816l-160 -816h-456l313 1536l420 1l-49 -169l6 1q173 193 429 187q81 -2 148.5 -26.5t113.5 -65.5t80.5 -97.5t49.5 -122t20 -138t-7 -146.5l-307 -1536h-455l312 1522q9 44 5 87t-18 78t-48 57.5t-84 25.5q-59 3 -108.5 -20t-82 -60.5t-58.5 -91t-39.5 -102
t-24.5 -104.5z" />
    <glyph glyph-name="Obar" unicode="&#x19f;" horiz-adv-x="2031" 
d="M1941 1027q-26 -164 -85 -318t-153.5 -289.5t-213.5 -235.5t-275 -157t-329 -55q-122 2 -225.5 34t-180.5 88t-135.5 132.5t-94.5 167.5t-54.5 193.5t-18 209.5t17.5 216q26 165 85 320.5t154.5 291.5t216 237t278 158.5t331.5 55.5q122 -2 225 -34.5t179 -89.5
t133.5 -135t92.5 -170t52.5 -195.5t17 -210t-17.5 -214.5zM1227 1661q-71 3 -134 -13.5t-114 -50.5t-94 -75.5t-81 -99t-66 -110t-57 -117.5q91 26 208 21t207.5 -23t209 -30.5t211.5 -0.5q9 55 6.5 113t-10.5 112.5t-31 103t-55.5 85.5t-83.5 60t-116 25zM916 387
q85 -3 159.5 23t128.5 68t103.5 108t82.5 128t67 143q-90 -28 -208 -23.5t-208.5 23t-210 31.5t-212.5 2q-6 -70 -5.5 -139t20.5 -133.5t53 -114.5t92.5 -81.5t137.5 -34.5z" />
    <glyph glyph-name="Ohorn" unicode="&#x1a0;" horiz-adv-x="2091" 
d="M1943 1026q-27 -165 -85.5 -318t-151.5 -288.5t-211.5 -235.5t-274.5 -157t-330 -55q-107 1 -200 26t-164.5 69t-130 105t-98.5 135t-67 157.5t-38 174.5t-9.5 185t16.5 189q26 166 85.5 321t155 291.5t216 237.5t278 158t331.5 55q185 -2 344.5 -81.5t249.5 -229.5
q52 27 89 68t58 93.5t32.5 101.5t18.5 113l266 1q-7 -99 -29 -185t-63.5 -165t-110 -138t-160.5 -91q8 -123 5.5 -269t-22.5 -268zM1489 1028q10 59 15.5 109t7.5 116.5t-4 119t-24 107.5t-49 92t-82.5 62t-119.5 27q-104 3 -193 -34.5t-151 -101t-111 -151t-77 -177.5
t-44 -186q-10 -59 -15.5 -110t-6.5 -116t5.5 -117.5t26 -105.5t51 -89t83.5 -60t121 -26q103 -3 191 33.5t149 99t108.5 149t75 175t43.5 184.5z" />
    <glyph glyph-name="ohorn" unicode="&#x1a1;" horiz-adv-x="1730" 
d="M693 -28q-94 2 -175 25t-143 64t-111.5 98t-80.5 125t-50 145.5t-19.5 160.5t9.5 170q18 131 65 250.5t122 220t170.5 174t218 113.5t258.5 38q162 -2 299 -69t211 -199q82 53 119 135t51 198l245 1q-24 -393 -337 -500q2 -220 -18 -348q-25 -164 -93.5 -309t-172.5 -257
t-251 -175.5t-317 -60.5zM721 338q87 -4 157 34t114 105.5t70.5 141.5t39.5 157q7 48 11 86.5t4.5 89.5t-10 89.5t-30 74t-57 55.5t-90.5 22q-71 3 -130.5 -21.5t-100.5 -67t-72.5 -101.5t-49.5 -118.5t-28 -124.5q-6 -40 -10 -73.5t-5 -77.5t3 -79t16.5 -71.5t33 -61
t54.5 -41t80 -18.5z" />
    <glyph glyph-name="OI" unicode="&#x1a2;" horiz-adv-x="2584" 
d="M2664 2004l-528 -2576h-436l427 2020l-229 -97l-214 -1100q-60 -78 -157.5 -136t-210 -87.5t-219 -43t-209.5 -12.5q-117 1 -217.5 29t-175.5 78.5t-134.5 120t-95 154t-56.5 180.5t-18.5 199t17.5 211l21 115q29 161 87 305.5t148.5 268t205.5 213t264.5 139.5t318.5 48
q121 -2 229 -18.5t224.5 -65.5t190.5 -127l415 182h352zM1259 1663q-104 2 -191 -30.5t-148.5 -88t-109.5 -135.5t-77 -165t-47 -184l-21 -117q-98 -590 270 -597q175 -3 331 85l255 1145q-26 35 -76 55.5t-90.5 25.5t-95.5 6z" />
    <glyph glyph-name="oi" unicode="&#x1a3;" horiz-adv-x="2071" 
d="M2103 1488l-421 -2060h-440l329 1557l-145 -50l-119 -639q-98 -165 -266 -246.5t-370 -77.5q-92 2 -171 24t-138.5 60t-107 91.5t-76.5 118t-46.5 138.5t-17.5 155t10 166l5 33q24 159 89 297t164 242.5t240 163.5t305 55q127 -2 245 -53.5t190 -147.5l424 173h317z
M686 333q106 -4 190 62l156 684q-36 78 -142 83q-65 3 -118.5 -21t-88 -63t-61 -96t-40.5 -109.5t-24 -114.5l-4 -32q-23 -147 -21 -208q6 -178 153 -185z" />
    <glyph glyph-name="Phook" unicode="&#x1a4;" horiz-adv-x="2314" 
d="M1467 703l-346 1l-140 -704h-460l357 1674h-31q-111 -3 -178.5 -75t-88.5 -187l-20 -129l-409 1l41 212q44 265 227 409t456 144l811 -2q317 -6 479 -180.5t122 -486.5q-43 -330 -261.5 -504t-558.5 -173zM1320 1664l-130 -579l299 -3q139 -1 231.5 80t117.5 220
q11 74 3.5 135t-52.5 101.5t-124 44.5z" />
    <glyph glyph-name="phook" unicode="&#x1a5;" horiz-adv-x="1644" 
d="M-95 -579l412 2116v-1q43 228 185 324.5t383 92.5q106 -1 240 -28l-39 -324q-51 26 -130 30q-60 1 -103.5 -23.5t-86.5 -75.5l6 2l-50 -167l12 2q58 96 151.5 143.5t209.5 45.5q86 -2 157.5 -29.5t120.5 -72.5t85.5 -106.5t56.5 -130t29.5 -146t8 -151t-11.5 -146.5
q-16 -115 -51 -226.5t-95.5 -218t-138.5 -186t-187 -126t-233 -43.5q-109 3 -196 47.5t-117 136.5l-19 1l-157 -737zM1119 777q63 406 -181 417q-69 3 -127 -22.5t-97.5 -68t-70 -102.5t-47.5 -118.5t-27 -122.5q-7 -40 -11 -71.5t-6 -76.5t1.5 -79t14.5 -71.5t30.5 -62
t53 -42t78.5 -19.5q70 -3 130.5 22t102.5 68.5t74.5 103t52 120t29.5 125.5z" />
    <glyph glyph-name="YR" unicode="&#x1a6;" horiz-adv-x="2072" 
d="M1209 -480l-337 1188h-285l-141 -708h-459l409 2003l6 -2l25 145l460 -3l-41 -138l281 -1q142 -2 261.5 -40t209 -109.5t133.5 -187t28 -261.5q-48 -437 -457 -579l382 -1283v-30zM778 1628l-123 -547l283 -3q141 -1 240.5 74t125.5 211q22 118 -28 189t-168 75z" />
    <glyph glyph-name="Tonetwo" unicode="&#x1a7;" horiz-adv-x="1814" 
d="M559 523q-10 -41 -2 -71.5t25 -52t46 -35.5t61 -21t69 -8q173 -6 290 72t138 242l451 1q-7 -133 -63.5 -246.5t-145.5 -192t-204 -134t-239 -81.5t-250 -24q-105 2 -200 22.5t-178 65t-141.5 107.5t-87.5 156t-18 205q9 97 45 181t94 148.5t125.5 116t155 93.5
t165.5 71.5t172 57.5q8 2 45.5 13t52.5 16l52.5 17.5t56.5 20.5l52.5 23t52.5 28l44.5 31.5t40.5 37.5t29 42.5t20 48.5q12 50 -3.5 88t-51 60t-77 33t-87.5 12q-87 2 -160 -25.5t-123.5 -88t-62.5 -146.5l-443 -2q5 121 54 225t128 177.5t181 125.5t214.5 76.5t227.5 23.5
q102 -2 198 -23t183.5 -66t151 -108t96.5 -156t23 -203q-7 -82 -37 -154.5t-72 -128.5t-104.5 -107t-123.5 -87t-140 -71t-143 -57.5t-144 -47.5q-11 -4 -49.5 -15.5t-55 -17l-53 -18.5t-55.5 -21.5l-51 -24t-50 -29.5t-41.5 -34t-37.5 -40.5t-27 -46.5t-19 -54z" />
    <glyph glyph-name="tonetwo" unicode="&#x1a8;" horiz-adv-x="1558" 
d="M508 411q-17 -68 29 -99.5t119 -34.5q107 -4 185 47.5t98 151.5l408 4q-1 -83 -32.5 -156.5t-84 -128.5t-121 -99t-145.5 -71t-156 -41t-153 -13q-83 1 -163.5 17.5t-155.5 52.5t-130.5 87t-86 127.5t-25.5 167.5q6 98 46.5 175.5t98.5 127t143.5 87.5t162 58t173.5 37
q138 24 198 52q90 43 108 118q16 64 -23.5 100t-106.5 38q-94 3 -156 -45.5t-75 -139.5l-434 -2q2 85 32 157.5t81 125.5t116.5 93.5t141.5 64.5t154 36t155 10q83 -2 161 -21t147 -57t119.5 -91.5t77.5 -129.5t21 -164t-44.5 -160t-93.5 -120t-134 -86.5t-150 -60
t-157 -39.5q-10 -2 -43.5 -8t-51.5 -10t-52 -12.5t-55 -16.5t-48.5 -21.5t-44.5 -28t-32 -35t-21 -44.5z" />
    <glyph glyph-name="Esh" unicode="&#x1a9;" horiz-adv-x="1815" 
d="M1319 1039v-24l-562 -633l769 -2l-71 -380h-1390l42 233l751 808l-408 819l31 188h1371l-72 -384h-765z" />
    <glyph glyph-name="eshlooprev" unicode="&#x1aa;" horiz-adv-x="1815" 
d="M368 1583q12 120 69 230.5t143.5 191.5t201.5 128t236 44q150 -4 267.5 -87.5t173 -216.5t35.5 -281l-327 -1614q-35 -208 113 -214q50 -2 133 11l-44 -359q-81 -17 -194 -15q-163 4 -271.5 83t-149.5 207.5t-19 288.5l229 1054q-58 -19 -125 -19q-111 0 -206 48
t-155.5 127t-90 182t-19.5 211zM879 1386q92 -3 157.5 61t82.5 159q14 80 -18 136t-111 59q-95 4 -163 -58t-84 -157q-14 -85 19.5 -141.5t116.5 -58.5z" />
    <glyph glyph-name="tpalatalhook" unicode="&#x1ab;" horiz-adv-x="1040" 
d="M1103 1536l-61 -320h-240l-150 -734q-11 -63 3.5 -93.5t72.5 -33.5q12 -1 36 1l156 30l-94 -466q-37 -227 -171.5 -361.5t-356.5 -133.5q-89 1 -196 21l34 300q59 -11 100 -12q104 -4 183 42t114 140l25 66h-1q-71 -5 -133 19.5t-106 69t-74.5 103t-42 124.5t-4.5 130
l164 787l-174 1l64 320h173l58 328h458l-78 -327z" />
    <glyph glyph-name="Thook" unicode="&#x1ac;" horiz-adv-x="2161" 
d="M2323 2048l-72 -384h-589l-339 -1664h-459l353 1663l-387 4q-114 0 -183 -69.5t-90 -185.5l-19 -129l-378 1l41 211q42 264 213.5 411t438.5 144z" />
    <glyph glyph-name="thook" unicode="&#x1ad;" horiz-adv-x="1303" 
d="M1201 1488l-61 -320h-247l-139 -686q-13 -72 6 -106t88 -36q34 -2 121 7l-40 -339q-95 -37 -238 -35q-205 4 -302 126.5t-72 328.5l157 739l-204 1l60 320h203l32 192q75 504 615 498q120 -1 239 -24l-34 -300q-45 14 -95 16q-104 5 -184.5 -44t-104.5 -146l-48 -191z
" />
    <glyph glyph-name="Trthook" unicode="&#x1ae;" horiz-adv-x="1812" 
d="M1981 2048l-72 -384h-588l-363 -1746q-13 -71 25 -102t114 -34l112 -2l-67 -357l-179 1q-235 4 -356 132t-92 364l366 1743l-591 1l72 384h1619z" />
    <glyph glyph-name="Uhorn" unicode="&#x1af;" horiz-adv-x="2276" 
d="M1592 2048h460l-88 -356q71 24 121 65.5t78.5 100t43 117.5t22.5 138l266 1q-9 -134 -45 -243.5t-101 -197t-167.5 -141t-237.5 -66.5l-170 -770q-41 -231 -172.5 -397.5t-325 -249.5t-429.5 -80q-130 2 -244.5 33.5t-205 93.5t-151.5 148t-85 202t-3 250l270 1352h460
l-275 -1337q-25 -143 49.5 -232t220.5 -94q159 -5 283 84.5t157 242.5z" />
    <glyph glyph-name="uhorn" unicode="&#x1b0;" horiz-adv-x="1875" 
d="M1042 720l160 816h456l-61 -227q83 51 119.5 127t50.5 189l239 1q-28 -454 -426 -522l-235 -1104h-420l49 168l-6 -1q-174 -194 -428 -188q-82 2 -149.5 26.5t-114.5 66t-81 97.5t-49.5 121.5t-20 138t7.5 147.5l188 960h456l-193 -946q-16 -100 18 -171.5t130 -77.5
q50 -3 92.5 12t73 45t55 66.5t42 82.5t28.5 86.5t19 86.5z" />
    <glyph glyph-name="Upsilon2" unicode="&#x1b1;" horiz-adv-x="1816" 
d="M674 908l-18 -107q-6 -40 -10 -72t-6.5 -80.5t1 -86t14.5 -78.5t30.5 -69t53 -47.5t78.5 -21.5q70 -4 129.5 24.5t99 74.5t71.5 110.5t49.5 124.5t29.5 124l18 105q3 18 13 72.5l17 93t15 100.5t10 108t-1 102.5t-14.5 97.5t-34.5 78t-57 59l64 384h700l-72 -376l-304 2
q111 -194 157.5 -363t16.5 -359l-17 -99q-31 -173 -110.5 -326t-196.5 -268.5t-276.5 -181.5t-338.5 -63q-98 2 -185.5 26.5t-156.5 67.5t-125.5 102.5t-93.5 131.5t-60.5 155t-25.5 172t11 183l17 100q41 229 163 415.5t314 311.5l-299 -7l71 376h689l-71 -384
q-85 -57 -148 -138t-103.5 -181t-64 -188.5t-43.5 -204.5z" />
    <glyph glyph-name="Vcursive" unicode="&#x1b2;" horiz-adv-x="1815" 
d="M786 -31q-159 2 -289.5 55.5t-216.5 147t-123 229t-12 295.5l261 1308h456l-268 -1309q-57 -342 218 -352q163 -6 265 90.5t134 262.5l151 754q8 54 10 96.5t-24.5 69t-86.5 28.5q-49 2 -134 -11l48 374q88 23 195 20q99 -2 180 -32.5t135 -82.5t89.5 -124t43.5 -158
t-4 -182l-150 -752q-63 -338 -298.5 -534.5t-579.5 -192.5z" />
    <glyph glyph-name="Yhook" unicode="&#x1b3;" horiz-adv-x="2184" 
d="M826 2051l303 -872l23 -1l392 514l75 106q67 98 153.5 161t184.5 88t203 20t218 -39l-135 -351q-99 35 -171.5 -1.5t-142.5 -130.5l-46 -60l-587 -728l-147 -757h-460l173 802l-508 1245z" />
    <glyph glyph-name="yhook" unicode="&#x1b4;" horiz-adv-x="1645" 
d="M425 -26l41 76l-228 1485l461 1l85 -816l315 639l73 155q59 127 157.5 216t230.5 131q85 27 184.5 29t186.5 -12l-71 -362q-61 16 -103 4q-67 -19 -112 -66.5t-83 -121.5l-31 -60l-752 -1493q-83 -177 -237.5 -280t-346.5 -102q-88 0 -198 30l47 355q35 -6 50 -7
q219 -10 331 199z" />
    <glyph glyph-name="Zbar" unicode="&#x1b5;" horiz-adv-x="1815" 
d="M1589 384l-72 -384h-1514l54 294l557 600l-170 2l52 264h332l470 502l-951 2l72 384l1514 1l-54 -295l-550 -592l143 -2l-55 -264h-303l-476 -510z" />
    <glyph glyph-name="zbar" unicode="&#x1b6;" horiz-adv-x="1535" 
d="M1305 360l-66 -360h-1228l52 282l366 368l-159 2l53 264l326 1l262 256l-629 3l67 360l1184 1l-52 -283l-333 -336l150 -2l-54 -264l-319 -1l-291 -289z" />
    <glyph glyph-name="Ezh" unicode="&#x1b7;" horiz-adv-x="2071" 
d="M83 107l447 -1q-2 -163 58.5 -247t215.5 -89q92 -3 169 24.5t131.5 76t95.5 118t65.5 145t37.5 163.5q9 57 13.5 99t6.5 99.5t-4 98.5t-22.5 85.5t-44 72.5t-73.5 46.5t-107 20.5h-402l48 269l594 538l-906 2l70 376l1491 1l-48 -265l-628 -589q85 -9 157 -44t123 -87.5
t89.5 -120.5t60.5 -143t33 -156t9.5 -157.5t-12.5 -149.5q-30 -192 -111 -355.5t-203.5 -284t-292.5 -188t-366 -64.5q-325 4 -506 192.5t-189 513.5z" />
    <glyph glyph-name="Ezhreversed" unicode="&#x1b8;" horiz-adv-x="2071" 
d="M1247 104l442 5q-13 -165 -95.5 -302t-208 -225t-279 -135.5t-313.5 -45.5q-126 2 -233 34.5t-184.5 90.5t-135 138t-86.5 177t-37.5 208.5t11.5 230.5q26 173 93 322t170 266t247.5 193t317.5 99l-367 623l38 221h1480l-71 -376h-918l367 -583l-39 -225l-359 1
q-118 1 -210 -41t-151 -119t-94.5 -170.5t-53.5 -209.5q-8 -56 -12.5 -99.5t-5.5 -98t6 -96t25 -83.5t46.5 -69.5t74.5 -45.5t107 -20q171 -5 284 82t144 253z" />
    <glyph glyph-name="ezhreversed" unicode="&#x1b9;" horiz-adv-x="1814" 
d="M381 1488h1316l-66 -356h-847l363 -465l-44 -248l-154 3q-189 2 -306 -94.5t-148 -282.5q-19 -108 44 -169.5t175 -65.5q116 -4 207 58.5t107 172.5l434 1q-6 -116 -53.5 -214t-123 -166t-173.5 -115.5t-205 -69.5t-216 -21q-135 2 -253.5 39t-210 106.5t-138.5 182.5
t-32 254q28 268 193 436.5t433 214.5l-355 525z" />
    <glyph glyph-name="ezhtail" unicode="&#x1ba;" horiz-adv-x="1560" 
d="M390 -166q-9 -35 1 -61t34.5 -40t52.5 -21t61 -8q108 -3 185 48t98 152l407 4q-1 -99 -45.5 -184.5t-115.5 -144.5t-161.5 -100.5t-185 -61t-184.5 -17.5q-84 1 -164.5 17.5t-155.5 52.5t-130.5 87t-86.5 127.5t-25 167.5q6 93 44 168t93 124.5t134.5 87.5t154 59
t165.5 38q7 1 45 7.5t52.5 9.5t50.5 11.5t54 16t46 20.5t44 28t30.5 36t21.5 46q16 62 -19.5 97t-100.5 38h-363l49 275l315 216l-483 2l66 356l1180 1l-47 -267l-446 -325q124 -58 192.5 -169t59.5 -246q-22 -354 -575 -467q-6 -1 -34 -6.5l-40 -8t-40.5 -9t-44.5 -11.5
t-41.5 -14.5t-41.5 -18t-36 -21t-32 -26t-22.5 -30.5t-15.5 -36z" />
    <glyph glyph-name="twostroke" unicode="&#x1bb;" horiz-adv-x="1688" 
d="M1458 384l-72 -384h-1375l67 355l662 539l-146 2l55 264l357 -2q72 79 119.5 152.5t64.5 153.5q21 96 -17.5 171t-135.5 80q-66 3 -123.5 -24.5t-96 -75.5t-63.5 -106.5t-33 -121.5l-431 -2q7 148 75.5 279t176 221.5t246.5 142t284 49.5q171 -3 304.5 -79t202 -213.5
t47.5 -308.5q-21 -165 -142 -323l135 6l-48 -264l-276 3l-255 -234l-328 -259l-13 -32z" />
    <glyph glyph-name="Tonefive" unicode="&#x1bc;" horiz-adv-x="1816" 
d="M790 918l-352 94l212 631l-315 1l68 360h333l13 44h1146l-73 -384h-774l-160 -444h1q50 65 132.5 94t176.5 27q87 -1 162.5 -28.5t129 -74.5t95.5 -110.5t62.5 -136.5t29 -153t-4.5 -160q-19 -150 -85.5 -281.5t-167.5 -227t-238 -149t-289 -49.5q-146 4 -259.5 55
t-185 139.5t-107 207.5t-32.5 261h431q1 -40 2.5 -68t7.5 -66.5t18 -64.5t30.5 -51t49 -38t70.5 -15q71 -3 130 27t97.5 84t63 115t35.5 129q13 61 8.5 120.5t-22.5 106.5t-64.5 76.5t-117.5 30.5q-158 3 -257 -102z" />
    <glyph glyph-name="tonefive" unicode="&#x1bd;" horiz-adv-x="1814" 
d="M767 633l-422 17l179 489l-228 1l66 348h1292l-64 -348h-673l-105 -238q90 69 288 69q223 -2 348 -133t104 -351q-10 -109 -55 -197t-113 -146.5t-157 -97.5t-185 -56t-201 -15q-95 1 -180.5 17.5t-163.5 53t-134.5 90.5t-90.5 134.5t-35 180.5l425 19q5 -52 36.5 -82.5
t71 -40t95.5 -10.5q98 -2 171.5 45.5t92.5 139.5q16 77 -30 118.5t-127 43.5q-136 2 -205 -51z" />
    <glyph glyph-name="glottalstopbarinv" unicode="&#x1be;" horiz-adv-x="1558" 
d="M933 429q11 41 -4.5 85t-48.5 84.5l-74.5 88l-82.5 94.5t-72.5 104t-45 117t0.5 134l9 36l-207 -4l61 320h197l68 373l441 -1l-86 -371l248 -1l-62 -320l-233 2l-11 -42q-14 -57 -6.5 -107.5t28.5 -88t52 -75.5t65.5 -69.5t68 -70t60 -76.5t41 -90t11.5 -110
q-5 -98 -50.5 -179.5t-115 -135t-158.5 -90t-180.5 -52t-181.5 -13.5q-116 2 -218 37t-181 98t-126 159.5t-50 214.5l403 -2q0 -95 49.5 -144.5t145.5 -51.5q86 -2 155 34.5t90 112.5z" />
    <glyph glyph-name="wynn" unicode="&#x1bf;" horiz-adv-x="1815" 
d="M1574 734q-26 -167 -97 -309t-172 -247t-235 -188.5t-277 -138t-307 -90.5l-73 -334l-440 1l421 2060l409 2l-33 -147q153 179 368 173q86 -2 156.5 -27t119.5 -66.5t85 -99.5t56 -123.5t29 -140t7 -147t-12 -146.5zM1006 1161q-156 7 -262 -126l-212 -933
q527 197 607 633l5 31q5 31 8.5 55t7 61t2 65.5t-5 62t-15 58t-28.5 46t-44.5 33.5t-62.5 14z" />
    <glyph glyph-name="pipe" unicode="&#x1c0;" horiz-adv-x="793" 
d="M799 2004l-412 -2004h-250l412 2004h250z" />
    <glyph glyph-name="pipedbl" unicode="&#x1c1;" horiz-adv-x="1047" 
d="M743 2004l-412 -2004h-249l412 2004h249zM1104 2004l-412 -2004h-249l411 2004h250z" />
    <glyph glyph-name="pipedblbar" unicode="&#x1c2;" horiz-adv-x="1304" 
d="M1172 880l-48 -264h-366l-123 -616h-250l138 615l-368 1l48 264h365l82 347l-368 1l47 264h367l101 512h250l-116 -511l368 -1l-48 -264h-365l-82 -347z" />
    <glyph glyph-name="exclam1" unicode="&#x1c3;" horiz-adv-x="791" 
d="M907 2048l-341 -1413l-358 1l232 1412h467zM286 -26q-98 1 -164 64t-68 161q-3 105 66.5 174.5t175.5 68.5q98 -1 165 -64t70 -161q2 -105 -69 -174t-176 -69z" />
    <glyph glyph-name="Dzcaron_" unicode="&#x1c5;" horiz-adv-x="3273" 
d="M2526 2048l159 -183l231 182l383 10l2 -31l-481 -382h-277l-371 384l-1 31zM744 0h-734l418 2048h681q126 -2 235 -30t192.5 -78.5t149.5 -121.5t107 -158t65.5 -188.5t24 -213t-16.5 -230.5q-35 -221 -128.5 -409.5t-235.5 -326.5t-337 -215.5t-421 -76.5zM1062 1647
l-257 1l-267 -1247l210 -2q144 -1 261 46t198.5 133t134.5 200.5t77 255.5q103 604 -357 613zM2989 360l-67 -360h-1227l52 281l848 893l-629 2l67 360l1184 1l-52 -282l-847 -893z" />
    <glyph glyph-name="dzcaron" unicode="&#x1c6;" horiz-adv-x="2963" 
d="M2253 2048l159 -183l232 182l383 10l1 -31l-481 -382h-277l-371 384v31zM1342 0h-452l48 160l-12 -1q-115 -190 -358 -185q-86 2 -157.5 29t-120.5 72.5t-85.5 107.5t-57 131t-29.5 146.5t-8 151.5t11 147q13 95 40.5 188.5t69.5 184.5t102 168.5t132 136t166 90
t198 28.5q68 -2 128 -20t111 -61t71 -106l19 -1l146 681h456zM2689 360l-66 -360h-1227l51 281l848 893l-629 2l67 360l1185 1l-53 -282l-847 -893zM543 758q-64 -411 181 -421q58 -3 109 14t88 50.5t67 75t50.5 93.5t34 102t22.5 103q7 40 10.5 71.5t5.5 76t-1.5 78.5
t-14.5 71t-31 61t-53 41t-78 19q-70 3 -130.5 -21.5t-103 -67t-75.5 -101.5t-52 -119.5t-29 -125.5z" />
    <glyph glyph-name="LJ" unicode="&#x1c7;" horiz-adv-x="3428" 
d="M2801 628l285 1420h456l-292 -1420q-50 -293 -262 -477.5t-508 -180.5q-293 4 -440.5 172.5t-137.5 463.5h452q-11 -255 158 -263q79 -4 142 38.5t97.5 105.5t49.5 141zM1597 384l-72 -384h-1263l418 2048h460l-355 -1663z" />
    <glyph glyph-name="Lj" unicode="&#x1c8;" horiz-adv-x="2764" 
d="M2618 1619q-92 1 -161.5 64.5t-73.5 155.5q-3 99 71 169t174 69q92 -1 160 -64.5t71 -155.5q4 -99 -68.5 -169t-172.5 -69zM1597 384l-72 -384h-1263l418 2048h460l-355 -1663zM2326 1536h455l-324 -1583q-28 -177 -121 -298t-232 -179t-319 -57l-194 1l75 359l66 -1
q233 0 274 182z" />
    <glyph glyph-name="lj" unicode="&#x1c9;" horiz-adv-x="1944" 
d="M1798 1619q-92 1 -161.5 64.5t-73.5 155.5q-3 99 71 169t174 69q92 -1 160 -64.5t71 -155.5q4 -99 -68.5 -169t-172.5 -69zM1136 2048l-418 -2048h-456l418 2048h456zM1506 1536h455l-324 -1583q-28 -177 -121 -298t-232 -179t-319 -57l-194 1l75 359l66 -1
q233 0 274 182z" />
    <glyph glyph-name="NJ" unicode="&#x1ca;" horiz-adv-x="3812" 
d="M2304 2048l-418 -2048h-437l-443 1262l-20 2l-264 -1264h-460l418 2048h441l439 -1262l20 -2l264 1264h460zM3185 628l285 1420h456l-292 -1420q-50 -293 -262 -477.5t-508 -180.5q-293 4 -440.5 172.5t-137.5 463.5h452q-11 -255 158 -263q79 -4 142 38.5t97.5 105.5
t49.5 141z" />
    <glyph glyph-name="Nj" unicode="&#x1cb;" horiz-adv-x="3148" 
d="M3002 1619q-92 1 -161.5 64.5t-73.5 155.5q-3 99 71 169t174 69q92 -1 160 -64.5t71 -155.5q4 -99 -68.5 -169t-172.5 -69zM2304 2048l-418 -2048h-437l-443 1262l-20 2l-264 -1264h-460l418 2048h441l439 -1262l20 -2l264 1264h460zM2710 1536h455l-324 -1583
q-28 -177 -121 -298t-232 -179t-319 -57l-194 1l75 359l66 -1q233 0 274 182z" />
    <glyph glyph-name="nj" unicode="&#x1cc;" horiz-adv-x="2852" 
d="M2706 1619q-92 1 -161.5 64.5t-73.5 155.5q-3 99 71 169t174 69q92 -1 160 -64.5t71 -155.5q4 -99 -68.5 -169t-172.5 -69zM878 816l-160 -816h-456l313 1536l420 1l-49 -169l6 1q84 93 193.5 141.5t234.5 45.5q81 -2 148.5 -26.5t114 -65.5t81 -97.5t49.5 -122t20 -138
t-7 -146.5l-187 -960h-456l193 946q9 44 5 87t-18 78t-48 57.5t-84 25.5q-59 3 -108.5 -20t-82 -60t-58.5 -91t-40 -102.5t-24 -104.5zM2414 1536h455l-324 -1583q-28 -177 -121 -298t-232 -179t-319 -57l-194 1l75 359l66 -1q233 0 274 182z" />
    <glyph glyph-name="Acaron" unicode="&#x1cd;" horiz-adv-x="2159" 
d="M1235 2536l159 -183l231 182l383 10l1 -31l-480 -382h-277l-371 384l-1 31zM441 0h-507l1158 2048h484l324 -2048h-484l-45 384h-725zM1229 1472l-402 -714l500 -2l-77 715z" />
    <glyph glyph-name="acaron" unicode="&#x1ce;" horiz-adv-x="1545" 
d="M843 2112l159 -183l232 182l383 10l1 -31l-481 -382h-276l-372 384v31zM819 0l35 161l-11 -2q-142 -192 -380 -188q-194 4 -310.5 131.5t-103.5 321.5q7 103 51.5 186.5t111 138.5t155.5 94t178.5 58.5t187.5 26.5q5 0 37 1.5t45 3t43 5.5t46 10t36.5 16t33 25t19.5 35
l8 32q12 65 -21.5 107.5t-99.5 46.5q-81 4 -147.5 -42.5t-91.5 -123.5l-424 38q14 80 51 149.5t90 121.5t119 92t140 64.5t151.5 36.5t154.5 10q117 -2 217.5 -36.5t175 -97t110.5 -161.5t20 -221l-204 -1040h-423zM885 491l59 202q-40 -34 -155 -51q-45 -7 -79.5 -15
t-74 -24t-67 -37t-49.5 -55t-30 -77q-12 -60 19 -95t93 -38q91 -3 175.5 51t108.5 139z" />
    <glyph glyph-name="Icaron" unicode="&#x1cf;" horiz-adv-x="744" 
d="M527 2536l159 -183l231 182l383 10l1 -31l-480 -382h-277l-371 384l-1 31zM884 2048l-418 -2048h-460l418 2048h460z" />
    <glyph glyph-name="icaron" unicode="&#x1d0;" horiz-adv-x="771" 
d="M448 2080l158 -183l232 182l383 10l1 -31l-480 -382h-277l-372 384v31zM788 1536l-312 -1536h-456l312 1536h456z" />
    <glyph glyph-name="Ocaron" unicode="&#x1d1;" horiz-adv-x="2031" 
d="M1175 2536l159 -183l231 182l383 10l1 -31l-480 -382h-277l-371 384l-1 31zM1943 1027q-26 -164 -85 -318t-153.5 -289.5t-213.5 -235.5t-275 -157t-329 -55q-122 2 -225.5 34t-180.5 88t-135.5 132.5t-94.5 167.5t-54.5 193.5t-18 209.5t17.5 216q26 165 85 320.5
t154.5 291.5t216 237t278 158.5t331.5 55.5q122 -2 225 -34.5t178.5 -89.5t133.5 -135t92.5 -170t52.5 -195.5t17.5 -210t-17.5 -214.5zM1485 1028q10 59 15.5 109t7.5 116.5t-4 119t-24 107.5t-49 92t-82.5 62t-119.5 27q-104 3 -193 -34.5t-151 -101t-111 -151t-77 -177
t-44 -185.5q-10 -59 -15.5 -110.5t-6.5 -116.5t5.5 -117t26 -105t51 -89.5t83.5 -60.5t121 -26q103 -3 191 34t149 99t108.5 149t75 175t43.5 184z" />
    <glyph glyph-name="ocaron" unicode="&#x1d2;" horiz-adv-x="1631" 
d="M812 2112l158 -183l232 182l383 10l1 -31l-480 -382h-277l-372 384v31zM706 -28q-130 2 -236.5 46t-178.5 118.5t-117.5 174t-59.5 214t0 237.5q19 163 84.5 307.5t167.5 254t247.5 172.5t312.5 60q161 -3 285.5 -68t196.5 -173.5t101 -247.5t11 -293
q-19 -163 -84.5 -308.5t-168 -256.5t-248 -175.5t-313.5 -61.5zM729 339q70 -3 128 23t97.5 68.5t69 102t45.5 118.5t25 124q5 40 8 74.5t2.5 78t-6.5 78.5t-20 70.5t-36 59.5t-57 39.5t-81 17.5q-70 3 -128 -22.5t-97 -67.5t-68.5 -100.5t-46 -117.5t-24.5 -124
q-56 -413 189 -422z" />
    <glyph glyph-name="Ucaron" unicode="&#x1d3;" horiz-adv-x="1944" 
d="M1127 2536l159 -183l231 182l383 10l1 -31l-480 -382h-277l-371 384l-1 31zM1588 2048h460l-278 -1351q-42 -231 -173 -397.5t-324.5 -250t-429.5 -80.5q-162 2 -299 52.5t-233 141t-139.5 229t-17.5 304.5l270 1352h460l-275 -1337q-25 -144 49 -231.5t220 -92.5
q160 -5 284 83.5t157 241.5z" />
    <glyph glyph-name="ucaron" unicode="&#x1d4;" horiz-adv-x="1648" 
d="M866 2112l159 -183l232 182l383 10l1 -31l-481 -382h-276l-372 384v31zM1038 720l160 816h456l-313 -1536h-420l49 168l-6 -1q-84 -94 -194 -143.5t-234 -46.5q-81 2 -148.5 26.5t-114 66.5t-81 98.5t-50 122.5t-20.5 138.5t7 146.5l188 960h456l-193 -946
q-7 -61 -1 -114.5t44 -91.5t103 -42q59 -3 108.5 20t82 60t58 91t39.5 102.5t24 104.5z" />
    <glyph glyph-name="Udieresismacron" unicode="&#x1d5;" horiz-adv-x="1944" 
d="M1919 2828l-41 -238h-932l41 238h932zM1440 2293q-6 76 49 123.5t133 49.5q75 1 132.5 -43t63.5 -117q6 -77 -48.5 -125t-133.5 -49q-76 -1 -133.5 43t-62.5 118zM877 2293q-5 76 49 123.5t132 49.5q75 1 133 -43t64 -117q6 -77 -49 -125t-134 -49q-75 -1 -132.5 43
t-62.5 118zM1588 2048h460l-278 -1351q-42 -231 -173 -397.5t-324.5 -250t-429.5 -80.5q-162 2 -299 52.5t-233 141t-139.5 229t-17.5 304.5l270 1352h460l-275 -1337q-25 -144 49 -231.5t220 -92.5q160 -5 284 83.5t157 241.5z" />
    <glyph glyph-name="udieresismacron" unicode="&#x1d6;" horiz-adv-x="1648" 
d="M1667 2439l-40 -238h-932l40 238h932zM552 1871q-5 81 52 136.5t139 56.5q78 1 137.5 -49.5t63.5 -127.5q4 -81 -53 -136.5t-138 -56.5q-78 -1 -137.5 49.5t-63.5 127.5zM1231 1871q-5 81 52 136.5t139 56.5q78 1 137.5 -49.5t63.5 -127.5q4 -81 -53 -136.5t-138 -56.5
q-78 -1 -137.5 49.5t-63.5 127.5zM1039 720l160 816h456l-313 -1536h-420l49 168l-6 -1q-84 -94 -194 -143.5t-234 -46.5q-81 2 -148.5 26.5t-114 66.5t-81 98.5t-50 122.5t-20.5 138.5t7 146.5l188 960h456l-193 -946q-7 -61 -1 -114.5t44 -91.5t103 -42q59 -3 108.5 20
t82 60t58 91t39.5 102.5t24 104.5z" />
    <glyph glyph-name="Udieresisacute" unicode="&#x1d7;" horiz-adv-x="1944" 
d="M1247 2487l224 252l331 -1l-293 -252zM1440 2293q-6 76 49 123.5t133 49.5q75 1 132.5 -43t63.5 -117q6 -77 -48.5 -124.5t-132.5 -49.5q-77 -1 -134.5 43t-62.5 118zM877 2293q-5 76 49 123.5t131 49.5q76 1 134 -43t64 -117q6 -77 -49 -125t-134 -49q-75 -1 -132.5 43
t-62.5 118zM1588 2048h460l-278 -1351q-42 -231 -173 -397.5t-324.5 -250t-429.5 -80.5q-162 2 -299 52.5t-233 141t-139.5 229t-17.5 304.5l270 1352h460l-275 -1337q-25 -144 49 -231.5t220 -92.5q160 -5 284 83.5t157 241.5z" />
    <glyph glyph-name="udieresisacute" unicode="&#x1d8;" horiz-adv-x="1649" 
d="M924 2123l352 431l496 -1l-461 -431zM552 1871q-5 81 52 136.5t139 56.5q77 1 137 -50t64 -127q4 -81 -53 -136.5t-138 -56.5q-78 -1 -137.5 49.5t-63.5 127.5zM1231 1871q-5 81 52 136.5t139 56.5q77 1 137 -50t64 -127q4 -81 -53 -136.5t-138 -56.5q-78 -1 -137.5 49.5
t-63.5 127.5zM1039 720l160 816h456l-313 -1536h-420l49 168l-6 -1q-84 -94 -194 -143.5t-234 -46.5q-81 2 -148.5 26.5t-114 66.5t-81 98.5t-50 122.5t-20.5 138.5t7 146.5l188 960h456l-193 -946q-7 -61 -1 -114.5t44 -91.5t103 -42q59 -3 108.5 20t82 60t58 91
t39.5 102.5t24 104.5z" />
    <glyph glyph-name="Udieresiscaron" unicode="&#x1d9;" horiz-adv-x="1944" 
d="M1271 2843l138 -148l199 147l385 7v-35l-427 -313h-303l-346 317v34zM1440 2293q-6 76 49 123.5t133 49.5q75 1 132.5 -43t63.5 -117q6 -77 -48.5 -125t-133.5 -49q-76 -1 -133.5 43t-62.5 118zM877 2293q-5 76 49 123.5t132 49.5q75 1 133 -43t64 -117q6 -77 -49 -125
t-134 -49q-75 -1 -132.5 43t-62.5 118zM1588 2048h460l-278 -1351q-42 -231 -173 -397.5t-324.5 -250t-429.5 -80.5q-162 2 -299 52.5t-233 141t-139.5 229t-17.5 304.5l270 1352h460l-275 -1337q-25 -144 49 -231.5t220 -92.5q160 -5 284 83.5t157 241.5z" />
    <glyph glyph-name="udieresiscaron" unicode="&#x1da;" horiz-adv-x="1649" 
d="M1012 2555l158 -182l232 181l385 9l1 -32l-482 -380h-277l-371 384v31zM552 1871q-5 81 52 136.5t139 56.5q77 1 137 -50t64 -127q4 -81 -53 -136.5t-138 -56.5q-78 -1 -137.5 49.5t-63.5 127.5zM1231 1871q-5 81 52 136.5t139 56.5q77 1 137 -50t64 -127
q4 -81 -53 -136.5t-138 -56.5q-78 -1 -137.5 49.5t-63.5 127.5zM1039 720l160 816h456l-313 -1536h-420l49 168l-6 -1q-84 -94 -194 -143.5t-234 -46.5q-81 2 -148.5 26.5t-114 66.5t-81 98.5t-50 122.5t-20.5 138.5t7 146.5l188 960h456l-193 -946q-7 -61 -1 -114.5
t44 -91.5t103 -42q59 -3 108.5 20t82 60t58 91t39.5 102.5t24 104.5z" />
    <glyph glyph-name="Udieresisgrave" unicode="&#x1db;" horiz-adv-x="1944" 
d="M1380 2739l138 -252l-209 -1l-208 251zM1440 2293q-6 76 49 123.5t133 49.5q75 1 132.5 -43t63.5 -117q6 -77 -48.5 -124.5t-132.5 -49.5q-77 -1 -134.5 43t-62.5 118zM877 2293q-5 76 49 123.5t131 49.5q76 1 134 -43t64 -117q6 -77 -49 -125t-134 -49q-75 -1 -132.5 43
t-62.5 118zM1588 2048h460l-278 -1351q-42 -231 -173 -397.5t-324.5 -250t-429.5 -80.5q-162 2 -299 52.5t-233 141t-139.5 229t-17.5 304.5l270 1352h460l-275 -1337q-25 -144 49 -231.5t220 -92.5q160 -5 284 83.5t157 241.5z" />
    <glyph glyph-name="udieresisgrave" unicode="&#x1dc;" horiz-adv-x="1649" 
d="M1155 2554l196 -431l-335 -1l-306 430zM552 1871q-5 81 52 136.5t139 56.5q78 1 137.5 -49.5t63.5 -127.5q4 -81 -53 -136.5t-138 -56.5q-78 -1 -137.5 49.5t-63.5 127.5zM1231 1871q-5 81 52 136.5t139 56.5q78 1 137.5 -49.5t63.5 -127.5q4 -81 -53 -136.5t-138 -56.5
q-78 -1 -137.5 49.5t-63.5 127.5zM1039 720l160 816h456l-313 -1536h-420l49 168l-6 -1q-84 -94 -194 -143.5t-234 -46.5q-81 2 -148.5 26.5t-114 66.5t-81 98.5t-50 122.5t-20.5 138.5t7 146.5l188 960h456l-193 -946q-7 -61 -1 -114.5t44 -91.5t103 -42q59 -3 108.5 20
t82 60t58 91t39.5 102.5t24 104.5z" />
    <glyph glyph-name="eturn" unicode="&#x1dd;" horiz-adv-x="1560" 
d="M861 1515q149 -2 268.5 -60.5t193 -156t104.5 -227.5t10 -275l-8 -52q-20 -125 -64.5 -238.5t-114.5 -212.5t-159.5 -171t-206.5 -112t-248 -38q-115 2 -208.5 38t-155.5 97.5t-102.5 146t-49 184t5.5 209.5l39 245l841 -3q13 116 -44 190t-173 78q-105 4 -205 -20
t-216 -72l-83 291q96 87 255.5 124.5t320.5 34.5zM665 330q59 -3 108 19.5t86 67.5t61 86t51 101l-424 -2l-11 -42q-13 -43 -11.5 -84t13.5 -72.5t44.5 -51.5t82.5 -22z" />
    <glyph glyph-name="Adieresismacron" unicode="&#x1de;" horiz-adv-x="2160" 
d="M2027 2828l-41 -238h-932l41 238h932zM1548 2293q-6 76 49 123.5t133 49.5q75 1 132.5 -43t63.5 -117q6 -77 -48.5 -125t-133.5 -49q-76 -1 -133.5 43t-62.5 118zM985 2293q-5 76 49 123.5t132 49.5q75 1 133 -43t64 -117q6 -77 -49 -125t-134 -49q-75 -1 -132.5 43
t-62.5 118zM441 0h-507l1158 2048h484l324 -2048h-484l-45 384h-725zM1229 1472l-402 -714l500 -2l-77 715z" />
    <glyph glyph-name="adieresismacron" unicode="&#x1df;" horiz-adv-x="1544" 
d="M1643 2439l-40 -238h-932l40 238h932zM528 1871q-5 81 52 136.5t139 56.5q78 1 137.5 -49.5t63.5 -127.5q4 -81 -53 -136.5t-138 -56.5q-78 -1 -137.5 49.5t-63.5 127.5zM1207 1871q-5 81 52 136.5t139 56.5q78 1 137.5 -49.5t63.5 -127.5q4 -81 -53 -136.5t-138 -56.5
q-78 -1 -137.5 49.5t-63.5 127.5zM819 0l35 161l-11 -2q-142 -192 -380 -188q-194 4 -310.5 131.5t-103.5 321.5q7 103 51.5 186.5t111 138.5t155.5 94t178.5 58.5t187.5 26.5q5 0 37 1.5t45 3t43 5.5t46 10t36.5 16t33 25t19.5 35l8 32q12 65 -21.5 107.5t-99.5 46.5
q-81 4 -147.5 -42.5t-91.5 -123.5l-424 38q14 80 51 149.5t90 121.5t119 92t140 64.5t151.5 36.5t154.5 10q117 -2 217.5 -36.5t175 -97t110.5 -161.5t20 -221l-204 -1040h-423zM885 491l59 202q-40 -34 -155 -51q-45 -7 -79.5 -15t-74 -24t-67 -37t-49.5 -55t-30 -77
q-12 -60 19 -95t93 -38q91 -3 175.5 51t108.5 139z" />
    <glyph glyph-name="Adotmacron" unicode="&#x1e0;" horiz-adv-x="2160" 
d="M2026 2825l-40 -238h-932l40 238h932zM1269 2304q-6 76 49 124t133 49q74 1 132 -43t64 -117q6 -77 -48.5 -124.5t-133.5 -49.5q-76 -1 -133.5 43t-62.5 118zM441 0h-507l1158 2048h484l324 -2048h-484l-45 384h-725zM1229 1472l-402 -714l500 -2l-77 715z" />
    <glyph glyph-name="adotmacron" unicode="&#x1e1;" horiz-adv-x="1545" 
d="M1660 2519l-40 -238h-932l40 238h932zM861 1921q-4 92 57 151.5t155 60.5q89 0 150 -54t65 -142q4 -92 -57 -151t-154 -60q-88 -1 -150 53.5t-66 141.5zM819 0l35 161l-11 -2q-142 -192 -380 -188q-194 4 -310.5 131.5t-103.5 321.5q7 103 51.5 186.5t111 138.5t155.5 94
t178.5 58.5t187.5 26.5q5 0 37 1.5t45 3t43 5.5t46 10t36.5 16t33 25t19.5 35l8 32q12 65 -21.5 107.5t-99.5 46.5q-81 4 -147.5 -42.5t-91.5 -123.5l-424 38q14 80 51 149.5t90 121.5t119 92t140 64.5t151.5 36.5t154.5 10q117 -2 217.5 -36.5t175 -97t110.5 -161.5
t20 -221l-204 -1040h-423zM885 491l59 202q-40 -34 -155 -51q-45 -7 -79.5 -15t-74 -24t-67 -37t-49.5 -55t-30 -77q-12 -60 19 -95t93 -38q91 -3 175.5 51t108.5 139z" />
    <glyph glyph-name="AEmacron" unicode="&#x1e2;" horiz-adv-x="2736" 
d="M2151 2436l-41 -236h-926l41 236h926zM2482 364l-68 -364h-1205l74 383l-570 1l-253 -384h-529l1426 2048h1392l-68 -364h-758l-90 -479l633 -1l-67 -360h-618l-90 -479zM938 758l399 -2l134 784z" />
    <glyph glyph-name="aemacron" unicode="&#x1e3;" horiz-adv-x="2435" 
d="M1956 1996l-42 -236h-926l41 236h927zM223 1082q21 119 91 213t170 150t213.5 84.5t231.5 27.5q262 -4 398 -120q210 122 429 118q154 -2 271.5 -59.5t185.5 -156t94.5 -228t7.5 -278.5l-17 -144l-989 -97q-8 -113 46.5 -181.5t167.5 -72.5q106 -3 187 50t121 151
l385 -105q-24 -112 -98 -203.5t-175 -147t-215 -85t-225 -27.5q-146 2 -267 55.5t-186 166.5l-15 1q-77 -116 -207.5 -170.5t-282.5 -52.5q-104 1 -194.5 31t-159.5 85t-106 142t-30 194q7 103 51.5 187t110.5 139t155.5 94t179 58.5t187.5 26.5q5 0 37 1.5t45 3t43 5.5
t46 10t36.5 16t33.5 25t20 35l7 32q12 62 -29 99t-107 39q-82 4 -143.5 -44.5t-91.5 -129.5zM1727 1194q-72 3 -132.5 -22t-107.5 -75t-79.5 -100.5t-66.5 -119.5l569 57q30 111 -18.5 183t-164.5 77zM891 491l59 202q-40 -34 -155 -51q-58 -9 -100.5 -20.5t-87 -34
t-73.5 -61t-39 -92.5q-12 -60 18.5 -95.5t92.5 -37.5q91 -3 176 51t109 139z" />
    <glyph glyph-name="Gbar" unicode="&#x1e4;" horiz-adv-x="2102" 
d="M1902 1099l-62 -340l-18 -48l184 5l-35 -200l-191 2q-134 -256 -368.5 -403t-520.5 -143q-122 1 -226.5 33t-181 87.5t-135.5 132.5t-95 167.5t-54.5 193.5t-18 210t17.5 217q26 165 84.5 320t153 291.5t213.5 237.5t276 159t331 56q148 -2 270.5 -51t211 -137
t150.5 -202t101 -256l-462 -62q-58 281 -303 291q-102 4 -190 -34t-149.5 -102t-109.5 -152t-76 -176.5t-43 -183.5q-99 -615 263 -624q179 -5 361 134l-308 -6l34 201l373 -5l21 47l27 73h-390l47 264z" />
    <glyph glyph-name="gbar" unicode="&#x1e5;" horiz-adv-x="1725" 
d="M1201 1529l452 -1l-136 -611l211 -1l-49 -264h-209l-117 -584q-36 -209 -152.5 -359t-290 -225t-387.5 -72q-157 2 -306 51t-260 146l225 308q152 -130 348 -135q155 -4 255.5 76t137.5 232l31 106l-15 -1q-57 -85 -152.5 -126t-206.5 -39q-84 1 -154.5 25.5t-119.5 66.5
t-87.5 98.5t-59 122t-33 137.5t-10.5 145.5t9 145.5q12 94 39.5 186.5t70 182t102.5 165.5t132 133.5t164.5 88.5t195.5 28q108 -3 195.5 -49t116.5 -139h24zM550 771q-9 -54 -11.5 -101.5t5 -100.5t27.5 -91t61.5 -64t101.5 -28q121 -5 202 68.5t142 201.5l-368 -4l47 264
l351 -2q8 72 -2.5 130t-53.5 101.5t-117 46.5q-84 4 -154 -32t-115.5 -99.5t-74 -136.5t-41.5 -153z" />
    <glyph glyph-name="Gcaron" unicode="&#x1e6;" horiz-adv-x="1991" 
d="M1175 2536l159 -183l231 182l383 10l1 -31l-480 -382h-277l-371 384l-1 31zM1913 1096l-69 -338q-41 -231 -178 -411.5t-341 -279t-439 -95.5q-122 1 -226 33t-180.5 87.5t-135.5 132.5t-94.5 168t-54 194t-18 210t17.5 216q26 165 85 320t153 291.5t213.5 237.5
t276.5 159t331 56q119 -1 221.5 -34t182 -90t144 -138t109 -176.5t75.5 -207.5l-462 -62q-58 281 -303 291q-102 4 -190 -34t-149.5 -102t-110 -152t-76 -177t-43.5 -184q-98 -613 267 -625q176 -5 307.5 98.5t189.5 274.5l-398 -3l63 340h832z" />
    <glyph glyph-name="gcaron" unicode="&#x1e7;" horiz-adv-x="1643" 
d="M838 2112l159 -183l232 182l383 10l1 -31l-481 -382h-276l-372 384v31zM1195 1529l452 -1l-300 -1459q-36 -209 -152 -360t-289.5 -226t-387.5 -71q-158 2 -307 51t-260 146l225 308q152 -130 348 -135q155 -4 255.5 76t137.5 232l31 106l-15 -1q-57 -85 -152.5 -125.5
t-207.5 -38.5q-84 1 -154 25.5t-119.5 66t-87 98.5t-59 122t-32.5 138t-10.5 145t9.5 145q12 94 39.5 186.5t69.5 182t102 165.5t132 133.5t164.5 88.5t195.5 28q69 -2 129 -20t112 -61t71 -107h24zM542 770q-8 -54 -10.5 -101.5t5.5 -100.5t28.5 -90.5t62 -63.5t101.5 -28
q82 -3 148 31t108.5 94.5t68.5 129t39 147.5q61 394 -165 405q-68 3 -127.5 -21t-101.5 -65t-75 -98t-52.5 -116.5t-29.5 -122.5z" />
    <glyph glyph-name="Kcaron" unicode="&#x1e8;" horiz-adv-x="2040" 
d="M1015 2536l159 -183l231 182l383 10l1 -31l-480 -382h-277l-371 384l-1 31zM1243 0l-377 759l-308 -281l-92 -478h-460l418 2048h460l-191 -861h18l926 861l632 -1l-1074 -964l575 -1083h-527z" />
    <glyph glyph-name="kcaron" unicode="&#x1e9;" horiz-adv-x="1580" 
d="M1027 2536l159 -183l231 182l383 10l1 -31l-480 -382h-277l-371 384l-1 31zM942 0l-241 582l-156 -146l-83 -436h-456l418 2048h456l-225 -1025h12l501 513l556 -1l-700 -671l389 -864h-471z" />
    <glyph glyph-name="Oogonek" unicode="&#x1ea;" horiz-adv-x="2031" 
d="M1943 1027q-25 -156 -79.5 -303t-141 -278t-196 -231t-252 -164t-300.5 -76q-40 -23 -65 -39t-57.5 -42.5t-52 -57t-25.5 -64.5q-13 -77 55 -77q25 -1 95 24l37 -235q-83 -57 -212 -55q-130 2 -214 78.5t-82 204.5q4 179 184 301q-94 33 -171 91.5t-130 134t-89 166
t-52 191t-16 205.5t17 212q26 165 85 320.5t154.5 291.5t216 237t278 158.5t331.5 55.5q122 -2 225 -34.5t178.5 -89.5t133.5 -135t92.5 -170t52.5 -195.5t17.5 -210t-17.5 -214.5zM1485 1028q10 59 15.5 109t7.5 116.5t-4 119t-24 107.5t-49 92t-82.5 62t-119.5 27
q-104 3 -193 -34.5t-151 -101t-111 -151t-77 -177t-44 -185.5q-10 -59 -15.5 -110.5t-6.5 -116.5t5.5 -117t26 -105t51 -89.5t83.5 -60.5t121 -26q103 -3 191 34t149 99t108.5 149t75 175t43.5 184z" />
    <glyph glyph-name="oogonek" unicode="&#x1eb;" horiz-adv-x="1632" 
d="M749 -516q-83 -57 -212 -55q-130 2 -214 78.5t-81 204.5q3 188 205 315q-127 58 -209.5 173t-112.5 258.5t-11 303.5q19 163 84.5 307.5t167.5 254t247.5 172.5t312.5 60q161 -3 285.5 -68t196.5 -173.5t101 -247.5t11 -293q-18 -156 -79.5 -297t-157.5 -250.5
t-231.5 -177.5t-292.5 -76q-52 -29 -86 -52t-68.5 -63.5t-42.5 -85.5q-13 -77 55 -77q27 -1 95 24zM729 339q70 -3 128 23t97.5 68.5t69 102t45.5 118.5t25 124q5 40 8 74.5t2.5 78t-6.5 78.5t-20 70.5t-36 59.5t-57 39.5t-81 17.5q-70 3 -128 -22.5t-97 -67.5t-68.5 -100.5
t-46 -117.5t-24.5 -124q-56 -413 189 -422z" />
    <glyph glyph-name="Oogonekmacron" unicode="&#x1ec;" horiz-adv-x="2031" 
d="M1824 2420l-41 -236h-927l42 236h926zM1943 1027q-25 -156 -79.5 -303t-141 -278t-196 -231t-252 -164t-300.5 -76q-40 -23 -65 -39t-57.5 -42.5t-52 -57t-25.5 -64.5q-13 -77 55 -77q25 -1 95 24l37 -235q-83 -57 -212 -55q-130 2 -214 78.5t-82 204.5q4 179 184 301
q-94 33 -171 91.5t-130 134t-89 166t-52 191t-16 205.5t17 212q26 165 85 320.5t154.5 291.5t216 237t278 158.5t331.5 55.5q122 -2 225 -34.5t178.5 -89.5t133.5 -135t92.5 -170t52.5 -195.5t17.5 -210t-17.5 -214.5zM1485 1028q10 59 15.5 109t7.5 116.5t-4 119t-24 107.5
t-49 92t-82.5 62t-119.5 27q-104 3 -193 -34.5t-151 -101t-111 -151t-77 -177t-44 -185.5q-10 -59 -15.5 -110.5t-6.5 -116.5t5.5 -117t26 -105t51 -89.5t83.5 -60.5t121 -26q103 -3 191 34t149 99t108.5 149t75 175t43.5 184z" />
    <glyph glyph-name="oogonekmacron" unicode="&#x1ed;" horiz-adv-x="1631" 
d="M1461 1996l-41 -236h-927l42 236h926zM749 -516q-83 -57 -212 -55q-130 2 -214 78.5t-81 204.5q3 188 205 315q-127 58 -209.5 173t-112.5 258.5t-11 303.5q19 163 84.5 307.5t167.5 254t247.5 172.5t312.5 60q161 -3 285.5 -68t196.5 -173.5t101 -247.5t11 -293
q-18 -156 -79.5 -297t-157.5 -250.5t-231.5 -177.5t-292.5 -76q-52 -29 -86 -52t-68.5 -63.5t-42.5 -85.5q-13 -77 55 -77q27 -1 95 24zM729 339q70 -3 128 23t97.5 68.5t69 102t45.5 118.5t25 124q5 40 8 74.5t2.5 78t-6.5 78.5t-20 70.5t-36 59.5t-57 39.5t-81 17.5
q-70 3 -128 -22.5t-97 -67.5t-68.5 -100.5t-46 -117.5t-24.5 -124q-56 -413 189 -422z" />
    <glyph glyph-name="Ezhcaron" unicode="&#x1ee;" horiz-adv-x="2071" 
d="M1089 2460l159 -183l232 182l383 10l1 -31l-481 -382h-277l-371 384v31zM83 107l447 -1q-2 -163 58.5 -247t215.5 -89q114 -4 204.5 37.5t149 118.5t94 169t52.5 203q9 57 13.5 99t6.5 99t-4.5 98.5t-23 85.5t-44.5 72t-73.5 46.5t-106.5 20.5h-402l48 269l594 538
l-906 2l70 376l1491 1l-48 -265l-628 -589q86 -9 158 -44t123 -87.5t89 -121t60 -143t32.5 -155.5t9 -157.5t-12.5 -149.5q-29 -192 -110.5 -355.5t-204 -284t-292.5 -188t-366 -64.5q-326 5 -506 193t-188 513z" />
    <glyph glyph-name="ezhcaron" unicode="&#x1ef;" horiz-adv-x="1815" 
d="M1001 2100l128 -182l208 181l381 7v-34l-435 -348h-304l-335 354v31zM423 1488l1321 1l-59 -317l-573 -491q85 -17 153.5 -62.5t110.5 -107.5t70.5 -138t34 -156.5t-0.5 -161.5q-13 -120 -66.5 -220.5t-134 -170t-183 -117.5t-213.5 -70t-225 -20q-182 3 -321 70
t-218 200t-76 315h430q-5 -105 51 -166.5t162 -64.5q81 -2 157 26t133.5 88t72.5 140q31 163 -31 256.5t-223 97.5h-205l52 288l537 423l-822 2z" />
    <glyph glyph-name="jcaron" unicode="&#x1f0;" horiz-adv-x="941" 
d="M618 2080l158 -183l232 182l383 10l1 -31l-480 -382h-277l-372 384v31zM503 1536h455l-324 -1583q-43 -262 -221.5 -398.5t-450.5 -135.5l-194 1l75 359l66 -1q231 0 274 182z" />
    <glyph glyph-name="DZ" unicode="&#x1f1;" horiz-adv-x="4032" 
d="M3801 384l-72 -384h-1514l54 294l1241 1368l-951 2l72 384l1514 1l-54 -295l-1241 -1368zM996 0h-734l418 2048h681q126 -2 234.5 -30t192 -79t150 -122t108 -158t66.5 -188.5t25 -212t-16 -229.5q-35 -221 -129.5 -409.5t-236.5 -326.5t-338 -216t-421 -77zM1314 1647
l-257 1l-267 -1247l210 -2q144 -1 260.5 45.5t197 133t132.5 200.5t75 255q14 82 17.5 152.5t-3 142t-31.5 126.5t-66 99t-109.5 68t-158.5 26z" />
    <glyph glyph-name="Dz" unicode="&#x1f2;" horiz-adv-x="3751" 
d="M996 0h-734l418 2048h681q126 -2 234.5 -30t192 -79t150 -122t108 -158t66.5 -188.5t25 -212t-16 -229.5q-35 -221 -129.5 -409.5t-236.5 -326.5t-338 -216t-421 -77zM1314 1647l-257 1l-267 -1247l210 -2q144 -1 260.5 45.5t197 133t132.5 200.5t75 255
q14 82 17.5 152.5t-3 142t-31.5 126.5t-66 99t-109.5 68t-158.5 26zM3517 360l-66 -360h-1228l52 281l848 893l-629 2l67 360l1184 1l-52 -282l-847 -893z" />
    <glyph glyph-name="Gacute" unicode="&#x1f4;" horiz-adv-x="1991" 
d="M1103 2104l339 432l490 -1l-444 -431h-385zM1913 1096l-69 -338q-41 -231 -178 -411.5t-341 -279t-439 -95.5q-122 1 -226 33t-180.5 87.5t-135.5 132.5t-94.5 168t-54 194t-18 210t17.5 216q26 165 85 320t153 291.5t213.5 237.5t276.5 159t331 56q119 -1 221.5 -34
t182 -90t144 -138t109 -176.5t75.5 -207.5l-462 -62q-58 281 -303 291q-102 4 -190 -34t-149.5 -102t-110 -152t-76 -177t-43.5 -184q-98 -613 267 -625q176 -5 307.5 98.5t189.5 274.5l-398 -3l63 340h832z" />
    <glyph glyph-name="gacute" unicode="&#x1f5;" horiz-adv-x="1643" 
d="M767 1680l338 432l491 -1l-444 -431h-385zM1195 1529l452 -1l-300 -1459q-36 -209 -152 -360t-289.5 -226t-387.5 -71q-158 2 -307 51t-260 146l225 308q152 -130 348 -135q155 -4 255.5 76t137.5 232l31 106l-15 -1q-57 -85 -152.5 -125.5t-207.5 -38.5q-84 1 -154 25.5
t-119.5 66t-87 98.5t-59 122t-32.5 138t-10.5 145t9.5 145q12 94 39.5 186.5t69.5 182t102 165.5t132 133.5t164.5 88.5t195.5 28q69 -2 129 -20t112 -61t71 -107h24zM542 770q-8 -54 -10.5 -101.5t5.5 -100.5t28.5 -90.5t62 -63.5t101.5 -28q82 -3 148 31t108.5 94.5
t68.5 129t39 147.5q61 394 -165 405q-68 3 -127.5 -21t-101.5 -65t-75 -98t-52.5 -116.5t-29.5 -122.5z" />
    <glyph glyph-name="uni01F6" unicode="&#x1f6;" horiz-adv-x="2958" 
d="M883 2048l-183 -839l724 -1l167 840h456l-277 -1353q-55 -334 182 -344q149 -6 238 91.5t119 253.5l156 792h456l-163 -792q-30 -166 -100.5 -301t-176 -231t-249.5 -147.5t-314 -48.5q-151 2 -279 56.5t-210.5 150.5t-113 227.5t12.5 287.5h-5l38 145l-729 1l-167 -836
h-456l418 2048h456z" />
    <glyph glyph-name="uni01F7" unicode="&#x1f7;" horiz-adv-x="2071" 
d="M928 2005l-11 -44q152 72 326 70q127 -1 234.5 -34t185 -92t135 -141t85.5 -181t36.5 -211.5t-12.5 -231.5l-12 -72q-33 -196 -130 -373.5t-232 -314.5t-307 -252t-351.5 -194t-369.5 -131l-81 -376l-452 1l527 2576zM1221 1660q-165 5 -362 -140l-301 -1337l165 85
t159.5 93.5t152.5 106.5t134.5 121t116.5 139t87.5 158t58.5 182l15 77q10 56 15.5 98t8 98t-3 97t-21.5 84.5t-43.5 71t-73.5 46t-108 20.5z" />
    <glyph glyph-name="uni01F8" unicode="&#x1f8;" horiz-adv-x="1944" 
d="M1338 2536l202 -431l-334 -1l-313 430zM2048 2048l-418 -2048h-437l-443 1262l-20 2l-264 -1264h-460l418 2048h441l439 -1262l20 -2l264 1264h460z" />
    <glyph glyph-name="uni01F9" unicode="&#x1f9;" horiz-adv-x="1648" 
d="M1035 2112l202 -431l-335 -1l-312 430zM622 816l-160 -816h-456l313 1536l420 1l-49 -169l6 1q84 93 193.5 141.5t234.5 45.5q81 -2 148.5 -26.5t114 -65.5t81 -97.5t49.5 -122t20 -138t-7 -146.5l-187 -960h-456l193 946q9 44 5 87t-18 78t-48 57.5t-84 25.5
q-59 3 -108.5 -20t-82 -60t-58.5 -91t-40 -102.5t-24 -104.5z" />
    <glyph glyph-name="Aringacute" unicode="&#x1fa;" horiz-adv-x="2159" 
d="M1319 2481l333 295l422 -1l-441 -295zM441 0h-507l1158 2048h34q-25 48 -25 106q-2 119 86.5 198t209.5 77q109 -2 187 -74t79 -181q1 -112 -77 -189l314 -1985h-484l-45 384h-725zM1264 2155q-7 -35 4 -64.5t38 -42.5h89q39 15 67 49t37 76q10 48 -10 81.5t-68 34.5
q-56 1 -100.5 -38.5t-56.5 -95.5zM1229 1472l-402 -714l500 -2l-77 715z" />
    <glyph glyph-name="aringacute" unicode="&#x1fb;" horiz-adv-x="1545" 
d="M927 2057l333 295l423 -1l-442 -295zM819 0l35 161l-11 -2q-142 -192 -380 -188q-194 4 -310.5 131.5t-103.5 321.5q7 103 51.5 186.5t111 138.5t155.5 94t178.5 58.5t187.5 26.5q5 0 37 1.5t45 3t43 5.5t46 10t36.5 16t33 25t19.5 35l8 32q12 65 -21.5 107.5t-99.5 46.5
q-81 4 -147.5 -42.5t-91.5 -123.5l-424 38q18 103 72.5 187t134 140.5t172.5 91.5t195 48q-81 72 -82 181q-1 119 87.5 198t208.5 77q110 -2 187.5 -74t78.5 -181q1 -74 -34 -134t-96 -96q159 -53 244 -176.5t61 -303.5l-204 -1040h-423zM873 1731q-10 -47 11.5 -81.5
t69.5 -34.5q56 0 99 39.5t54 94.5q10 48 -9.5 81.5t-67.5 34.5q-57 1 -101 -38t-56 -96zM885 491l59 202q-40 -34 -155 -51q-45 -7 -79.5 -15t-74 -24t-67 -37t-49.5 -55t-30 -77q-12 -60 19 -95t93 -38q91 -3 175.5 51t108.5 139z" />
    <glyph glyph-name="AEacute" unicode="&#x1fc;" horiz-adv-x="2736" 
d="M1431 2120l338 432l490 -1l-443 -431h-385zM2482 364l-68 -364h-1205l74 383l-570 1l-253 -384h-529l1426 2048h1392l-68 -364h-758l-90 -479l633 -1l-67 -360h-618l-90 -479zM938 758l399 -2l134 784z" />
    <glyph glyph-name="aeacute" unicode="&#x1fd;" horiz-adv-x="2435" 
d="M1235 1680l338 432l491 -1l-444 -431h-385zM223 1082q21 119 91 213t170 150t213.5 84.5t231.5 27.5q262 -4 398 -120q210 122 429 118q154 -2 271.5 -59.5t185.5 -156t94.5 -228t7.5 -278.5l-17 -144l-989 -97q-8 -113 46.5 -181.5t167.5 -72.5q106 -3 187 50t121 151
l385 -105q-24 -112 -98 -203.5t-175 -147t-215 -85t-225 -27.5q-146 2 -267 55.5t-186 166.5l-15 1q-77 -116 -207.5 -170.5t-282.5 -52.5q-104 1 -194.5 31t-159.5 85t-106 142t-30 194q7 103 51.5 187t110.5 139t155.5 94t179 58.5t187.5 26.5q5 0 37 1.5t45 3t43 5.5
t46 10t36.5 16t33.5 25t20 35l7 32q12 62 -29 99t-107 39q-82 4 -143.5 -44.5t-91.5 -129.5zM1727 1194q-72 3 -132.5 -22t-107.5 -75t-79.5 -100.5t-66.5 -119.5l569 57q30 111 -18.5 183t-164.5 77zM891 491l59 202q-40 -34 -155 -51q-58 -9 -100.5 -20.5t-87 -34
t-73.5 -61t-39 -92.5q-12 -60 18.5 -95.5t92.5 -37.5q91 -3 176 51t109 139z" />
    <glyph glyph-name="Oslashacute" unicode="&#x1fe;" horiz-adv-x="2031" 
d="M1124 2208l338 432l491 -1l-444 -431h-385zM277 -97l-187 153l195 200q-78 192 -99.5 371.5t10.5 385.5q27 166 86 321t153.5 291.5t214 237t277 158t332.5 55.5q266 -3 446 -142l184 207l187 -153l-210 -219q67 -190 84.5 -366t-12.5 -377q-26 -165 -85 -318.5
t-152.5 -288.5t-212.5 -235t-274.5 -157t-329.5 -55q-253 2 -432 127zM654 1015q-42 -228 -44 -365l817 937q-55 71 -198 75q-105 3 -193.5 -35t-150 -100.5t-109.5 -150.5t-76 -175.5t-46 -185.5zM1481 1026q38 205 49 338l-801 -920q55 -54 187 -58q104 -2 191.5 35.5
t147.5 98.5t106.5 148t74 173.5t45.5 184.5z" />
    <glyph glyph-name="oslashacute" unicode="&#x1ff;" horiz-adv-x="1632" 
d="M650 1672l339 432l490 -1l-444 -431h-385zM237 -97l-186 153l143 143q-115 277 -73 561q24 165 92.5 309.5t173 254.5t251.5 172.5t316 60.5q181 -2 317 -76l128 140l186 -154l-135 -133q114 -275 74 -559q-23 -165 -92 -310.5t-173.5 -257t-252.5 -175.5t-317 -61
q-181 2 -321 80zM542 764q-20 -91 -36 -187l525 597q-33 20 -99 22q-71 2 -131 -23t-100.5 -66t-73 -100.5t-52 -117.5t-33.5 -125zM712 336q72 -2 132 23.5t101 67t73.5 102t51.5 118t34 125.5q26 124 35 187l-527 -599q36 -22 100 -24z" />
    <glyph glyph-name="Adblgrave" unicode="&#x200;" horiz-adv-x="2159" 
d="M1858 2150l-333 -2l-274 363l390 2zM1369 2150l-332 -2l-329 363l387 2zM441 0h-507l1158 2048h484l324 -2048h-484l-45 384h-725zM1229 1472l-402 -714l500 -2l-77 715z" />
    <glyph glyph-name="adblgrave" unicode="&#x201;" horiz-adv-x="1543" 
d="M1466 1726l-333 -2l-273 363l389 2zM977 1726l-331 -2l-330 363l387 2zM819 0l35 161l-11 -2q-142 -192 -380 -188q-194 4 -310.5 131.5t-103.5 321.5q7 103 51.5 186.5t111 138.5t155.5 94t178.5 58.5t187.5 26.5q5 0 37 1.5t45 3t43 5.5t46 10t36.5 16t33 25t19.5 35
l8 32q12 65 -21.5 107.5t-99.5 46.5q-81 4 -147.5 -42.5t-91.5 -123.5l-424 38q14 80 51 149.5t90 121.5t119 92t140 64.5t151.5 36.5t154.5 10q117 -2 217.5 -36.5t175 -97t110.5 -161.5t20 -221l-204 -1040h-423zM885 491l59 202q-40 -34 -155 -51q-45 -7 -79.5 -15
t-74 -24t-67 -37t-49.5 -55t-30 -77q-12 -60 19 -95t93 -38q91 -3 175.5 51t108.5 139z" />
    <glyph glyph-name="Ainvertedbreve" unicode="&#x202;" horiz-adv-x="2158" 
d="M1925 2182l-298 1q10 173 -144 179q-89 3 -150.5 -44.5t-74.5 -133.5l-300 -2q3 103 48.5 186.5t119 135.5t166 79t192.5 24q197 -5 318 -118t123 -307zM440 0h-507l1158 2048h484l324 -2048h-484l-45 384h-725zM1228 1472l-402 -714l500 -2l-77 715z" />
    <glyph glyph-name="ainvertedbreve" unicode="&#x203;" horiz-adv-x="1544" 
d="M1534 1758l-297 1q8 174 -145 179q-89 3 -150.5 -44.5t-74.5 -133.5l-299 -2q3 103 48.5 186.5t119 135.5t166 79t192.5 24q198 -5 318.5 -118t121.5 -307zM819 0l35 161l-11 -2q-142 -192 -380 -188q-194 4 -310.5 131.5t-103.5 321.5q7 103 51.5 186.5t111 138.5
t155.5 94t178.5 58.5t187.5 26.5q5 0 37 1.5t45 3t43 5.5t46 10t36.5 16t33 25t19.5 35l8 32q12 65 -21.5 107.5t-99.5 46.5q-81 4 -147.5 -42.5t-91.5 -123.5l-424 38q14 80 51 149.5t90 121.5t119 92t140 64.5t151.5 36.5t154.5 10q117 -2 217.5 -36.5t175 -97
t110.5 -161.5t20 -221l-204 -1040h-423zM885 491l59 202q-40 -34 -155 -51q-45 -7 -79.5 -15t-74 -24t-67 -37t-49.5 -55t-30 -77q-12 -60 19 -95t93 -38q91 -3 175.5 51t108.5 139z" />
    <glyph glyph-name="Edblgrave" unicode="&#x204;" horiz-adv-x="1649" 
d="M1622 2150l-333 -2l-274 363l390 2zM1133 2150l-332 -2l-329 363l387 2zM1415 384l-72 -384h-1337l418 2048h1336l-72 -384h-883l-103 -447l750 -1l-73 -384h-746l-104 -447z" />
    <glyph glyph-name="edblgrave" unicode="&#x205;" horiz-adv-x="1627" 
d="M1450 1726l-333 -2l-274 363l390 2zM960 1726l-331 -2l-329 363l387 2zM735 -29q-133 2 -243 40.5t-187.5 108t-127.5 164t-67.5 209.5t-2.5 244q20 169 87 318t172.5 262t255 177.5t322.5 62.5q153 -2 273 -60t193 -156t102.5 -229t10.5 -280l-30 -192l-967 1
q-14 -130 42 -214.5t184 -87.5q104 -3 182.5 49.5t117.5 150.5l386 -106q-23 -113 -95.5 -204t-171.5 -146.5t-211.5 -84t-224.5 -27.5zM919 1193q-62 2 -115.5 -18t-95.5 -59.5t-73.5 -82.5t-62.5 -101l544 2q25 112 -28.5 183.5t-168.5 75.5z" />
    <glyph glyph-name="Einvertedbreve" unicode="&#x206;" horiz-adv-x="1646" 
d="M1689 2182l-298 1q10 173 -144 179q-89 3 -150.5 -44.5t-74.5 -133.5l-300 -2q3 103 48.5 186.5t119 135.5t166 79t192.5 24q197 -5 318 -118t123 -307zM1414 384l-72 -384h-1337l418 2048h1336l-72 -384h-883l-103 -447l750 -1l-73 -384h-746l-104 -447z" />
    <glyph glyph-name="einvertedbreve" unicode="&#x207;" horiz-adv-x="1627" 
d="M1519 1758l-298 1q10 174 -145 179q-88 3 -149.5 -44.5t-74.5 -133.5l-300 -2q3 103 48.5 186.5t119 135.5t166 79t192.5 24q197 -5 318 -118t123 -307zM736 -29q-133 2 -243 40.5t-187.5 108t-127.5 164t-67.5 209.5t-2.5 244q20 169 87 318t172.5 262t255 177.5
t322.5 62.5q153 -2 273 -60t193 -156t102.5 -229t10.5 -280l-30 -192l-967 1q-14 -130 42 -214.5t184 -87.5q104 -3 182.5 49.5t117.5 150.5l386 -106q-23 -113 -95.5 -204t-171.5 -146.5t-211.5 -84t-224.5 -27.5zM920 1193q-62 2 -115.5 -18t-95.5 -59.5t-73.5 -82.5
t-62.5 -101l544 2q25 112 -28.5 183.5t-168.5 75.5z" />
    <glyph glyph-name="Idblgrave" unicode="&#x208;" horiz-adv-x="744" 
d="M1150 2150l-333 -2l-274 363l390 2zM661 2150l-332 -2l-329 363l387 2zM884 2048l-418 -2048h-460l418 2048h460z" />
    <glyph glyph-name="idblgrave" unicode="&#x209;" horiz-adv-x="773" 
d="M1072 1694l-333 -2l-274 363l390 2zM582 1694l-331 -2l-329 363l387 2zM789 1536l-312 -1536h-456l312 1536h456z" />
    <glyph glyph-name="Iinvertedbreve" unicode="&#x20a;" horiz-adv-x="743" 
d="M1217 2182l-298 1q10 173 -144 179q-89 3 -150.5 -44.5t-74.5 -133.5l-300 -2q3 103 48.5 186.5t119 135.5t166 79t192.5 24q197 -5 318 -118t123 -307zM883 2048l-418 -2048h-460l418 2048h460z" />
    <glyph glyph-name="iinvertedbreve" unicode="&#x20b;" horiz-adv-x="772" 
d="M1140 1726l-298 1q10 174 -145 179q-88 3 -149.5 -44.5t-74.5 -133.5l-300 -2q3 103 48.5 186.5t119 135.5t166 79t192.5 24q197 -5 318 -118t123 -307zM789 1536l-312 -1536h-456l312 1536h456z" />
    <glyph glyph-name="Odblgrave" unicode="&#x20c;" horiz-adv-x="2030" 
d="M1797 2150l-333 -2l-274 363l390 2zM1308 2150l-332 -2l-329 363l387 2zM1942 1027q-26 -164 -85 -318t-153.5 -289.5t-213.5 -235.5t-275 -157t-329 -55q-122 2 -225.5 34t-180.5 88t-135.5 132.5t-94.5 167.5t-54.5 193.5t-18 209.5t17.5 216q26 165 85 320.5
t154.5 291.5t216 237t278 158.5t331.5 55.5q122 -2 225 -34.5t178.5 -89.5t133.5 -135t92.5 -170t52.5 -195.5t17.5 -210t-17.5 -214.5zM1484 1028q10 59 15.5 109t7.5 116.5t-4 119t-24 107.5t-49 92t-82.5 62t-119.5 27q-104 3 -193 -34.5t-151 -101t-111 -151t-77 -177
t-44 -185.5q-10 -59 -15.5 -110.5t-6.5 -116.5t5.5 -117t26 -105t51 -89.5t83.5 -60.5t121 -26q103 -3 191 34t149 99t108.5 149t75 175t43.5 184z" />
    <glyph glyph-name="odblgrave" unicode="&#x20d;" horiz-adv-x="1631" 
d="M1434 1726l-333 -2l-274 363l390 2zM944 1726l-331 -2l-329 363l387 2zM705 -28q-130 2 -236.5 46t-178.5 118.5t-117.5 174t-59.5 214t0 237.5q19 163 84.5 307.5t167.5 254t247.5 172.5t312.5 60q161 -3 285.5 -68t196.5 -173.5t101 -247.5t11 -293
q-19 -163 -84.5 -308.5t-168 -256.5t-248 -175.5t-313.5 -61.5zM728 339q70 -3 128 23t97.5 68.5t69 102t45.5 118.5t25 124q5 40 8 74.5t2.5 78t-6.5 78.5t-20 70.5t-36 59.5t-57 39.5t-81 17.5q-70 3 -128 -22.5t-97 -67.5t-68.5 -100.5t-46 -117.5t-24.5 -124
q-56 -413 189 -422z" />
    <glyph glyph-name="Oinvertedbreve" unicode="&#x20e;" horiz-adv-x="2030" 
d="M1865 2182l-298 1q10 173 -144 179q-89 3 -150.5 -44.5t-74.5 -133.5l-300 -2q3 103 48.5 186.5t119 135.5t166 79t192.5 24q197 -5 318 -118t123 -307zM1942 1027q-26 -164 -85 -318t-153.5 -289.5t-213.5 -235.5t-275 -157t-329 -55q-122 2 -225.5 34t-180.5 88
t-135.5 132.5t-94.5 167.5t-54.5 193.5t-18 209.5t17.5 216q26 165 85 320.5t154.5 291.5t216 237t278 158.5t331.5 55.5q122 -2 225 -34.5t178.5 -89.5t133.5 -135t92.5 -170t52.5 -195.5t17.5 -210t-17.5 -214.5zM1484 1028q10 59 15.5 109t7.5 116.5t-4 119t-24 107.5
t-49 92t-82.5 62t-119.5 27q-104 3 -193 -34.5t-151 -101t-111 -151t-77 -177t-44 -185.5q-10 -59 -15.5 -110.5t-6.5 -116.5t5.5 -117t26 -105t51 -89.5t83.5 -60.5t121 -26q103 -3 191 34t149 99t108.5 149t75 175t43.5 184z" />
    <glyph glyph-name="oinvertedbreve" unicode="&#x20f;" horiz-adv-x="1631" 
d="M1503 1758l-298 1q10 174 -145 179q-88 3 -149.5 -44.5t-74.5 -133.5l-300 -2q3 103 48.5 186.5t119 135.5t166 79t192.5 24q197 -5 318 -118t123 -307zM706 -28q-130 2 -236.5 46t-178.5 118.5t-117.5 174t-59.5 214t0 237.5q19 163 84.5 307.5t167.5 254t247.5 172.5
t312.5 60q161 -3 285.5 -68t196.5 -173.5t101 -247.5t11 -293q-19 -163 -84.5 -308.5t-168 -256.5t-248 -175.5t-313.5 -61.5zM729 339q70 -3 128 23t97.5 68.5t69 102t45.5 118.5t25 124q5 40 8 74.5t2.5 78t-6.5 78.5t-20 70.5t-36 59.5t-57 39.5t-81 17.5
q-70 3 -128 -22.5t-97 -67.5t-68.5 -100.5t-46 -117.5t-24.5 -124q-56 -413 189 -422z" />
    <glyph glyph-name="Rdblgrave" unicode="&#x210;" horiz-adv-x="1787" 
d="M1674 2150l-333 -2l-274 363l390 2zM1185 2150l-332 -2l-329 363l387 2zM1087 0l-201 752h-271l-149 -752h-460l418 2048l743 -1q147 -2 267 -44t203 -119.5t121 -197t20 -269.5q-24 -205 -136.5 -354t-302.5 -227l234 -836h-486zM805 1664l-119 -531l294 -3
q135 -1 229.5 72.5t118.5 204.5q20 112 -25.5 182t-156.5 74z" />
    <glyph glyph-name="rdblgrave" unicode="&#x211;" horiz-adv-x="1188" 
d="M1306 1726l-333 -2l-273 363l389 2zM817 1726l-331 -2l-330 363l387 2zM1306 1506l-191 -390q-53 34 -136 36q-121 3 -218.5 -79t-124.5 -201l-174 -872h-456l313 1536l444 1l-57 -201l17 2q50 111 140 167t213 54q121 -3 230 -53z" />
    <glyph glyph-name="Rinvertedbreve" unicode="&#x212;" horiz-adv-x="1786" 
d="M1741 2182l-298 1q10 173 -144 179q-89 3 -150.5 -44.5t-74.5 -133.5l-300 -2q3 103 48.5 186.5t119 135.5t166 79t192.5 24q197 -5 318 -118t123 -307zM1086 0l-201 752h-271l-149 -752h-460l418 2048l743 -1q147 -2 267 -44t203 -119.5t121 -197t20 -269.5
q-24 -205 -136.5 -354t-302.5 -227l234 -836h-486zM804 1664l-119 -531l294 -3q135 -1 229.5 72.5t118.5 204.5q20 112 -25.5 182t-156.5 74z" />
    <glyph glyph-name="rinvertedbreve" unicode="&#x213;" horiz-adv-x="1188" 
d="M1374 1758l-297 1q8 174 -145 179q-89 3 -150.5 -44.5t-74.5 -133.5l-299 -2q3 103 48.5 186.5t119 135.5t166 79t192.5 24q198 -5 318.5 -118t121.5 -307zM1306 1506l-191 -390q-53 34 -136 36q-121 3 -218.5 -79t-124.5 -201l-174 -872h-456l313 1536l444 1l-57 -201
l17 2q50 111 140 167t213 54q121 -3 230 -53z" />
    <glyph glyph-name="Udblgrave" unicode="&#x214;" horiz-adv-x="1943" 
d="M1749 2150l-333 -2l-274 363l390 2zM1260 2150l-332 -2l-329 363l387 2zM1587 2048h460l-278 -1351q-42 -231 -173 -397.5t-324.5 -250t-429.5 -80.5q-162 2 -299 52.5t-233 141t-139.5 229t-17.5 304.5l270 1352h460l-275 -1337q-25 -144 49 -231.5t220 -92.5
q160 -5 284 83.5t157 241.5z" />
    <glyph glyph-name="udblgrave" unicode="&#x215;" horiz-adv-x="1649" 
d="M1490 1726l-333 -2l-273 363l389 2zM1001 1726l-331 -2l-330 363l387 2zM1039 720l160 816h456l-313 -1536h-420l49 168l-6 -1q-84 -94 -194 -143.5t-234 -46.5q-81 2 -148.5 26.5t-114 66.5t-81 98.5t-50 122.5t-20.5 138.5t7 146.5l188 960h456l-193 -946
q-7 -61 -1 -114.5t44 -91.5t103 -42q59 -3 108.5 20t82 60t58 91t39.5 102.5t24 104.5z" />
    <glyph glyph-name="Uinvertedbreve" unicode="&#x216;" horiz-adv-x="1942" 
d="M1817 2182l-298 1q10 173 -144 179q-89 3 -150.5 -44.5t-74.5 -133.5l-300 -2q3 103 48.5 186.5t119 135.5t166 79t192.5 24q197 -5 318 -118t123 -307zM1587 2048h460l-278 -1351q-42 -231 -173 -397.5t-324.5 -250t-429.5 -80.5q-162 2 -299 52.5t-233 141t-139.5 229
t-17.5 304.5l270 1352h460l-275 -1337q-25 -144 49 -231.5t220 -92.5q160 -5 284 83.5t157 241.5z" />
    <glyph glyph-name="uinvertedbreve" unicode="&#x217;" horiz-adv-x="1648" 
d="M1558 1758l-297 1q8 174 -145 179q-89 3 -150.5 -44.5t-74.5 -133.5l-299 -2q3 103 48.5 186.5t119 135.5t166 79t192.5 24q198 -5 318.5 -118t121.5 -307zM1039 720l160 816h456l-313 -1536h-420l49 168l-6 -1q-84 -94 -194 -143.5t-234 -46.5q-81 2 -148.5 26.5
t-114 66.5t-81 98.5t-50 122.5t-20.5 138.5t7 146.5l188 960h456l-193 -946q-7 -61 -1 -114.5t44 -91.5t103 -42q59 -3 108.5 20t82 60t58 91t39.5 102.5t24 104.5z" />
    <glyph glyph-name="Scommaaccent" unicode="&#x218;" horiz-adv-x="1766" 
d="M1348 1438q3 243 -234 249q-55 2 -109.5 -8.5t-106.5 -33t-90 -63.5t-52 -95q-10 -37 1.5 -69t33 -54t59 -43.5t67.5 -33.5l71 -27.5t58 -23.5l49 -25q94 -42 162 -80.5t138.5 -95t112 -118.5t63.5 -147t12 -185q-13 -124 -65.5 -227t-132 -174t-182 -120t-215 -71.5
t-231.5 -20.5q-324 4 -509 188.5t-175 505.5h436q-5 -145 63 -225.5t212 -84.5q125 -2 229.5 55t133.5 169q38 152 -181 252q-44 20 -136 52l-36 13q-83 29 -154.5 67.5t-135.5 93t-107.5 118t-65.5 144.5t-14 171q10 117 65 216t137 167t187 115t215 68t221 19
q297 -5 467.5 -174.5t165.5 -463.5h-427zM907 -116l-47 -227q-68 -365 -280 -560l-220 111q14 29 65.5 125t77 159t39.5 136l45 256h320z" />
    <glyph glyph-name="scommaaccent" unicode="&#x219;" horiz-adv-x="1544" 
d="M1485 1081l-407 -23q-10 80 -62 121.5t-135 42.5q-79 2 -152.5 -33.5t-89.5 -104.5q-6 -28 2 -48.5t30.5 -33.5t40.5 -20t47 -14l289 -65q172 -41 270 -142t90 -269q-6 -112 -55.5 -202.5t-125.5 -149t-175.5 -98t-200.5 -55.5t-204 -15q-259 3 -416 128t-196 375l435 23
q14 -91 70 -143t148 -53q35 -1 73 5.5t76.5 21t67 41.5t36.5 62q7 32 0.5 54.5t-28.5 36.5t-41 21t-52 15l-256 62q-175 45 -278 153t-94 278q5 108 52 195.5t119 144.5t166.5 95.5t192 54t197.5 14.5q247 -3 393 -120t173 -355zM802 -128l-47 -227q-68 -365 -280 -560
l-220 111q14 29 65.5 125t77 159t39.5 136l46 256h319z" />
    <glyph glyph-name="uni021A" unicode="&#x21a;" horiz-adv-x="1811" 
d="M1979 2048l-72 -384h-589l-338 -1664h-456l355 1663l-591 1l72 384h1619zM898 -100l-46 -227q-68 -364 -280 -560l-221 111l65.5 125t76.5 158.5t41 136.5l45 256h319z" />
    <glyph glyph-name="uni021B" unicode="&#x21b;" horiz-adv-x="1040" 
d="M1099 1536l-61 -320h-240l-150 -734q-10 -63 5.5 -94t73.5 -32q33 0 95 12l36 -347q-35 -22 -92.5 -32t-107.5 -9.5t-98 0.5q-120 3 -210 65t-131 163.5t-27 219.5l165 787l-174 1l64 320h173l58 328h458l-78 -327zM615 -116l-47 -227q-68 -365 -280 -560l-220 111
q14 29 65.5 125t77 159t39.5 136l45 256h320z" />
    <glyph glyph-name="uni021C" unicode="&#x21c;" horiz-adv-x="1814" 
d="M270 409l44 353l107.5 32l118.5 34.5t122 38t125.5 44.5t119.5 51t114 61t99 72.5t85 86t62 100.5t38 118q23 123 -30.5 188.5t-179.5 69.5q-113 3 -202 -48.5t-107 -154.5l-448 -2q4 114 53.5 211t128 163.5t179.5 113t208.5 67.5t213.5 20q107 -1 204 -21.5t183.5 -64
t146.5 -107t90 -158t17 -209.5q-38 -346 -333 -561q184 -173 157 -419q-16 -151 -77.5 -284t-152 -234.5t-212 -188t-251.5 -148t-278 -110t-282.5 -78t-273.5 -48.5l49 373q921 186 1034 726q19 97 15 138q-5 40 -26 64q-368 -172 -861 -289z" />
    <glyph glyph-name="uni021D" unicode="&#x21d;" horiz-adv-x="1558" 
d="M241 197l39 325l76.5 26l86.5 29.5l87.5 32t90.5 37t85.5 42t83.5 49.5t72 56t62.5 65t44.5 73.5t29 84.5q34 164 -106 169q-78 4 -137 -28t-74 -103l-436 -2q3 95 43 174t104 132t147.5 90t171 53t175.5 15q84 -1 162.5 -14.5t155 -45.5t131 -79.5t84.5 -121.5t22 -167
q-24 -275 -264 -461q145 -139 124 -364q-9 -92 -41.5 -175.5t-81 -151t-117.5 -128.5t-142 -108t-162.5 -89.5t-171.5 -73.5t-177.5 -59t-171.5 -46.5t-161 -36.5l41 334l88.5 33.5l95 36t92 37.5t95.5 43.5l87.5 47t85.5 55.5t72.5 62.5t66 73.5t49 83t36.5 96
q19 70 13 137q-135 -78 -290.5 -131t-365.5 -107z" />
    <glyph glyph-name="uni021E" unicode="&#x21e;" horiz-adv-x="1944" 
d="M1199 2536l159 -183l231 182l383 10l1 -31l-480 -382h-277l-371 384l-1 31zM884 2048l-182 -831l720 -1l166 832h460l-418 -2048h-460l182 831l-720 1l-166 -832h-460l418 2048h460z" />
    <glyph glyph-name="uni021F" unicode="&#x21f;" horiz-adv-x="1605" 
d="M1089 2664l159 -183l232 182l383 10l1 -31l-481 -382h-277l-371 384v31zM622 816l-160 -816h-456l419 2048h440l-156 -680l6 1q168 193 413 186q79 -2 143 -28t105 -69t70 -100.5t39.5 -122.5t13 -135.5t-9.5 -139.5l-189 -960h-456l197 966q6 34 8 61t-1.5 59t-15 54
t-35.5 37.5t-61 17.5q-59 3 -108 -20t-82 -61t-59 -91.5t-40.5 -102.5t-24.5 -104z" />
    <glyph glyph-name="uni0220" unicode="&#x220;" horiz-adv-x="1814" 
d="M1362 -572h-443l411 1998q21 119 -24 182t-165 67q-131 5 -329 -89l-332 -1586h-440l410 2004l419 8l-17 -72q165 94 369 91q129 -2 238.5 -47.5t183.5 -124t107.5 -191.5t15.5 -244z" />
    <glyph glyph-name="uni0221" unicode="&#x221;" horiz-adv-x="2327" 
d="M1928 -199q-4 -85 -37 -154.5t-85.5 -115.5t-122 -77t-144.5 -44t-156 -11q-69 1 -133.5 13t-128.5 37t-111.5 73t-67.5 114l-290 -212l-150 291l433 298l40 119q-112 -162 -334 -157q-87 2 -158 29t-120 72t-85.5 107t-56 131t-29 146.5t-8 151.5t11.5 147
q16 115 51 226t95.5 217t139 185t187.5 125.5t233 42.5q68 -2 128 -20t111.5 -61t71.5 -106l19 -1l146 681h456l-405 -1885q34 6 86 6q88 0 163.5 -23t133.5 -67t89 -115.5t27 -162.5zM618 759q-64 -411 180 -422q70 -3 128.5 23t97.5 69t69.5 103.5t47.5 119t27 123.5
q6 41 10 71.5t6 76t-1.5 79t-14.5 70.5t-30.5 61t-52.5 41t-78 19q-87 4 -158 -33.5t-116.5 -103.5t-73.5 -140.5t-41 -156.5zM1331 -171q-31 -148 69 -151q53 -2 97 29t56 82q10 45 -18.5 65.5t-76.5 22.5q-36 1 -119 -14z" />
    <glyph glyph-name="uni0222" unicode="&#x222;" horiz-adv-x="1816" 
d="M997 1331h31q307 -2 349 202q13 63 -9 91.5t-85 45.5l49 365q117 -8 210 -41.5t162.5 -93t103 -153.5t23.5 -214q-24 -276 -302 -409q142 -210 114 -468q-15 -129 -66.5 -240t-131 -192.5t-182 -139t-221 -86t-245.5 -27.5l-28 1q-148 3 -271.5 50t-210 130t-127 208
t-23.5 276q38 333 318 498q-152 163 -133 381q9 110 49 197.5t102 146t146 98t176.5 58t198.5 20.5l-49 -363q-141 -37 -166 -158q-4 -29 -5.5 -52t7.5 -41t19 -31.5t28 -23.5t35.5 -16t41.5 -10t45 -6t47 -3zM989 956l-27 1q-145 2 -244.5 -88t-124.5 -235
q-21 -124 27 -205.5t170 -88.5l26 -1q146 -2 245.5 85.5t124.5 233.5q22 127 -25.5 209t-171.5 89z" />
    <glyph glyph-name="uni0223" unicode="&#x223;" horiz-adv-x="1814" 
d="M1013 1295q152 -2 253 66t128 213q15 81 -2.5 137t-84.5 84l46 348q245 -19 370.5 -167.5t100.5 -394.5q-34 -329 -311 -473q144 -199 115 -464q-18 -159 -91.5 -288.5t-186 -213t-254.5 -128t-300 -43.5l-27 1q-148 3 -270 48.5t-206.5 127.5t-124 205.5t-22.5 273.5
q38 337 315 491q-147 185 -120 446q19 185 111.5 315t235.5 194.5t328 69.5l-47 -347q-159 -59 -195 -242q-24 -126 28 -189.5t181 -68.5zM986 940l-28 1q-145 1 -249 -85.5t-130 -229.5q-23 -127 29.5 -207t178.5 -87l26 -1q149 -2 252.5 83t129.5 231q23 129 -29 208.5
t-180 86.5z" />
    <glyph glyph-name="uni0224" unicode="&#x224;" horiz-adv-x="1815" 
d="M1879 1754l-1242 -1368l389 -3q248 -5 379 -155t97 -395l-28 -194l-376 2l21 109q7 39 10 68.5t-0.5 64t-15.5 57.5t-39.5 40t-68.5 20h-1002l54 294l1242 1368l-952 2l72 384l1514 1z" />
    <glyph glyph-name="zhook" unicode="&#x225;" horiz-adv-x="1535" 
d="M1481 1255l-845 -892l141 -4q246 -5 376 -155.5t97 -394.5l-28 -194l-377 2l22 109q7 40 10.5 69.5t1.5 69t-13.5 65.5t-38.5 46.5t-69 23.5h-747l52 281l848 893l-629 2l67 360l1184 1z" />
    </font>
</defs>
</svg>
