<?xml version="1.0" standalone="no"?>
<!DOCTYPE svg PUBLIC "-//W3C//DTD SVG 1.1//EN" "http://www.w3.org/Graphics/SVG/1.1/DTD/svg11.dtd" >
<svg>
<metadata>
Created by FontForge 20090622 at Wed Jul 18 05:56:46 2018
 By deploy user
Copyright 2018 The Inter UI project authors
</metadata>
<defs>
<font id="InterUI-Italic" horiz-adv-x="0" >
  <font-face 
    font-family="Inter UI"
    font-weight="400"
    font-style="italic"
    font-stretch="normal"
    units-per-em="2816"
    panose-1="2 11 5 2 3 0 0 0 0 4"
    ascent="2252"
    descent="-564"
    x-height="1536"
    cap-height="2048"
    bbox="-1993 -1069.09 4104 3011"
    underline-thickness="170"
    underline-position="-337"
    slope="-9.39999"
    unicode-range="U+0002-U+1F16B"
  />
<missing-glyph horiz-adv-x="2800" 
d="M248 2176v512h2304v-512h-2304zM248 1472v512h2304v-512h-2304zM248 768v512h2304v-512h-2304zM248 64v512h2304v-512h-2304zM248 -640v512h2304v-512h-2304z" />
    <glyph glyph-name=".notdef" horiz-adv-x="2800" 
d="M248 2176v512h2304v-512h-2304zM248 1472v512h2304v-512h-2304zM248 768v512h2304v-512h-2304zM248 64v512h2304v-512h-2304zM248 -640v512h2304v-512h-2304z" />
    <glyph glyph-name=".null" 
 />
    <glyph glyph-name="nonmarkingreturn" horiz-adv-x="938" 
 />
    <glyph glyph-name="controlSOT" 
 />
    <glyph glyph-name="controlHT" unicode="&#x9;" horiz-adv-x="764" 
 />
    <glyph glyph-name="CR" unicode="&#xd;" horiz-adv-x="764" 
 />
    <glyph glyph-name="space" unicode=" " horiz-adv-x="788" 
 />
    <glyph glyph-name="exclam" unicode="!" horiz-adv-x="775" 
d="M809 2048l-325 -1472h-226l285 1472h266zM278 -35q-77 0 -128 55t-51 132q0 82 56 143.5t138 61.5q75 1 126 -55.5t51 -131.5q1 -82 -55 -143t-137 -62z" />
    <glyph glyph-name="quotedbl" unicode="&#x22;" horiz-adv-x="1255" 
d="M687 2048l-123 -704h-215l123 704h215zM1183 2048l-122 -704h-215l122 704h215z" />
    <glyph glyph-name="numbersign" unicode="#" horiz-adv-x="1801" 
d="M218 0l191 568h-295l70 200h292l173 512h-298l71 208h296l189 560h204l-189 -560h401l189 560h204l-190 -560h288l-71 -208h-287l-172 -512h291l-69 -200h-290l-192 -568h-201l192 568h-402l-191 -568h-204zM680 768h402l172 512h-401z" />
    <glyph glyph-name="dollar" unicode="$" horiz-adv-x="1803" 
d="M622 -256l49 225q-246 24 -393.5 171t-151.5 389h249q1 -146 87.5 -230t237.5 -108l146 761l-65 21q-96 32 -174 77t-139.5 108t-91 149.5t-20.5 188.5q10 104 53.5 194.5t110.5 156t153.5 114.5t182 76.5t195.5 35.5l47 231h200l-51 -238q214 -38 338.5 -184t126.5 -363
h-232q-19 261 -261 326l-146 -719l22 -7q512 -159 472 -552q-13 -133 -76 -242t-159 -181.5t-213.5 -116.5t-247.5 -57l-49 -226h-200zM591 1504q-10 -68 11 -122t68 -91.5t96.5 -62t116.5 -46.5l134 673q-76 -10 -145.5 -36t-129 -68.5t-100 -106t-51.5 -140.5zM1333 569
q8 56 -5.5 102.5t-38.5 78t-69.5 59.5t-83 44.5t-94.5 36.5l-139 -695q78 15 148 44.5t130 74.5t100.5 110.5t51.5 144.5z" />
    <glyph glyph-name="percent" unicode="%" horiz-adv-x="2279" 
d="M425 1556l15 106q26 181 149.5 300.5t302.5 114.5q168 -5 254.5 -124t67.5 -289l-15 -108q-27 -181 -148 -299.5t-300 -113.5q-168 5 -256.5 124t-69.5 289zM2200 2048l-1791 -2048h-246l1791 2048h246zM642 1664l-16 -111q-7 -41 -2.5 -82.5t17 -76t44 -56.5t79.5 -24
q98 -3 157.5 67.5t76.5 174.5l17 109q8 41 4 83t-15.5 76.5t-43.5 57t-80 24.5q-98 4 -159.5 -67.5t-78.5 -174.5zM1172 384l15 107q26 181 149 300t303 114q112 -3 191 -61t111 -150t19 -202l-15 -108q-27 -181 -147.5 -299.5t-299.5 -113.5q-113 3 -192.5 61t-113 150
t-20.5 202zM1389 492l-16 -111q-8 -41 -3 -83t17 -76t44.5 -56.5t80.5 -23.5q98 -3 157 67.5t76 174.5l17 109q8 41 4 83t-16 76.5t-44 57.5t-80 24q-67 2 -119 -33.5t-80 -89.5t-38 -119z" />
    <glyph glyph-name="ampersand" unicode="&#x26;" horiz-adv-x="1767" 
d="M1306 0l-105 171q-115 -98 -256.5 -149.5t-291.5 -49.5q-124 2 -230.5 42.5t-182.5 111.5t-113.5 178t-24.5 233q8 80 41.5 154.5t78 130.5t112 113t124.5 95.5t135 84.5q-80 151 -93 178q-69 151 -58 274q21 229 172.5 367.5t380.5 133.5q120 -3 218 -54.5t154 -148
t46 -217.5q-12 -145 -99 -257t-230 -208l-180 -121l330 -534q123 170 149 368l220 1q-34 -337 -247 -552l208 -345h-258zM675 1576q-3 -17 -3 -35t1.5 -34t6.5 -35t9.5 -33.5t13 -34t14.5 -32t16.5 -32.5t16.5 -30.5l18 -31l17 -29.5l148 98q108 69 169 136t75 167
q11 88 -47.5 150.5t-146.5 64.5q-116 3 -203 -84t-105 -205zM338 535q-15 -75 6.5 -142t68 -112t111.5 -71.5t138 -28.5q193 -4 418 169l-362 587l-3 5l-82 -61q-52 -38 -90.5 -69.5t-86 -78t-78 -97t-40.5 -101.5z" />
    <glyph glyph-name="quotesingle" unicode="'" horiz-adv-x="617" 
d="M656 2048l-123 -704h-215l123 704h215z" />
    <glyph glyph-name="parenleft" unicode="(" horiz-adv-x="919" 
d="M633 -387l-219 3q-90 175 -132 389t-40.5 414.5t34.5 409.5q55 340 195.5 656t356.5 562l224 -1l-144 -233.5t-127 -228.5t-114.5 -241t-87.5 -245.5t-64 -267.5q-120 -704 118 -1217z" />
    <glyph glyph-name="parenright" unicode=")" horiz-adv-x="920" 
d="M-89 -382q106 169 177 294t148 282.5t128.5 316t79.5 323.5q120 707 -122 1217l204 -3q74 -130 119 -283t59.5 -310.5t8.5 -311t-31 -309.5q-53 -334 -189 -647.5t-344 -569.5z" />
    <glyph glyph-name="asterisk" unicode="*" horiz-adv-x="1415" 
d="M348 1044l320 355l-378 136l105 202l388 -142l94 453h219l-92 -442l434 138l22 -223l-437 -136l176 -365l-183 -118l-182 361l-329 -357z" />
    <glyph glyph-name="plus" unicode="+" horiz-adv-x="1800" 
d="M1177 1536l-110 -528h513l-47 -224h-512l-110 -528h-219l110 528h-513l48 224h511l110 528h219z" />
    <glyph glyph-name="comma" unicode="," horiz-adv-x="768" 
d="M458 256l-36 -186q-48 -236 -262 -497l-198 41l57.5 106l62 116t47.5 106.5t39 121.5l41 192h249z" />
    <glyph glyph-name="hyphen" unicode="-" horiz-adv-x="1287" 
d="M1141 988l-46 -220h-871l46 220h871z" />
    <glyph glyph-name="period" unicode="." horiz-adv-x="767" 
d="M276 -18q-71 0 -120 51.5t-49 122.5q0 75 53 130t127 56q70 0 119 -50t49 -120q1 -76 -51.5 -132.5t-127.5 -57.5z" />
    <glyph glyph-name="slash" unicode="/" horiz-adv-x="1033" 
d="M1206 2048l-1067 -2356h-235l1067 2356h235z" />
    <glyph glyph-name="zero" unicode="0" horiz-adv-x="1671" 
d="M1585 1140l-38 -195q-20 -101 -46 -193.5t-65.5 -193t-87.5 -185t-114 -161.5t-142 -129.5t-174.5 -82.5t-209.5 -28q-109 2 -195.5 36.5t-143 91t-95.5 134.5t-57 163t-22.5 181.5t2.5 186t23 179.5l38 196q27 144 69 271t113 253.5t160.5 216t218.5 144t282 51.5
q107 -2 192 -34.5t141.5 -85.5t95 -127t57 -155.5t23.5 -175t-2 -181t-23 -177.5zM1296 900l57 285q10 56 16.5 111t7.5 122t-6 126t-26.5 116.5t-51.5 99t-85 68t-122 29.5q-74 3 -141 -18t-119.5 -58.5t-98 -91.5t-79.5 -113.5t-61.5 -129t-46 -133t-31.5 -129.5l-57 -285
q-10 -55 -16.5 -112.5t-7.5 -127.5t6 -132.5t27 -124t53 -106t87 -73t124 -31.5q74 -3 141 20.5t118.5 64t97 99.5t78.5 122t60.5 136t45 136.5t30.5 129.5z" />
    <glyph glyph-name="one" unicode="1" horiz-adv-x="1251" 
d="M1140 2048l-425 -2048h-231l359 1690l-11 -1q-105 -145 -456 -155l28 209q68 1 130 18.5t110.5 42.5t100 67.5t89 80.5t87.5 95z" />
    <glyph glyph-name="two" unicode="2" horiz-adv-x="1671" 
d="M1402 220l-39 -220h-1336l33 191l815 729l88 77.5l99.5 87.5t90 88.5t86 101.5t60 104.5t37.5 116.5q25 156 -65.5 264.5t-247.5 112.5q-97 3 -176.5 -35.5t-131 -106t-83 -149t-43.5 -174.5l-236 -1q13 139 68.5 261.5t143 214.5t211 144t265.5 50q120 -2 224.5 -45.5
t177.5 -118.5t108.5 -181.5t21.5 -228.5q-9 -83 -46.5 -168.5t-82.5 -151.5t-118 -144.5t-123 -126t-129 -116.5l-645 -560l-6 -20z" />
    <glyph glyph-name="three" unicode="3" horiz-adv-x="1671" 
d="M711 924l40 228l100 -1q175 0 307 100.5t155 269.5q21 153 -59 254.5t-233 105.5q-158 5 -275 -92t-139 -253l-229 -1q15 166 109.5 292t237.5 189t309 60q165 -2 288.5 -71t186 -196.5t44.5 -293.5q-17 -155 -120.5 -278t-254.5 -195q94 -42 155 -116.5t83 -166
t11 -196.5q-12 -109 -57 -204t-115 -166t-159 -122t-191.5 -76t-209.5 -23q-252 4 -395 147.5t-130 392.5h250q-11 -150 61.5 -237t222.5 -91q180 -5 314 100t156 281q21 165 -73 259.5t-262 98.5z" />
    <glyph glyph-name="four" unicode="4" horiz-adv-x="1670" 
d="M1518 604l-46 -220h-271l-80 -384h-215l80 384h-935l35 171l1197 1493h263l-300 -1444h272zM401 606l630 -2l238 1142l-62 -123z" />
    <glyph glyph-name="five" unicode="5" horiz-adv-x="1670" 
d="M496 949l-235 54l297 1045h1051l-41 -236h-828l-200 -634l6 1q79 58 172.5 90t188.5 31q139 -1 250.5 -52.5t181 -139.5t100 -207t14.5 -255q-23 -201 -129.5 -356t-275 -238t-369.5 -80q-245 4 -380.5 148.5t-143.5 392.5h231q13 -150 93 -238t227 -92q129 -3 242.5 59
t185.5 168.5t89 233.5q15 117 -15.5 212.5t-111 156t-200.5 62.5q-222 6 -400 -126z" />
    <glyph glyph-name="six" unicode="6" horiz-adv-x="1671" 
d="M1341 1535q-15 71 -33.5 120.5t-50 97t-83 73.5t-121.5 29q-81 3 -151.5 -21t-122.5 -67.5t-96 -105.5t-75.5 -129.5t-57.5 -143.5t-44.5 -144.5l-35.5 -135.5q-1 -4 -1 -6q200 191 468 185q130 -3 233.5 -58t165.5 -144.5t89 -205.5t12 -240q-16 -140 -78 -263.5
t-156 -213.5t-222 -141.5t-270 -49.5q-112 2 -200 38t-144 94.5t-93.5 141t-54.5 169.5t-20.5 189.5t2.5 191t20 183.5l11 69q16 103 39 200t60 203.5t83.5 196.5t112 172.5t142.5 140t178 90t215 30.5q119 -3 211 -46t150.5 -119.5t93.5 -170t50 -210.5zM1206 640
q14 81 2 157t-42 135t-94 96t-153 40q-189 5 -332 -119.5t-168 -313.5q-11 -86 4 -165t53.5 -141.5t107.5 -100.5t159 -41q96 -3 178.5 33t140 99.5t94.5 145.5t50 175z" />
    <glyph glyph-name="seven" unicode="7" horiz-adv-x="1545" 
d="M1622 2048l-47 -269l-1094 -1779h-278l1138 1816h-1003l41 232h1243z" />
    <glyph glyph-name="eight" unicode="8" horiz-adv-x="1671" 
d="M1434 589q-22 -179 -126.5 -322.5t-264 -221t-339.5 -73.5q-169 3 -296.5 81t-189 214t-40.5 304q22 182 126.5 314.5t276.5 210.5q-187 153 -157 439q14 128 74.5 232.5t152 172.5t207 103.5t242.5 32.5q238 -5 375.5 -146t111.5 -376q-35 -325 -347 -471
q116 -87 164 -215t30 -279zM1358 1547q21 134 -61.5 223.5t-219.5 94.5q-153 5 -278.5 -91t-148.5 -245q-14 -89 18 -166t101 -123t159 -49q153 -5 280 100t150 256zM1196 590q17 100 -14 190.5t-106.5 150t-178.5 62.5q-86 3 -169 -30.5t-147 -92t-108.5 -136t-58.5 -161.5
q-17 -101 15.5 -189.5t108.5 -145t180 -59.5q173 -5 311.5 117t166.5 294z" />
    <glyph glyph-name="nine" unicode="9" horiz-adv-x="1671" 
d="M412 513q12 -56 25 -97t36 -84.5t52 -71t73.5 -46t101.5 -21.5q298 -13 459 351q59 132 124 393v1v1l1 1v2v1v1l1 1v1q-200 -191 -468 -186q-104 2 -192 38.5t-149.5 98.5t-102 143t-55 175.5t-2.5 193.5q16 140 78 263.5t156 213.5t222 141.5t270 49.5q112 -2 200.5 -38
t144.5 -94.5t93.5 -141.5t54 -170t20 -190t-2.5 -191.5t-20 -183.5l-10 -68q-16 -103 -39 -200t-60 -203t-83.5 -196t-112 -172.5t-142.5 -139.5t-178 -90t-215 -31q-96 2 -174.5 31t-134 78t-96.5 118.5t-64.5 148t-35.5 170.5zM547 1408q-14 -81 -2 -157t42 -135t94 -96
t153 -40q190 -5 332.5 119.5t167.5 313.5q15 116 -14.5 215t-110 164.5t-199.5 68.5q-96 3 -178.5 -33t-140 -99.5t-94.5 -145.5t-50 -175z" />
    <glyph glyph-name="colon" unicode=":" horiz-adv-x="767" 
d="M512 1122q-71 0 -119.5 51t-49.5 123q0 75 53 130t127 56q69 0 118.5 -50t50.5 -120q0 -76 -52.5 -132.5t-127.5 -57.5zM276 -18q-71 0 -120 51.5t-49 122.5q0 75 53 130t127 56q70 0 119 -50t49 -120q1 -76 -51.5 -132.5t-127.5 -57.5z" />
    <glyph glyph-name="semicolon" unicode=";" horiz-adv-x="769" 
d="M514 1122q-71 0 -119.5 51t-49.5 123q0 75 53 130t127 56q69 0 118.5 -50t50.5 -120q0 -76 -52.5 -132.5t-127.5 -57.5zM458 256l-36 -186q-48 -236 -262 -497l-198 41l57.5 105.5l63 117t46.5 105t39 122.5l41 192h249z" />
    <glyph glyph-name="less" unicode="&#x3c;" horiz-adv-x="1288" 
d="M994 316l-169 -140l-638 732l912 708l130 -164l-726 -549l-7 -16z" />
    <glyph glyph-name="equal" unicode="=" horiz-adv-x="1799" 
d="M455 1280h1119l-46 -220h-1119zM342 732h1119l-47 -220h-1119z" />
    <glyph glyph-name="greater" unicode="&#x3e;" horiz-adv-x="1286" 
d="M124 331l729 560l6 16l-497 569l169 140l637 -732l-910 -708z" />
    <glyph glyph-name="question" unicode="?" horiz-adv-x="1510" 
d="M851 576l-228 -1q12 100 51.5 186.5t95.5 151t121 123l130.5 115t121.5 114.5t97.5 133t54.5 160q20 130 -41 218t-190 94q-151 6 -254 -87.5t-129 -245.5l-243 -2q12 122 68.5 225t142.5 173t197.5 108t233.5 35q229 -5 352 -153.5t96 -377.5q-11 -92 -50 -172
t-94 -140.5t-120.5 -117l-131.5 -113t-123 -116t-100 -139.5t-58 -171zM634 -34q-76 -1 -127 53.5t-51 131.5q0 82 56 144t137 63q75 0 126.5 -56.5t51.5 -132.5q0 -81 -56 -141.5t-137 -61.5z" />
    <glyph glyph-name="at" unicode="@" horiz-adv-x="2628" 
d="M1590 1972q152 -2 287.5 -41t241 -109t187 -168t126.5 -218t59.5 -258.5t-14.5 -288.5q-51 -286 -105 -434q-141 -391 -438 -415q-27 -2 -55 -1q-56 2 -111.5 15.5t-106.5 40t-82.5 73t-30.5 106.5l-9 -1q-151 -237 -423 -222q-87 5 -156.5 36.5t-114 82t-76.5 116
t-43.5 139t-14 151.5t10.5 152q17 122 69.5 234t131.5 201t189 146.5t234 67.5q41 6 98 0t109.5 -18t94 -46t52.5 -83h14l30 114h208l-184 -905q-12 -83 18.5 -144t109.5 -67q44 -3 83.5 8.5t69.5 32.5t56.5 56t45 69.5t35.5 83.5t27.5 88t21 92t15.5 87l12.5 81.5
l10.5 67.5q16 107 15.5 205.5t-24.5 187.5t-64 164.5t-102.5 136t-139.5 104t-175 67.5t-210 25q-188 2 -359.5 -50.5t-309 -149.5t-247.5 -231.5t-183 -297.5t-107 -345q-24 -128 -26.5 -246.5t18 -224t62.5 -195.5t109.5 -162.5t156 -123.5t205 -78.5t253.5 -27.5
q124 0 248.5 27t286.5 78l36 -187q-251 -110 -584 -110q-163 0 -303 32t-249.5 91.5t-195.5 144.5t-140.5 191.5t-86 233t-30.5 268.5t26 298q48 273 173 504.5t308.5 398.5t430 260t525.5 90zM1374 1182q-89 2 -168 -35t-134.5 -100.5t-92.5 -142.5t-52 -164
q-11 -65 -13.5 -125t8 -126.5t35.5 -115t76.5 -81.5t125.5 -36q88 -4 161 22t124.5 72t90.5 112.5t61 139t34 155.5q10 73 11 130.5t-12 114t-42 94t-82.5 61.5t-130.5 25z" />
    <glyph glyph-name="A" unicode="A" horiz-adv-x="1896" 
d="M201 0h-266l1154 2048h250l305 -2048h-242l-74 548h-826zM1150 1726l-528 -958h677l-125 957z" />
    <glyph glyph-name="B" unicode="B" horiz-adv-x="1822" 
d="M847 0h-736l425 2048l677 -1q252 -6 396 -147t118 -387q-19 -179 -124.5 -289.5t-283.5 -146.5l-10 -28q84 -3 148.5 -54t97.5 -127t46.5 -158.5t5.5 -156.5q-13 -115 -61.5 -209.5t-121 -157.5t-167 -106t-197 -62t-213.5 -18zM732 1828l-141 -680l429 -1
q176 1 311.5 100.5t163.5 267.5q25 147 -57.5 227.5t-235.5 84.5zM1377 553q27 161 -68 267t-258 111l-505 1l-147 -712l460 -1q90 0 171.5 17t155.5 54.5t125 104.5t66 158z" />
    <glyph glyph-name="C" unicode="C" horiz-adv-x="2039" 
d="M2007 1406l-238 1q-17 197 -140 314.5t-321 122.5q-134 3 -256 -42.5t-214.5 -125.5t-166.5 -187.5t-121 -227t-69 -245.5q-16 -93 -18.5 -184.5t10 -183.5t47.5 -170t88.5 -139.5t138 -97.5t192.5 -38q218 -5 398 114t256 322l243 1q-53 -198 -191 -352.5t-326.5 -236.5
t-394.5 -79q-121 2 -224 34.5t-178.5 89t-133.5 134.5t-92.5 169.5t-52 194t-16.5 209t19 214.5q27 164 89 318.5t159 290.5t219 237t279.5 158.5t330.5 54.5q198 -3 348 -89.5t234 -235t102 -345.5z" />
    <glyph glyph-name="D" unicode="D" horiz-adv-x="2015" 
d="M742 0h-631l424 2048h624q146 -2 267 -40.5t205.5 -106t146.5 -161.5t90 -206t34.5 -239t-18.5 -262q-37 -224 -133.5 -413.5t-240.5 -327.5t-341.5 -215.5t-426.5 -76.5zM1132 1828h-400l-333 -1608l339 -1q184 0 340.5 60t271 168.5t191.5 257.5t109 329
q19 105 20 201.5t-16 185.5t-58.5 161.5t-103 127t-153.5 85.5t-207 33z" />
    <glyph glyph-name="E" unicode="E" horiz-adv-x="1675" 
d="M1373 220l-46 -220h-1216l424 2048h1201l-46 -220h-958l-144 -692h858l-46 -220h-857l-145 -696h975z" />
    <glyph glyph-name="F" unicode="F" horiz-adv-x="1643" 
d="M1411 1136l-46 -220h-822l-190 -916h-242l424 2048h1193l-46 -220h-950l-144 -692h823z" />
    <glyph glyph-name="G" unicode="G" horiz-adv-x="2084" 
d="M1942 1016l-44 -218q-34 -178 -120 -330.5t-210 -263t-288.5 -172.5t-347.5 -60q-122 1 -225.5 33.5t-180 89t-135 134t-93.5 169t-53 194.5t-17 209.5t19 215.5q27 163 88 317t157.5 290t218 238t278 160t328.5 55q120 -2 222 -37t178.5 -94.5t136 -144t98 -183
t60.5 -213.5l-241 1q-39 195 -158.5 314t-311.5 124q-133 3 -253.5 -43t-212.5 -126t-165.5 -188t-119.5 -227t-68 -244q-14 -81 -18.5 -160t4 -159.5t29 -151.5t59 -133t92 -107.5t130 -72.5t170.5 -29q134 -3 254 42t210.5 126.5t156 190t102.5 235.5l-494 -1l46 220h719z
" />
    <glyph glyph-name="H" unicode="H" horiz-adv-x="2076" 
d="M778 2048l-190 -912h1058l189 912h243l-425 -2048h-243l191 916h-1058l-190 -916h-242l425 2048h242z" />
    <glyph glyph-name="I" unicode="I" horiz-adv-x="736" 
d="M778 2048l-425 -2048h-242l425 2048h242z" />
    <glyph glyph-name="J" unicode="J" horiz-adv-x="1416" 
d="M919 583l299 1465h243l-302 -1464q-25 -137 -83 -250t-144.5 -195.5t-206 -126.5t-260.5 -41q-235 5 -368.5 156.5t-116.5 385.5l234 -1q-12 -141 64 -227.5t218 -93.5q172 -7 282 104t141 288z" />
    <glyph glyph-name="K" unicode="K" horiz-adv-x="1827" 
d="M1301 0l-491 951l-322 -298l-135 -653h-242l425 2048h242l-219 -1018h19l1102 1018l339 -1l-1039 -936l597 -1111h-276z" />
    <glyph glyph-name="L" unicode="L" horiz-adv-x="1575" 
d="M1323 220l-47 -220h-1165l425 2048h242l-380 -1828h925z" />
    <glyph glyph-name="M" unicode="M" horiz-adv-x="2454" 
d="M536 2048h262l329 -1673h22l1021 1673h276l-425 -2048h-226l325 1539h-16l-919 -1523h-219l-284 1521l-21 1l-324 -1538h-226z" />
    <glyph glyph-name="N" unicode="N" horiz-adv-x="2072" 
d="M2074 2048l-425 -2048h-225l-710 1604l-22 1l-339 -1605h-242l424 2048h225l713 -1612l22 -1l340 1613h239z" />
    <glyph glyph-name="O" unicode="O" horiz-adv-x="2134" 
d="M2000 1031q-27 -164 -88.5 -319t-158.5 -290.5t-219 -236.5t-279.5 -158t-330.5 -55q-121 2 -224 34.5t-178.5 89t-133.5 134.5t-92.5 169.5t-52 194.5t-16.5 209t19 214q27 164 89 319t159 290.5t219 236.5t279.5 158t330.5 55q121 -2 224 -34.5t178.5 -89t133 -134.5
t92 -169.5t52 -194.5t16.5 -209t-19 -214zM1765 1032q14 79 18 157.5t-3.5 158.5t-27.5 151t-58 134t-90 108.5t-127.5 73t-168.5 29.5q-134 3 -255.5 -42.5t-214.5 -125.5t-167 -187.5t-121 -227t-69 -245.5q-14 -79 -18 -157.5t3.5 -158.5t27.5 -151t58 -134t90 -108.5
t127.5 -73t168.5 -29.5q134 -3 256 42.5t214.5 125.5t166.5 187.5t121 227t69 245.5z" />
    <glyph glyph-name="P" unicode="P" horiz-adv-x="1775" 
d="M950 739l-443 1l-154 -740h-242l425 2048l646 -1q291 -5 441 -178.5t110 -460.5q-43 -309 -256.5 -489.5t-526.5 -179.5zM732 1828l-180 -868l410 -2q217 -1 357 118.5t175 333.5q31 194 -48.5 303t-274.5 114z" />
    <glyph glyph-name="Q" unicode="Q" horiz-adv-x="2136" 
d="M2004 1030q-45 -271 -177.5 -502.5t-344.5 -367.5l179 -351l-248 -1l-119 239q-184 -76 -370 -75q-121 1 -224 34t-178 89.5t-133 134.5t-92.5 170t-52 194.5t-16.5 209t19 213.5q27 164 88.5 319t158.5 290.5t219 236.5t279.5 158t330.5 55q121 -2 223.5 -34.5
t178.5 -89.5t134 -134.5t93.5 -169.5t53.5 -195t17 -209t-19 -214zM974 639l244 2l163 -290q156 117 253.5 295t134.5 385q14 79 18 157.5t-4 159t-28.5 151.5t-59 134t-91 109t-128 73t-167.5 29q-134 3 -255.5 -42.5t-214.5 -125.5t-167.5 -187.5t-121 -227t-68.5 -245.5
q-16 -92 -18 -183t10 -183t46.5 -170.5t88 -140t138 -97.5t191.5 -37q103 -1 241 39z" />
    <glyph glyph-name="R" unicode="R" horiz-adv-x="1775" 
d="M1240 0l-230 796h-492l-165 -796h-242l425 2048l646 -1q140 -3 252 -47t185.5 -122.5t104.5 -194t12 -255.5q-28 -213 -150 -360t-326 -220l245 -848h-265zM732 1828l-167 -804l379 -2q107 0 197.5 23t165 71t124.5 127.5t68 185.5q32 185 -53 289t-275 109z" />
    <glyph glyph-name="S" unicode="S" horiz-adv-x="1779" 
d="M1512 1519q-9 161 -107.5 247.5t-263.5 90.5q-87 2 -171 -19.5t-156.5 -64t-124 -112.5t-66.5 -158q-10 -56 3 -104t39.5 -80.5t70.5 -61t85.5 -46t95.5 -34.5l190 -58q505 -156 458 -551q-18 -147 -95.5 -265.5t-192.5 -191.5t-252 -111t-281 -36q-134 2 -246.5 39
t-196.5 106t-131 176.5t-47 243.5h248q-1 -85 28.5 -150.5t83.5 -106t123.5 -61.5t152.5 -23q94 -2 186 21t173 68t138.5 121.5t73.5 171.5q27 162 -124 253q-61 36 -182 76l-228 74q-96 32 -172 77.5t-135.5 108.5t-86.5 149t-16 187q12 110 63 206t127.5 164.5
t172.5 117.5t201.5 72t212.5 21q258 -5 419.5 -154.5t160.5 -402.5h-231z" />
    <glyph glyph-name="T" unicode="T" horiz-adv-x="1800" 
d="M1919 2048l-47 -220h-624l-379 -1828h-242l379 1828h-625l46 220h1492z" />
    <glyph glyph-name="U" unicode="U" horiz-adv-x="2081" 
d="M1840 2048h243l-280 -1355q-40 -217 -171 -385.5t-324 -259t-414 -87.5q-154 3 -283.5 59t-215.5 151.5t-123.5 231t-13.5 289.5l279 1356h242l-279 -1357q-37 -214 79 -352t334 -143q154 -4 290 55.5t231.5 175t125.5 265.5z" />
    <glyph glyph-name="V" unicode="V" horiz-adv-x="1896" 
d="M559 2049l293 -1726h25l889 1725h264l-1085 -2048h-249l-375 2048z" />
    <glyph glyph-name="W" unicode="W" horiz-adv-x="2664" 
d="M539 2049l129 -1670h21l713 1669h273l131 -1669h18l707 1669h254l-899 -2048h-250l-152 1633h-14l-725 -1633h-249l-188 2048z" />
    <glyph glyph-name="X" unicode="X" horiz-adv-x="1801" 
d="M592 2049l366 -853l18 -1l659 852l301 1l-813 -1037l442 -1011h-269l-364 836h-15l-660 -836h-299l827 1037l-457 1011z" />
    <glyph glyph-name="Y" unicode="Y" horiz-adv-x="1872" 
d="M633 2049l354 -957l22 -1l752 957h295l-979 -1219l-172 -829h-242l178 860l-466 1187z" />
    <glyph glyph-name="Z" unicode="Z" horiz-adv-x="1751" 
d="M1462 220l-46 -220h-1371l40 194l1405 1632l-1078 2l46 220h1371l-40 -195l-1406 -1631z" />
    <glyph glyph-name="bracketleft" unicode="[" horiz-adv-x="919" 
d="M1033 2240l-38 -220h-272l-389 -2248h272l-39 -220h-498l466 2688h498z" />
    <glyph glyph-name="backslash" unicode="\" horiz-adv-x="999" 
d="M385 2048h219l89 -2356h-218z" />
    <glyph glyph-name="bracketright" unicode="]" horiz-adv-x="921" 
d="M427 2240h499l-467 -2688h-498l39 220h271l390 2248h-272z" />
    <glyph glyph-name="asciicircum" unicode="^" horiz-adv-x="1254" 
d="M942 1004l-110 641l-374 -641h-262l607 1000h184l188 -1000h-233z" />
    <glyph glyph-name="underscore" unicode="_" horiz-adv-x="1264" 
d="M1112 0l-46 -220h-1244l47 220h1243z" />
    <glyph glyph-name="grave" unicode="`" horiz-adv-x="745" 
d="M627 2112l190 -408h-213l-283 408h306z" />
    <glyph glyph-name="a" unicode="a" horiz-adv-x="1579" 
d="M980 0l44 210h-7q-82 -122 -208.5 -186t-275.5 -61q-205 4 -328 132t-105 331q6 73 31 134t60.5 104.5t87 79t104.5 58.5t120 41t124.5 28t127.5 18q21 2 79 4t106 6t101.5 14t90 34.5t48.5 62.5l-1 4q2 56 1.5 105t-14 90.5t-37 72t-68 48t-108.5 19.5
q-136 3 -253.5 -58t-182.5 -174l-214 80q89 181 264 272t387 87q244 -4 364 -151t89 -393l-205 -1012h-222zM1088 556l56 218q-32 -30 -89 -48t-103 -23.5t-120.5 -10t-97.5 -7.5q-369 -39 -404 -271q-18 -115 56 -176t195 -63q118 -3 224 43t182 134.5t101 203.5z" />
    <glyph glyph-name="b" unicode="b" horiz-adv-x="1708" 
d="M506 2048h230l-165 -758h15q51 65 98 111t104.5 84t125.5 56t147 17q90 -1 166 -26.5t130.5 -69t96 -103t66 -128.5t36.5 -146.5t11.5 -156t-12.5 -157.5q-18 -122 -60 -237.5t-111 -220t-156 -182t-203.5 -122t-245.5 -40.5q-288 8 -390 268l-30 1l-56 -238h-222z
M1325 776q13 78 14.5 152.5t-14.5 150t-50.5 132.5t-99 94t-153.5 40q-95 3 -179 -29.5t-145 -89t-109 -134t-77 -161t-44 -172.5q-11 -64 -13.5 -126t2.5 -128t26 -122t54.5 -102t90.5 -73t132 -29q96 -3 180.5 30.5t147 92t112 137.5t80 163.5t45.5 173.5z" />
    <glyph glyph-name="c" unicode="c" horiz-adv-x="1562" 
d="M1482 1074l-226 1q-20 122 -102 193.5t-206 75.5q-116 4 -216 -46t-167.5 -135.5t-111 -188.5t-58.5 -213q-11 -63 -9 -130t10.5 -131t35 -121.5t64 -101t97.5 -70t135 -28.5q136 -4 244.5 68.5t159.5 198.5l233 2q-48 -221 -232 -353t-415 -128q-93 2 -172.5 26
t-139 66.5t-107.5 101t-77 127.5t-47.5 147t-19 160t7.5 166q16 124 59.5 241t114.5 218.5t161.5 177.5t208.5 118t248 40q219 -4 363.5 -134.5t163.5 -347.5z" />
    <glyph glyph-name="d" unicode="d" horiz-adv-x="1707" 
d="M1327 0h-224l58 238h-18q-105 -134 -218.5 -204t-266.5 -68q-90 1 -165.5 27t-129.5 70t-95 104.5t-65 130t-36 147t-11 155.5t13 156q18 122 60.5 238t112 219.5t157 180.5t204 120.5t246.5 40.5q286 -9 390 -264l19 -1l163 758h231zM400 760q-13 -78 -14.5 -153
t14 -152.5t49.5 -136.5t98.5 -97.5t153.5 -41.5q95 -3 179.5 30.5t146 92t110 137.5t77.5 163.5t44 173.5q13 78 15 151.5t-13 150t-48 133t-96.5 94t-152.5 40.5q-118 4 -218.5 -46t-168.5 -136t-112.5 -188.5t-63.5 -214.5z" />
    <glyph glyph-name="e" unicode="e" horiz-adv-x="1634" 
d="M737 -32q-108 2 -200 32.5t-157.5 83.5t-115.5 126t-74.5 159.5t-33.5 183t6 196.5q16 125 59 243.5t113.5 222t161 180.5t209.5 120.5t251 41.5q90 -1 167 -25t133 -65t101 -97t71 -123t42.5 -143t16 -155.5t-9.5 -160.5l-15 -100h-1074q-6 -78 -1 -151t32 -137
t68.5 -112.5t108 -77t151.5 -30.5q136 -4 244 57.5t170 180.5l217 -62q-46 -128 -149 -218.5t-229 -131.5t-263 -38zM944 1344q-100 3 -186.5 -33t-150.5 -102.5t-110.5 -145t-80.5 -172.5h842q20 116 -7 216t-106.5 166.5t-200.5 70.5z" />
    <glyph glyph-name="f" unicode="f" horiz-adv-x="1000" 
d="M180 0l274 1316h-241l46 220h240l25 144q29 184 163.5 292.5t322.5 105.5q120 -2 227 -44l-92 -201q-65 27 -127 27q-114 3 -183 -59t-90 -176l-16 -89h335l-47 -220h-333l-273 -1316h-231z" />
    <glyph glyph-name="g" unicode="g" horiz-adv-x="1706" 
d="M1423 1536h223l-318 -1546q-32 -184 -142 -315t-266.5 -193t-344.5 -58q-186 3 -330.5 79.5t-229.5 230.5l198 132q70 -112 158.5 -169t215.5 -61q190 -5 334.5 95t179.5 281l62 274h-14q-103 -132 -214.5 -199t-264.5 -65q-87 1 -161 24.5t-128 63.5t-97.5 95.5
t-68 120.5t-40 138.5t-14 150t10.5 153.5q17 121 60 235.5t112 216.5t157 177.5t204 118t244 39.5q286 -9 390 -264h27zM404 771q-11 -64 -12.5 -125t7 -121.5t31.5 -111t59 -90t93 -63t130 -25.5q94 -3 176 26t143 81.5t109 124.5t77.5 152.5t43.5 168.5q13 77 14 150
t-15 147t-49.5 129.5t-97 91.5t-150.5 39q-94 3 -177.5 -28.5t-145.5 -87t-111.5 -130.5t-80 -157.5t-44.5 -170.5z" />
    <glyph glyph-name="h" unicode="h" horiz-adv-x="1626" 
d="M500 929l-190 -929h-230l425 2048h230l-160 -730l10 1q93 115 216.5 177.5t266.5 59.5q78 -2 142.5 -26t108 -65.5t75.5 -96.5t45 -119t17 -133.5t-8 -139.5l-199 -976h-230l199 977q23 148 -35.5 247t-204.5 105q-180 7 -311.5 -106.5t-166.5 -293.5z" />
    <glyph glyph-name="i" unicode="i" horiz-adv-x="659" 
d="M588 1754q-68 -1 -113.5 43t-46.5 112q-1 69 47.5 118t117.5 50q65 1 111.5 -43.5t48.5 -109.5q1 -71 -46.5 -120t-118.5 -50zM629 1536l-319 -1536h-230l318 1536h231z" />
    <glyph glyph-name="j" unicode="j" horiz-adv-x="659" 
d="M589 1755q-68 -1 -113.5 43t-46.5 111q-1 69 47.5 118t116.5 50q65 1 112 -44t48 -110q1 -70 -46 -118.5t-118 -49.5zM399 1536h231l-338 -1647q-36 -221 -165 -345.5t-348 -125.5h-54l29 221l39 -2q113 0 179.5 67.5t88.5 183.5z" />
    <glyph glyph-name="k" unicode="k" horiz-adv-x="1492" 
d="M1029 0l-381 730l-229 -206l-109 -524h-230l425 2048h230l-258 -1206h23l748 694h308l-737 -668l463 -868h-253z" />
    <glyph glyph-name="l" unicode="l" horiz-adv-x="659" 
d="M735 2048l-425 -2048h-230l425 2048h230z" />
    <glyph glyph-name="m" unicode="m" horiz-adv-x="2395" 
d="M1354 964l-198 -964h-234l204 1006q12 60 6.5 117t-23.5 102t-63.5 73.5t-113.5 31.5q-83 3 -158.5 -32t-130 -95t-92 -134t-53.5 -153l-188 -916h-230l318 1536h232l-64 -262l12 1q66 126 183 206t252 76q122 -4 214.5 -81t121.5 -197l15 1q74 128 203.5 204t275.5 73
q74 -2 134.5 -25.5t100.5 -63t70 -92.5t41.5 -114t15.5 -127t-7 -131l-204 -1004h-231l206 1013q19 128 -34.5 219.5t-178.5 96.5q-157 7 -264 -98.5t-138 -266.5z" />
    <glyph glyph-name="n" unicode="n" horiz-adv-x="1627" 
d="M496 908l-186 -908h-230l318 1536h232l-64 -262l11 1q85 136 210.5 210.5t280.5 70.5q94 -2 168 -35.5t118 -89.5t71.5 -130t30 -156.5t-7.5 -168.5l-199 -976h-230l196 961q13 67 3.5 131.5t-35 116t-78.5 84.5t-127 36q-177 7 -312 -118t-170 -303z" />
    <glyph glyph-name="o" unicode="o" horiz-adv-x="1670" 
d="M717 -32q-91 1 -170.5 25t-138.5 66t-107.5 99.5t-77.5 126t-48 145.5t-20 158.5t8 165.5q16 126 59 244t114 220.5t162 178.5t210 118.5t251 40.5q107 -2 196.5 -34t152.5 -87.5t110.5 -130.5t70 -162t31 -183t-6.5 -193q-20 -158 -84 -301.5t-163.5 -256t-242 -178
t-306.5 -62.5zM729 180q95 -3 179 30t145.5 89.5t109.5 133.5t77 161t42 173q10 66 10 130.5t-10.5 129.5t-36 120.5t-64 99.5t-98.5 69.5t-136 27.5q-118 3 -217.5 -47.5t-166.5 -137t-110 -190t-60 -216.5q-12 -63 -9.5 -130t11.5 -130t35.5 -119t64.5 -98.5t98.5 -68
t135.5 -27.5z" />
    <glyph glyph-name="p" unicode="p" horiz-adv-x="1708" 
d="M-39 -576l438 2112h224l-60 -246h23q51 65 98 111t104.5 84t125.5 56t147 17q90 -1 166 -26.5t130.5 -69t96 -103t66 -128.5t36.5 -146.5t11.5 -156t-12.5 -157.5q-18 -122 -60 -237.5t-111 -220t-156 -182t-203.5 -122t-245.5 -40.5q-288 8 -390 268l-22 1l-175 -814
h-231zM1325 776q13 78 14.5 152.5t-14.5 150t-50.5 132.5t-99 94t-153.5 40q-95 3 -179 -29.5t-145 -89t-109 -133.5t-77 -160.5t-44 -172.5q-10 -64 -13 -126t2.5 -128.5t26 -122.5t54.5 -102t90.5 -73t131.5 -29q96 -3 180.5 30.5t147 92t112 137.5t80 163.5t45.5 173.5z
" />
    <glyph glyph-name="q" unicode="q" horiz-adv-x="1707" 
d="M1646 1536l-439 -2112h-230l176 815l-10 -1q-105 -134 -218.5 -204t-266.5 -68q-90 1 -165.5 27t-129.5 70t-95 104.5t-65 130t-36 147t-11 155.5t13 156q18 122 60.5 237.5t112 219.5t157.5 181t204.5 120.5t245.5 40.5q286 -9 390 -264h27l57 245h223zM400 760
q-13 -78 -14.5 -153t14 -152.5t49.5 -136.5t98.5 -97.5t153.5 -41.5q96 -3 180 30.5t145.5 92t110 138t77.5 163.5t44 173q13 78 15 151.5t-13 150t-48 133t-96.5 94t-152.5 40.5q-118 4 -218.5 -46t-168.5 -136t-112.5 -188.5t-63.5 -214.5z" />
    <glyph glyph-name="r" unicode="r" horiz-adv-x="1079" 
d="M1212 1502l-107 -217q-54 31 -122 33q-90 2 -174.5 -36t-147 -102t-107.5 -145t-64 -167l-180 -868h-230l318 1536h232l-65 -266l12 1q63 128 179 211.5t252 79.5q95 -1 204 -60z" />
    <glyph glyph-name="s" unicode="s" horiz-adv-x="1452" 
d="M1338 1189l-208 -59q-34 109 -99.5 165.5t-177.5 59.5q-79 2 -155.5 -22.5t-137.5 -81t-73 -135.5q-13 -87 45.5 -145t151.5 -86l210 -58q99 -29 173 -79.5t118.5 -132.5t36.5 -183q-9 -113 -68.5 -205t-149.5 -147.5t-195.5 -84.5t-214.5 -27q-202 3 -341.5 102
t-206.5 288l220 80q78 -260 334 -266q62 -1 124.5 13.5t118.5 44t95.5 80t48.5 114.5q21 142 -163 195l-236 66q-157 47 -250.5 155.5t-81.5 263.5q9 109 66 198t143.5 144t189 83.5t207.5 26.5q182 -4 303.5 -98.5t172.5 -268.5z" />
    <glyph glyph-name="t" unicode="t" horiz-adv-x="991" 
d="M1025 1536l-46 -220h-318l-177 -877q-8 -44 -5.5 -84.5t14.5 -72t44 -51t81 -20.5q40 -1 103 10l21 -216q-66 -25 -164 -23q-164 3 -259.5 116.5t-77.5 277.5l189 940h-225l46 220h225l68 328h231l-69 -328h319z" />
    <glyph glyph-name="u" unicode="u" horiz-adv-x="1627" 
d="M1148 607l189 929h231l-319 -1536h-231l54 218l-10 -1q-94 -116 -217.5 -179.5t-265.5 -58.5q-75 2 -138 27.5t-106 68t-75.5 99t-46.5 120t-19.5 132t6.5 134.5l198 976h231l-199 -977q-22 -145 38 -245t202 -106q178 -8 311 107t167 292z" />
    <glyph glyph-name="v" unicode="v" horiz-adv-x="1559" 
d="M1591 1536l-817 -1536h-234l-285 1536h240l196 -1225h14l627 1225h259z" />
    <glyph glyph-name="w" unicode="w" horiz-adv-x="2280" 
d="M2322 1536l-773 -1536h-227l-77 1182h-22l-574 -1182h-227l-135 1536h232l74 -1178h15l566 1178h246l66 -1174h17l567 1174h252z" />
    <glyph glyph-name="x" unicode="x" horiz-adv-x="1512" 
d="M532 1536l247 -627l466 627h280l-625 -780l343 -756h-249l-254 595l-459 -595h-281l617 781l-335 755h250z" />
    <glyph glyph-name="y" unicode="y" horiz-adv-x="1560" 
d="M433 -154l87 161l-231 1529h238l153 -1225l17 -1l667 1226h261l-1006 -1785q-184 -355 -501 -348q-102 2 -178 31l86 204q142 -38 238 16t169 192z" />
    <glyph glyph-name="z" unicode="z" horiz-adv-x="1514" 
d="M1241 220l-46 -220h-1154l44 214l1060 1100l-847 2l46 220h1150l-42 -202l-1060 -1112z" />
    <glyph glyph-name="braceleft" unicode="{" horiz-adv-x="921" 
d="M665 -328l-64 -168q-410 141 -337 644l44 277q41 307 -211 322l24 208q145 2 230.5 88t108.5 233l45 280q41 258 166.5 416.5t367.5 225.5l39 -167q-290 -92 -354 -475l-45 -280q-23 -149 -84 -255t-180 -174q149 -134 112 -423l-44 -277q-12 -79 -11.5 -144.5t16 -133
t60.5 -118.5t117 -79z" />
    <glyph glyph-name="bar" unicode="|" horiz-adv-x="739" 
d="M717 2048l-422 -2432h-215l422 2432h215z" />
    <glyph glyph-name="braceright" unicode="}" horiz-adv-x="919" 
d="M-113 -327q289 92 353 475l45 276q23 150 84 257.5t181 175.5q-149 133 -113 419l45 281q9 62 11.5 114t-5.5 110.5t-28 104t-60.5 84.5t-98.5 61l66 164q406 -134 334 -639l-45 -281q-40 -303 211 -318l-23 -208q-145 -2 -230.5 -89.5t-109.5 -235.5l-45 -276
q-41 -260 -166 -418t-368 -228z" />
    <glyph glyph-name="asciitilde" unicode="~" horiz-adv-x="1672" 
d="M1371 1171l206 3q-7 -94 -38.5 -179t-85 -153t-135.5 -107t-180 -36q-96 2 -180.5 49.5t-147.5 127.5q-49 62 -93.5 96.5t-105.5 36.5q-97 4 -152 -64.5t-79 -175.5l-212 -1q10 93 43.5 177t88 151t136.5 105.5t179 35.5q177 -5 325 -173l36 -40t33.5 -33.5t42 -33.5
t42 -19t52.5 -11q52 -2 93 17.5t67 56t41.5 78.5t23.5 92z" />
    <glyph glyph-name="nbspace" unicode="&#xa0;" horiz-adv-x="788" 
 />
    <glyph glyph-name="exclamdown" unicode="&#xa1;" horiz-adv-x="775" 
d="M543 1562q75 0 126.5 -55t51.5 -130q0 -81 -56 -143.5t-137 -63.5q-76 -1 -127 55.5t-51 133.5q0 82 56 142.5t137 60.5zM277 -520h-266l325 1472h227z" />
    <glyph glyph-name="cent" unicode="&#xa2;" horiz-adv-x="1563" 
d="M1499 1074h-225q-18 122 -96.5 194t-201.5 76q-95 3 -180.5 -29t-150 -89t-116 -133.5t-83.5 -161.5t-46 -173q-11 -64 -12.5 -128t6.5 -129.5t31.5 -121.5t59.5 -100.5t94.5 -71.5t133.5 -29q138 -4 248 68.5t165 199.5l232 3q-44 -199 -199 -322.5t-365 -150.5
l-73 -312h-215l73 315q-90 17 -162.5 59.5t-120 102.5t-79.5 132.5t-45.5 155t-13.5 165.5t13 167q22 147 80.5 279.5t148 239.5t216 178t274.5 90l63 264h215l-64 -267q176 -35 278.5 -162t116.5 -309z" />
    <glyph glyph-name="sterling" unicode="&#xa3;" horiz-adv-x="1768" 
d="M1112 796h-459l-38 -235q-17 -112 -50 -195t-99 -150l947 4l-47 -220h-1317l47 219l64 -2q38 1 69.5 17.5t54 47t39.5 62t29.5 75.5t19 73t13.5 68l40 236h-218l47 228h211l69 404q20 136 79.5 255.5t149 208t213 138.5t264.5 46q98 -3 184 -35.5t148 -89t102 -132
t45.5 -164t-20.5 -186.5l-220 64q30 137 -36.5 227.5t-206.5 96.5q-121 5 -224 -54.5t-167 -158t-85 -216.5l-68 -404h468z" />
    <glyph glyph-name="currency" unicode="&#xa4;" horiz-adv-x="2026" 
d="M235 830q52 314 266 530l-146 209l176 155l144 -197q252 173 511 169q127 -2 244.5 -46.5t205.5 -128.5l237 203l135 -181l-237 -193q89 -267 50 -507q-48 -298 -249 -510l144 -198l-181 -155l-130 182q-264 -194 -540 -190q-131 2 -250.5 50t-210.5 137l-211 -179
l-130 181l214 173q-79 263 -42 496zM450 827q-16 -74 -10.5 -149.5t23 -145.5t56 -131.5t88.5 -107t120 -73t152 -29.5q131 -4 255 50.5t217.5 147t158.5 211.5t88 245q16 74 11 149.5t-22 145.5t-55 131t-87.5 106.5t-119.5 73t-152 29.5q-131 4 -256 -50.5t-219 -146.5
t-159.5 -211t-88.5 -245z" />
    <glyph glyph-name="yen" unicode="&#xa5;" horiz-adv-x="1535" 
d="M1305 624l-38 -180h-434l-92 -444h-242l92 444h-435l38 180h433l52 204l-1 13l-440 -1l38 180h349l-284 1028h254l229 -973h17l638 973h284l-714 -1026l339 -2l-39 -180l-417 3l-14 -17l-48 -202h435z" />
    <glyph glyph-name="brokenbar" unicode="&#xa6;" horiz-adv-x="739" 
d="M766 2048l-194 -932h-215l194 932h215zM241 552h215l-194 -936h-215z" />
    <glyph glyph-name="section" unicode="&#xa7;" horiz-adv-x="1544" 
d="M1435 1563l-222 1q6 60 -1 110.5t-28 94t-65 69t-107 26.5q-108 2 -196.5 -60.5t-105.5 -165.5q-24 -143 141 -265l325 -230q109 -79 165.5 -189.5t44.5 -239.5q-12 -132 -112 -233t-233 -132l-7 -16q92 -122 71 -308q-11 -106 -61 -192t-126.5 -140.5t-172.5 -83
t-200 -25.5q-149 3 -255 71t-154.5 183t-38.5 263l227 -1q-8 -86 13.5 -152t78.5 -107.5t144 -44.5q118 -3 212.5 58t112.5 172q14 84 -24 146.5t-117 119.5l-326 225q-108 78 -164.5 191t-44.5 242q12 135 111 236.5t234 133.5l8 18q-88 144 -74 300q10 100 59 184.5
t122.5 140t166.5 86t192 27.5q108 -3 191 -44.5t131.5 -112t70.5 -161.5t14 -195zM1170 716q12 71 -20.5 135.5t-94.5 111.5l-332 230q-52 29 -102 11.5t-91.5 -62.5t-69 -98t-34.5 -96q-24 -144 118 -252l314 -217q50 -28 102 -11.5t96.5 59t75 94.5t38.5 95z" />
    <glyph glyph-name="dieresis" unicode="&#xa8;" horiz-adv-x="1638" 
d="M745 1755q-61 -1 -106.5 46.5t-46.5 108.5q-1 66 45.5 116t111.5 51t109 -44.5t44 -110.5q1 -66 -45 -116t-112 -51zM1296 1755q-61 -1 -106.5 46.5t-46.5 108.5q-2 66 45 116t112 51t109 -44.5t44 -110.5q1 -66 -45 -116t-112 -51z" />
    <glyph glyph-name="copyright" unicode="&#xa9;" horiz-adv-x="2278" 
d="M228 998q22 161 88.5 315.5t171 284.5t235 228.5t290 153t325.5 52.5q161 -2 299.5 -59.5t235.5 -156.5t161.5 -227.5t86.5 -277.5t1 -301q-22 -162 -88.5 -317t-171 -285.5t-234 -229t-289.5 -153.5t-327 -53q-116 1 -221 32t-188 85t-153.5 129t-116.5 164t-77 190.5
t-35.5 208.5t7.5 217zM393 997q-12 -90 -11 -178t24 -172t58.5 -158.5t91 -137t122 -108t153 -72t182.5 -27.5q175 -3 339 68.5t286.5 192t207 278.5t111.5 328q12 90 10.5 178t-24.5 171.5t-58 157.5t-91 136t-123 107.5t-153 71.5t-182 27q-173 3 -337 -68.5t-287 -191
t-207.5 -277.5t-111.5 -326zM1359 819l203 3q-15 -206 -148 -322.5t-342 -111.5q-142 3 -238 80.5t-132 195t-20 256.5l22 164q16 110 59 205.5t109.5 170.5t163 117t210.5 40q198 -4 301.5 -120t92.5 -314l-207 1q18 244 -197 249q-71 2 -130 -27.5t-97.5 -81t-62.5 -112
t-34 -128.5l-23 -165q-5 -40 -5 -77.5t5 -77t19.5 -73t36 -60t57 -42.5t80.5 -18q121 -5 189.5 60.5t87.5 187.5z" />
    <glyph glyph-name="ordfeminine" unicode="&#xaa;" horiz-adv-x="1254" 
d="M894 969q-4 47 -1 98q-126 -118 -285 -115q-139 2 -220 83.5t-73 219.5q4 77 37.5 136.5t83 95.5t116.5 59t132.5 31t137.5 8l142 -2l17 72q13 76 -11 123.5t-97 50.5q-79 2 -135.5 -31.5t-72.5 -104.5l-228 19q7 82 49.5 146t107 102t140 56.5t155.5 16.5
q170 -5 260 -108.5t69 -272.5l-84 -432q-30 -149 -11 -251h-229zM677 1150q100 0 221 85l44 189l-119 1q-60 -1 -112.5 -14.5t-97.5 -51.5t-55 -96q-11 -58 23 -85t96 -28z" />
    <glyph glyph-name="guillemotleft" unicode="&#xab;" horiz-adv-x="1256" 
d="M1079 221l-188 -1l-275 598l4 30l507 600h222l-509 -629zM583 221l-189 -1l-274 598l3 30l507 600h223l-510 -629z" />
    <glyph glyph-name="logicalnot" unicode="&#xac;" horiz-adv-x="1512" 
d="M1399 1108l-123 -592h-270l74 356h-846l50 236h1115z" />
    <glyph glyph-name="softhyphen" unicode="&#xad;" horiz-adv-x="1287" 
d="M1137 988l-46 -220h-871l46 220h871z" />
    <glyph glyph-name="registered" unicode="&#xae;" horiz-adv-x="2278" 
d="M228 998q22 161 88.5 315.5t171 284.5t235 228.5t290 153t325.5 52.5q161 -2 299.5 -59.5t235.5 -156.5t161.5 -227.5t86.5 -277.5t1 -301q-22 -162 -88.5 -317t-171 -285.5t-234 -229t-289.5 -153.5t-327 -53q-116 1 -221 32t-188 85t-153.5 129t-116.5 164t-77 190.5
t-35.5 208.5t7.5 217zM392 997q-12 -90 -10.5 -178t24.5 -172t58 -158.5t91 -137t122.5 -108t153 -72t182.5 -27.5q175 -3 339 68.5t286.5 191.5t207 278.5t111.5 327.5q12 90 10.5 178t-24.5 172t-58 158t-91 136t-123 107.5t-153 71.5t-182 27q-173 3 -337 -68t-287 -191
t-208 -278t-112 -326zM1190 898l-222 2l-81 -464h-203l202 1168l362 -1q83 -2 153.5 -22.5t125.5 -60.5t83.5 -106.5t22.5 -153.5q-6 -95 -61.5 -159t-151.5 -113q134 -76 112 -280l-10 -76q-9 -64 -2 -175l-2 -22h-201q-15 62 2 197l11 78q11 90 -20.5 137t-119.5 51z
M1058 1420l-59 -336l189 -1q89 1 160.5 43.5t84.5 124.5q8 49 -2.5 83t-39 51.5t-63 25t-82.5 8.5z" />
    <glyph glyph-name="macron" unicode="&#xaf;" horiz-adv-x="1257" 
d="M1309 1988l-36 -204h-914l36 204h914z" />
    <glyph glyph-name="degree" unicode="&#xb0;" horiz-adv-x="1255" 
d="M732 1075q-117 4 -207.5 68t-134 165.5t-32.5 217.5q9 95 54.5 183t114.5 152t160.5 101.5t188.5 34.5q118 -3 208.5 -67t133 -165.5t31.5 -218.5q-19 -196 -170.5 -336t-346.5 -135zM746 1275q113 -4 204.5 79.5t107.5 196.5q15 99 -41 175t-155 79q-113 4 -204 -79.5
t-108 -196.5q-14 -99 41.5 -175t154.5 -79z" />
    <glyph glyph-name="plusminus" unicode="&#xb1;" horiz-adv-x="1799" 
d="M1581 1096l-39 -224h-508l-77 -440h-227l77 440h-509l40 224h508l76 440h227l-77 -440h509zM1429 220l-38 -220h-1244l39 220h1243z" />
    <glyph glyph-name="twosuperior" unicode="&#xb2;" horiz-adv-x="1254" 
d="M1234 1104l-40 -188h-808l35 168l446 361q3 3 34 27.5t40 33l35.5 32t37.5 38l28 37t26 44t13 44.5q11 60 -21.5 97t-94.5 39q-86 2 -143.5 -47t-72.5 -133l-225 -2q14 169 143.5 267.5t303.5 94.5q157 -3 255.5 -85.5t87.5 -234.5q-4 -51 -28 -102.5t-52 -88.5
t-78 -82.5t-80 -69l-85 -63.5l-271 -185z" />
    <glyph glyph-name="threesuperior" unicode="&#xb3;" horiz-adv-x="1254" 
d="M758 1384l36 168l99 -2q84 2 146.5 40t75.5 115q11 63 -27 96t-103 34q-66 1 -117 -30.5t-67 -91.5l-228 -2q7 77 45 138t97.5 97.5t130 54.5t145.5 16q72 -1 135 -19t115.5 -52.5t80.5 -93t23 -134.5q-6 -92 -66.5 -151t-158.5 -101q76 -28 112.5 -91t31.5 -146
q-5 -85 -47.5 -151t-108.5 -104t-143 -57t-158 -17q-158 4 -258.5 88.5t-96.5 237.5l222 -1q-2 -66 40 -100.5t111 -35.5q80 -2 143 37.5t76 114.5q12 76 -31.5 108t-123.5 34z" />
    <glyph glyph-name="acute" unicode="&#xb4;" horiz-adv-x="760" 
d="M361 1704l303 408h255l-370 -408h-188z" />
    <glyph glyph-name="mu" unicode="&#xb5;" horiz-adv-x="1629" 
d="M1178 692l173 844h219l-319 -1536h-191l40 217q-168 -253 -407 -245q-112 4 -198 66t-131 167l-170 -777h-231l437 2108h231l-172 -845q-11 -63 -11.5 -125t13 -125.5t41 -112.5t80 -81.5t124.5 -35.5q78 -4 148.5 22.5t122.5 73.5t93.5 111t67.5 132.5t40 141.5z" />
    <glyph glyph-name="paragraph" unicode="&#xb6;" horiz-adv-x="1255" 
d="M1006 0h-270l149 716l-94 1q-186 3 -317.5 84.5t-189.5 225t-33 326.5q41 296 255.5 474t516.5 178l398 -1z" />
    <glyph glyph-name="periodcentered" unicode="&#xb7;" horiz-adv-x="774" 
d="M460 874q-71 0 -119.5 51.5t-48.5 122.5q-1 75 52 130t128 56q69 0 118 -50t50 -120q1 -76 -51.5 -132.5t-128.5 -57.5z" />
    <glyph glyph-name="cedilla" unicode="&#xb8;" horiz-adv-x="743" 
d="M136 0h189l-31 -76q81 -18 122.5 -77.5t38.5 -145.5q-3 -69 -32.5 -123t-74.5 -86.5t-106.5 -54.5t-119.5 -31t-122 -11l5 161q216 2 242 136q16 84 -80 107q-21 4 -96 12z" />
    <glyph glyph-name="onesuperior" unicode="&#xb9;" horiz-adv-x="1001" 
d="M1005 2000l-217 -1084h-223l168 807l-300 -75l42 197l500 155h30z" />
    <glyph glyph-name="ordmasculine" unicode="&#xba;" horiz-adv-x="1256" 
d="M324 1436l16 107q16 105 62 195.5t115 157t164 103.5t202 34q135 -4 228.5 -71.5t131.5 -176.5t21 -241l-16 -108q-16 -104 -61.5 -193.5t-114 -155.5t-162.5 -102.5t-201 -33.5q-134 4 -228.5 70.5t-134 174.5t-22.5 240zM575 1544l-17 -110q-9 -49 -3 -99t22 -90
t55 -66.5t96 -28.5q61 -3 111.5 20t85 64.5t56.5 92.5t32 109l17 109q9 49 3.5 98.5t-20.5 90.5t-53.5 67.5t-95.5 28.5q-60 3 -111.5 -20.5t-86.5 -64.5t-58 -92t-33 -109z" />
    <glyph glyph-name="guillemotright" unicode="&#xbb;" horiz-adv-x="1256" 
d="M-88 220l510 629l-240 598l189 1l275 -599l-4 -29l-508 -600h-222zM409 220l509 629l-239 598l189 1l274 -599l-3 -29l-508 -600h-222z" />
    <glyph glyph-name="onequarter" unicode="&#xbc;" horiz-adv-x="2280" 
d="M954 1996l-217 -1084h-223l168 807l-300 -75l42 197l500 155h30zM1884 1717l-1260 -1550l-142 99l1262 1556zM1978 420l-39 -188h-140l-48 -232h-227l49 232h-493l25 161l630 691h241l-138 -664h140zM1343 422l269 -2l86 370l-22 -29z" />
    <glyph glyph-name="onehalf" unicode="&#xbd;" horiz-adv-x="2279" 
d="M973 1996l-217 -1084h-223l168 807l-300 -75l42 197l501 155h29zM1849 1717l-1260 -1550l-142 99l1262 1556zM2031 188l-40 -188h-809l36 168l445 361l30.5 25l34 28l32 27.5t33.5 32l27.5 32t26.5 36.5t18 36t13 40q12 60 -20.5 96.5t-94.5 38.5q-87 2 -144.5 -47
t-72.5 -133l-225 -2q14 168 143 266.5t303 96.5q101 -2 180.5 -36.5t126 -108.5t37.5 -177q-4 -43 -19 -84.5t-43 -79.5t-54 -68.5t-68 -65l-68.5 -55l-69.5 -52.5l-272 -185z" />
    <glyph glyph-name="threequarters" unicode="&#xbe;" horiz-adv-x="2280" 
d="M720 1384l36 168l99 -2q84 2 147 40t76 115q11 63 -27.5 96t-103.5 34q-66 1 -117 -30.5t-67 -91.5l-228 -2q5 63 31.5 115t67 87t93 59.5t109.5 35t117 9.5q72 -1 135.5 -19t115 -52.5t80 -93t23.5 -134.5q-10 -163 -224 -252q76 -28 112 -91t31 -147
q-5 -85 -47.5 -150.5t-108.5 -104t-143 -57t-158 -16.5q-158 3 -258.5 87.5t-96.5 238.5l222 -1q-2 -66 40 -100.5t112 -35.5q79 -2 142.5 38t76.5 114q12 76 -32 108t-124 34zM2070 1717l-1260 -1550l-142 99l1262 1556zM2114 420l-40 -188h-139l-49 -232h-226l48 232h-492
l24 161l631 691h241l-138 -664h140zM1479 422l268 -2l86 370l-22 -29z" />
    <glyph glyph-name="questiondown" unicode="&#xbf;" horiz-adv-x="1512" 
d="M990 1566q76 1 127 -54t51 -131q0 -82 -56 -144.5t-137 -62.5q-75 0 -126.5 56.5t-51.5 132.5q0 81 56 141.5t137 61.5zM773 956l228 1q-12 -100 -51.5 -186.5t-95 -151t-120.5 -123l-131 -115t-122 -114.5t-97.5 -133t-54.5 -160q-20 -130 41 -218t190 -93
q151 -7 254 86.5t129 245.5l244 2q-17 -163 -108 -288.5t-231 -191t-303 -61.5q-229 5 -352 153.5t-97 377.5q9 79 94.5 226.5t196.5 294t218.5 272t167.5 176.5z" />
    <glyph glyph-name="Agrave" unicode="&#xc0;" horiz-adv-x="1896" 
d="M1224 2640l189 -408h-212l-283 408h306zM197 0h-266l1154 2048h250l305 -2048h-242l-74 548h-826zM1146 1726l-528 -958h677l-125 957z" />
    <glyph glyph-name="Aacute" unicode="&#xc1;" horiz-adv-x="1895" 
d="M1145 2232l304 408h254l-370 -408h-188zM197 0h-266l1154 2048h250l305 -2048h-242l-74 548h-826zM1146 1726l-528 -958h677l-125 957z" />
    <glyph glyph-name="Acircumflex" unicode="&#xc2;" horiz-adv-x="1895" 
d="M1059 2305l-197 -4v22l419 373h132l293 -374v-22l-181 4l-185 239zM197 0h-266l1154 2048h250l305 -2048h-242l-74 548h-826zM1146 1726l-528 -958h677l-125 957z" />
    <glyph glyph-name="Atilde" unicode="&#xc3;" horiz-adv-x="1896" 
d="M1634 2632l167 -12q-14 -148 -100 -249t-229 -98q-45 1 -92 22t-80.5 46t-79.5 45.5t-89 20.5q-62 0 -103.5 -44.5t-57.5 -109.5l-177 6q10 94 51 173t117 130.5t172 48.5q43 -1 89.5 -22.5t80 -46.5t79.5 -45.5t89 -20.5q64 1 106 46t57 110zM201 0h-266l1154 2048h250
l305 -2048h-242l-74 548h-826zM1150 1726l-528 -958h676l-124 957z" />
    <glyph glyph-name="Adieresis" unicode="&#xc4;" horiz-adv-x="1896" 
d="M1021 2266q-61 0 -106 46.5t-46 107.5q-2 67 44 118t112 52t109.5 -44t44.5 -111q0 -67 -46 -117.5t-112 -51.5zM1572 2266q-61 0 -106 46.5t-46 107.5q-2 67 44 118t112 52t109.5 -44t44.5 -111q0 -67 -46 -117.5t-112 -51.5zM201 0h-266l1154 2048h250l305 -2048h-242
l-74 548h-826zM1150 1726l-528 -958h676l-124 957z" />
    <glyph glyph-name="Aring" unicode="&#xc5;" horiz-adv-x="1896" 
d="M989 2566q9 153 127 260.5t271 102.5q138 -4 224.5 -104t77.5 -239q-10 -151 -124.5 -253t-267.5 -98q-138 4 -227.5 98.5t-80.5 232.5zM1156 2566q-10 -71 32 -124.5t113 -54.5q81 -1 147 58.5t77 140.5q10 73 -30.5 129.5t-113.5 57.5q-82 1 -147.5 -61.5t-77.5 -145.5
zM197 0h-266l1154 2048h250l305 -2048h-242l-74 548h-826zM1146 1726l-528 -958h677l-125 957z" />
    <glyph glyph-name="AE" unicode="&#xc6;" horiz-adv-x="2840" 
d="M2530 220l-46 -220h-1169l93 552h-759l-422 -552h-306l1600 2048h1307l-47 -220h-923l-113 -676h788l-46 -220h-778l-120 -712h941zM809 770l635 -2l177 1056z" />
    <glyph glyph-name="Ccedilla" unicode="&#xc7;" horiz-adv-x="2039" 
d="M2002 1406l-238 1q-17 197 -140 314.5t-321 122.5q-134 3 -256 -42.5t-214.5 -125.5t-166.5 -187.5t-121 -227t-69 -245.5q-16 -93 -18.5 -184.5t10 -183.5t47.5 -170t88.5 -139.5t138 -97.5t192.5 -38q218 -5 398 114t256 322l243 1q-75 -277 -304 -459t-518 -206
l-27 -67q81 -18 122.5 -77.5t38.5 -145.5q-3 -69 -32.5 -123t-74.5 -86.5t-106.5 -54.5t-119.5 -31t-122 -11l5 161q216 2 242 136q16 84 -80 107q-21 4 -96 12l63 184q-105 13 -194 53t-154.5 99t-115.5 136t-79.5 165t-44 185.5t-12.5 197.5t19 202q27 164 89 318.5
t159 290.5t219 237t279.5 158.5t330.5 54.5q198 -3 348 -89.5t234 -235t102 -345.5z" />
    <glyph glyph-name="Egrave" unicode="&#xc8;" horiz-adv-x="1675" 
d="M1159 2640l189 -408h-212l-283 408h306zM1368 220l-46 -220h-1216l424 2048h1201l-46 -220h-958l-144 -692h858l-46 -220h-857l-145 -696h975z" />
    <glyph glyph-name="Eacute" unicode="&#xc9;" horiz-adv-x="1675" 
d="M1080 2232l304 408h254l-370 -408h-188zM1368 220l-46 -220h-1216l424 2048h1201l-46 -220h-958l-144 -692h858l-46 -220h-857l-145 -696h975z" />
    <glyph glyph-name="Ecircumflex" unicode="&#xca;" horiz-adv-x="1675" 
d="M994 2305l-197 -4v22l419 373h132l293 -374v-22l-181 4l-185 239zM1368 220l-46 -220h-1216l424 2048h1201l-46 -220h-958l-144 -692h858l-46 -220h-857l-145 -696h975z" />
    <glyph glyph-name="Edieresis" unicode="&#xcb;" horiz-adv-x="1675" 
d="M950 2267q-61 -1 -106.5 46.5t-46.5 108.5q-2 66 44.5 116t112.5 51q65 1 109 -44.5t44 -110.5q1 -66 -45 -116t-112 -51zM1501 2267q-61 -1 -106.5 46.5t-46.5 108.5q-2 66 44.5 116t112.5 51q65 1 109 -44.5t44 -110.5q1 -66 -45 -116t-112 -51zM1368 220l-46 -220
h-1216l424 2048h1201l-46 -220h-958l-144 -692h858l-46 -220h-857l-145 -696h975z" />
    <glyph glyph-name="Igrave" unicode="&#xcc;" horiz-adv-x="735" 
d="M627 2640l189 -408h-212l-283 408h306zM773 2048l-425 -2048h-242l425 2048h242z" />
    <glyph glyph-name="Iacute" unicode="&#xcd;" horiz-adv-x="735" 
d="M548 2232l304 408h254l-370 -408h-188zM773 2048l-425 -2048h-242l425 2048h242z" />
    <glyph glyph-name="Icircumflex" unicode="&#xce;" horiz-adv-x="735" 
d="M462 2305l-197 -4v22l419 373h132l293 -374v-22l-181 4l-185 239zM773 2048l-425 -2048h-242l425 2048h242z" />
    <glyph glyph-name="Idieresis" unicode="&#xcf;" horiz-adv-x="840" 
d="M508 2266q-60 0 -105 46.5t-46 107.5q-2 67 44 118t112 52q65 1 109 -44.5t44 -110.5q1 -67 -45 -117.5t-113 -51.5zM1059 2266q-60 0 -105 46.5t-46 107.5q-2 67 44 118t112 52q65 1 109 -44.5t44 -110.5q1 -67 -45 -117.5t-113 -51.5zM825 2048l-425 -2048h-242
l425 2048h242z" />
    <glyph glyph-name="Eth" unicode="&#xd0;" horiz-adv-x="2045" 
d="M767 0h-631l194 936h-238l39 184h237l192 928h624q146 -2 267 -40.5t206 -106t146.5 -161.5t89.5 -206t34.5 -239t-18.5 -262q-37 -224 -133.5 -413.5t-240.5 -327.5t-341.5 -215.5t-426.5 -76.5zM986 1120l-39 -184h-375l-148 -716l339 -1q184 0 340.5 60t271 168.5
t191.5 257.5t109 329q19 105 20 201.5t-16 185.5t-58.5 161.5t-103 127t-153.5 85.5t-207 33h-400l-147 -708h376z" />
    <glyph glyph-name="Ntilde" unicode="&#xd1;" horiz-adv-x="2071" 
d="M1706 2611l166 -12q-5 -70 -28.5 -131.5t-62.5 -110.5t-99 -76.5t-133 -26.5q-45 1 -92.5 22t-81.5 45.5t-80 45t-89 20.5q-62 -1 -102 -45t-54 -109l-179 7q7 69 32 131.5t65.5 112.5t101.5 79t133 27q44 -1 91 -22t81.5 -46t81 -45t89.5 -20q62 1 104 45.5t56 108.5z
M2069 2048l-425 -2048h-225l-710 1604l-22 1l-339 -1605h-242l424 2048h225l713 -1612l22 -1l340 1613h239z" />
    <glyph glyph-name="Ograve" unicode="&#xd2;" horiz-adv-x="2135" 
d="M1344 2640l189 -408h-212l-283 408h306zM1996 1031q-27 -164 -88.5 -319t-158.5 -290.5t-219 -236.5t-279.5 -158t-330.5 -55q-121 2 -224 34.5t-178.5 89t-133.5 134.5t-92.5 169.5t-52 194.5t-16.5 209t19 214q27 164 89 319t159 290.5t219 236.5t279.5 158t330.5 55
q121 -2 224 -34.5t178.5 -89t133 -134.5t92 -169.5t52 -194.5t16.5 -209t-19 -214zM1761 1032q14 79 18 157.5t-3.5 158.5t-27.5 151t-58 134t-90 108.5t-127.5 73t-168.5 29.5q-134 3 -255.5 -42.5t-214.5 -125.5t-167 -187.5t-121 -227t-69 -245.5q-14 -79 -18 -157.5
t3.5 -158.5t27.5 -151t58 -134t90 -108.5t127.5 -73t168.5 -29.5q134 -3 256 42.5t214.5 125.5t166.5 187.5t121 227t69 245.5z" />
    <glyph glyph-name="Oacute" unicode="&#xd3;" horiz-adv-x="2135" 
d="M1265 2232l304 408h254l-370 -408h-188zM1996 1031q-27 -164 -88.5 -319t-158.5 -290.5t-219 -236.5t-279.5 -158t-330.5 -55q-121 2 -224 34.5t-178.5 89t-133.5 134.5t-92.5 169.5t-52 194.5t-16.5 209t19 214q27 164 89 319t159 290.5t219 236.5t279.5 158t330.5 55
q121 -2 224 -34.5t178.5 -89t133 -134.5t92 -169.5t52 -194.5t16.5 -209t-19 -214zM1761 1032q14 79 18 157.5t-3.5 158.5t-27.5 151t-58 134t-90 108.5t-127.5 73t-168.5 29.5q-134 3 -255.5 -42.5t-214.5 -125.5t-167 -187.5t-121 -227t-69 -245.5q-14 -79 -18 -157.5
t3.5 -158.5t27.5 -151t58 -134t90 -108.5t127.5 -73t168.5 -29.5q134 -3 256 42.5t214.5 125.5t166.5 187.5t121 227t69 245.5z" />
    <glyph glyph-name="Ocircumflex" unicode="&#xd4;" horiz-adv-x="2134" 
d="M1178 2305l-197 -4v22l419 373h132l293 -374v-22l-181 4l-185 239zM1995 1031q-27 -164 -88.5 -319t-158.5 -290.5t-219 -236.5t-279.5 -158t-330.5 -55q-121 2 -224 34.5t-178.5 89t-133.5 134.5t-92.5 169.5t-52 194.5t-16.5 209t19 214q27 164 89 319t159 290.5
t219 236.5t279.5 158t330.5 55q121 -2 224 -34.5t178.5 -89t133 -134.5t92 -169.5t52 -194.5t16.5 -209t-19 -214zM1760 1032q14 79 18 157.5t-3.5 158.5t-27.5 151t-58 134t-90 108.5t-127.5 73t-168.5 29.5q-134 3 -255.5 -42.5t-214.5 -125.5t-167 -187.5t-121 -227
t-69 -245.5q-14 -79 -18 -157.5t3.5 -158.5t27.5 -151t58 -134t90 -108.5t127.5 -73t168.5 -29.5q134 -3 256 42.5t214.5 125.5t166.5 187.5t121 227t69 245.5z" />
    <glyph glyph-name="Otilde" unicode="&#xd5;" horiz-adv-x="2134" 
d="M1749 2632l167 -13q-8 -95 -45.5 -172.5t-111.5 -126t-171 -46.5q-45 1 -92 22t-80.5 46t-79.5 45t-89 20q-63 0 -104.5 -44.5t-56.5 -109.5l-178 6q7 69 32.5 132t67 113.5t103.5 79.5t134 27q44 -1 90.5 -22.5t81 -46t81 -45t89.5 -20.5q64 0 106 45t56 110zM2000 1030
q-27 -164 -88.5 -318.5t-158.5 -290t-219 -236.5t-279.5 -158.5t-330.5 -54.5q-121 2 -224 34.5t-178.5 89t-133.5 134.5t-92.5 169.5t-52 194.5t-16.5 209t19 214q27 164 89 319t159 290.5t219 236.5t279.5 158.5t330.5 54.5q121 -2 224 -34.5t178.5 -89t133 -134.5
t92 -169.5t52 -194.5t16.5 -209.5t-19 -214.5zM1765 1032q16 93 18.5 184.5t-10 183.5t-47 170t-88 139t-138 97t-192.5 38q-134 3 -256 -42.5t-214.5 -125.5t-166.5 -187.5t-121 -227t-69 -245.5q-16 -93 -18.5 -184.5t10 -183.5t47.5 -170t88 -139.5t138 -97.5t192 -38
q134 -3 256 43t214.5 125.5t166.5 187t121 227.5t69 246z" />
    <glyph glyph-name="Odieresis" unicode="&#xd6;" horiz-adv-x="2134" 
d="M1136 2266q-61 -1 -106 46t-46 109q-2 66 44.5 117t112.5 52q65 1 108.5 -44.5t44.5 -110.5q1 -66 -45.5 -117t-112.5 -52zM1687 2266q-61 -1 -106 46t-46 109q-2 66 44.5 117t112.5 52q65 1 108.5 -44.5t44.5 -110.5q0 -67 -46 -117.5t-112 -51.5zM2000 1031
q-27 -164 -88.5 -319t-158.5 -290.5t-219 -236.5t-279.5 -158t-330.5 -55q-121 2 -224 34.5t-178.5 89t-133.5 134.5t-92.5 169.5t-52 194.5t-16.5 209t19 214q27 164 89 319t159 290.5t219 236.5t279.5 158t330.5 55q121 -2 224 -34.5t178.5 -89t133 -134.5t92 -169.5
t52 -194.5t16.5 -209t-19 -214zM1765 1032q14 79 18 157.5t-3.5 158.5t-27.5 151t-58 134t-90 108.5t-127.5 73t-168.5 29.5q-134 3 -255.5 -42.5t-214.5 -125.5t-167 -187.5t-121 -227t-69 -245.5q-14 -79 -18 -157.5t3.5 -158.5t27.5 -151t58 -134t90 -108.5t127.5 -73
t168.5 -29.5q134 -3 256 42.5t214.5 125.5t166.5 187.5t121 227t69 245.5z" />
    <glyph glyph-name="multiply" unicode="&#xd7;" horiz-adv-x="1799" 
d="M380 280l-125 169l534 459l-355 477l166 143l355 -476l553 476l125 -169l-553 -476l344 -460l-167 -143l-342 460z" />
    <glyph glyph-name="Oslash" unicode="&#xd8;" horiz-adv-x="2134" 
d="M284 -82l-138 114l198 216q-168 339 -96 769q28 165 89.5 319t158 290t217.5 237t278.5 158t331.5 55q271 -3 454 -149l176 199l139 -114l-192 -209q171 -341 98 -772q-28 -164 -89.5 -318.5t-158 -290.5t-218 -237t-279 -158.5t-330.5 -54.5q-270 3 -458 152zM483 1017
q-62 -342 24 -567l1117 1286q-113 105 -316 109q-135 2 -256.5 -43.5t-213.5 -125.5t-165.5 -187t-120 -226t-69.5 -246zM1763 1031q63 341 -25 570l-1117 -1288q112 -106 317 -110q135 -3 256.5 43t213.5 125.5t165.5 187t120 226.5t69.5 246z" />
    <glyph glyph-name="Ugrave" unicode="&#xd9;" horiz-adv-x="2081" 
d="M1316 2640l189 -408h-212l-283 408h306zM1836 2048h243l-280 -1355q-40 -217 -171 -385.5t-324 -259t-414 -87.5q-154 3 -283.5 59t-215.5 151.5t-123.5 231t-13.5 289.5l279 1356h242l-279 -1357q-37 -214 79 -352t334 -143q154 -4 290 55.5t231.5 175t125.5 265.5z" />
    <glyph glyph-name="Uacute" unicode="&#xda;" horiz-adv-x="2081" 
d="M1237 2232l304 408h254l-370 -408h-188zM1836 2048h243l-280 -1355q-40 -217 -171 -385.5t-324 -259t-414 -87.5q-154 3 -283.5 59t-215.5 151.5t-123.5 231t-13.5 289.5l279 1356h242l-279 -1357q-37 -214 79 -352t334 -143q154 -4 290 55.5t231.5 175t125.5 265.5z" />
    <glyph glyph-name="Ucircumflex" unicode="&#xdb;" horiz-adv-x="2081" 
d="M1151 2305l-197 -4v22l419 373h132l293 -374v-22l-181 4l-185 239zM1836 2048h243l-280 -1355q-40 -217 -171 -385.5t-324 -259t-414 -87.5q-154 3 -283.5 59t-215.5 151.5t-123.5 231t-13.5 289.5l279 1356h242l-279 -1357q-37 -214 79 -352t334 -143q154 -4 290 55.5
t231.5 175t125.5 265.5z" />
    <glyph glyph-name="Udieresis" unicode="&#xdc;" horiz-adv-x="2079" 
d="M1106 2267q-61 -1 -106.5 46.5t-46.5 108.5q-2 66 44.5 116t112.5 51q65 1 109 -44.5t44 -110.5q1 -66 -45 -116t-112 -51zM1657 2267q-61 -1 -106.5 46.5t-46.5 108.5q-2 66 44.5 116t112.5 51q65 1 109 -44.5t44 -110.5q1 -66 -45 -116t-112 -51zM1835 2048h243
l-280 -1355q-40 -217 -171 -385.5t-324 -259t-414 -87.5q-154 3 -283.5 59t-215.5 151.5t-123.5 231t-13.5 289.5l279 1356h242l-279 -1357q-37 -214 79 -352t334 -143q154 -4 290 55.5t231.5 175t125.5 265.5z" />
    <glyph glyph-name="Yacute" unicode="&#xdd;" horiz-adv-x="1872" 
d="M1133 2232l304 408h254l-370 -408h-188zM629 2049l354 -957l22 -1l752 957h295l-979 -1219l-172 -829h-242l178 860l-466 1187z" />
    <glyph glyph-name="Thorn" unicode="&#xde;" horiz-adv-x="1767" 
d="M520 2048h242l-88 -424l366 -1q127 -3 235 -44t184 -114t112 -181.5t20 -238.5q-17 -141 -86.5 -256t-173.5 -189t-232.5 -113.5t-267.5 -39.5l-400 1l-94 -448h-242zM1029 1403l-400 1l-153 -736l367 -1q95 0 179.5 22t155.5 66t119 117.5t63 169.5q27 170 -64.5 263.5
t-266.5 97.5z" />
    <glyph glyph-name="germandbls" unicode="&#xdf;" horiz-adv-x="1655" 
d="M623 1525l-313 -1525h-230l313 1524q18 100 50.5 189.5t84.5 169.5t119 137.5t158.5 90t197.5 29.5q205 -5 323.5 -131t97.5 -330q-8 -78 -48.5 -156t-85 -132.5t-89 -129t-59.5 -144.5q-11 -51 2 -100t42 -91t66.5 -83.5l75.5 -85.5t69.5 -89t48.5 -101t12 -116
q-10 -118 -60.5 -211t-130.5 -152t-182 -89t-218 -28q-241 3 -410 116l118 193q142 -98 277 -101q88 -2 167.5 25t139 89t74.5 149q10 57 -4 110t-44 95.5t-68.5 84.5l-77.5 84.5t-71 86t-49 99t-11 115.5q6 63 35 123.5t68 111l78 100t71.5 109t42.5 119.5
q18 110 -43.5 176.5t-174.5 70.5q-68 2 -124.5 -20t-95 -60t-68 -92.5t-46.5 -109.5t-28 -120z" />
    <glyph glyph-name="agrave" unicode="&#xe0;" horiz-adv-x="1579" 
d="M969 2128l190 -408h-213l-283 408h306zM975 0l44 210h-7q-82 -122 -208.5 -186t-275.5 -61q-205 4 -328 132t-105 331q6 73 31 134t60.5 104.5t87 79t104.5 58.5t120 41t124.5 28t127.5 18q21 2 79 4t106 6t101.5 14t90 34.5t48.5 62.5l-1 4q2 56 1.5 105t-14 90.5
t-37 72t-68 48t-108.5 19.5q-136 3 -253.5 -58t-182.5 -174l-214 80q89 181 264 272t387 87q244 -4 364 -151t89 -393l-205 -1012h-222zM1083 556l56 218q-32 -30 -89 -48t-103 -23.5t-120.5 -10t-97.5 -7.5q-369 -39 -404 -271q-18 -115 56 -176t195 -63q118 -3 224 43
t182 134.5t101 203.5z" />
    <glyph glyph-name="aacute" unicode="&#xe1;" horiz-adv-x="1579" 
d="M890 1720l304 408h255l-370 -408h-189zM975 0l44 210h-7q-82 -122 -208.5 -186t-275.5 -61q-205 4 -328 132t-105 331q6 73 31 134t60.5 104.5t87 79t104.5 58.5t120 41t124.5 28t127.5 18q21 2 79 4t106 6t101.5 14t90 34.5t48.5 62.5l-1 4q2 56 1.5 105t-14 90.5
t-37 72t-68 48t-108.5 19.5q-136 3 -253.5 -58t-182.5 -174l-214 80q89 181 264 272t387 87q244 -4 364 -151t89 -393l-205 -1012h-222zM1083 556l56 218q-32 -30 -89 -48t-103 -23.5t-120.5 -10t-97.5 -7.5q-369 -39 -404 -271q-18 -115 56 -176t195 -63q118 -3 224 43
t182 134.5t101 203.5z" />
    <glyph glyph-name="acircumflex" unicode="&#xe2;" horiz-adv-x="1579" 
d="M805 1793l-198 -4l1 22l418 373h133l293 -374l-1 -22l-181 4l-185 239zM975 0l44 210h-7q-82 -122 -208.5 -186t-275.5 -61q-205 4 -328 132t-105 331q6 73 31 134t60.5 104.5t87 79t104.5 58.5t120 41t124.5 28t127.5 18q21 2 79 4t106 6t101.5 14t90 34.5t48.5 62.5
l-1 4q2 56 1.5 105t-14 90.5t-37 72t-68 48t-108.5 19.5q-136 3 -253.5 -58t-182.5 -174l-214 80q89 181 264 272t387 87q244 -4 364 -151t89 -393l-205 -1012h-222zM1083 556l56 218q-32 -30 -89 -48t-103 -23.5t-120.5 -10t-97.5 -7.5q-369 -39 -404 -271
q-18 -115 56 -176t195 -63q118 -3 224 43t182 134.5t101 203.5z" />
    <glyph glyph-name="atilde" unicode="&#xe3;" horiz-adv-x="1579" 
d="M1337 2100l167 -12q-6 -71 -30 -133t-64 -111t-100.5 -76.5t-134.5 -25.5q-45 1 -92 22t-80.5 46t-79.5 45t-89 20q-63 0 -104.5 -44.5t-56.5 -109.5l-179 7q10 94 50.5 172.5t116 129.5t171.5 49q44 -1 91 -22.5t81 -46.5t80.5 -45t89.5 -20q63 0 105.5 44.5t57.5 110.5
zM980 0l44 210h-7q-82 -123 -208.5 -186.5t-275.5 -60.5q-205 3 -328 131.5t-105 331.5q6 73 31 134t60.5 104.5t87 79t104 58.5t119.5 41t124.5 28t127.5 18q21 2 79.5 4t106.5 6t101.5 14t90 34.5t48.5 62.5l-1 4q2 56 1.5 105t-14 90.5t-37 72t-68 48t-108.5 19.5
q-135 4 -252.5 -57.5t-183.5 -174.5l-214 80q89 181 264 272t387 87q244 -4 364 -151t89 -393l-205 -1012h-222zM1088 556l56 218q-32 -30 -89 -48t-103 -23.5t-120.5 -10t-97.5 -7.5q-369 -39 -404 -271q-18 -115 56 -176t195 -63q118 -3 224 43t182 134.5t101 203.5z" />
    <glyph glyph-name="adieresis" unicode="&#xe4;" horiz-adv-x="1578" 
d="M747 1754q-61 -1 -106 46t-47 108q-1 67 45 118t113 52q65 1 108 -44t44 -111q1 -67 -45 -117.5t-112 -51.5zM1298 1754q-61 -1 -106 46t-47 108q-1 67 45 118t112 52q65 1 108.5 -44.5t44.5 -110.5q1 -67 -45 -117.5t-112 -51.5zM980 0l44 210h-7
q-82 -122 -208.5 -185.5t-275.5 -61.5q-205 4 -327.5 132t-104.5 331q6 73 30.5 134t60 104.5t87.5 79t104.5 58.5t119.5 41t124.5 28t127.5 18q21 2 79 4t106 6t101.5 14t90 34.5t48.5 61.5l-1 5q2 56 1 105t-14 90.5t-37 71.5t-68.5 47.5t-108.5 19.5q-135 4 -252 -57
t-183 -174l-214 80q89 181 264 272.5t388 87.5q243 -5 363 -152t89 -393l-205 -1012h-222zM1088 556l55 218q-31 -30 -88.5 -48t-103 -23.5t-120 -10t-97.5 -7.5q-369 -39 -404 -271q-18 -115 56 -176t195 -63q118 -3 224 43t182 134.5t101 203.5z" />
    <glyph glyph-name="aring" unicode="&#xe5;" horiz-adv-x="1580" 
d="M735 2054q6 100 62.5 185t146 133t189.5 45q138 -4 224.5 -104t77.5 -239q-10 -151 -124.5 -253t-267.5 -98q-138 4 -227.5 98.5t-80.5 232.5zM902 2054q-9 -71 32.5 -124.5t112.5 -54.5q82 -1 147.5 58.5t76.5 140.5q11 73 -29.5 129.5t-113.5 57.5q-83 1 -148.5 -61.5
t-77.5 -145.5zM976 0l44 210h-7q-82 -122 -208.5 -186t-275.5 -61q-205 4 -328 132t-105 331q6 73 31 134t60.5 104.5t87 79t104.5 58.5t120 41t124.5 28t127.5 18q21 2 79 4t106 6t101.5 14t90 34.5t48.5 62.5l-1 4q2 56 1.5 105t-14 90.5t-37 72t-68 48t-108.5 19.5
q-136 3 -253.5 -58t-182.5 -174l-214 80q89 181 264 272t387 87q244 -4 364 -151t89 -393l-205 -1012h-222zM1084 556l56 218q-32 -30 -89 -48t-103 -23.5t-120.5 -10t-97.5 -7.5q-369 -39 -404 -271q-18 -115 56 -176t195 -63q118 -3 224 43t182 134.5t101 203.5z" />
    <glyph glyph-name="ae" unicode="&#xe6;" horiz-adv-x="2595" 
d="M302 1198q60 121 164 204t227 120t261 34q68 -2 134 -16.5t129 -43t107.5 -81t56.5 -121.5q224 269 539 263q90 -2 166 -25.5t131.5 -65t97.5 -98t67 -123.5t37.5 -143t12 -154.5t-13.5 -159.5l-14 -81l-1084 -85q-15 -189 73.5 -313t272.5 -130q138 -4 248.5 58
t171.5 182l219 -64q-48 -128 -152.5 -218t-232.5 -131t-266 -38q-120 2 -222 41.5t-178.5 122t-104.5 197.5l-8 1q-77 -171 -247 -271t-361 -96q-205 4 -328 132t-105 331q6 73 31 134t60.5 104.5t87 79t104.5 58.5t120 41t124.5 28t127.5 18q21 2 79 4t106 6t101.5 14
t90 34.5t48.5 62.5l-1 4q2 56 1.5 105t-14 90.5t-37.5 72t-68.5 48t-108.5 19.5q-135 4 -252 -57t-183 -175zM1907 1344q-90 3 -170 -25t-139 -77t-109.5 -119t-84 -143t-59.5 -157l857 68q12 68 11.5 132t-22.5 121t-58 100.5t-94.5 70t-131.5 29.5zM1088 556l56 218
q-32 -30 -89 -48t-103 -23.5t-120.5 -10t-97.5 -7.5q-369 -39 -404 -271q-18 -115 56 -176t195 -63q118 -3 224 43t182 134.5t101 203.5z" />
    <glyph glyph-name="ccedilla" unicode="&#xe7;" horiz-adv-x="1562" 
d="M1477 1074l-226 1q-20 122 -102 193.5t-206 75.5q-116 4 -216 -46t-167.5 -135.5t-111 -188.5t-58.5 -213q-11 -63 -9 -130t10.5 -131t35 -121.5t64 -101t97.5 -70t135 -28.5q136 -4 244.5 68.5t159.5 198.5l233 2q-44 -203 -205 -332t-371 -146l-19 -46
q82 -18 123 -77.5t38 -145.5q-3 -69 -32.5 -123t-74.5 -86.5t-106.5 -54.5t-119.5 -31t-122 -11l5 161q216 2 242 136q16 84 -79 106q-21 5 -96 13l57 168q-129 24 -225 100t-147 184t-69 235.5t-1 262.5q16 124 59.5 241t114.5 218.5t161.5 177.5t208.5 118t248 40
q219 -4 363.5 -134.5t163.5 -347.5z" />
    <glyph glyph-name="egrave" unicode="&#xe8;" horiz-adv-x="1634" 
d="M961 2128l189 -408h-212l-283 408h306zM732 -32q-108 2 -200 32.5t-157.5 83.5t-115.5 126t-74.5 159.5t-33.5 183t6 196.5q16 125 59 243.5t113.5 222t161 180.5t209.5 120.5t251 41.5q90 -1 167 -25t133 -65t101 -97t71 -123t42.5 -143t16 -155.5t-9.5 -160.5l-15 -100
h-1074q-6 -78 -1 -151t32 -137t68.5 -112.5t108 -77t151.5 -30.5q136 -4 244 57.5t170 180.5l217 -62q-46 -128 -149 -218.5t-229 -131.5t-263 -38zM939 1344q-100 3 -186.5 -33t-150.5 -102.5t-110.5 -145t-80.5 -172.5h842q20 116 -7 216t-106.5 166.5t-200.5 70.5z" />
    <glyph glyph-name="eacute" unicode="&#xe9;" horiz-adv-x="1634" 
d="M882 1720l304 408h254l-370 -408h-188zM732 -32q-108 2 -200 32.5t-157.5 83.5t-115.5 126t-74.5 159.5t-33.5 183t6 196.5q16 125 59 243.5t113.5 222t161 180.5t209.5 120.5t251 41.5q90 -1 167 -25t133 -65t101 -97t71 -123t42.5 -143t16 -155.5t-9.5 -160.5l-15 -100
h-1074q-6 -78 -1 -151t32 -137t68.5 -112.5t108 -77t151.5 -30.5q136 -4 244 57.5t170 180.5l217 -62q-46 -128 -149 -218.5t-229 -131.5t-263 -38zM939 1344q-100 3 -186.5 -33t-150.5 -102.5t-110.5 -145t-80.5 -172.5h842q20 116 -7 216t-106.5 166.5t-200.5 70.5z" />
    <glyph glyph-name="ecircumflex" unicode="&#xea;" horiz-adv-x="1635" 
d="M797 1793l-198 -4l1 22l418 373h133l293 -374l-1 -22l-181 4l-185 239zM732 -32q-108 2 -200 32.5t-157.5 83.5t-115.5 126t-74.5 159.5t-33.5 183t6 196.5q16 125 59 243.5t113.5 222t161 180.5t209.5 120.5t251 41.5q90 -1 167 -25t133 -65t101 -97t71 -123t42.5 -143
t16 -155.5t-9.5 -160.5l-15 -100h-1074q-6 -78 -1 -151t32 -137t68.5 -112.5t108 -77t151.5 -30.5q136 -4 244 57.5t170 180.5l217 -62q-46 -128 -149 -218.5t-229 -131.5t-263 -38zM939 1344q-100 3 -186.5 -33t-150.5 -102.5t-110.5 -145t-80.5 -172.5h842q20 116 -7 216
t-106.5 166.5t-200.5 70.5z" />
    <glyph glyph-name="edieresis" unicode="&#xeb;" horiz-adv-x="1630" 
d="M786 1754q-61 -1 -106 46t-47 108q-1 67 45 118t113 52q64 1 107.5 -44.5t44.5 -110.5q1 -67 -45 -117.5t-112 -51.5zM1337 1754q-61 -1 -106.5 46t-46.5 108q-1 67 45 118t112 52q65 1 108.5 -44.5t44.5 -110.5q1 -67 -45 -117.5t-112 -51.5zM719 -32q-93 2 -173.5 25
t-141 63.5t-108.5 96.5t-76.5 123.5t-46 144.5t-17 159t11.5 168q24 158 91 303.5t169.5 260t247.5 181.5t309 64q105 -2 190.5 -34t143 -86t99 -127.5t58 -158t20.5 -177.5t-13 -186l-18 -100l-1073 1q-9 -78 -7 -150.5t26.5 -137t64 -113t105.5 -77.5t150 -32
q137 -4 247.5 57.5t174.5 181.5l216 -62q-47 -128 -151.5 -218.5t-232.5 -131.5t-266 -38zM971 1344q-101 4 -189.5 -32t-155 -103t-115 -145t-86.5 -173h842q12 68 11.5 132t-22.5 121t-58 100.5t-95 70t-132 29.5z" />
    <glyph glyph-name="igrave" unicode="&#xec;" horiz-adv-x="659" 
d="M510 2132l189 -408h-212l-283 408h306zM624 1536l-319 -1536h-230l318 1536h231z" />
    <glyph glyph-name="iacute" unicode="&#xed;" horiz-adv-x="659" 
d="M431 1724l304 408h254l-370 -408h-188zM624 1536l-319 -1536h-230l318 1536h231z" />
    <glyph glyph-name="icircumflex" unicode="&#xee;" horiz-adv-x="660" 
d="M346 1797l-198 -4v22l419 373h132l294 -374l-1 -22l-181 4l-185 239zM624 1536l-319 -1536h-230l318 1536h231z" />
    <glyph glyph-name="idieresis" unicode="&#xef;" horiz-adv-x="681" 
d="M325 1755q-61 -1 -106 45.5t-46 107.5q-2 67 44 118t113 52q65 1 108.5 -44t44.5 -111q0 -67 -46 -117.5t-112 -50.5zM876 1755q-61 -1 -106 45.5t-46 107.5q-2 67 44 118t113 52q65 1 108.5 -44t44.5 -111q0 -67 -46 -117.5t-112 -50.5zM638 1536l-319 -1536h-231
l319 1536h231z" />
    <glyph glyph-name="eth" unicode="&#xf0;" horiz-adv-x="1623" 
d="M677 -33q-100 2 -184 31.5t-144 79.5t-105 118.5t-66 148.5t-28.5 169t8.5 181q16 110 56.5 217.5t106 204.5t147.5 170t190 114.5t225 38.5q131 -4 234.5 -73t154.5 -188h25q-7 258 -215 543l-388 -174l-38 161l303 133q-70 81 -228 169l118 165q172 -104 301 -243
l371 166l39 -160l-298 -129q146 -280 200.5 -525.5t8.5 -525.5q-21 -127 -64.5 -242.5t-113 -217.5t-158 -176.5t-206.5 -116.5t-252 -39zM691 179q109 -4 204.5 37.5t163 114.5t113 166.5t63.5 198.5q11 61 12.5 122.5t-7 123t-32 114.5t-59 94.5t-91.5 67t-127 27.5
q-90 3 -170.5 -27t-141 -83.5t-108.5 -125.5t-78 -151t-44 -163q-10 -73 -12 -144.5t18 -137.5t54 -117t96.5 -82.5t145.5 -34.5z" />
    <glyph glyph-name="ntilde" unicode="&#xf1;" horiz-adv-x="1627" 
d="M1340 2100l168 -12q-8 -95 -46.5 -172.5t-112 -126.5t-170.5 -47q-45 1 -92.5 22t-81 45.5t-79 45t-88.5 20.5q-63 0 -104.5 -44.5t-56.5 -109.5l-179 7q7 69 33 132t67.5 113t103.5 79t135 27q44 -1 90.5 -22.5t80.5 -46.5t80.5 -45t89.5 -20q64 0 106 45t56 110z
M496 908l-186 -908h-230l318 1536h232l-64 -262l11 1q85 135 210.5 210t280.5 71q94 -2 168 -35.5t118 -90t71.5 -130.5t30 -156t-7.5 -168l-199 -976h-230l196 961q13 67 3 131.5t-35 115.5t-78.5 84t-126.5 37q-89 4 -172 -29t-144.5 -92t-105 -137t-60.5 -163z" />
    <glyph glyph-name="ograve" unicode="&#xf2;" horiz-adv-x="1671" 
d="M966 2128l189 -408h-212l-283 408h306zM713 -32q-91 1 -170.5 25t-138.5 66t-107.5 99.5t-77.5 126t-48 145.5t-20 158.5t8 165.5q16 126 59 244t114 220.5t162 178.5t210 118.5t251 40.5q107 -2 196.5 -34t152.5 -87.5t110.5 -130.5t70 -162t31 -183t-6.5 -193
q-20 -158 -84 -301.5t-163.5 -256t-242 -178t-306.5 -62.5zM725 180q95 -3 179 30t145.5 89.5t109.5 133.5t77 161t42 173q10 66 10 130.5t-10.5 129.5t-36 120.5t-64 99.5t-98.5 69.5t-136 27.5q-118 3 -217.5 -47.5t-166.5 -137t-110 -190t-60 -216.5q-12 -63 -9.5 -130
t11.5 -130t35.5 -119t64.5 -98.5t98.5 -68t135.5 -27.5z" />
    <glyph glyph-name="oacute" unicode="&#xf3;" horiz-adv-x="1670" 
d="M886 1720l304 408h254l-370 -408h-188zM712 -32q-91 1 -170.5 25t-138.5 66t-107.5 99.5t-77.5 126t-48 145.5t-20 158.5t8 165.5q16 126 59 244t114 220.5t162 178.5t210 118.5t251 40.5q107 -2 196.5 -34t152.5 -87.5t110.5 -130.5t70 -162t31 -183t-6.5 -193
q-20 -158 -84 -301.5t-163.5 -256t-242 -178t-306.5 -62.5zM724 180q95 -3 179 30t145.5 89.5t109.5 133.5t77 161t42 173q10 66 10 130.5t-10.5 129.5t-36 120.5t-64 99.5t-98.5 69.5t-136 27.5q-118 3 -217.5 -47.5t-166.5 -137t-110 -190t-60 -216.5q-12 -63 -9.5 -130
t11.5 -130t35.5 -119t64.5 -98.5t98.5 -68t135.5 -27.5z" />
    <glyph glyph-name="ocircumflex" unicode="&#xf4;" horiz-adv-x="1672" 
d="M802 1793l-198 -4l1 22l418 373h133l293 -374l-1 -22l-181 4l-185 239zM713 -32q-91 1 -170.5 25t-138.5 66t-107.5 99.5t-77.5 126t-48 145.5t-20 158.5t8 165.5q16 126 59 244t114 220.5t162 178.5t210 118.5t251 40.5q107 -2 196.5 -34t152.5 -87.5t110.5 -130.5
t70 -162t31 -183t-6.5 -193q-20 -158 -84 -301.5t-163.5 -256t-242 -178t-306.5 -62.5zM725 180q95 -3 179 30t145.5 89.5t109.5 133.5t77 161t42 173q10 66 10 130.5t-10.5 129.5t-36 120.5t-64 99.5t-98.5 69.5t-136 27.5q-118 3 -217.5 -47.5t-166.5 -137t-110 -190
t-60 -216.5q-12 -63 -9.5 -130t11.5 -130t35.5 -119t64.5 -98.5t98.5 -68t135.5 -27.5z" />
    <glyph glyph-name="otilde" unicode="&#xf5;" horiz-adv-x="1671" 
d="M1414 2100l167 -13q-8 -95 -46 -172.5t-111.5 -126t-170.5 -46.5q-45 1 -92 22t-80.5 46t-79.5 45t-89 20q-63 0 -104.5 -44.5t-56.5 -109.5l-179 7q7 69 33 132t67.5 113t103 79t134.5 27q44 -1 90.5 -22.5t80.5 -46.5t80.5 -45t89.5 -20q64 0 106.5 45t56.5 110z
M699 -32q-92 2 -170 26t-136 66t-104 99.5t-73 125.5t-43.5 145t-15 158t11.5 164q19 127 65 245.5t119.5 221.5t167 179t214.5 118.5t254 39.5q107 -2 195.5 -34.5t149.5 -88t106 -131t64.5 -162.5t25.5 -182t-11 -191q-24 -159 -92 -303t-170.5 -256.5t-247.5 -178
t-310 -61.5zM713 179q119 -4 221 46t172 136t116 190t66 217q14 79 14.5 155t-17 152.5t-53 134t-101.5 95t-156 40.5q-119 4 -221.5 -46.5t-172.5 -137.5t-116 -191t-66 -218q-14 -79 -14.5 -155t17 -151.5t53.5 -132.5t102 -94t156 -40z" />
    <glyph glyph-name="odieresis" unicode="&#xf6;" horiz-adv-x="1671" 
d="M805 1754q-61 -1 -106 46t-46 109q-2 66 44.5 117t112.5 52q65 1 108.5 -44.5t44.5 -110.5q0 -67 -46 -117.5t-112 -51.5zM1356 1754q-61 -1 -106 46t-46 109q-2 66 44.5 117t112.5 52q65 1 108.5 -44.5t43.5 -110.5q1 -67 -45 -117.5t-112 -51.5zM699 -32
q-80 2 -150.5 20.5t-125 52t-99.5 79t-76 101t-52 118t-30 131t-8.5 139.5t11.5 143q24 160 91.5 304.5t170 258t247.5 179t311 62.5q92 -2 170.5 -26.5t136 -66.5t103.5 -100t73 -127t43 -146t14.5 -158t-11.5 -164q-19 -127 -65 -245t-120 -220t-167 -177.5t-213.5 -118
t-253.5 -39.5zM713 179q119 -4 221 46t172 136.5t116 190t66 216.5q14 79 14.5 155t-17 152.5t-53 134t-101.5 95t-156 40.5q-96 3 -182 -30t-149.5 -90.5t-114.5 -135.5t-82.5 -162.5t-47.5 -174.5q-11 -65 -13 -128.5t6 -128t31.5 -119.5t60 -99t95.5 -70t134 -28z" />
    <glyph glyph-name="divide" unicode="&#xf7;" horiz-adv-x="1800" 
d="M878 1401q-1 74 45 121t120 48q70 1 115 -42.5t46 -112.5q1 -72 -45.5 -117.5t-119.5 -47.5q-70 -1 -115 40.5t-46 110.5zM1580 1008l-46 -220h-1244l47 220h1243zM665 373q-1 75 45.5 123.5t120.5 49.5q70 1 114.5 -44t45.5 -115q1 -72 -45.5 -117.5t-119.5 -47.5
q-70 -1 -115 40t-46 111z" />
    <glyph glyph-name="oslash" unicode="&#xf8;" horiz-adv-x="1671" 
d="M235 -82l-138 114l144 154q-119 253 -70 566q20 128 66 246t119 221t166 178.5t213.5 118t254.5 40.5q191 -2 335 -98l129 148l139 -115l-145 -153q119 -251 70 -571q-25 -160 -92.5 -303.5t-169.5 -256t-247 -178t-310 -62.5q-193 3 -332 98zM401 754q-40 -216 -2 -372
l783 900q-74 61 -204 65q-97 2 -182.5 -31t-149 -90t-114 -135t-82.5 -162t-49 -175zM712 178q120 -3 222 47t172 136t115.5 188.5t67.5 217.5q40 215 1 374l-783 -900q76 -61 205 -63z" />
    <glyph glyph-name="ugrave" unicode="&#xf9;" horiz-adv-x="1627" 
d="M985 2128l190 -408h-213l-283 408h306zM1143 607l189 929h231l-319 -1536h-231l54 218l-10 -1q-94 -116 -217.5 -179.5t-265.5 -58.5q-75 2 -138 27.5t-106 68t-75.5 99t-46.5 120t-19.5 132t6.5 134.5l198 976h231l-199 -977q-22 -145 38 -245t202 -106q178 -8 311 107
t167 292z" />
    <glyph glyph-name="uacute" unicode="&#xfa;" horiz-adv-x="1627" 
d="M906 1720l304 408h255l-370 -408h-189zM1143 607l189 929h231l-319 -1536h-231l54 218l-10 -1q-94 -116 -217.5 -179.5t-265.5 -58.5q-75 2 -138 27.5t-106 68t-75.5 99t-46.5 120t-19.5 132t6.5 134.5l198 976h231l-199 -977q-22 -145 38 -245t202 -106q178 -8 311 107
t167 292z" />
    <glyph glyph-name="ucircumflex" unicode="&#xfb;" horiz-adv-x="1627" 
d="M821 1793l-198 -4l1 22l418 373h133l293 -374l-1 -22l-181 4l-185 239zM1143 607l189 929h231l-319 -1536h-231l54 218l-10 -1q-94 -116 -217.5 -179.5t-265.5 -58.5q-75 2 -138 27.5t-106 68t-75.5 99t-46.5 120t-19.5 132t6.5 134.5l198 976h231l-199 -977
q-22 -145 38 -245t202 -106q178 -8 311 107t167 292z" />
    <glyph glyph-name="udieresis" unicode="&#xfc;" horiz-adv-x="1627" 
d="M782 1755q-61 -1 -106 45.5t-47 108.5q-1 66 45.5 116.5t112.5 51.5q65 1 108 -43.5t44 -110.5t-45 -116.5t-112 -51.5zM1333 1755q-61 -1 -106 45.5t-47 108.5q-1 66 45.5 116.5t112.5 51.5q64 1 107.5 -44t44.5 -110q1 -66 -45 -116.5t-112 -51.5zM1147 607l190 929
h231l-319 -1536h-231l54 218l-10 -1q-94 -115 -217 -178t-266 -59q-110 3 -192.5 56.5t-126 138.5t-59 184.5t-1.5 200.5l198 976h231l-199 -977q-14 -93 4.5 -169t79 -127t156.5 -55q177 -7 310 108.5t167 290.5z" />
    <glyph glyph-name="yacute" unicode="&#xfd;" horiz-adv-x="1560" 
d="M867 1720l304 408h255l-370 -408h-189zM429 -154l87 161l-231 1529h238l153 -1225l17 -1l667 1226h261l-1006 -1785q-184 -355 -501 -348q-102 2 -178 31l86 204q142 -38 238 16t169 192z" />
    <glyph glyph-name="thorn" unicode="&#xfe;" horiz-adv-x="1708" 
d="M506 2048h230l-165 -758h15q51 65 98 111t104.5 83.5t125.5 56t147 17.5q90 -1 166 -26.5t131 -69t96 -103t65.5 -128.5t36.5 -146.5t11.5 -156t-12.5 -157.5q-18 -122 -60 -237.5t-111 -220t-156 -182t-203.5 -122t-245.5 -40.5q-288 8 -390 268l-22 1l-175 -814h-231z
M1325 776q13 78 14.5 152.5t-14.5 150t-50.5 132.5t-99 94t-153.5 40q-95 3 -179 -29.5t-145 -89t-109 -134t-77 -161t-44 -172.5q-13 -78 -15 -152t12 -152t46.5 -137t96 -98t152.5 -42q96 -3 180.5 30.5t147 92t112 138t80 164t45.5 173.5z" />
    <glyph glyph-name="ydieresis" unicode="&#xff;" horiz-adv-x="1512" 
d="M729 1755q-61 -1 -106 45.5t-47 108.5q-1 66 45 116.5t112 51.5q65 1 108.5 -44t44.5 -110q0 -67 -45.5 -117t-111.5 -51zM1280 1755q-61 -1 -106 45.5t-47 108.5q-1 66 45 116.5t112 51.5q65 1 108.5 -44t44.5 -110q0 -67 -45.5 -117t-111.5 -51zM432 -154l88 161
l-231 1529h238l153 -1225l17 -1l667 1226h261l-1006 -1785q-184 -358 -502 -351q-104 3 -177 33l86 206q141 -37 236.5 16.5t169.5 190.5z" />
    <glyph glyph-name="Amacron" unicode="&#x100;" horiz-adv-x="1895" 
d="M1783 2528l-36 -204h-913l36 204h913zM197 0h-266l1154 2048h250l305 -2048h-242l-74 548h-826zM1146 1726l-528 -958h677l-125 957z" />
    <glyph glyph-name="amacron" unicode="&#x101;" horiz-adv-x="1579" 
d="M1529 2016l-36 -204h-914l36 204h914zM975 0l44 210h-7q-82 -122 -208.5 -186t-275.5 -61q-205 4 -328 132t-105 331q6 73 31 134t60.5 104.5t87 79t104.5 58.5t120 41t124.5 28t127.5 18q21 2 79 4t106 6t101.5 14t90 34.5t48.5 62.5l-1 4q2 56 1.5 105t-14 90.5t-37 72
t-68 48t-108.5 19.5q-136 3 -253.5 -58t-182.5 -174l-214 80q89 181 264 272t387 87q244 -4 364 -151t89 -393l-205 -1012h-222zM1083 556l56 218q-32 -30 -89 -48t-103 -23.5t-120.5 -10t-97.5 -7.5q-369 -39 -404 -271q-18 -115 56 -176t195 -63q118 -3 224 43t182 134.5
t101 203.5z" />
    <glyph glyph-name="Abreve" unicode="&#x102;" horiz-adv-x="1896" 
d="M1510 2584l212 1q-13 -173 -138.5 -273.5t-302.5 -95.5q-166 4 -265 104.5t-94 264.5l214 -1q-5 -87 32 -140.5t122 -56.5q90 -2 148 52t72 145zM197 0h-266l1154 2048h250l305 -2048h-242l-74 548h-826zM1146 1726l-528 -958h677l-125 957z" />
    <glyph glyph-name="abreve" unicode="&#x103;" horiz-adv-x="1578" 
d="M1255 2072l212 1q-8 -115 -70 -201t-158 -128.5t-212 -39.5q-166 4 -265.5 104.5t-94.5 264.5l215 -1q-6 -87 31 -140.5t122 -56.5q90 -2 148 52t72 145zM975 0l44 210h-7q-82 -122 -208.5 -186t-275.5 -61q-205 4 -328 132t-105 331q6 73 31 134t60.5 104.5t87 79
t104.5 58.5t120 41t124.5 28t127.5 18q21 2 79 4t106 6t101.5 14t90 34.5t48.5 62.5l-1 4q2 56 1.5 105t-14 90.5t-37 72t-68 48t-108.5 19.5q-136 3 -253.5 -58t-182.5 -174l-214 80q89 181 264 272t387 87q244 -4 364 -151t89 -393l-205 -1012h-222zM1083 556l56 218
q-32 -30 -89 -48t-103 -23.5t-120.5 -10t-97.5 -7.5q-369 -39 -404 -271q-18 -115 56 -176t195 -63q118 -3 224 43t182 134.5t101 203.5z" />
    <glyph glyph-name="Aogonek" unicode="&#x104;" horiz-adv-x="1896" 
d="M197 0h-266l1154 2048h250l305 -2048h-19l5 -4q-118 -82 -160 -121q-99 -92 -113 -188q-12 -86 74 -87q59 0 135 36v-178q-88 -59 -215 -57q-111 1 -176 72.5t-60 182.5q10 212 284 366l-71 526h-826zM1146 1726l-528 -958h677l-125 957z" />
    <glyph glyph-name="aogonek" unicode="&#x105;" horiz-adv-x="1580" 
d="M1158 -542q-88 -59 -215 -57q-111 1 -176 72.5t-60 182.5q10 208 272 360l41 194h-7q-82 -122 -208.5 -186t-275.5 -61q-205 4 -328 132t-105 331q6 73 31 134t60.5 104.5t87 79t104.5 58.5t120 41t124.5 28t127.5 18q21 2 79 4t106 6t101.5 14t90 34.5t48.5 62.5l-1 4
q2 56 1.5 105t-14 90.5t-37 72t-68 48t-108.5 19.5q-136 3 -253.5 -58t-182.5 -174l-214 80q89 181 264 272t387 87q244 -4 364 -151t89 -393l-202 -998l21 -18q-118 -82 -160 -121q-99 -92 -113 -188q-12 -86 74 -87q59 0 135 36v-178zM1084 556l56 218q-32 -30 -89 -48
t-103 -23.5t-120.5 -10t-97.5 -7.5q-369 -39 -404 -271q-18 -115 56 -176t195 -63q118 -3 224 43t182 134.5t101 203.5z" />
    <glyph glyph-name="Cacute" unicode="&#x106;" horiz-adv-x="2038" 
d="M1264 2232l304 408h254l-370 -408h-188zM2002 1406l-238 1q-17 197 -140 314.5t-321 122.5q-134 3 -256 -42.5t-214.5 -125.5t-166.5 -187.5t-121 -227t-69 -245.5q-16 -93 -18.5 -184.5t10 -183.5t47.5 -170t88.5 -139.5t138 -97.5t192.5 -38q218 -5 398 114t256 322
l243 1q-53 -198 -191 -352.5t-326.5 -236.5t-394.5 -79q-121 2 -224 34.5t-178.5 89t-133.5 134.5t-92.5 169.5t-52 194t-16.5 209t19 214.5q27 164 89 318.5t159 290.5t219 237t279.5 158.5t330.5 54.5q198 -3 348 -89.5t234 -235t102 -345.5z" />
    <glyph glyph-name="cacute" unicode="&#x107;" horiz-adv-x="1562" 
d="M878 1720l304 408h254l-370 -408h-188zM1477 1074l-226 1q-20 122 -102 193.5t-206 75.5q-116 4 -216 -46t-167.5 -135.5t-111 -188.5t-58.5 -213q-11 -63 -9 -130t10.5 -131t35 -121.5t64 -101t97.5 -70t135 -28.5q136 -4 244.5 68.5t159.5 198.5l233 2
q-48 -221 -232 -353t-415 -128q-93 2 -172.5 26t-139 66.5t-107.5 101t-77 127.5t-47.5 147t-19 160t7.5 166q16 124 59.5 241t114.5 218.5t161.5 177.5t208.5 118t248 40q219 -4 363.5 -134.5t163.5 -347.5z" />
    <glyph glyph-name="Ccircumflex" unicode="&#x108;" horiz-adv-x="2038" 
d="M1178 2305l-197 -4v22l419 373h132l293 -374v-22l-181 4l-185 239zM2002 1406l-238 1q-17 197 -140 314.5t-321 122.5q-134 3 -256 -42.5t-214.5 -125.5t-166.5 -187.5t-121 -227t-69 -245.5q-16 -93 -18.5 -184.5t10 -183.5t47.5 -170t88.5 -139.5t138 -97.5t192.5 -38
q218 -5 398 114t256 322l243 1q-53 -198 -191 -352.5t-326.5 -236.5t-394.5 -79q-121 2 -224 34.5t-178.5 89t-133.5 134.5t-92.5 169.5t-52 194t-16.5 209t19 214.5q27 164 89 318.5t159 290.5t219 237t279.5 158.5t330.5 54.5q198 -3 348 -89.5t234 -235t102 -345.5z" />
    <glyph glyph-name="ccircumflex" unicode="&#x109;" horiz-adv-x="1563" 
d="M793 1793l-198 -4l1 22l418 373h133l293 -374l-1 -22l-181 4l-185 239zM1477 1074l-226 1q-20 122 -102 193.5t-206 75.5q-116 4 -216 -46t-167.5 -135.5t-111 -188.5t-58.5 -213q-11 -63 -9 -130t10.5 -131t35 -121.5t64 -101t97.5 -70t135 -28.5q136 -4 244.5 68.5
t159.5 198.5l233 2q-48 -221 -232 -353t-415 -128q-93 2 -172.5 26t-139 66.5t-107.5 101t-77 127.5t-47.5 147t-19 160t7.5 166q16 124 59.5 241t114.5 218.5t161.5 177.5t208.5 118t248 40q219 -4 363.5 -134.5t163.5 -347.5z" />
    <glyph glyph-name="Cdotaccent" unicode="&#x10a;" horiz-adv-x="2039" 
d="M1280 2422q-1 70 41 116.5t111 47.5q68 1 110.5 -41.5t43.5 -110.5t-43 -111t-112 -45q-66 -2 -108 38t-43 106zM2002 1406l-238 1q-17 197 -140 314.5t-321 122.5q-134 3 -256 -42.5t-214.5 -125.5t-166.5 -187.5t-121 -227t-69 -245.5q-16 -93 -18.5 -184.5t10 -183.5
t47.5 -170t88.5 -139.5t138 -97.5t192.5 -38q218 -5 398 114t256 322l243 1q-53 -198 -191 -352.5t-326.5 -236.5t-394.5 -79q-121 2 -224 34.5t-178.5 89t-133.5 134.5t-92.5 169.5t-52 194t-16.5 209t19 214.5q27 164 89 318.5t159 290.5t219 237t279.5 158.5t330.5 54.5
q198 -3 348 -89.5t234 -235t102 -345.5z" />
    <glyph glyph-name="cdotaccent" unicode="&#x10b;" horiz-adv-x="1563" 
d="M895 1910q-1 70 41 116.5t111 47.5q68 1 111 -41.5t43 -110.5q1 -68 -42.5 -111t-112.5 -45q-66 -2 -108 38t-43 106zM1478 1074l-226 1q-20 122 -102 193.5t-206 75.5q-116 4 -216 -46t-167.5 -135.5t-111 -188.5t-58.5 -213q-11 -63 -9 -130t10.5 -131t35 -121.5
t64 -101t97.5 -70t135 -28.5q136 -4 244.5 68.5t159.5 198.5l233 2q-48 -221 -232 -353t-415 -128q-93 2 -172.5 26t-139 66.5t-107.5 101t-77 127.5t-47.5 147t-19 160t7.5 166q16 124 59.5 241t114.5 218.5t161.5 177.5t208.5 118t248 40q219 -4 363.5 -134.5
t163.5 -347.5z" />
    <glyph glyph-name="Ccaron" unicode="&#x10c;" horiz-adv-x="2039" 
d="M1221 2628l181 -239l287 238l195 4l-1 -22l-422 -373h-132l-290 374l1 22zM2002 1406l-238 1q-17 197 -140 314.5t-321 122.5q-134 3 -256 -42.5t-214.5 -125.5t-166.5 -187.5t-121 -227t-69 -245.5q-16 -93 -18.5 -184.5t10 -183.5t47.5 -170t88.5 -139.5t138 -97.5
t192.5 -38q218 -5 398 114t256 322l243 1q-53 -198 -191 -352.5t-326.5 -236.5t-394.5 -79q-121 2 -224 34.5t-178.5 89t-133.5 134.5t-92.5 169.5t-52 194t-16.5 209t19 214.5q27 164 89 318.5t159 290.5t219 237t279.5 158.5t330.5 54.5q198 -3 348 -89.5t234 -235
t102 -345.5z" />
    <glyph glyph-name="ccaron" unicode="&#x10d;" horiz-adv-x="1563" 
d="M835 2116l181 -239l287 238l195 4l-1 -22l-422 -373h-132l-290 374l1 22zM1477 1074l-226 1q-20 122 -102 193.5t-206 75.5q-116 4 -216 -46t-167.5 -135.5t-111 -188.5t-58.5 -213q-11 -63 -9 -130t10.5 -131t35 -121.5t64 -101t97.5 -70t135 -28.5q136 -4 244.5 68.5
t159.5 198.5l233 2q-48 -221 -232 -353t-415 -128q-93 2 -172.5 26t-139 66.5t-107.5 101t-77 127.5t-47.5 147t-19 160t7.5 166q16 124 59.5 241t114.5 218.5t161.5 177.5t208.5 118t248 40q219 -4 363.5 -134.5t163.5 -347.5z" />
    <glyph glyph-name="Dcaron" unicode="&#x10e;" horiz-adv-x="2015" 
d="M997 2628l181 -239l287 238l195 4l-1 -22l-422 -373h-132l-290 374l1 22zM737 0h-631l424 2048h624q146 -2 267 -40.5t206 -106t146.5 -161.5t89.5 -206t34.5 -239t-18.5 -262q-37 -224 -133.5 -413.5t-240.5 -327.5t-341.5 -215.5t-426.5 -76.5zM1127 1828h-400
l-333 -1608l339 -1q184 0 340.5 60t271 168.5t191.5 257.5t109 329q19 105 20 201.5t-16 185.5t-58.5 161.5t-103 127t-153.5 85.5t-207 33z" />
    <glyph glyph-name="dcaron" unicode="&#x10f;" horiz-adv-x="1858" 
d="M2119 2156l-24 -123q-66 -322 -259 -560l-197 40l41 80l45.5 89.5l37 78.5t39.5 92l28.5 82t26.5 93l28 128h234zM1322 0h-224l58 238h-18q-105 -134 -218.5 -204t-266.5 -68q-90 1 -165.5 27t-129.5 70t-95 104.5t-65 130t-36 147t-11 155.5t13 156q18 122 60.5 238
t112 219.5t157 180.5t204 120.5t246.5 40.5q286 -9 390 -264l19 -1l163 758h231zM395 760q-13 -78 -14.5 -153t14 -152.5t49.5 -136.5t98.5 -97.5t153.5 -41.5q95 -3 179.5 30.5t146 92t110 137.5t77.5 163.5t44 173.5q13 78 15 151.5t-13 150t-48 133t-96.5 94t-152.5 40.5
q-118 4 -218.5 -46t-168.5 -136t-112.5 -188.5t-63.5 -214.5z" />
    <glyph glyph-name="Dcroat" unicode="&#x110;" horiz-adv-x="2045" 
d="M767 0h-631l194 936h-238l39 184h237l192 928h624q146 -2 267 -40.5t206 -106t146.5 -161.5t89.5 -206t34.5 -239t-18.5 -262q-37 -224 -133.5 -413.5t-240.5 -327.5t-341.5 -215.5t-426.5 -76.5zM986 1120l-39 -184h-375l-148 -716l339 -1q184 0 340.5 60t271 168.5
t191.5 257.5t109 329q19 105 20 201.5t-16 185.5t-58.5 161.5t-103 127t-153.5 85.5t-207 33h-400l-147 -708h376z" />
    <glyph glyph-name="dcroat" unicode="&#x111;" horiz-adv-x="1739" 
d="M1327 0h-224l58 238h-18q-105 -134 -218.5 -204t-266.5 -68q-90 1 -165 27t-129.5 70t-95.5 104t-65 129.5t-36 147.5t-11 156t13 156q18 122 60.5 238t112 220t157 181t204 120.5t246.5 39.5q286 -9 390 -264l19 -1l98 446h-392l39 184h391l27 128h231l-27 -128h233
l-39 -184h-232zM400 760q-13 -78 -14.5 -153t14 -153t49.5 -136.5t98.5 -97.5t153.5 -42q96 -3 180 31t145.5 92.5t110 137.5t78 163.5t43.5 173.5q13 78 15 151.5t-13 150t-48 133t-96.5 94t-152.5 40.5q-118 4 -218.5 -46t-168.5 -136t-112.5 -188.5t-63.5 -214.5z" />
    <glyph glyph-name="Emacron" unicode="&#x112;" horiz-adv-x="1675" 
d="M1718 2528l-36 -204h-913l36 204h913zM1368 220l-46 -220h-1216l424 2048h1201l-46 -220h-958l-144 -692h858l-46 -220h-857l-145 -696h975z" />
    <glyph glyph-name="emacron" unicode="&#x113;" horiz-adv-x="1635" 
d="M1521 2016l-36 -204h-914l36 204h914zM732 -32q-108 2 -200 32.5t-157.5 83.5t-115.5 126t-74.5 159.5t-33.5 183t6 196.5q16 125 59 243.5t113.5 222t161 180.5t209.5 120.5t251 41.5q90 -1 167 -25t133 -65t101 -97t71 -123t42.5 -143t16 -155.5t-9.5 -160.5l-15 -100
h-1074q-6 -78 -1 -151t32 -137t68.5 -112.5t108 -77t151.5 -30.5q136 -4 244 57.5t170 180.5l217 -62q-46 -128 -149 -218.5t-229 -131.5t-263 -38zM939 1344q-100 3 -186.5 -33t-150.5 -102.5t-110.5 -145t-80.5 -172.5h842q20 116 -7 216t-106.5 166.5t-200.5 70.5z" />
    <glyph glyph-name="Ebreve" unicode="&#x114;" horiz-adv-x="1675" 
d="M1445 2584l212 1q-13 -173 -138.5 -273.5t-302.5 -95.5q-166 4 -265 104.5t-94 264.5l214 -1q-5 -87 32 -140.5t122 -56.5q90 -2 148 52t72 145zM1368 220l-46 -220h-1216l424 2048h1201l-46 -220h-958l-144 -692h858l-46 -220h-857l-145 -696h975z" />
    <glyph glyph-name="ebreve" unicode="&#x115;" horiz-adv-x="1634" 
d="M1247 2072l212 1q-8 -115 -70 -201t-158.5 -128.5t-211.5 -39.5q-166 4 -265.5 104.5t-94.5 264.5l214 -1q-5 -87 32 -140.5t122 -56.5q90 -2 148 52t72 145zM732 -32q-108 2 -200 32.5t-157.5 83.5t-115.5 126t-74.5 159.5t-33.5 183t6 196.5q16 125 59 243.5t113.5 222
t161 180.5t209.5 120.5t251 41.5q90 -1 167 -25t133 -65t101 -97t71 -123t42.5 -143t16 -155.5t-9.5 -160.5l-15 -100h-1074q-6 -78 -1 -151t32 -137t68.5 -112.5t108 -77t151.5 -30.5q136 -4 244 57.5t170 180.5l217 -62q-46 -128 -149 -218.5t-229 -131.5t-263 -38z
M939 1344q-100 3 -186.5 -33t-150.5 -102.5t-110.5 -145t-80.5 -172.5h842q20 116 -7 216t-106.5 166.5t-200.5 70.5z" />
    <glyph glyph-name="Edotaccent" unicode="&#x116;" horiz-adv-x="1675" 
d="M1096 2422q-1 70 41 116.5t111 47.5q68 1 110.5 -41.5t43.5 -110.5t-43 -111t-112 -45q-66 -2 -108 38t-43 106zM1368 220l-46 -220h-1216l424 2048h1201l-46 -220h-958l-144 -692h858l-46 -220h-857l-145 -696h975z" />
    <glyph glyph-name="edotaccent" unicode="&#x117;" horiz-adv-x="1635" 
d="M899 1910q-1 70 41 116.5t111 47.5q68 1 111 -41.5t43 -110.5q1 -68 -42.5 -111t-112.5 -45q-66 -2 -108 38t-43 106zM733 -32q-108 2 -200 32.5t-157.5 83.5t-115.5 126t-74.5 159.5t-33.5 183t6 196.5q16 125 59 243.5t113.5 222t161 180.5t209.5 120.5t251 41.5
q90 -1 167 -25t133 -65t101 -97t71 -123t42.5 -143t16 -155.5t-9.5 -160.5l-15 -100h-1074q-6 -78 -1 -151t32 -137t68.5 -112.5t108 -77t151.5 -30.5q136 -4 244 57.5t170 180.5l217 -62q-46 -128 -149 -218.5t-229 -131.5t-263 -38zM940 1344q-100 3 -186.5 -33
t-150.5 -102.5t-110.5 -145t-80.5 -172.5h842q20 116 -7 216t-106.5 166.5t-200.5 70.5z" />
    <glyph glyph-name="Eogonek" unicode="&#x118;" horiz-adv-x="1676" 
d="M1369 220l-46 -220h-38l5 -4q-118 -82 -160 -121q-99 -92 -113 -188q-12 -86 74 -87q59 0 135 36v-178q-88 -59 -215 -57q-111 1 -176 72.5t-60 182.5q9 197 246 344h-914l424 2048h1201l-46 -220h-958l-144 -692h858l-46 -220h-857l-145 -696h975z" />
    <glyph glyph-name="eogonek" unicode="&#x119;" horiz-adv-x="1635" 
d="M1081 -450q-88 -59 -215 -57q-111 1 -176 72.5t-60 182.5q5 118 94 220q-107 3 -197.5 34t-155.5 84.5t-114 126.5t-73 158.5t-33 181.5t6 196q16 125 59 243.5t113.5 222t161 180.5t209.5 120.5t251 41.5q90 -1 167 -25t133 -65t101 -97t71 -123t42.5 -143t16 -155.5
t-9.5 -160.5l-15 -100h-1074q-6 -78 -1 -151t32 -137t68.5 -112.5t108 -77t151.5 -30.5q136 -4 244 57.5t170 180.5l217 -62q-76 -212 -297 -316q-86 -62 -139.5 -123.5t-64.5 -137.5q-12 -86 74 -87q59 0 135 36v-178zM939 1344q-100 3 -186.5 -33t-150.5 -102.5
t-110.5 -145t-80.5 -172.5h842q20 116 -7 216t-106.5 166.5t-200.5 70.5z" />
    <glyph glyph-name="Ecaron" unicode="&#x11a;" horiz-adv-x="1675" 
d="M1037 2628l181 -239l287 238l195 4l-1 -22l-422 -373h-132l-290 374l1 22zM1368 220l-46 -220h-1216l424 2048h1201l-46 -220h-958l-144 -692h858l-46 -220h-857l-145 -696h975z" />
    <glyph glyph-name="ecaron" unicode="&#x11b;" horiz-adv-x="1635" 
d="M839 2116l181 -239l287 238l195 4l-1 -22l-422 -373h-132l-290 374l1 22zM732 -32q-108 2 -200 32.5t-157.5 83.5t-115.5 126t-74.5 159.5t-33.5 183t6 196.5q16 125 59 243.5t113.5 222t161 180.5t209.5 120.5t251 41.5q90 -1 167 -25t133 -65t101 -97t71 -123
t42.5 -143t16 -155.5t-9.5 -160.5l-15 -100h-1074q-6 -78 -1 -151t32 -137t68.5 -112.5t108 -77t151.5 -30.5q136 -4 244 57.5t170 180.5l217 -62q-46 -128 -149 -218.5t-229 -131.5t-263 -38zM939 1344q-100 3 -186.5 -33t-150.5 -102.5t-110.5 -145t-80.5 -172.5h842
q20 116 -7 216t-106.5 166.5t-200.5 70.5z" />
    <glyph glyph-name="Gcircumflex" unicode="&#x11c;" horiz-adv-x="2084" 
d="M1171 2305l-197 -4v22l419 373h132l293 -374v-22l-181 4l-185 239zM1938 1016l-44 -218q-34 -178 -120 -330.5t-210 -263t-288.5 -172.5t-347.5 -60q-122 1 -225.5 33.5t-180 89t-135 134t-93.5 169t-53 194.5t-17 209.5t19 215.5q27 163 88 317t157.5 290t218 238
t278 160t328.5 55q120 -2 222 -37t178.5 -94.5t136 -144t98 -183t60.5 -213.5l-241 1q-39 195 -158.5 314t-311.5 124q-133 3 -253.5 -43t-212.5 -126t-165.5 -188t-119.5 -227t-68 -244q-14 -81 -18.5 -160t4 -159.5t29 -151.5t59 -133t92 -107.5t130 -72.5t170.5 -29
q134 -3 254 42t210.5 126.5t156 190t102.5 235.5l-494 -1l46 220h719z" />
    <glyph glyph-name="gcircumflex" unicode="&#x11d;" horiz-adv-x="1707" 
d="M889 1793l-198 -4l1 22l418 373h133l293 -374l-1 -22l-181 4l-185 239zM1418 1536h223l-318 -1546q-32 -184 -142 -315t-266.5 -193t-344.5 -58q-186 3 -330.5 79.5t-229.5 230.5l198 132q70 -112 158.5 -169t215.5 -61q190 -5 334.5 95t179.5 281l62 274h-14
q-103 -132 -214.5 -199t-264.5 -65q-87 1 -161 24.5t-128 63.5t-97.5 95.5t-68 120.5t-40 138.5t-14 150t10.5 153.5q17 121 60 235.5t112 216.5t157 177.5t204 118t244 39.5q286 -9 390 -264h27zM399 771q-11 -64 -12.5 -125t7 -121.5t31.5 -111t59 -90t93 -63t130 -25.5
q94 -3 176 26t143 81.5t109 124.5t77.5 152.5t43.5 168.5q13 77 14 150t-15 147t-49.5 129.5t-97 91.5t-150.5 39q-94 3 -177.5 -28.5t-145.5 -87t-111.5 -130.5t-80 -157.5t-44.5 -170.5z" />
    <glyph glyph-name="Gbreve" unicode="&#x11e;" horiz-adv-x="2084" 
d="M1622 2584l212 1q-13 -173 -138.5 -273.5t-302.5 -95.5q-166 4 -265 104.5t-94 264.5l214 -1q-5 -87 32 -140.5t122 -56.5q90 -2 148 52t72 145zM1938 1016l-44 -218q-34 -178 -120 -330.5t-210 -263t-288.5 -172.5t-347.5 -60q-122 1 -225.5 33.5t-180 89t-135 134
t-93.5 169t-53 194.5t-17 209.5t19 215.5q27 163 88 317t157.5 290t218 238t278 160t328.5 55q120 -2 222 -37t178.5 -94.5t136 -144t98 -183t60.5 -213.5l-241 1q-39 195 -158.5 314t-311.5 124q-133 3 -253.5 -43t-212.5 -126t-165.5 -188t-119.5 -227t-68 -244
q-14 -81 -18.5 -160t4 -159.5t29 -151.5t59 -133t92 -107.5t130 -72.5t170.5 -29q134 -3 254 42t210.5 126.5t156 190t102.5 235.5l-494 -1l46 220h719z" />
    <glyph glyph-name="gbreve" unicode="&#x11f;" horiz-adv-x="1706" 
d="M1339 2072l212 1q-8 -115 -70 -201t-158 -128.5t-212 -39.5q-166 4 -265.5 104.5t-94.5 264.5l215 -1q-6 -87 31 -140.5t122 -56.5q90 -2 148 52t72 145zM1418 1536h223l-318 -1546q-32 -184 -142 -315t-266.5 -193t-344.5 -58q-186 3 -330.5 79.5t-229.5 230.5l198 132
q70 -112 158.5 -169t215.5 -61q190 -5 334.5 95t179.5 281l62 274h-14q-103 -132 -214.5 -199t-264.5 -65q-87 1 -161 24.5t-128 63.5t-97.5 95.5t-68 120.5t-40 138.5t-14 150t10.5 153.5q17 121 60 235.5t112 216.5t157 177.5t204 118t244 39.5q286 -9 390 -264h27z
M399 771q-11 -64 -12.5 -125t7 -121.5t31.5 -111t59 -90t93 -63t130 -25.5q94 -3 176 26t143 81.5t109 124.5t77.5 152.5t43.5 168.5q13 77 14 150t-15 147t-49.5 129.5t-97 91.5t-150.5 39q-94 3 -177.5 -28.5t-145.5 -87t-111.5 -130.5t-80 -157.5t-44.5 -170.5z" />
    <glyph glyph-name="Gdotaccent" unicode="&#x120;" horiz-adv-x="2083" 
d="M1272 2422q-1 70 41 116.5t111 47.5q68 1 110.5 -41.5t43.5 -110.5t-43 -111t-112 -45q-66 -2 -108 38t-43 106zM1937 1016l-44 -218q-34 -178 -120 -330.5t-210 -263t-288.5 -172.5t-347.5 -60q-122 1 -225.5 33.5t-180 89t-135 134t-93.5 169t-53 194.5t-17 209.5
t19 215.5q27 163 88 317t157.5 290t218 238t278 160t328.5 55q120 -2 222 -37t178.5 -94.5t136 -144t98 -183t60.5 -213.5l-241 1q-39 195 -158.5 314t-311.5 124q-133 3 -253.5 -43t-212.5 -126t-165.5 -188t-119.5 -227t-68 -244q-14 -81 -18.5 -160t4 -159.5t29 -151.5
t59 -133t92 -107.5t130 -72.5t170.5 -29q134 -3 254 42t210.5 126.5t156 190t102.5 235.5l-494 -1l46 220h719z" />
    <glyph glyph-name="gdotaccent" unicode="&#x121;" horiz-adv-x="1707" 
d="M991 1910q-1 70 41 116.5t111 47.5q68 1 111 -41.5t43 -110.5q1 -68 -42.5 -111t-112.5 -45q-66 -2 -108 38t-43 106zM1419 1536h223l-318 -1546q-32 -184 -142 -315t-266.5 -193t-344.5 -58q-186 3 -330.5 79.5t-229.5 230.5l198 132q70 -112 158.5 -169t215.5 -61
q190 -5 334.5 95t179.5 281l62 274h-14q-103 -132 -214.5 -199t-264.5 -65q-87 1 -161 24.5t-128 63.5t-97.5 95.5t-68 120.5t-40 138.5t-14 150t10.5 153.5q17 121 60 235.5t112 216.5t157 177.5t204 118t244 39.5q286 -9 390 -264h27zM400 771q-11 -64 -12.5 -125
t7 -121.5t31.5 -111t59 -90t93 -63t130 -25.5q94 -3 176 26t143 81.5t109 124.5t77.5 152.5t43.5 168.5q13 77 14 150t-15 147t-49.5 129.5t-97 91.5t-150.5 39q-94 3 -177.5 -28.5t-145.5 -87t-111.5 -130.5t-80 -157.5t-44.5 -170.5z" />
    <glyph glyph-name="Gcommaaccent" unicode="&#x122;" horiz-adv-x="2084" 
d="M1938 1016l-44 -218q-34 -178 -120 -330.5t-210 -263t-288.5 -172.5t-347.5 -60q-122 1 -225.5 33.5t-180 89t-135 134t-93.5 169t-53 194.5t-17 209.5t19 215.5q27 163 88 317t157.5 290t218 238t278 160t328.5 55q120 -2 222 -37t178.5 -94.5t136 -144t98 -183
t60.5 -213.5l-241 1q-39 195 -158.5 314t-311.5 124q-133 3 -253.5 -43t-212.5 -126t-165.5 -188t-119.5 -227t-68 -244q-14 -81 -18.5 -160t4 -159.5t29 -151.5t59 -133t92 -107.5t130 -72.5t170.5 -29q134 -3 254 42t210.5 126.5t156 190t102.5 235.5l-494 -1l46 220h719z
M1009 -144l-24 -123q-66 -322 -259 -560l-197 40q5 11 31 61l33.5 65l30 60t31.5 66.5l26 61.5t26.5 68t20.5 64t19 69l28 128h234z" />
    <glyph glyph-name="gcommaaccent" unicode="&#x123;" horiz-adv-x="1706" 
d="M965 1740l34 174q23 124 96 237.5t177 193.5l141 -128q-113 -167 -144 -313l-35 -164h-269zM1418 1536h223l-318 -1546q-32 -184 -142 -315t-266.5 -193t-344.5 -58q-186 3 -330.5 79.5t-229.5 230.5l198 132q70 -112 158.5 -169t215.5 -61q190 -5 334.5 95t179.5 281
l62 274h-14q-103 -132 -214.5 -199t-264.5 -65q-87 1 -161 24.5t-128 63.5t-97.5 95.5t-68 120.5t-40 138.5t-14 150t10.5 153.5q17 121 60 235.5t112 216.5t157 177.5t204 118t244 39.5q286 -9 390 -264h27zM399 771q-11 -64 -12.5 -125t7 -121.5t31.5 -111t59 -90t93 -63
t130 -25.5q94 -3 176 26t143 81.5t109 124.5t77.5 152.5t43.5 168.5q13 77 14 150t-15 147t-49.5 129.5t-97 91.5t-150.5 39q-94 3 -177.5 -28.5t-145.5 -87t-111.5 -130.5t-80 -157.5t-44.5 -170.5z" />
    <glyph glyph-name="Hcircumflex" unicode="&#x124;" horiz-adv-x="2076" 
d="M1146 2305l-197 -4v22l419 373h132l293 -374v-22l-181 4l-185 239zM773 2048l-190 -912h1058l189 912h243l-425 -2048h-243l191 916h-1058l-190 -916h-242l425 2048h242z" />
    <glyph glyph-name="hcircumflex" unicode="&#x125;" horiz-adv-x="1627" 
d="M990 2305l-197 -4v22l419 373h132l293 -374v-22l-181 4l-185 239zM495 929l-190 -929h-230l425 2048h230l-160 -730l10 1q93 115 216.5 177.5t266.5 59.5q78 -2 142.5 -26t108 -65.5t75.5 -96.5t45 -119t17 -133.5t-8 -139.5l-199 -976h-230l199 977q23 148 -35.5 247
t-204.5 105q-180 7 -311.5 -106.5t-166.5 -293.5z" />
    <glyph glyph-name="Hbar" unicode="&#x126;" horiz-adv-x="2024" 
d="M783 2048l-90 -432h1057l90 432h242l-89 -432h155l-43 -208h-155l-292 -1408h-243l191 916h-1058l-190 -916h-243l293 1408h-164l44 208h163l89 432h243zM593 1136h1058l57 272h-1058z" />
    <glyph glyph-name="hbar" unicode="&#x127;" horiz-adv-x="1656" 
d="M525 929l-190 -929h-230l356 1716h-288l39 184h287l31 148h230l-32 -148h339l-39 -184h-341l-87 -398l10 1q93 115 216.5 177.5t266.5 59.5q78 -2 142.5 -26t108 -65.5t75.5 -96.5t45 -119t17 -133.5t-8 -139.5l-199 -976h-230l199 977q23 148 -35.5 247t-204.5 105
q-180 7 -311.5 -106.5t-166.5 -293.5z" />
    <glyph glyph-name="Itilde" unicode="&#x128;" horiz-adv-x="736" 
d="M1030 2611l166 -12q-5 -70 -28.5 -131.5t-62.5 -110.5t-99 -76.5t-133 -26.5q-45 1 -92.5 22t-81.5 45.5t-80 45t-89 20.5q-62 -1 -102 -45t-54 -109l-179 7q7 69 32 131.5t65.5 112.5t101.5 79t133 27q44 -1 91 -22t81.5 -46t81 -45t89.5 -20q62 1 104 45.5t56 108.5z
M773 2048l-425 -2048h-242l425 2048h242z" />
    <glyph glyph-name="itilde" unicode="&#x129;" horiz-adv-x="777" 
d="M983 2099l167 -12q-8 -95 -47 -172.5t-113 -126.5t-171 -47q-45 1 -92 22.5t-80.5 46t-79.5 45t-89 20.5q-63 0 -104.5 -44.5t-56.5 -109.5l-179 7q10 94 51 173t116.5 130t171.5 48q44 -1 90.5 -22.5t80.5 -46t80.5 -45t89.5 -20.5q63 0 106 44.5t59 109.5zM688 1536
l-319 -1536h-230l319 1536h230z" />
    <glyph glyph-name="Imacron" unicode="&#x12a;" horiz-adv-x="735" 
d="M1186 2528l-36 -204h-913l36 204h913zM773 2048l-425 -2048h-242l425 2048h242z" />
    <glyph glyph-name="imacron" unicode="&#x12b;" horiz-adv-x="660" 
d="M1070 2020l-36 -204h-914l36 204h914zM624 1536l-319 -1536h-230l318 1536h231z" />
    <glyph glyph-name="Ibreve" unicode="&#x12c;" horiz-adv-x="736" 
d="M913 2584l212 1q-13 -173 -138.5 -273.5t-302.5 -95.5q-166 4 -265 104.5t-94 264.5l214 -1q-5 -87 32 -140.5t122 -56.5q90 -2 148 52t72 145zM773 2048l-425 -2048h-242l425 2048h242z" />
    <glyph glyph-name="ibreve" unicode="&#x12d;" horiz-adv-x="659" 
d="M796 2076l212 1q-8 -115 -70 -201t-158.5 -128.5t-211.5 -39.5q-166 4 -265.5 104.5t-94.5 264.5l214 -1q-5 -87 32 -140.5t122 -56.5q90 -2 148 52t72 145zM624 1536l-319 -1536h-230l318 1536h231z" />
    <glyph glyph-name="Iogonek" unicode="&#x12e;" horiz-adv-x="735" 
d="M773 2048l-425 -2048h-26l-66 -47.5t-61 -49t-61.5 -60.5t-41 -64t-25.5 -76q-12 -86 74 -87q59 0 136 36v-178q-88 -59 -216 -57q-111 1 -176 72.5t-60 182.5q11 215 289 369l417 2007h242z" />
    <glyph glyph-name="iogonek" unicode="&#x12f;" horiz-adv-x="660" 
d="M584 1754q-68 -1 -113.5 43t-46.5 112q-1 69 47.5 118t117.5 50q65 1 111.5 -43.5t48.5 -109.5q1 -71 -46.5 -120t-118.5 -50zM625 1536l-319 -1536h-21l5 -4q-118 -82 -160 -121q-99 -92 -113 -188q-12 -86 74 -87q59 0 135 36v-178q-88 -59 -215 -57q-111 1 -176 72.5
t-60 182.5q11 221 308 380l311 1500h231z" />
    <glyph glyph-name="Idotaccent" unicode="&#x130;" horiz-adv-x="735" 
d="M564 2422q-1 70 41 116.5t111 47.5q68 1 110.5 -41.5t43.5 -110.5t-43 -111t-112 -45q-66 -2 -108 38t-43 106zM773 2048l-425 -2048h-242l425 2048h242z" />
    <glyph glyph-name="dotlessi" unicode="&#x131;" horiz-adv-x="658" 
d="M629 1536l-319 -1536h-230l318 1536h231z" />
    <glyph glyph-name="IJ" unicode="&#x132;" horiz-adv-x="2416" 
d="M1029 2048l-425 -2048h-242l425 2048h242zM1914 583l299 1465h243l-302 -1464q-25 -137 -83 -250t-144.5 -195.5t-206 -126.5t-260.5 -41q-235 5 -368.5 156.5t-116.5 385.5l234 -1q-12 -141 64 -227.5t218 -93.5q172 -7 282 104t141 288z" />
    <glyph glyph-name="ij" unicode="&#x133;" horiz-adv-x="1582" 
d="M839 1754q-68 -1 -113.5 43t-46.5 112q-1 69 47.5 118t117.5 50q65 1 111.5 -43.5t48.5 -109.5q1 -71 -46.5 -120t-118.5 -50zM1508 1755q-68 -1 -113.5 43t-46.5 111q-1 69 47.5 118t116.5 50q65 1 112 -44t48 -110q1 -70 -46 -118.5t-118 -49.5zM1318 1536h231
l-338 -1647q-36 -221 -165 -345.5t-348 -125.5h-54l29 221l39 -2q113 0 179.5 67.5t88.5 183.5zM880 1536l-319 -1536h-230l318 1536h231z" />
    <glyph glyph-name="Jcircumflex" unicode="&#x134;" horiz-adv-x="1415" 
d="M1182 2305l-197 -4v22l419 373h132l293 -374v-22l-181 4l-185 239zM914 583l299 1465h243l-302 -1464q-25 -137 -83 -250t-144.5 -195.5t-206 -126.5t-260.5 -41q-235 5 -368.5 156.5t-116.5 385.5l234 -1q-12 -141 64 -227.5t218 -93.5q172 -7 282 104t141 288z" />
    <glyph glyph-name="jcircumflex" unicode="&#x135;" horiz-adv-x="660" 
d="M322 1717l-198 -4l1 22l418 373h133l293 -374l-1 -22l-181 4l-185 239zM395 1536h231l-339 -1647q-37 -220 -166 -345.5t-346 -126.5l-54 1l29 221l39 -1q112 -1 179 67t88 183z" />
    <glyph glyph-name="Kcommaaccent" unicode="&#x136;" horiz-adv-x="1827" 
d="M1296 0l-491 951l-322 -298l-135 -653h-242l425 2048h242l-219 -1018h19l1102 1018l339 -1l-1039 -936l597 -1111h-276zM892 -8l-24 -123q-66 -321 -258 -560l-198 40q5 11 31 61l33.5 65l30 60t31.5 66.5l26 61.5t26.5 68t20.5 64t19 69l28 128h234z" />
    <glyph glyph-name="kcommaaccent" unicode="&#x137;" horiz-adv-x="1492" 
d="M1024 0l-381 730l-229 -206l-109 -524h-230l425 2048h230l-258 -1206h23l748 694h308l-737 -668l463 -868h-253zM691 -128l-23 -123q-68 -322 -259 -560l-197 40q6 13 35 69.5l38.5 75.5l33 68t35 77l28 70t27.5 79.5t20 75.5l28 128h234z" />
    <glyph glyph-name="kgreenlandic" unicode="&#x138;" horiz-adv-x="1767" 
d="M1034 0l-391 628h-140l-131 -628h-269l309 1488h269l-130 -624h96l646 624l346 -1l-764 -731l479 -756h-320z" />
    <glyph glyph-name="Lacute" unicode="&#x139;" horiz-adv-x="1575" 
d="M568 2232l304 408h254l-370 -408h-188zM1318 220l-47 -220h-1165l425 2048h242l-380 -1828h925z" />
    <glyph glyph-name="lacute" unicode="&#x13a;" horiz-adv-x="659" 
d="M524 2232l304 408h254l-370 -408h-188zM730 2048l-425 -2048h-230l425 2048h230z" />
    <glyph glyph-name="Lcommaaccent" unicode="&#x13b;" horiz-adv-x="1575" 
d="M1318 220l-47 -220h-1165l425 2048h242l-380 -1828h925zM811 -112l-24 -123q-68 -322 -259 -560l-197 40l35.5 69.5l38 75l33 68t35 77l28 70.5t28 79.5t20.5 75.5l28 128h234z" />
    <glyph glyph-name="lcommaaccent" unicode="&#x13c;" horiz-adv-x="660" 
d="M731 2048l-425 -2048h-230l425 2048h230zM252 -112l-24 -123q-68 -322 -259 -560l-197 40l35.5 69.5l38 75l33 68t35 77l28 70.5t28 79.5t20.5 75.5l28 128h234z" />
    <glyph glyph-name="Lcaron" unicode="&#x13d;" horiz-adv-x="1575" 
d="M1318 220l-47 -220h-1165l425 2048h242l-380 -1828h925zM1380 2044l-24 -123q-68 -322 -259 -560l-197 40l35.5 69.5l38 75l33 68t35 77l28 70.5t28 79.5t20.5 75.5l28 128h234z" />
    <glyph glyph-name="lcaron" unicode="&#x13e;" horiz-adv-x="810" 
d="M1175 2156l-24 -123q-66 -322 -259 -560l-197 40l41 80l45.5 89.5l37 78.5t39.5 92l28.5 82t26.5 93l28 128h234zM730 2048l-425 -2048h-230l425 2048h230z" />
    <glyph glyph-name="Ldot" unicode="&#x13f;" horiz-adv-x="1575" 
d="M1318 220l-47 -220h-1165l425 2048h242l-380 -1828h925zM910 1134q-1 70 41 116.5t111 47.5q68 1 111 -41.5t43 -110.5q1 -68 -42.5 -111t-112.5 -45q-66 -2 -108 38t-43 106z" />
    <glyph glyph-name="ldot" unicode="&#x140;" horiz-adv-x="879" 
d="M731 2048l-425 -2048h-230l425 2048h230zM681 1106q-1 70 41 116.5t111 47.5q68 1 111 -41.5t43 -110.5q1 -68 -42.5 -111t-112.5 -45q-66 -2 -108 38t-43 106z" />
    <glyph glyph-name="L_slash" unicode="&#x141;" horiz-adv-x="1575" 
d="M1323 220l-47 -220h-1165l186 897l-195 -58l40 190l194 59l200 960h242l-183 -881l390 118l-41 -190l-388 -119l-158 -756h925z" />
    <glyph glyph-name="lslash" unicode="&#x142;" horiz-adv-x="661" 
d="M792 1286l-40 -188l-230 -83l-211 -1015h-230l192 924l-232 -82l40 188l230 83l195 935h230l-175 -844z" />
    <glyph glyph-name="Nacute" unicode="&#x143;" horiz-adv-x="2071" 
d="M1224 2232l304 408h254l-370 -408h-188zM2069 2048l-425 -2048h-225l-710 1604l-22 1l-339 -1605h-242l424 2048h225l713 -1612l22 -1l340 1613h239z" />
    <glyph glyph-name="nacute" unicode="&#x144;" horiz-adv-x="1627" 
d="M910 1720l304 408h255l-370 -408h-189zM491 908l-186 -908h-230l318 1536h232l-64 -262l11 1q85 136 210.5 210.5t280.5 70.5q94 -2 168 -35.5t118 -89.5t71.5 -130t30 -156.5t-7.5 -168.5l-199 -976h-230l196 961q13 67 3.5 131.5t-35 116t-78.5 84.5t-127 36
q-177 7 -312 -118t-170 -303z" />
    <glyph glyph-name="Ncommaaccent" unicode="&#x145;" horiz-adv-x="2072" 
d="M2069 2048l-425 -2048h-225l-710 1604l-22 1l-339 -1605h-242l424 2048h225l713 -1612l22 -1l340 1613h239zM947 -112l-24 -123q-68 -322 -259 -560l-197 40l35.5 69.5l38 75l33 68t35 77l28 70.5t28 79.5t20.5 75.5l28 128h234z" />
    <glyph glyph-name="ncommaaccent" unicode="&#x146;" horiz-adv-x="1627" 
d="M491 908l-186 -908h-230l318 1536h232l-64 -262l11 1q85 136 210.5 210.5t280.5 70.5q94 -2 168 -35.5t118 -89.5t71.5 -130t30 -156.5t-7.5 -168.5l-199 -976h-230l196 961q13 67 3.5 131.5t-35 116t-78.5 84.5t-127 36q-177 7 -312 -118t-170 -303zM767 -128l-23 -123
q-68 -322 -259 -560l-197 40q6 13 35 69.5l38.5 75.5l33 68t35 77l28 70t27.5 79.5t20 75.5l28 128h234z" />
    <glyph glyph-name="Ncaron" unicode="&#x147;" horiz-adv-x="2071" 
d="M1181 2628l181 -239l287 238l195 4l-1 -22l-422 -373h-132l-290 374l1 22zM2069 2048l-425 -2048h-225l-710 1604l-22 1l-339 -1605h-242l424 2048h225l713 -1612l22 -1l340 1613h239z" />
    <glyph glyph-name="ncaron" unicode="&#x148;" horiz-adv-x="1627" 
d="M867 2116l181 -239l287 238l195 4l-1 -22l-422 -373h-132l-290 374l1 22zM491 908l-186 -908h-230l318 1536h232l-64 -262l11 1q85 136 210.5 210.5t280.5 70.5q94 -2 168 -35.5t118 -89.5t71.5 -130t30 -156.5t-7.5 -168.5l-199 -976h-230l196 961q13 67 3.5 131.5
t-35 116t-78.5 84.5t-127 36q-177 7 -312 -118t-170 -303z" />
    <glyph glyph-name="napostrophe" unicode="&#x149;" horiz-adv-x="1628" 
d="M369 2164l-23 -123q-68 -322 -259 -560l-197 40l35.5 69.5l38 75l33 68t35 77l28 70.5t28 79.5t20.5 75.5l28 128h233zM492 908l-186 -908h-230l318 1536h232l-64 -262l11 1q85 136 210.5 210.5t280.5 70.5q94 -2 168 -35.5t118 -89.5t71.5 -130t30 -156.5t-7.5 -168.5
l-199 -976h-230l196 961q13 67 3.5 131.5t-35 116t-78.5 84.5t-127 36q-177 7 -312 -118t-170 -303z" />
    <glyph glyph-name="Eng" unicode="&#x14a;" horiz-adv-x="2072" 
d="M2075 2048l-454 -2209q-31 -188 -155 -303.5t-312 -114.5q-91 2 -143 14l26 205q43 -11 72 -12q108 -5 178.5 50.5t90.5 161.5l36 187l-699 1577l-22 1l-339 -1605h-242l425 2048h224l713 -1612l22 -1l340 1613h239z" />
    <glyph glyph-name="eng" unicode="&#x14b;" horiz-adv-x="1626" 
d="M496 908l-186 -908h-230l318 1536h232l-64 -262l11 1q85 136 210.5 210.5t280.5 70.5q94 -2 168 -36t118 -90t71.5 -129.5t30 -156t-7.5 -168.5l-228 -1140q-29 -187 -150.5 -301.5t-307.5 -113.5q-83 0 -144 14l26 201q37 -10 71 -11q109 -5 180.5 50t92.5 161l227 1125
q13 67 3 131.5t-35 116t-78.5 84.5t-126.5 36q-177 7 -312 -118t-170 -303z" />
    <glyph glyph-name="Omacron" unicode="&#x14c;" horiz-adv-x="2134" 
d="M1902 2528l-36 -204h-913l36 204h913zM1995 1031q-27 -164 -88.5 -319t-158.5 -290.5t-219 -236.5t-279.5 -158t-330.5 -55q-121 2 -224 34.5t-178.5 89t-133.5 134.5t-92.5 169.5t-52 194.5t-16.5 209t19 214q27 164 89 319t159 290.5t219 236.5t279.5 158t330.5 55
q121 -2 224 -34.5t178.5 -89t133 -134.5t92 -169.5t52 -194.5t16.5 -209t-19 -214zM1760 1032q14 79 18 157.5t-3.5 158.5t-27.5 151t-58 134t-90 108.5t-127.5 73t-168.5 29.5q-134 3 -255.5 -42.5t-214.5 -125.5t-167 -187.5t-121 -227t-69 -245.5q-14 -79 -18 -157.5
t3.5 -158.5t27.5 -151t58 -134t90 -108.5t127.5 -73t168.5 -29.5q134 -3 256 42.5t214.5 125.5t166.5 187.5t121 227t69 245.5z" />
    <glyph glyph-name="omacron" unicode="&#x14d;" horiz-adv-x="1672" 
d="M1526 2016l-36 -204h-914l36 204h914zM713 -32q-91 1 -170.5 25t-138.5 66t-107.5 99.5t-77.5 126t-48 145.5t-20 158.5t8 165.5q16 126 59 244t114 220.5t162 178.5t210 118.5t251 40.5q107 -2 196.5 -34t152.5 -87.5t110.5 -130.5t70 -162t31 -183t-6.5 -193
q-20 -158 -84 -301.5t-163.5 -256t-242 -178t-306.5 -62.5zM725 180q95 -3 179 30t145.5 89.5t109.5 133.5t77 161t42 173q10 66 10 130.5t-10.5 129.5t-36 120.5t-64 99.5t-98.5 69.5t-136 27.5q-118 3 -217.5 -47.5t-166.5 -137t-110 -190t-60 -216.5q-12 -63 -9.5 -130
t11.5 -130t35.5 -119t64.5 -98.5t98.5 -68t135.5 -27.5z" />
    <glyph glyph-name="Obreve" unicode="&#x14e;" horiz-adv-x="2136" 
d="M1630 2584l212 1q-13 -173 -138.5 -273.5t-302.5 -95.5q-166 4 -265 104.5t-94 264.5l214 -1q-5 -87 32 -140.5t122 -56.5q90 -2 148 52t72 145zM1996 1031q-27 -164 -88.5 -319t-158.5 -290.5t-219 -236.5t-279.5 -158t-330.5 -55q-121 2 -224 34.5t-178.5 89
t-133.5 134.5t-92.5 169.5t-52 194.5t-16.5 209t19 214q27 164 89 319t159 290.5t219 236.5t279.5 158t330.5 55q121 -2 224 -34.5t178.5 -89t133 -134.5t92 -169.5t52 -194.5t16.5 -209t-19 -214zM1761 1032q14 79 18 157.5t-3.5 158.5t-27.5 151t-58 134t-90 108.5
t-127.5 73t-168.5 29.5q-134 3 -255.5 -42.5t-214.5 -125.5t-167 -187.5t-121 -227t-69 -245.5q-14 -79 -18 -157.5t3.5 -158.5t27.5 -151t58 -134t90 -108.5t127.5 -73t168.5 -29.5q134 -3 256 42.5t214.5 125.5t166.5 187.5t121 227t69 245.5z" />
    <glyph glyph-name="obreve" unicode="&#x14f;" horiz-adv-x="1670" 
d="M1251 2072l212 1q-8 -115 -70 -201t-158.5 -128.5t-211.5 -39.5q-166 4 -265.5 104.5t-94.5 264.5l214 -1q-5 -87 32 -140.5t122 -56.5q90 -2 148 52t72 145zM712 -32q-91 1 -170.5 25t-138.5 66t-107.5 99.5t-77.5 126t-48 145.5t-20 158.5t8 165.5q16 126 59 244
t114 220.5t162 178.5t210 118.5t251 40.5q107 -2 196.5 -34t152.5 -87.5t110.5 -130.5t70 -162t31 -183t-6.5 -193q-20 -158 -84 -301.5t-163.5 -256t-242 -178t-306.5 -62.5zM724 180q95 -3 179 30t145.5 89.5t109.5 133.5t77 161t42 173q10 66 10 130.5t-10.5 129.5
t-36 120.5t-64 99.5t-98.5 69.5t-136 27.5q-118 3 -217.5 -47.5t-166.5 -137t-110 -190t-60 -216.5q-12 -63 -9.5 -130t11.5 -130t35.5 -119t64.5 -98.5t98.5 -68t135.5 -27.5z" />
    <glyph glyph-name="Ohungarumlaut" unicode="&#x150;" horiz-adv-x="2134" 
d="M1032 2216l306 424h271l-375 -424h-202zM1430 2216l387 424h278l-441 -424h-224zM1995 1031q-27 -164 -88.5 -319t-158.5 -290.5t-219 -236.5t-279.5 -158t-330.5 -55q-121 2 -224 34.5t-178.5 89t-133.5 134.5t-92.5 169.5t-52 194.5t-16.5 209t19 214q27 164 89 319
t159 290.5t219 236.5t279.5 158t330.5 55q121 -2 224 -34.5t178.5 -89t133 -134.5t92 -169.5t52 -194.5t16.5 -209t-19 -214zM1760 1032q14 79 18 157.5t-3.5 158.5t-27.5 151t-58 134t-90 108.5t-127.5 73t-168.5 29.5q-134 3 -255.5 -42.5t-214.5 -125.5t-167 -187.5
t-121 -227t-69 -245.5q-14 -79 -18 -157.5t3.5 -158.5t27.5 -151t58 -134t90 -108.5t127.5 -73t168.5 -29.5q134 -3 256 42.5t214.5 125.5t166.5 187.5t121 227t69 245.5z" />
    <glyph glyph-name="ohungarumlaut" unicode="&#x151;" horiz-adv-x="1673" 
d="M655 1704l306 424h271l-375 -424h-202zM1053 1704l387 424h279l-442 -424h-224zM713 -32q-91 1 -170.5 25t-138.5 66t-107.5 99.5t-77.5 126t-48 145.5t-20 158.5t8 165.5q16 126 59 244t114 220.5t162 178.5t210 118.5t251 40.5q107 -2 196.5 -34t152.5 -87.5
t110.5 -130.5t70 -162t31 -183t-6.5 -193q-20 -158 -84 -301.5t-163.5 -256t-242 -178t-306.5 -62.5zM725 180q95 -3 179 30t145.5 89.5t109.5 133.5t77 161t42 173q10 66 10 130.5t-10.5 129.5t-36 120.5t-64 99.5t-98.5 69.5t-136 27.5q-118 3 -217.5 -47.5t-166.5 -137
t-110 -190t-60 -216.5q-12 -63 -9.5 -130t11.5 -130t35.5 -119t64.5 -98.5t98.5 -68t135.5 -27.5z" />
    <glyph glyph-name="OE" unicode="&#x152;" horiz-adv-x="2643" 
d="M1202 2049l1508 -1l-46 -220h-958l-144 -692h858l-46 -220h-857l-145 -696h975l-47 -220l-1488 1q-111 3 -206.5 35t-165 87.5t-122 131t-78 165.5t-33 190.5t12.5 205.5l83 420q32 171 109 318.5t190.5 257.5t268.5 173.5t331 63.5zM823 221l307 -1l334 1608l-274 1
q-130 1 -238 -45t-183.5 -128.5t-125.5 -188t-74 -231.5l-83 -421q-15 -87 -15.5 -167t18.5 -158t57.5 -135.5t109 -94t167.5 -39.5z" />
    <glyph glyph-name="oe" unicode="&#x153;" horiz-adv-x="2778" 
d="M699 -32q-106 2 -195 34.5t-149.5 87.5t-106 129.5t-65.5 161t-26 181.5t11 190q24 160 91.5 304.5t170 258t248 179.5t311.5 62q169 -3 307 -87.5t192 -235.5q122 156 278 242t341 82q105 -2 190.5 -34t142.5 -86t98.5 -127.5t58 -158t20.5 -177.5t-13 -186l-17 -100
l-1074 1q-9 -78 -6.5 -150.5t27 -137t63.5 -113t105 -77.5t150 -32q138 -4 248.5 58t171.5 182l219 -64q-48 -128 -152.5 -218t-232.5 -131t-266 -38q-174 2 -319 84t-201 234q-259 -325 -621 -318zM713 179q119 -4 221 46t171.5 136t115.5 190t66 217q14 79 14.5 155
t-17 152.5t-53 134t-101.5 95t-156 40.5q-96 3 -181.5 -30t-149.5 -90.5t-114.5 -135.5t-82 -162.5t-47.5 -174.5q-14 -79 -14.5 -155t17 -151.5t53.5 -132.5t102 -94t156 -40zM2092 1344q-82 3 -156 -21t-131 -66t-107 -102.5t-86 -124.5t-66 -139h842q21 84 9.5 164
t-45 143t-101.5 103t-159 43z" />
    <glyph glyph-name="Racute" unicode="&#x154;" horiz-adv-x="1775" 
d="M1096 2232l304 408h254l-370 -408h-188zM1235 0l-230 796h-492l-165 -796h-242l425 2048l646 -1q140 -3 252 -47t185.5 -122.5t104.5 -194t12 -255.5q-28 -213 -150 -360t-326 -220l245 -848h-265zM727 1828l-167 -804l379 -2q107 0 197.5 23t165 71t124.5 127.5
t68 185.5q32 185 -53 289t-275 109z" />
    <glyph glyph-name="racute" unicode="&#x155;" horiz-adv-x="1080" 
d="M638 1720l304 408h255l-370 -408h-189zM1207 1502l-107 -217q-54 31 -122 33q-90 2 -174.5 -36t-147 -102t-107.5 -145t-64 -167l-180 -868h-230l318 1536h232l-65 -266l12 1q63 128 179 211.5t252 79.5q95 -1 204 -60z" />
    <glyph glyph-name="Rcommaaccent" unicode="&#x156;" horiz-adv-x="1775" 
d="M1235 0l-230 796h-492l-165 -796h-242l425 2048l646 -1q140 -3 252 -47t185.5 -122.5t104.5 -194t12 -255.5q-28 -213 -150 -360t-326 -220l245 -848h-265zM727 1828l-167 -804l379 -2q107 0 197.5 23t165 71t124.5 127.5t68 185.5q32 185 -53 289t-275 109zM795 -128
l-23 -123q-68 -322 -259 -560l-197 40q6 13 35 69.5l38.5 75.5l33 68t35 77l28 70t27.5 79.5t20 75.5l28 128h234z" />
    <glyph glyph-name="rcommaaccent" unicode="&#x157;" horiz-adv-x="1080" 
d="M1208 1502l-107 -217q-54 31 -122 33q-90 2 -174.5 -36t-147 -102t-107.5 -145t-64 -167l-180 -868h-230l318 1536h232l-65 -266l12 1q63 128 179 211.5t252 79.5q95 -1 204 -60zM280 -128l-23 -123q-68 -322 -259 -560l-197 40q6 13 35 69.5l38.5 75.5l33 68t35 77
l28 70t27.5 79.5t20 75.5l28 128h234z" />
    <glyph glyph-name="Rcaron" unicode="&#x158;" horiz-adv-x="1775" 
d="M1053 2628l181 -239l287 238l195 4l-1 -22l-422 -373h-132l-290 374l1 22zM1235 0l-230 796h-492l-165 -796h-242l425 2048l646 -1q140 -3 252 -47t185.5 -122.5t104.5 -194t12 -255.5q-28 -213 -150 -360t-326 -220l245 -848h-265zM727 1828l-167 -804l379 -2
q107 0 197.5 23t165 71t124.5 127.5t68 185.5q32 185 -53 289t-275 109z" />
    <glyph glyph-name="rcaron" unicode="&#x159;" horiz-adv-x="1080" 
d="M595 2116l181 -239l287 238l195 4l-1 -22l-422 -373h-132l-290 374l1 22zM1207 1502l-107 -217q-54 31 -122 33q-90 2 -174.5 -36t-147 -102t-107.5 -145t-64 -167l-180 -868h-230l318 1536h232l-65 -266l12 1q63 128 179 211.5t252 79.5q95 -1 204 -60z" />
    <glyph glyph-name="Sacute" unicode="&#x15a;" horiz-adv-x="1778" 
d="M1080 2232l304 408h254l-370 -408h-188zM1507 1519q-9 161 -107.5 247.5t-263.5 90.5q-87 2 -171 -19.5t-156.5 -64t-124 -112.5t-66.5 -158q-10 -56 3 -104t39.5 -80.5t70.5 -61t85.5 -46t95.5 -34.5l190 -58q505 -156 458 -551q-18 -147 -95.5 -265.5t-192.5 -191.5
t-252 -111t-281 -36q-134 2 -246.5 39t-196.5 106t-131 176.5t-47 243.5h248q-1 -85 28.5 -150.5t83.5 -106t123.5 -61.5t152.5 -23q94 -2 186 21t173 68t138.5 121.5t73.5 171.5q27 162 -124 253q-61 36 -182 76l-228 74q-96 32 -172 77.5t-135.5 108.5t-86.5 149t-16 187
q12 110 63 206t127.5 164.5t172.5 117.5t201.5 72t212.5 21q258 -5 419.5 -154.5t160.5 -402.5h-231z" />
    <glyph glyph-name="sacute" unicode="&#x15b;" horiz-adv-x="1451" 
d="M787 1720l304 408h254l-370 -408h-188zM1334 1189l-208 -59q-34 109 -99.5 165.5t-177.5 59.5q-79 2 -155.5 -22.5t-137.5 -81t-73 -135.5q-13 -87 45.5 -145t151.5 -86l210 -58q99 -29 173 -79.5t118.5 -132.5t36.5 -183q-9 -113 -68.5 -205t-149.5 -147.5t-195.5 -84.5
t-214.5 -27q-202 3 -341.5 102t-206.5 288l220 80q78 -260 334 -266q62 -1 124.5 13.5t118.5 44t95.5 80t48.5 114.5q21 142 -163 195l-236 66q-157 47 -250.5 155.5t-81.5 263.5q9 109 66 198t143.5 144t189 83.5t207.5 26.5q182 -4 303.5 -98.5t172.5 -268.5z" />
    <glyph glyph-name="Scircumflex" unicode="&#x15c;" horiz-adv-x="1778" 
d="M994 2305l-197 -4v22l419 373h132l293 -374v-22l-181 4l-185 239zM1507 1519q-9 161 -107.5 247.5t-263.5 90.5q-87 2 -171 -19.5t-156.5 -64t-124 -112.5t-66.5 -158q-10 -56 3 -104t39.5 -80.5t70.5 -61t85.5 -46t95.5 -34.5l190 -58q505 -156 458 -551
q-18 -147 -95.5 -265.5t-192.5 -191.5t-252 -111t-281 -36q-134 2 -246.5 39t-196.5 106t-131 176.5t-47 243.5h248q-1 -85 28.5 -150.5t83.5 -106t123.5 -61.5t152.5 -23q94 -2 186 21t173 68t138.5 121.5t73.5 171.5q27 162 -124 253q-61 36 -182 76l-228 74
q-96 32 -172 77.5t-135.5 108.5t-86.5 149t-16 187q12 110 63 206t127.5 164.5t172.5 117.5t201.5 72t212.5 21q258 -5 419.5 -154.5t160.5 -402.5h-231z" />
    <glyph glyph-name="scircumflex" unicode="&#x15d;" horiz-adv-x="1452" 
d="M702 1793l-198 -4l1 22l418 373h133l293 -374l-1 -22l-181 4l-185 239zM1334 1189l-208 -59q-34 109 -99.5 165.5t-177.5 59.5q-79 2 -155.5 -22.5t-137.5 -81t-73 -135.5q-13 -87 45.5 -145t151.5 -86l210 -58q99 -29 173 -79.5t118.5 -132.5t36.5 -183
q-9 -113 -68.5 -205t-149.5 -147.5t-195.5 -84.5t-214.5 -27q-202 3 -341.5 102t-206.5 288l220 80q78 -260 334 -266q62 -1 124.5 13.5t118.5 44t95.5 80t48.5 114.5q21 142 -163 195l-236 66q-157 47 -250.5 155.5t-81.5 263.5q9 109 66 198t143.5 144t189 83.5
t207.5 26.5q182 -4 303.5 -98.5t172.5 -268.5z" />
    <glyph glyph-name="Scedilla" unicode="&#x15e;" horiz-adv-x="1780" 
d="M637 -36h90q-178 5 -312.5 68t-215 191t-80.5 306h248q-1 -85 28.5 -150.5t83.5 -106t123.5 -61.5t152.5 -23q94 -2 186 21t173 68t138.5 121.5t73.5 171.5q27 162 -124 253q-61 36 -182 76l-228 74q-96 32 -172 77.5t-135.5 108.5t-86.5 149t-16 187q12 110 63 206
t127.5 164.5t172.5 117.5t201.5 72t212.5 21q258 -5 419.5 -154.5t160.5 -402.5h-231q-9 161 -107.5 247.5t-263.5 90.5q-87 2 -171 -19.5t-156.5 -64t-124 -112.5t-66.5 -158q-10 -56 3 -104t39.5 -80.5t70.5 -61t85.5 -46t95.5 -34.5l190 -58q505 -156 458 -551
q-14 -114 -64.5 -212t-126 -167.5t-171.5 -120t-201.5 -76t-215.5 -28.5h44l-32 -76q82 -18 123.5 -77.5t38.5 -145.5q-3 -69 -32.5 -123t-74.5 -86.5t-106.5 -54.5t-119.5 -31t-123 -11l5 161q217 2 243 136q16 84 -80 107q-21 4 -96 12z" />
    <glyph glyph-name="scedilla" unicode="&#x15f;" horiz-adv-x="1452" 
d="M1334 1189l-208 -59q-34 109 -99.5 165.5t-177.5 59.5q-79 2 -155.5 -22.5t-137.5 -81t-73 -135.5q-13 -87 45.5 -145t151.5 -86l210 -58q99 -29 173 -79.5t118.5 -132.5t36.5 -183q-8 -100 -55.5 -183.5t-121 -139t-162 -90t-185.5 -46.5l-20 -49q82 -18 123 -77.5
t38 -145.5q-3 -69 -32.5 -123t-74.5 -86.5t-106.5 -54.5t-119.5 -31t-122 -11l5 161q216 2 242 136q16 84 -79 106q-21 5 -96 13l55 162q-169 22 -287.5 119.5t-177.5 265.5l220 80q78 -260 334 -266q62 -1 124.5 13.5t118.5 44t95.5 80t48.5 114.5q21 142 -163 195l-236 66
q-157 47 -250.5 155.5t-81.5 263.5q9 109 66 198t143.5 144t189 83.5t207.5 26.5q182 -4 303.5 -98.5t172.5 -268.5z" />
    <glyph glyph-name="Scaron" unicode="&#x160;" horiz-adv-x="1779" 
d="M1037 2628l181 -239l287 238l195 4l-1 -22l-422 -373h-132l-290 374l1 22zM1507 1519q-9 161 -107.5 247.5t-263.5 90.5q-87 2 -171 -19.5t-156.5 -64t-124 -112.5t-66.5 -158q-10 -56 3 -104t39.5 -80.5t70.5 -61t85.5 -46t95.5 -34.5l190 -58q505 -156 458 -551
q-18 -147 -95.5 -265.5t-192.5 -191.5t-252 -111t-281 -36q-134 2 -246.5 39t-196.5 106t-131 176.5t-47 243.5h248q-1 -85 28.5 -150.5t83.5 -106t123.5 -61.5t152.5 -23q94 -2 186 21t173 68t138.5 121.5t73.5 171.5q27 162 -124 253q-61 36 -182 76l-228 74
q-96 32 -172 77.5t-135.5 108.5t-86.5 149t-16 187q12 110 63 206t127.5 164.5t172.5 117.5t201.5 72t212.5 21q258 -5 419.5 -154.5t160.5 -402.5h-231z" />
    <glyph glyph-name="scaron" unicode="&#x161;" horiz-adv-x="1452" 
d="M744 2116l181 -239l287 238l195 4l-1 -22l-422 -373h-132l-290 374l1 22zM1334 1189l-208 -59q-34 109 -99.5 165.5t-177.5 59.5q-79 2 -155.5 -22.5t-137.5 -81t-73 -135.5q-13 -87 45.5 -145t151.5 -86l210 -58q99 -29 173 -79.5t118.5 -132.5t36.5 -183
q-9 -113 -68.5 -205t-149.5 -147.5t-195.5 -84.5t-214.5 -27q-202 3 -341.5 102t-206.5 288l220 80q78 -260 334 -266q62 -1 124.5 13.5t118.5 44t95.5 80t48.5 114.5q21 142 -163 195l-236 66q-157 47 -250.5 155.5t-81.5 263.5q9 109 66 198t143.5 144t189 83.5
t207.5 26.5q182 -4 303.5 -98.5t172.5 -268.5z" />
    <glyph glyph-name="Tcommaaccent" unicode="&#x162;" horiz-adv-x="1800" 
d="M659 0h-37l379 1828h-625l46 220h1492l-47 -220h-624l-379 -1828h-16l-31 -76q81 -18 122.5 -77.5t38.5 -145.5q-3 -69 -32.5 -123t-74.5 -86.5t-106.5 -54.5t-119.5 -31t-122 -11l5 161q216 2 242 136q16 84 -80 107q-21 4 -96 12z" />
    <glyph glyph-name="tcommaaccent" unicode="&#x163;" horiz-adv-x="991" 
d="M351 0h111q-117 38 -179 140.5t-47 235.5l189 940h-225l46 220h225l68 328h231l-69 -328h319l-46 -220h-318l-177 -877q-8 -44 -5.5 -84.5t14.5 -72t44 -51t81 -20.5q40 -1 103 10l21 -216q-66 -25 -164 -23q-13 0 -39 2l-25 -60q81 -18 122.5 -77.5t38.5 -145.5
q-3 -69 -32.5 -123t-74.5 -86.5t-106.5 -54.5t-119.5 -31t-122 -11l5 161q216 2 242 136q16 84 -80 107q-21 4 -96 12z" />
    <glyph glyph-name="Tcaron" unicode="&#x164;" horiz-adv-x="1800" 
d="M1053 2628l181 -239l287 238l195 4l-1 -22l-422 -373h-132l-290 374l1 22zM1914 2048l-47 -220h-624l-379 -1828h-242l379 1828h-625l46 220h1492z" />
    <glyph glyph-name="tcaron" unicode="&#x165;" horiz-adv-x="1031" 
d="M1315 2332l-24 -123q-66 -321 -258 -560l-198 40q5 11 31 61l33.5 65l30 60t31.5 66.5l26 61.5t26.5 68t20.5 64t19 69l28 128h234zM1020 1536l-46 -220h-318l-177 -877q-8 -44 -5.5 -84.5t14.5 -72t44 -51t81 -20.5q40 -1 103 10l21 -216q-66 -25 -164 -23
q-164 3 -259.5 116.5t-77.5 277.5l189 940h-225l46 220h225l68 328h231l-69 -328h319z" />
    <glyph glyph-name="Tbar" unicode="&#x166;" horiz-adv-x="1800" 
d="M1393 1336l-39 -184h-251l-239 -1152h-242l239 1152h-362l38 184h362l102 492h-625l46 220h1492l-47 -220h-624l-102 -492h252z" />
    <glyph glyph-name="tbar" unicode="&#x167;" horiz-adv-x="992" 
d="M876 1036l-39 -184h-274l-83 -413q-8 -44 -5.5 -84.5t14.5 -72t44 -51t81 -20.5q40 -1 103 10l21 -216q-66 -25 -164 -23q-164 3 -259.5 116.5t-77.5 277.5l96 476h-351l39 184h349l56 280h-225l46 220h225l68 328h231l-69 -328h319l-46 -220h-318l-57 -280h276z" />
    <glyph glyph-name="Utilde" unicode="&#x168;" horiz-adv-x="2081" 
d="M1719 2611l166 -12q-5 -70 -28.5 -131.5t-62.5 -110.5t-99 -76.5t-133 -26.5q-45 1 -92.5 22t-81.5 45.5t-80 45t-89 20.5q-62 -1 -102 -45t-54 -109l-179 7q7 69 32 131.5t65.5 112.5t101.5 79t133 27q44 -1 91 -22t81.5 -46t81 -45t89.5 -20q62 1 104 45.5t56 108.5z
M1836 2048h243l-280 -1355q-40 -217 -171 -385.5t-324 -259t-414 -87.5q-154 3 -283.5 59t-215.5 151.5t-123.5 231t-13.5 289.5l279 1356h242l-279 -1357q-37 -214 79 -352t334 -143q154 -4 290 55.5t231.5 175t125.5 265.5z" />
    <glyph glyph-name="utilde" unicode="&#x169;" horiz-adv-x="1628" 
d="M1341 2100l168 -12q-8 -96 -46 -173.5t-112 -126.5t-171 -47q-45 1 -92 22.5t-80.5 46t-79.5 45t-89 20.5q-63 0 -104.5 -44.5t-56.5 -109.5l-179 7q10 94 50.5 172.5t116 129.5t171.5 49q44 -1 91 -22.5t81 -46.5t80.5 -45.5t89.5 -20.5q64 1 106 46t56 110zM1148 607
l190 929h231l-319 -1536h-231l54 218l-10 -1q-94 -116 -217.5 -178.5t-266.5 -58.5q-75 2 -137.5 27.5t-105.5 68t-75.5 98.5t-46.5 120t-19.5 132t6.5 134l198 976h231l-199 -977q-22 -145 38 -245.5t202 -106.5q177 -8 310.5 108t166.5 292z" />
    <glyph glyph-name="Umacron" unicode="&#x16a;" horiz-adv-x="2081" 
d="M1875 2528l-36 -204h-913l36 204h913zM1836 2048h243l-280 -1355q-40 -217 -171 -385.5t-324 -259t-414 -87.5q-154 3 -283.5 59t-215.5 151.5t-123.5 231t-13.5 289.5l279 1356h242l-279 -1357q-37 -214 79 -352t334 -143q154 -4 290 55.5t231.5 175t125.5 265.5z" />
    <glyph glyph-name="umacron" unicode="&#x16b;" horiz-adv-x="1627" 
d="M1545 2016l-36 -204h-914l36 204h914zM1143 607l189 929h231l-319 -1536h-231l54 218l-10 -1q-94 -116 -217.5 -179.5t-265.5 -58.5q-75 2 -138 27.5t-106 68t-75.5 99t-46.5 120t-19.5 132t6.5 134.5l198 976h231l-199 -977q-22 -145 38 -245t202 -106q178 -8 311 107
t167 292z" />
    <glyph glyph-name="Ubreve" unicode="&#x16c;" horiz-adv-x="2081" 
d="M1602 2584l212 1q-13 -173 -138.5 -273.5t-302.5 -95.5q-166 4 -265 104.5t-94 264.5l214 -1q-5 -87 32 -140.5t122 -56.5q90 -2 148 52t72 145zM1836 2048h243l-280 -1355q-40 -217 -171 -385.5t-324 -259t-414 -87.5q-154 3 -283.5 59t-215.5 151.5t-123.5 231
t-13.5 289.5l279 1356h242l-279 -1357q-37 -214 79 -352t334 -143q154 -4 290 55.5t231.5 175t125.5 265.5z" />
    <glyph glyph-name="ubreve" unicode="&#x16d;" horiz-adv-x="1627" 
d="M1271 2072l212 1q-8 -115 -70 -201t-158 -128.5t-212 -39.5q-166 4 -265.5 104.5t-94.5 264.5l215 -1q-6 -87 31 -140.5t122 -56.5q90 -2 148 52t72 145zM1143 607l189 929h231l-319 -1536h-231l54 218l-10 -1q-94 -116 -217.5 -179.5t-265.5 -58.5q-75 2 -138 27.5
t-106 68t-75.5 99t-46.5 120t-19.5 132t6.5 134.5l198 976h231l-199 -977q-22 -145 38 -245t202 -106q178 -8 311 107t167 292z" />
    <glyph glyph-name="Uring" unicode="&#x16e;" horiz-adv-x="2080" 
d="M1081 2566q9 153 127 260.5t271 102.5q138 -4 224.5 -104t77.5 -239q-10 -151 -124.5 -253t-267.5 -98q-138 4 -227.5 98.5t-80.5 232.5zM1248 2566q-10 -71 32 -124.5t113 -54.5q81 -1 147 58.5t77 140.5q10 73 -30.5 129.5t-113.5 57.5q-82 1 -147.5 -61.5
t-77.5 -145.5zM1836 2048h243l-280 -1355q-40 -217 -171 -385.5t-324 -259t-414 -87.5q-154 3 -283.5 59t-215.5 151.5t-123.5 231t-13.5 289.5l279 1356h242l-279 -1357q-37 -214 79 -352t334 -143q154 -4 290 55.5t231.5 175t125.5 265.5z" />
    <glyph glyph-name="uring" unicode="&#x16f;" horiz-adv-x="1628" 
d="M751 2054q6 100 62.5 185t146 133t189.5 45q138 -4 224.5 -104t77.5 -239q-10 -151 -124.5 -253t-267.5 -98q-138 4 -227.5 98.5t-80.5 232.5zM918 2054q-9 -71 32.5 -124.5t112.5 -54.5q82 -1 147.5 58.5t76.5 140.5q11 73 -29.5 129.5t-113.5 57.5q-83 1 -148.5 -61.5
t-77.5 -145.5zM1144 607l189 929h231l-319 -1536h-231l54 218l-10 -1q-94 -116 -217.5 -179.5t-265.5 -58.5q-75 2 -138 27.5t-106 68t-75.5 99t-46.5 120t-19.5 132t6.5 134.5l198 976h231l-199 -977q-22 -145 38 -245t202 -106q178 -8 311 107t167 292z" />
    <glyph glyph-name="Uhungarumlaut" unicode="&#x170;" horiz-adv-x="2081" 
d="M1005 2216l306 424h271l-375 -424h-202zM1403 2216l387 424h278l-441 -424h-224zM1836 2048h243l-280 -1355q-40 -217 -171 -385.5t-324 -259t-414 -87.5q-154 3 -283.5 59t-215.5 151.5t-123.5 231t-13.5 289.5l279 1356h242l-279 -1357q-37 -214 79 -352t334 -143
q154 -4 290 55.5t231.5 175t125.5 265.5z" />
    <glyph glyph-name="uhungarumlaut" unicode="&#x171;" horiz-adv-x="1628" 
d="M674 1704l306 424h271l-375 -424h-202zM1072 1704l387 424h279l-442 -424h-224zM1143 607l189 929h231l-319 -1536h-231l54 218l-10 -1q-94 -116 -217.5 -179.5t-265.5 -58.5q-75 2 -138 27.5t-106 68t-75.5 99t-46.5 120t-19.5 132t6.5 134.5l198 976h231l-199 -977
q-22 -145 38 -245t202 -106q178 -8 311 107t167 292z" />
    <glyph glyph-name="Uogonek" unicode="&#x172;" horiz-adv-x="2079" 
d="M1835 2048h243l-280 -1355q-35 -191 -142.5 -346t-265.5 -252t-346 -124q-135 -109 -151 -220q-12 -86 74 -87q59 0 135 36l1 -178q-89 -59 -216 -57q-111 1 -176 72.5t-60 182.5q7 137 124 251q-269 42 -417.5 241.5t-104.5 479.5l279 1356h242l-279 -1357
q-37 -214 79 -352t334 -143q154 -4 290 55.5t231.5 175t125.5 265.5z" />
    <glyph glyph-name="uogonek" unicode="&#x173;" horiz-adv-x="1628" 
d="M1017 85l15 -13l36 146l-10 -1q-94 -116 -217.5 -179.5t-265.5 -58.5q-75 2 -138 27.5t-106 68t-75.5 99t-46.5 120t-19.5 132t6.5 134.5l198 976h231l-199 -977q-22 -145 38 -245t202 -106q178 -8 311 107t167 292l189 929h231l-319 -1536h-128l5 -4q-118 -82 -160 -121
q-99 -92 -113 -188q-12 -86 74 -87q59 0 135 36v-178q-88 -59 -215 -57q-111 1 -176 72.5t-60 182.5q13 255 410 429z" />
    <glyph glyph-name="Wcircumflex" unicode="&#x174;" horiz-adv-x="2664" 
d="M1385 2305l-198 -4l1 22l418 373h133l293 -374l-1 -22l-181 4l-184 239zM534 2049l129 -1670h21l713 1669h273l131 -1669h18l707 1669h254l-899 -2048h-250l-152 1633h-14l-725 -1633h-249l-188 2048z" />
    <glyph glyph-name="wcircumflex" unicode="&#x175;" horiz-adv-x="2280" 
d="M1145 1793l-198 -4l1 22l418 373h133l293 -374l-1 -22l-181 4l-185 239zM2317 1536l-773 -1536h-227l-77 1182h-22l-574 -1182h-227l-135 1536h232l74 -1178h15l566 1178h246l66 -1174h17l567 1174h252z" />
    <glyph glyph-name="Ycircumflex" unicode="&#x176;" horiz-adv-x="1872" 
d="M1047 2305l-197 -4v22l419 373h132l293 -374v-22l-181 4l-185 239zM629 2049l354 -957l22 -1l752 957h295l-979 -1219l-172 -829h-242l178 860l-466 1187z" />
    <glyph glyph-name="ycircumflex" unicode="&#x177;" horiz-adv-x="1560" 
d="M782 1793l-198 -4l1 22l418 373h133l293 -374l-1 -22l-181 4l-185 239zM429 -154l87 161l-231 1529h238l153 -1225l17 -1l667 1226h261l-1006 -1785q-184 -355 -501 -348q-102 2 -178 31l86 204q142 -38 238 16t169 192z" />
    <glyph glyph-name="Ydieresis" unicode="&#x178;" horiz-adv-x="1871" 
d="M1002 2267q-61 -1 -106.5 46.5t-46.5 108.5q-2 66 44.5 116t112.5 51q65 1 109 -44.5t44 -110.5q1 -66 -45 -116t-112 -51zM1553 2267q-61 -1 -106.5 46.5t-46.5 108.5q-2 66 44.5 116t112.5 51q65 1 109 -44.5t44 -110.5q1 -66 -45 -116t-112 -51zM628 2049l354 -957
l22 -1l752 957h295l-979 -1219l-172 -829h-242l178 860l-466 1187z" />
    <glyph glyph-name="Zacute" unicode="&#x179;" horiz-adv-x="1751" 
d="M1072 2232l304 408h254l-370 -408h-188zM1457 220l-46 -220h-1371l40 194l1405 1632l-1078 2l46 220h1371l-40 -195l-1406 -1631z" />
    <glyph glyph-name="zacute" unicode="&#x17a;" horiz-adv-x="1514" 
d="M846 1720l304 408h255l-370 -408h-189zM1236 220l-46 -220h-1154l44 214l1060 1100l-847 2l46 220h1150l-42 -202l-1060 -1112z" />
    <glyph glyph-name="Zdotaccent" unicode="&#x17b;" horiz-adv-x="1751" 
d="M1088 2422q-1 70 41 116.5t111 47.5q68 1 110.5 -41.5t43.5 -110.5t-43 -111t-112 -45q-66 -2 -108 38t-43 106zM1457 220l-46 -220h-1371l40 194l1405 1632l-1078 2l46 220h1371l-40 -195l-1406 -1631z" />
    <glyph glyph-name="zdotaccent" unicode="&#x17c;" horiz-adv-x="1515" 
d="M863 1910q-1 70 41 116.5t111 47.5q68 1 111 -41.5t43 -110.5q1 -68 -42.5 -111t-112.5 -45q-66 -2 -108 38t-43 106zM1237 220l-46 -220h-1154l44 214l1060 1100l-847 2l46 220h1150l-42 -202l-1060 -1112z" />
    <glyph glyph-name="Zcaron" unicode="&#x17d;" horiz-adv-x="1751" 
d="M1029 2628l181 -239l287 238l195 4l-1 -22l-422 -373h-132l-290 374l1 22zM1457 220l-46 -220h-1371l40 194l1405 1632l-1078 2l46 220h1371l-40 -195l-1406 -1631z" />
    <glyph glyph-name="zcaron" unicode="&#x17e;" horiz-adv-x="1514" 
d="M803 2116l181 -239l287 238l195 4l-1 -22l-422 -373h-132l-290 374l1 22zM1236 220l-46 -220h-1154l44 214l1060 1100l-847 2l46 220h1150l-42 -202l-1060 -1112z" />
    <glyph glyph-name="longs" unicode="&#x17f;" horiz-adv-x="745" 
d="M179 0h-269l337 1639q39 231 180 369t369 134q74 -1 199 -30l-57 -203q-57 15 -115 15q-125 2 -203.5 -76.5t-103.5 -206.5z" />
    <glyph glyph-name="bbar" unicode="&#x180;" horiz-adv-x="1722" 
d="M520 2048h231l-28 -128h409l-39 -184h-407l-101 -446h16q69 88 131.5 143t150.5 90.5t193 34.5q90 -1 166 -26.5t130.5 -69t96 -103t66 -128.5t36.5 -146.5t11 -156t-13 -157.5q-18 -121 -60 -237t-110.5 -220.5t-156 -182t-204 -122t-245.5 -40.5q-288 8 -389 268l-30 1
l-56 -238h-223l360 1736h-217l38 184h217zM1339 776q11 64 13.5 126.5t-4.5 127t-29 119t-57 98.5t-93 70t-132 28q-96 3 -180 -29.5t-145 -89t-109 -134t-77 -161t-44 -172.5q-13 -78 -15 -152t12.5 -152.5t47 -137t96 -97.5t152.5 -42q96 -3 180.5 30.5t147 92t112 138
t79.5 164t45 173.5z" />
    <glyph glyph-name="Bhook" unicode="&#x181;" horiz-adv-x="2124" 
d="M1139 0h-736l379 1828l-109 3q-110 -1 -165.5 -67.5t-76.5 -183.5l-14 -76h-226l24 136q30 186 155.5 298t312.5 112l822 -3q252 -6 396 -147t118 -388q-19 -179 -124.5 -289t-283.5 -146l-10 -28q84 -3 148.5 -54t97.5 -127t46.5 -158.5t5.5 -157.5q-13 -115 -61.5 -209
t-121 -157.5t-167 -106t-197 -61.5t-213.5 -18zM1024 1828l-141 -680l430 -1q175 0 310.5 99.5t163.5 268.5q16 99 -18 170t-105 105t-170 37zM1669 553q13 80 -6 150t-63 119t-110.5 77.5t-146.5 31.5l-505 1l-147 -712l460 -1q90 0 171.5 17t155.5 54.5t125 104.5t66 158z
" />
    <glyph glyph-name="Btopbar" unicode="&#x182;" horiz-adv-x="1848" 
d="M1737 2048l-46 -220h-958l-133 -640l486 -1q133 -2 242 -41t185 -110t111 -180t19 -244q-18 -146 -86.5 -264t-172.5 -194t-234.5 -116t-274.5 -38h-763l424 2048h1201zM399 216l488 -2q188 -2 337.5 110.5t180.5 294.5q18 106 -23.5 185.5t-121.5 119.5t-185 43l-520 1z
" />
    <glyph glyph-name="btopbar" unicode="&#x183;" horiz-adv-x="1708" 
d="M505 2048h1151l-47 -220h-918l-120 -538h15q51 65 98 111t104.5 83.5t125.5 56t147 17.5q90 -1 166 -26.5t131 -69t96 -103t65.5 -128.5t36.5 -146.5t11.5 -156t-12.5 -157.5q-18 -122 -60 -237.5t-111 -220t-156 -182t-203.5 -122t-245.5 -40.5q-288 8 -390 268l-30 1
l-56 -238h-222zM1325 776q13 78 14.5 152.5t-14.5 150t-50.5 132.5t-99 94t-153.5 40q-95 3 -179 -29.5t-145 -89t-109 -134t-77.5 -161t-44.5 -172.5q-13 -78 -15 -152t12.5 -152.5t47 -137t96 -97.5t152.5 -42q96 -3 180.5 30.5t147 92t112 138t80 164t45.5 173.5z" />
    <glyph glyph-name="Tonesix" unicode="&#x184;" horiz-adv-x="2002" 
d="M322 2048h708l-179 -860l487 -1q132 -2 240.5 -40.5t185 -109.5t111.5 -180t19 -244q-18 -146 -86.5 -264t-172.5 -194t-234.5 -116.5t-274.5 -38.5h-763l379 1828h-466zM650 216l489 -2q188 -1 337 111t180 293q27 158 -69.5 251t-259.5 98l-521 1z" />
    <glyph glyph-name="tonesix" unicode="&#x185;" horiz-adv-x="1768" 
d="M615 2111l66 2l-15 -67l198 2l-165 -758h15q51 65 98 111t104.5 83.5t125.5 56t147 17.5q90 -1 166 -26.5t131 -69t96 -103t65.5 -128.5t36.5 -146.5t11.5 -156t-12.5 -157.5q-18 -122 -60 -237.5t-111 -220t-156 -182t-203.5 -122t-245.5 -40.5q-288 8 -390 268l-30 1
l-56 -238h-222l305 1441l-14 -1l-169 294l24 112zM1453 776q13 78 14.5 152.5t-14.5 150t-50.5 132.5t-99 94t-153.5 40q-95 3 -179 -29.5t-145 -89t-109 -134t-77 -161t-44 -172.5q-13 -78 -15 -152t12 -152t46.5 -137t96 -98t152.5 -42q96 -3 180.5 30.5t147 92t112 138
t80 164t45.5 173.5z" />
    <glyph glyph-name="Oopen" unicode="&#x186;" horiz-adv-x="2038" 
d="M325 1408q53 198 191 352.5t327 236.5t394 79q121 -2 224 -34.5t178.5 -89.5t133.5 -135t92.5 -169.5t52 -194.5t16.5 -209t-19 -214q-27 -164 -89 -318.5t-159 -290t-219 -236.5t-279.5 -158t-330.5 -55q-198 3 -348 89.5t-234 235t-102 345.5l238 -1q17 -197 140 -315
t321 -122q134 -3 255.5 42.5t214.5 125.5t167 187.5t121 227t69 245.5q16 93 18.5 184.5t-10 183.5t-47.5 170t-88.5 139.5t-138 97.5t-192.5 38q-218 5 -398 -114t-256 -322z" />
    <glyph glyph-name="Chook" unicode="&#x187;" horiz-adv-x="2162" 
d="M2002 1408l-233 -1q-20 198 -141.5 315.5t-319.5 121.5q-134 3 -256 -42.5t-214.5 -125.5t-166.5 -187.5t-121 -227t-69 -245.5q-16 -93 -18.5 -184.5t10 -183.5t47.5 -170t88.5 -139.5t138 -97.5t192.5 -38q218 -5 398 114t256 322l243 1q-53 -198 -191 -352.5
t-326.5 -236.5t-394.5 -79q-121 2 -224 34.5t-178.5 89t-133.5 134.5t-92.5 169.5t-52 194t-16.5 209t19 214.5q27 164 89 319t159 290.5t219 236.5t279.5 158t330.5 55q164 -2 311.5 -63.5t235.5 -182.5q145 249 409 249q83 0 143 -14l-25 -201q-37 10 -71 11
q-109 5 -181 -50t-92 -161z" />
    <glyph glyph-name="chook" unicode="&#x188;" horiz-adv-x="1711" 
d="M1495 1076l-220 -2q-20 123 -98 194.5t-201 75.5q-117 4 -219.5 -45.5t-173.5 -134.5t-117.5 -189t-64.5 -215q-13 -79 -13.5 -155t16.5 -153t52.5 -135.5t101 -96.5t155.5 -41q137 -4 247.5 68t165.5 199l233 2q-33 -147 -133 -259t-237 -168.5t-289 -53.5
q-108 2 -197 35t-150 89t-106 131.5t-64.5 163t-25 183t11.5 191.5q24 157 92 300.5t170.5 256t246.5 178t307 62.5q224 -3 363 -122q142 256 413 256q90 -2 143 -14l-26 -201q-37 10 -71 11q-108 5 -180 -50t-93 -161z" />
    <glyph glyph-name="Dbar1" unicode="&#x189;" horiz-adv-x="2111" 
d="M835 0h-631l189 912h-295l39 184h294l198 952h623q146 -2 267 -40.5t206 -106t146.5 -161.5t89.5 -206t34.5 -239t-18.5 -262q-30 -179 -96.5 -336.5t-169 -286t-233 -220t-295 -141.5t-348.5 -49zM992 1096l-39 -184h-318l-143 -692l339 -1q184 0 340.5 60t271.5 168
t192 257.5t109 329.5q19 105 19.5 201.5t-16.5 185.5t-58 161.5t-102.5 127t-153.5 85.5t-207 33h-401l-152 -732h319z" />
    <glyph glyph-name="Dhook" unicode="&#x18a;" horiz-adv-x="2332" 
d="M1050 0h-632l379 1828l-123 3q-110 -1 -165.5 -67t-77.5 -184l-14 -76h-226l24 136q31 186 156 298t312 111l783 -1q126 -1 233 -30t188 -80t143 -122.5t101 -159t59.5 -188t20 -210t-19.5 -225.5q-37 -224 -133 -413.5t-240 -328t-341.5 -215.5t-426.5 -76zM1440 1828
h-400l-334 -1608l339 -1q184 0 341 60t271.5 168.5t191.5 258t109 329.5q19 105 20 201t-16 185t-58.5 162t-103 127t-153.5 85t-207 33z" />
    <glyph glyph-name="Dtopbar" unicode="&#x18b;" horiz-adv-x="1766" 
d="M1435 0l-723 1q-135 4 -245 45t-186 115t-110 185.5t-16 249.5q15 117 63 215.5t120.5 169t165.5 119.5t199 73t221 24l482 -1l120 576h-920l49 232h1196zM1206 228l152 736l-450 2q-119 1 -217.5 -39.5t-166 -124.5t-86.5 -202q-26 -161 49 -263t237 -108z" />
    <glyph glyph-name="dtopbar" unicode="&#x18c;" horiz-adv-x="1707" 
d="M1327 0h-224l58 238h-18q-105 -134 -218.5 -204t-266.5 -68q-90 1 -165 27t-129.5 70t-95.5 104t-65 129.5t-36 147.5t-11 156t13 156q18 122 60.5 238t112 220t157 181t204 120.5t246.5 39.5q286 -9 390 -264l19 -1l117 538h-920l47 220h1150zM400 760
q-13 -78 -14.5 -153t14 -153t49.5 -136.5t98.5 -97.5t153.5 -42q96 -3 180 31t145.5 92.5t110 137.5t78 163.5t43.5 173.5q13 78 15 151.5t-13 150t-48 133t-96.5 94t-152.5 40.5q-118 4 -218.5 -46t-168.5 -136t-112.5 -188.5t-63.5 -214.5z" />
    <glyph glyph-name="deltaturn" unicode="&#x18d;" horiz-adv-x="1510" 
d="M963 -516h-948l45 212l589 -1q-10 28 -24.5 54.5t-40 57.5l-38 46t-48.5 52l-42 43q-389 415 -333 805l4 29q19 119 63.5 228.5t114.5 203t158.5 162t201.5 106t238 34.5q100 -2 184 -31.5t143.5 -79.5t104 -118.5t65 -149t27.5 -169.5t-8 -181l-4 -29
q-30 -184 -135 -325.5t-256.5 -223t-336.5 -106.5q-25 -4 -57 -4q44 -71 107.5 -148.5l138 -162t117.5 -141.5zM1145 763l4 28q11 70 12.5 135t-12 133t-43 118.5t-86 83.5t-135.5 36q-104 4 -192 -40t-147 -120.5t-97.5 -166t-56.5 -189.5l-5 -27q-22 -134 10.5 -256.5
t126.5 -206.5q53 -18 109 -19q104 -3 194 36t153 109t105 158t60 188z" />
    <glyph glyph-name="Eturn" unicode="&#x18e;" horiz-adv-x="1661" 
d="M57 0l47 220h957l144 692h-858l46 220h857l145 696h-975l47 220h1216l-425 -2048h-1201z" />
    <glyph glyph-name="Schwa" unicode="&#x18f;" horiz-adv-x="2024" 
d="M870 -29q-131 2 -239 38t-182 98t-127 147.5t-75.5 187.5t-26.5 216t20 234l34 172l1327 -1q20 89 24 175t-8.5 168t-47 151.5t-87 122.5t-132.5 83.5t-181 31.5q-228 4 -499 -104l-43 211q163 134 555 129q119 -1 221.5 -28.5t180 -77t139.5 -119t99 -153.5t59.5 -180.5
t20.5 -201.5t-19 -215l-22 -115q-27 -146 -85.5 -286t-149 -265.5t-202.5 -219t-255.5 -147.5t-298.5 -52zM888 203q108 -2 203.5 36t165.5 99t131 150t101.5 175t75.5 187l-1052 -1l-11 -47q-18 -95 -20 -182t24 -162t72.5 -130.5t125.5 -88.5t184 -36z" />
    <glyph glyph-name="Epsilon1" unicode="&#x190;" horiz-adv-x="1766" 
d="M951 1137l235 -1l-48 -228l-201 1q-77 0 -145 -11.5t-130.5 -38.5t-109.5 -68t-80 -103t-44 -141q-13 -88 8.5 -155.5t72 -108.5t119 -62t154.5 -23q113 -2 215.5 38.5t177 124t91.5 195.5l276 1q-12 -114 -61.5 -211t-125 -165.5t-171.5 -117t-202.5 -71t-216.5 -21.5
q-111 2 -208.5 23.5t-180 67.5t-138.5 112.5t-81.5 163t-12.5 213.5q39 345 435 480q-116 69 -171.5 177.5t-41.5 241.5q12 118 62 216t126 166t173.5 114.5t205 67t221.5 18.5q124 -3 230 -41.5t183.5 -107.5t118.5 -173.5t34 -230.5h-276q12 145 -74 231t-234 91
q-87 2 -168 -18t-149.5 -61t-115.5 -109.5t-61 -156.5q-25 -158 60 -236.5t249 -82.5z" />
    <glyph glyph-name="Fhook" unicode="&#x191;" horiz-adv-x="1636" 
d="M1413 1136l-46 -220h-822l-220 -1080q-31 -188 -155 -301.5t-312 -112.5q-86 0 -142 13l26 205q43 -11 72 -12q108 -5 178.5 50.5t90.5 161.5l455 2208h1192l-46 -220h-950l-144 -692h823z" />
    <glyph glyph-name="florin" unicode="&#x192;" horiz-adv-x="1081" 
d="M1037 1488l-36 -204h-271l-241 -1408q-30 -219 -154 -350t-337 -129q-79 1 -162 23l44 216q53 -18 131 -20q51 0 93.5 22.5t70.5 61t45.5 83t25.5 93.5l242 1408h-241l35 204h241l23 152q12 81 37 154.5t67 138t96.5 111t128.5 73t159 25.5q125 -2 237 -39l-82 -214
q-53 17 -107 18q-123 2 -198.5 -70.5t-94.5 -196.5l-24 -152h272z" />
    <glyph glyph-name="Ghook" unicode="&#x193;" horiz-adv-x="2168" 
d="M1942 1016l-44 -218q-34 -178 -120 -331t-210 -263.5t-288.5 -172t-347.5 -59.5q-122 1 -225.5 33.5t-180 89t-135 134t-93.5 169t-53 194.5t-17 209.5t19 215.5q27 163 88 317t157.5 290t217.5 237.5t277.5 159t328.5 55.5q171 -2 320.5 -72t235.5 -204
q69 121 167.5 180t236.5 59q83 0 143 -14l-26 -201q-37 10 -70 11q-109 5 -181 -50t-92 -161l-43 -216l-235 -2q-42 196 -160.5 315t-310.5 123q-133 3 -253.5 -43t-212.5 -126t-165.5 -188t-119.5 -227t-68 -244q-14 -80 -18 -159.5t4 -159.5t29 -151t59.5 -133.5
t91.5 -108t129.5 -72.5t170.5 -29q134 -3 254 42t210.5 126.5t156 190t102.5 235.5l-494 -1l46 220h719z" />
    <glyph glyph-name="Gamma1" unicode="&#x194;" horiz-adv-x="1767" 
d="M330 2048h248l280 -1394l867 1394h275l-1073 -1706q12 -64 47 -187.5t54 -227t10 -191.5q-16 -162 -127 -251t-276 -85q-152 3 -242 88t-76 233q7 76 52.5 171t93 163l121.5 166.5t101 138.5zM577 -284q-7 -42 17.5 -68.5t67.5 -26.5q49 0 91 31.5t54 79.5q6 36 7 63.5
t-6.5 67.5t-14.5 68.5l-17 67t-14 62.5q-11 -18 -50.5 -76.5t-60 -91.5t-44 -84t-30.5 -93z" />
    <glyph glyph-name="hv" unicode="&#x195;" horiz-adv-x="2566" 
d="M501 929l-191 -929h-230l425 2048h230l-160 -730l11 1q92 114 216.5 176.5t266.5 60.5q79 -1 144 -25t108.5 -65t75 -96.5t44 -119.5t16 -134t-8.5 -140l-68 -369q-6 -59 -8 -118t13 -113.5t41 -97t76 -69.5t117 -30q93 -4 171 29.5t131.5 94.5t89 138t50.5 166l188 929
h231l-191 -928q-25 -141 -79.5 -256.5t-138 -202.5t-202.5 -133.5t-264 -43.5q-111 2 -197.5 35.5t-141.5 91.5t-88.5 137.5t-38.5 173t9 198.5l70 369q15 95 -3.5 171t-78.5 126.5t-158 54.5q-179 8 -310.5 -106.5t-166.5 -293.5z" />
    <glyph glyph-name="Iota1" unicode="&#x196;" horiz-adv-x="998" 
d="M740 2112l-335 -1643q-10 -49 -5 -97.5t20 -87t53.5 -63.5t94.5 -26q46 -1 120 14l8 -211q-107 -26 -186 -25q-140 3 -233 72t-127 179t-15 248l336 1640h269z" />
    <glyph glyph-name="Istroke" unicode="&#x197;" horiz-adv-x="792" 
d="M935 1192l-39 -184h-294l-209 -1008h-243l210 1008h-319l39 184h318l177 856h243l-178 -856h295z" />
    <glyph glyph-name="Khook" unicode="&#x198;" horiz-adv-x="1884" 
d="M1301 0l-491 951l-322 -298l-135 -653h-242l425 2048h242l-219 -1018h18l877 811l94 89q123 118 263.5 136.5t283.5 -74.5l-119 -179q-38 26 -76.5 32.5t-75.5 -6t-69 -33.5t-67 -53l-51 -48l-657 -594l597 -1111h-276z" />
    <glyph glyph-name="khook" unicode="&#x199;" horiz-adv-x="1490" 
d="M1021 0l-375 706l-233 -211l-103 -495h-230l341 1664q30 187 150.5 301t305.5 113q88 0 145 -13l-26 -201q-37 10 -70 11q-109 5 -181 -50t-93 -161l-175 -822h15l748 694h316l-737 -669l463 -867h-261z" />
    <glyph glyph-name="lbar" unicode="&#x19a;" horiz-adv-x="833" 
d="M955 1192l-39 -184h-318l-209 -1008h-231l210 1008h-308l39 184h306l178 856h231l-178 -856h319z" />
    <glyph glyph-name="lambdabar" unicode="&#x19b;" horiz-adv-x="1768" 
d="M739 2086q109 -1 185.5 -47t100.5 -144l170 63l-47 -242l-75 -26l229 -1367q11 -50 30 -77.5t61 -30.5l53 -1l-21 -223q-41 -14 -98 -14q-128 1 -193.5 70.5t-94.5 205.5l-139 786l-579 -1039h-309l821 1424l-31 163l-370 -133l52 244l269 97q-13 36 -36 52.5t-62 18.5
q-22 1 -68 -3l27 210q58 15 125 13z" />
    <glyph glyph-name="mcapturn" unicode="&#x19c;" horiz-adv-x="2534" 
d="M1865 0l39 164q-170 -198 -441 -192q-141 3 -242 70.5t-127 198.5q-206 -279 -514 -272q-89 2 -157 29t-110 74t-68 106.5t-34 133t-5.5 145.5t15.5 151l286 1396h269l-284 -1397q-5 -36 -8.5 -65.5t-5 -73t1.5 -77t13.5 -70t28.5 -61t49 -41.5t72 -19q145 -7 270.5 77
t166.5 223q6 20 11.5 58.5t7.5 49.5l289 1396h265l-284 -1398q-60 -396 155 -406q146 -7 267 76t166 223l312 1505h265l-416 -2004h-253z" />
    <glyph glyph-name="Nhook" unicode="&#x19d;" horiz-adv-x="2072" 
d="M2075 2048l-425 -2048h-225l-710 1604l-22 1l-369 -1769q-31 -188 -155.5 -301.5t-312.5 -112.5q-85 0 -141 13l26 205q43 -11 72 -12q108 -5 178.5 50.5t90.5 161.5l455 2208h224l713 -1612l22 -1l340 1613h239z" />
    <glyph glyph-name="nlegrightlong" unicode="&#x19e;" horiz-adv-x="1611" 
d="M484 908l-187 -908h-230l319 1536h231l-64 -262l11 1q86 136 211 210.5t280 70.5q79 -2 144 -26t108.5 -64.5t75.5 -95.5t45 -119t16.5 -134t-9.5 -141l-318 -1552h-231l316 1537q13 67 3.5 131.5t-35 116t-78.5 84.5t-127 36q-89 4 -171.5 -29.5t-144.5 -92t-105 -136.5
t-60 -163z" />
    <glyph glyph-name="Obar" unicode="&#x19f;" horiz-adv-x="2135" 
d="M1995 1030q-23 -136 -70.5 -267t-116.5 -250t-163 -218.5t-203.5 -172.5t-243.5 -112.5t-279 -37.5q-121 2 -224 34.5t-178.5 89t-133.5 134.5t-92.5 169.5t-52 194.5t-16.5 209t19 214q27 164 89 319t159 290.5t219 236.5t279.5 158t330.5 55q121 -2 224 -34.5
t178 -89.5t133 -135t92.5 -169.5t52 -194.5t16.5 -209t-19 -214zM1303 1844q-123 3 -234 -35t-195.5 -103t-158 -158t-125 -191t-93.5 -212q119 29 258.5 32.5t259 -11t259 -29t260 -20.5t261.5 13q10 104 -1 204t-47 191.5t-94 161.5t-148 112.5t-202 44.5zM934 204
q124 -3 235 35t195.5 103.5t158 158.5t125 192t93.5 213q-120 -30 -259 -33.5t-259 10.5t-259.5 28.5t-260 22t-261.5 -11.5q-11 -104 0 -204.5t47 -192.5t94 -162t148 -113t203 -46z" />
    <glyph glyph-name="Ohorn" unicode="&#x1a0;" horiz-adv-x="2170" 
d="M1997 1030q-28 -165 -89 -319t-157.5 -290t-217 -236.5t-278 -158t-331.5 -54.5q-121 2 -224 34.5t-178.5 89t-133.5 134.5t-92.5 169.5t-52 194.5t-16.5 209t19 214q27 164 89 319t159 290.5t219 236.5t279.5 158t330.5 55q162 -2 305.5 -63t241.5 -180q248 51 296 363
l228 1q-23 -205 -125 -344.5t-291 -191.5q71 -336 19 -631zM1765 1032q14 79 18 157.5t-3.5 158.5t-27.5 151t-58 134t-90 108.5t-127.5 73t-168.5 29.5q-134 3 -255.5 -42.5t-214.5 -125.5t-167 -187.5t-121 -227t-69 -245.5q-16 -93 -18.5 -184.5t10 -183.5t47.5 -170
t88 -139t138 -97t192 -38q134 -3 256 42.5t214.5 125.5t166.5 187.5t121 227t69 245.5z" />
    <glyph glyph-name="ohorn" unicode="&#x1a1;" horiz-adv-x="1691" 
d="M699 -32q-92 2 -170 26t-136 66t-104 99.5t-73 125.5t-43.5 145t-15 158t11.5 164q24 160 91.5 304.5t170 258t247.5 179t311 62.5q138 -2 256 -57t195 -161q49 20 83.5 52t54.5 76.5t30.5 86t18.5 99.5l212 1q-19 -175 -93.5 -294t-226.5 -171q29 -219 -2 -422
q-20 -127 -66.5 -244.5t-119.5 -219.5t-165.5 -177.5t-213 -117.5t-253.5 -39zM713 179q119 -4 221 46t172 136t116 190t66 217q14 79 14.5 155t-17 152.5t-53 134t-101.5 95t-156 40.5q-96 3 -182 -30t-150 -90.5t-114.5 -135.5t-82 -162.5t-47.5 -174.5
q-14 -79 -14.5 -155t17 -151.5t53.5 -132.5t102 -94t156 -40z" />
    <glyph glyph-name="OI" unicode="&#x1a2;" horiz-adv-x="2279" 
d="M2376 2004l-534 -2576h-270l477 2297l-203 -70l-280 -1383q-57 -84 -143 -145t-186 -94t-200 -48t-205 -14q-114 1 -210.5 30t-167.5 80t-125 121.5t-87 154.5t-49 179t-14.5 194.5t19.5 201.5l26 140q29 154 86.5 294.5t146.5 263t200.5 212t256.5 140.5t307 49
q383 -4 545 -176l387 149h223zM1206 1803q-119 2 -223.5 -39t-182 -111.5t-139 -166.5t-100.5 -199.5t-60 -214.5l-26 -141q-13 -71 -18.5 -140t-1.5 -141.5t19 -136t46 -120.5t75.5 -98.5t111.5 -66.5t151 -27q262 -8 446 143l281 1314q-25 45 -68.5 75.5t-101 44.5
t-103.5 19t-106 6z" />
    <glyph glyph-name="oi" unicode="&#x1a3;" horiz-adv-x="1766" 
d="M1810 1488l-427 -2060h-266l352 1694l-182 -97l-165 -838q-93 -104 -224.5 -161t-271.5 -54q-88 2 -164 24.5t-132.5 62t-101 93t-71 118t-42.5 137.5t-14.5 150.5t12.5 158.5l10 56q21 121 66 231.5t115 205.5t158 164t202.5 107t241.5 36q117 -2 220.5 -42.5
t172.5 -122.5l285 137h226zM640 193q93 -2 212 58l213 983q-66 62 -173 65q-87 3 -162 -26.5t-129 -80t-97 -120.5t-69 -144.5t-41 -155.5l-10 -57q-9 -57 -12 -112t0.5 -115.5t21.5 -111t47.5 -92t80.5 -66t118 -25.5z" />
    <glyph glyph-name="Phook" unicode="&#x1a4;" horiz-adv-x="2074" 
d="M1241 739l-443 1l-154 -740h-242l379 1828l-108 3q-110 -1 -166 -67.5t-77 -183.5l-14 -76h-226l24 136q30 186 155.5 298t312.5 112l791 -3q291 -5 441 -178.5t110 -461.5q-43 -308 -256.5 -488.5t-526.5 -179.5zM1023 1828l-180 -868l410 -2q218 -1 358 118.5
t174 333.5q31 194 -48.5 303t-274.5 114z" />
    <glyph glyph-name="phook" unicode="&#x1a5;" horiz-adv-x="1708" 
d="M-30 -577l422 2113q35 169 152.5 268t290.5 99q83 0 144 -14l-26 -201q-37 10 -71 11q-108 5 -179.5 -50t-93.5 -160l-46 -199h23q70 89 132 144t150.5 90.5t193.5 33.5q90 -1 165.5 -26.5t130 -69t96 -103.5t66 -129t36.5 -146.5t11.5 -155.5t-12.5 -157
q-18 -122 -60 -237.5t-111 -220t-156 -182t-203.5 -122t-245.5 -40.5q-288 8 -390 268l-22 1l-176 -814zM1325 776q11 65 13 127t-4.5 127t-29 119t-57.5 98t-92.5 70t-132.5 28q-95 3 -179 -29.5t-145 -89t-109 -133.5t-77 -160.5t-44 -172.5q-11 -64 -13.5 -126
t2.5 -128.5t26 -122.5t54.5 -102t90.5 -73t132 -29q96 -3 180.5 30.5t147 92t112 137.5t80 163.5t45.5 173.5z" />
    <glyph glyph-name="YR" unicode="&#x1a6;" horiz-adv-x="2022" 
d="M1304 -496l-401 1304h-437l-167 -808h-281l444 2144h282l-30 -140l350 -1q141 -2 254.5 -41t192 -111.5t113 -185.5t16.5 -257q-25 -197 -150 -335.5t-320 -206.5l429 -1344l-1 -21zM666 1772l-153 -736l352 -1q122 -1 225.5 40.5t178 128t94.5 206.5q28 172 -54.5 264.5
t-257.5 96.5z" />
    <glyph glyph-name="Tonetwo" unicode="&#x1a7;" horiz-adv-x="1766" 
d="M413 500q-12 -77 9 -135.5t69 -93t109 -52t135 -19.5q96 -3 185 20t163.5 69.5t125.5 122.5t67 172l275 1q-15 -145 -95 -265t-198 -195t-258 -115t-281 -38q-98 2 -188 22.5t-168.5 63.5t-133.5 104t-81.5 149t-14.5 193q9 81 38.5 152t70.5 126t99.5 103.5t118.5 83.5
t135 67t141 53.5t144 42.5q197 53 288 96q212 99 240 265q13 76 -5.5 135.5t-63 96t-105 55.5t-133.5 21q-191 5 -328 -94.5t-164 -282.5l-279 -1q11 113 61.5 212t128 171.5t175.5 124.5t206 77.5t217 23.5q121 -2 228.5 -39t189.5 -103.5t124 -171t28 -230.5
q-9 -77 -38.5 -145t-71 -120t-101 -99t-118.5 -80t-133.5 -64t-136.5 -51t-137 -41q-196 -54 -281 -93q-221 -100 -256 -283z" />
    <glyph glyph-name="tonetwo" unicode="&#x1a8;" horiz-adv-x="1511" 
d="M383 387q-8 -52 10.5 -91.5t56.5 -61t81.5 -32t92.5 -12.5q143 -4 249.5 69t138.5 208l267 2q-10 -119 -74 -217t-159.5 -158.5t-209 -92.5t-228.5 -30q-100 2 -190.5 30.5t-162 81t-109.5 138t-29 190.5q5 63 28.5 118t56 95.5t81.5 75.5t96 58.5t109 45t111.5 34
t112.5 26.5q11 2 47.5 10l53.5 12l52.5 13t54.5 17l48.5 21t46.5 28t36 34t29.5 42.5t15.5 51.5q16 98 -50.5 151t-169.5 55q-120 2 -218.5 -67.5t-118.5 -183.5l-268 -1q8 91 47.5 169t100.5 133.5t138.5 94t163 56.5t172.5 16q95 -2 181.5 -31.5t154.5 -82.5t105 -135.5
t29 -181.5q-6 -72 -34.5 -132.5t-77 -104.5t-102 -77t-125 -57.5t-128.5 -39.5t-129 -30l-69 -14.5t-68.5 -18t-70 -24.5t-61 -32t-54.5 -42.5t-38 -55t-23 -70.5z" />
    <glyph glyph-name="Esh" unicode="&#x1a9;" horiz-adv-x="1767" 
d="M1171 1014l-3 -31l-733 -749l1015 -2l-49 -232h-1367l46 221l796 789l-468 796l42 198h1305l-48 -232h-970z" />
    <glyph glyph-name="eshlooprev" unicode="&#x1aa;" horiz-adv-x="1511" 
d="M371 1666q13 131 86.5 242.5t191.5 176t250 60.5q121 -4 213.5 -71t135 -173t26.5 -225l-355 -1758q-6 -38 -8 -65.5t1.5 -64t15 -59.5t37.5 -40t66 -18q35 -1 89 10l-26 -218q-63 -23 -149 -21q-66 1 -119 21t-86.5 54t-57 79.5t-31.5 98.5t-10 110.5t8 114.5l282 1332
q-93 -43 -185 -42q-119 1 -210 67t-134 169.5t-31 219.5zM777 1458q99 -3 166.5 63.5t80.5 167.5q11 88 -27.5 148.5t-124.5 63.5q-100 3 -169 -64t-82 -168q-13 -89 27 -149t129 -62z" />
    <glyph glyph-name="tpalatalhook" unicode="&#x1ab;" horiz-adv-x="1000" 
d="M1026 1536l-46 -220h-318l-177 -877q-7 -60 -4 -110.5t37 -83.5t98 -35q27 0 40 1l127 24l-78 -399q-29 -187 -151 -301t-308 -114q-82 0 -143 14l26 201q41 -11 71 -12q109 -4 180 50.5t94 160.5l35 152q-139 30 -211.5 138t-55.5 251l189 940h-225l46 220h225l68 328
h231l-69 -328h319z" />
    <glyph glyph-name="Thook" unicode="&#x1ac;" horiz-adv-x="1768" 
d="M1920 2048l-47 -220h-624l-379 -1828h-242l379 1828l-322 3q-100 -1 -160.5 -64t-81.5 -167l-15 -76h-218l21 120q30 187 154 296.5t313 108.5z" />
    <glyph glyph-name="thook" unicode="&#x1ad;" horiz-adv-x="1001" 
d="M1062 1488l-42 -204h-264l-176 -874q-29 -200 94 -203q29 -1 121 13l-28 -220q-56 -29 -193 -27q-58 2 -104.5 21.5t-76 51.5t-50.5 74.5t-28.5 90.5t-9.5 99.5t6 101.5l176 872h-261l43 204h260l47 248q30 186 161.5 300.5t319.5 110.5q54 -1 141 -22l-22 -185
q-38 13 -72 16q-106 5 -172 -54t-86 -166l-48 -248h264z" />
    <glyph glyph-name="Trthook" unicode="&#x1ae;" horiz-adv-x="1800" 
d="M1919 2048l-47 -220h-624l-409 -1994q-28 -183 172 -189l91 -1l-46 -220l-115 2q-170 6 -266.5 121t-76.5 285l408 1996h-625l46 220h1492z" />
    <glyph glyph-name="Uhorn" unicode="&#x1af;" horiz-adv-x="2396" 
d="M1839 2048h243l-65 -271q141 35 210.5 135.5t92.5 259.5l224 1q-30 -257 -167 -412.5t-385 -180.5l-190 -888q-40 -217 -170.5 -385t-323 -258t-414.5 -87q-154 3 -284 58.5t-216 150.5t-124 230.5t-13 290.5l279 1356h242l-279 -1357q-37 -215 79 -353t334 -143
q154 -3 290.5 56.5t231.5 175t125 265.5z" />
    <glyph glyph-name="uhorn" unicode="&#x1b0;" horiz-adv-x="1744" 
d="M1148 607l190 929h230l-49 -229q53 6 91.5 24.5t61.5 42t39.5 63t24 75.5t15.5 92l199 1q-22 -219 -130.5 -332.5t-323.5 -125.5l-246 -1147h-231l54 218l-10 -1q-95 -116 -218 -178.5t-266 -58.5q-75 2 -137.5 27.5t-105.5 68t-75.5 98.5t-46.5 119.5t-19.5 132
t6.5 134.5l198 976h231l-199 -977q-23 -145 37.5 -245t203.5 -106q177 -8 309.5 107.5t166.5 291.5z" />
    <glyph glyph-name="Upsilon2" unicode="&#x1b1;" horiz-adv-x="1767" 
d="M476 1004l-31 -162q-11 -62 -15.5 -121t-2 -123.5t14 -120t37 -106.5t63 -87.5t95 -59t130.5 -24.5q106 -3 198 32.5t158.5 97.5t119 148t85 176.5t51.5 189.5l30 161q121 686 -229 762l42 237h669l-49 -232l-283 -1q197 -396 131 -767l-30 -156q-26 -138 -79 -266
t-134.5 -241t-183.5 -196.5t-234.5 -130.5t-278.5 -44q-101 2 -188 29t-151.5 74.5t-116.5 112t-82.5 141t-49 162.5t-16.5 176t15 182l30 156q46 232 162 434t294 339l-285 -4l49 232h657l-42 -235q-102 -18 -187 -75.5t-142.5 -132t-103.5 -174.5t-72 -190.5t-45 -192.5z
" />
    <glyph glyph-name="Vcursive" unicode="&#x1b2;" horiz-adv-x="1767" 
d="M747 -29q-303 5 -466.5 191t-117.5 486l278 1356h277l-278 -1357q-21 -129 4.5 -226.5t106.5 -158t213 -64.5q211 -5 353 117.5t182 332.5l181 906q17 110 -16.5 173t-138.5 67q-40 1 -90 -7l26 222q74 22 147 22q131 -1 218.5 -70t119.5 -175.5t15 -233.5l-181 -904
q-37 -204 -154.5 -359.5t-294 -238t-384.5 -79.5z" />
    <glyph glyph-name="Yhook" unicode="&#x1b3;" horiz-adv-x="1980" 
d="M633 2049l354 -957l22 -1l537 684l53 71q73 99 159 156t190 69t216 -40l-87 -198q-151 68 -274 -92l-57 -77l-669 -835l-172 -829h-242l178 860l-466 1187z" />
    <glyph glyph-name="yhook" unicode="&#x1b4;" horiz-adv-x="1707" 
d="M414 -138l81 138l-207 1536h238l149 -1185l563 1037l30 57l48.5 90.5t53.5 88.5t62.5 87.5t69.5 73.5t81 61.5t91.5 37t106.5 13.5q137 -3 261 -100l-81 -161q-87 53 -155 57q-32 1 -62.5 -8t-53.5 -21t-49 -39.5t-40 -44t-37 -56t-30.5 -54l-29.5 -58.5l-25 -50l-29 -57
l-836 -1534q-86 -170 -226 -274t-317 -100q-83 3 -185 23l29 220q25 -8 107 -10q137 -4 232.5 52.5t159.5 179.5z" />
    <glyph glyph-name="Zbar" unicode="&#x1b5;" horiz-adv-x="1751" 
d="M1462 220l-46 -220h-1371l40 195l620 715l-221 2l41 184h333l633 730l-1079 2l46 220h1371l-40 -194l-654 -756l246 -2l-41 -184h-358l-599 -690z" />
    <glyph glyph-name="zbar" unicode="&#x1b6;" horiz-adv-x="1514" 
d="M1241 220l-46 -220h-1154l44 214l446 460l-208 2l41 184l339 1l442 453l-847 2l46 220h1150l-42 -202l-454 -472l222 -2l-41 -184l-350 -1l-437 -453z" />
    <glyph glyph-name="Ezh" unicode="&#x1b7;" horiz-adv-x="1767" 
d="M-7 93h279q4 -84 14.5 -145t34.5 -118t63 -92.5t101.5 -58t147.5 -24.5q134 -3 243.5 37t185.5 117.5t124.5 183t68.5 236.5q13 97 13.5 182t-22.5 155t-67 120.5t-120.5 79t-182.5 30.5h-317l46 221l816 753l-1025 2l49 232h1356l-45 -217l-843 -775q178 3 310 -56
t206 -166t100 -250.5t1 -313.5q-27 -183 -103.5 -332t-192.5 -253t-274.5 -159t-343.5 -52q-302 5 -458 181t-165 482z" />
    <glyph glyph-name="Ezhreversed" unicode="&#x1b8;" horiz-adv-x="2023" 
d="M1344 91l274 2q-62 -306 -296 -487t-549 -177q-236 2 -389.5 102t-211 274t-23.5 406q58 387 304.5 592.5t639.5 213.5l-510 796l41 191h1351l-48 -232h-1038l512 -781l-41 -195l-279 1q-281 1 -443.5 -149.5t-206.5 -433.5q-12 -92 -14 -174.5t19.5 -152t62 -120.5
t114.5 -81t176 -32q220 -5 354 107t201 330z" />
    <glyph glyph-name="ezhreversed" unicode="&#x1b9;" horiz-adv-x="1768" 
d="M467 1488h1162l-46 -220h-830l363 -626l-43 -202l-181 1q-216 2 -354.5 -100t-168.5 -310q-22 -157 61.5 -255t242.5 -103q162 -4 288.5 101.5t152.5 265.5l263 1q-14 -135 -78.5 -247.5t-162 -186.5t-221.5 -113.5t-259 -37.5q-131 2 -240 42.5t-185 113.5t-112 182.5
t-20 243.5q14 114 57 209.5t108 165t151.5 120t185.5 79t211 37.5l-378 685z" />
    <glyph glyph-name="ezhtail" unicode="&#x1ba;" horiz-adv-x="1511" 
d="M226 -185q-7 -43 4.5 -77.5t35.5 -55.5t59 -35.5t70.5 -21t74.5 -7.5q144 -4 249.5 67t138.5 206l263 2q-10 -118 -74 -215t-159 -157t-208 -91.5t-226 -29.5q-101 2 -191.5 29.5t-162.5 79.5t-110 137t-29 191q6 64 30.5 119.5t59 96t85.5 75.5t100 58t114 44t114.5 33
t113.5 25q148 30 207 55q136 57 156 178q7 39 -4.5 68.5t-32.5 46t-54.5 26.5t-63 13t-66.5 4l-251 1l38 183l594 403l-774 2l46 220h1162l-38 -180l-564 -434q131 -38 208.5 -133t67.5 -227q-5 -65 -28.5 -120.5t-56.5 -96t-84 -75t-98 -57t-112.5 -43.5t-113.5 -32.5
t-113 -25.5q-40 -8 -66 -14t-67 -18t-68.5 -24t-60.5 -31.5t-54 -41.5t-38 -53t-23 -67z" />
    <glyph glyph-name="twostroke" unicode="&#x1bb;" horiz-adv-x="1671" 
d="M1388 220l-46 -220h-1336l40 192l833 718l-205 2l42 184l364 -1q57 53 92 88.5t80.5 89.5t73 110t38.5 115q19 101 -12.5 186t-106 136t-177.5 54q-98 3 -179 -34.5t-135.5 -105t-88.5 -150t-48 -176.5l-235 -1q15 139 73 262.5t148.5 215t216 143.5t267.5 49
q121 -2 223.5 -45.5t172.5 -118t102.5 -181t15.5 -228.5q-26 -196 -230 -412l199 4l-39 -184h-318l-132 -116l-665 -559l-8 -22z" />
    <glyph glyph-name="Tonefive" unicode="&#x1bc;" horiz-adv-x="1672" 
d="M512 950l-237 54l258 808h-197l49 236h1275l-50 -236h-827l-223 -634l4 1q169 123 365 121q139 -1 248.5 -53t175.5 -140t93.5 -206.5t9.5 -253.5q-42 -305 -264 -493t-530 -182q-244 4 -375 149t-134 392h231q9 -150 85 -238t222 -92q130 -4 246.5 58t192 169.5
t95.5 235.5q9 68 5 130.5t-28 116.5t-61 93.5t-95 63t-130 25.5q-223 6 -404 -125z" />
    <glyph glyph-name="tonefive" unicode="&#x1bd;" horiz-adv-x="1510" 
d="M529 650l-243 20l187 582h-219l49 236h1154l-49 -236h-676l-119 -326q119 82 286 85q225 5 339 -139t87 -369q-30 -254 -213 -393.5t-445 -134.5q-99 2 -188.5 33t-158 86t-107 140t-33.5 187l259 24q-7 -115 61 -179t186 -67q147 -5 249.5 78.5t123.5 228.5
q18 127 -41 205.5t-186 81.5q-183 4 -303 -143z" />
    <glyph glyph-name="glottalstopbarinv" unicode="&#x1be;" horiz-adv-x="1511" 
d="M1005 406q9 51 -6.5 99.5t-47.5 88t-72.5 79.5l-81.5 83t-73.5 89t-49 105.5t-8.5 125.5l37 208h-260l42 204h260l74 356h270l-75 -356h265l-43 -204h-264l-39 -202q-10 -61 5 -113.5t46.5 -92t71.5 -76.5l80.5 -75t74 -79t52 -96.5t13.5 -119.5q-9 -114 -69 -205.5
t-151 -146t-198 -82.5t-216 -25q-112 2 -209 36.5t-168.5 96.5t-110 156t-33.5 209h270q-6 -129 66 -201.5t203 -75.5q56 -1 110.5 10.5t104.5 35.5t85 67.5t45 100.5z" />
    <glyph glyph-name="wynn" unicode="&#x1bf;" horiz-adv-x="1767" 
d="M1503 729q-20 -122 -68 -229.5t-112.5 -191t-153.5 -156.5t-180.5 -127t-204.5 -101.5t-215.5 -81t-222.5 -64.5l-80 -350h-269l427 2060l245 1l-30 -156q178 189 439 183q100 -2 178.5 -36t128 -91.5t82 -130t44.5 -158.5t11 -170.5t-14 -171.5zM979 1289
q-202 7 -365 -193l-239 -1104q105 32 192 66t182 80.5t170 104t140.5 128.5t110 162.5t63.5 197.5l5 27q11 70 13.5 136.5t-9.5 139t-40.5 126.5t-85.5 90t-137 39z" />
    <glyph glyph-name="pipe" unicode="&#x1c0;" horiz-adv-x="740" 
d="M767 2048l-425 -2048h-215l425 2048h215z" />
    <glyph glyph-name="pipedbl" unicode="&#x1c1;" horiz-adv-x="1000" 
d="M693 2048l-425 -2048h-215l425 2048h215zM1054 2048l-425 -2048h-215l425 2048h215z" />
    <glyph glyph-name="pipedblbar" unicode="&#x1c2;" horiz-adv-x="1145" 
d="M1022 788l-39 -184h-317l-126 -604h-215l126 604h-323l39 184h321l105 504h-322l38 184h322l119 572h215l-119 -572h319l-39 -184h-318l-105 -504h319z" />
    <glyph glyph-name="exclam1" unicode="&#x1c3;" horiz-adv-x="743" 
d="M791 2048l-325 -1472h-227l286 1472h266zM259 -35q-76 0 -127.5 55t-51.5 132q1 82 57 143.5t137 61.5q75 1 126.5 -55.5t51.5 -131.5q0 -82 -56 -143t-137 -62z" />
    <glyph glyph-name="Dzcaron_" unicode="&#x1c5;" horiz-adv-x="3359" 
d="M2586 2048l181 -239l287 238l195 4l-1 -22l-422 -373h-132l-290 374l1 22zM742 0h-631l424 2048h624q147 -2 268 -40.5t205.5 -106t146 -161t89 -205.5t33.5 -239.5t-19 -263.5q-37 -225 -133 -414t-239.5 -327t-341 -215t-426.5 -76zM1132 1828h-400l-333 -1608l339 -1
q185 0 341.5 59.5t270 167.5t190 257t108.5 330q19 106 20.5 202t-14.5 185.5t-56.5 162t-102 127t-154 85.5t-209.5 33zM3030 220l-47 -220h-1154l45 214l1060 1100l-847 2l46 220h1150l-42 -202l-1061 -1112z" />
    <glyph glyph-name="dzcaron" unicode="&#x1c6;" horiz-adv-x="2970" 
d="M2214 2048l181 -239l287 238l194 4v-22l-422 -373h-133l-289 374l1 22zM1327 0h-224l58 238h-18q-106 -135 -218.5 -205t-265.5 -67q-90 1 -166 27t-130 69.5t-95.5 104t-65.5 129.5t-36 147t-11 156t13 157q18 122 61 238t112 220t157 181t205 120.5t247 39.5
q285 -9 389 -264l19 -1l163 758h231zM2653 220l-46 -220h-1154l45 214l1059 1100l-847 2l47 220h1150l-43 -202l-1060 -1112zM399 759q-13 -77 -14.5 -152.5t14 -153t49.5 -136.5t98.5 -97.5t153.5 -41.5q96 -3 180.5 30.5t146 92t110.5 138t78 164t44 173.5
q13 78 14.5 151.5t-13.5 150t-48 133t-96.5 94t-152.5 40.5q-118 4 -218.5 -46t-169 -136t-113 -189t-63.5 -215z" />
    <glyph glyph-name="LJ" unicode="&#x1c7;" horiz-adv-x="3256" 
d="M1574 220l-47 -220h-1165l425 2048h242l-380 -1828h925zM2754 583l299 1465h243l-302 -1464q-25 -137 -83 -250t-144.5 -195.5t-206 -126.5t-260.5 -41q-235 5 -368.5 156.5t-116.5 385.5l234 -1q-12 -141 64 -227.5t218 -93.5q172 -7 282 104t141 288z" />
    <glyph glyph-name="Lj" unicode="&#x1c8;" horiz-adv-x="2498" 
d="M2424 1755q-68 -1 -113.5 43t-46.5 111q-1 69 47.5 118t116.5 50q65 1 112 -44t48 -110q1 -70 -46 -118.5t-118 -49.5zM1574 220l-47 -220h-1165l425 2048h242l-380 -1828h925zM2234 1536h231l-338 -1647q-36 -221 -165 -345.5t-348 -125.5h-54l29 221l39 -2
q113 0 179.5 67.5t88.5 183.5z" />
    <glyph glyph-name="lj" unicode="&#x1c9;" horiz-adv-x="1582" 
d="M1508 1755q-68 -1 -113.5 43t-46.5 111q-1 69 47.5 118t116.5 50q65 1 112 -44t48 -110q1 -70 -46 -118.5t-118 -49.5zM986 2048l-425 -2048h-230l425 2048h230zM1318 1536h231l-338 -1647q-36 -221 -165 -345.5t-348 -125.5h-54l29 221l39 -2q113 0 179.5 67.5
t88.5 183.5z" />
    <glyph glyph-name="NJ" unicode="&#x1ca;" horiz-adv-x="3752" 
d="M2325 2048l-425 -2048h-225l-710 1604l-22 1l-339 -1605h-242l424 2048h225l713 -1612l22 -1l340 1613h239zM3250 583l299 1465h243l-302 -1464q-25 -137 -83 -250t-144.5 -195.5t-206 -126.5t-260.5 -41q-235 5 -368.5 156.5t-116.5 385.5l234 -1q-12 -141 64 -227.5
t218 -93.5q172 -7 282 104t141 288z" />
    <glyph glyph-name="Nj" unicode="&#x1cb;" horiz-adv-x="2994" 
d="M2920 1755q-68 -1 -113.5 43t-46.5 111q-1 69 47.5 118t116.5 50q65 1 112 -44t48 -110q1 -70 -46 -118.5t-118 -49.5zM2325 2048l-425 -2048h-225l-710 1604l-22 1l-339 -1605h-242l424 2048h225l713 -1612l22 -1l340 1613h239zM2730 1536h231l-338 -1647
q-36 -221 -165 -345.5t-348 -125.5h-54l29 221l39 -2q113 0 179.5 67.5t88.5 183.5z" />
    <glyph glyph-name="nj" unicode="&#x1cc;" horiz-adv-x="2550" 
d="M2476 1755q-68 -1 -113.5 43t-46.5 111q-1 69 47.5 118t116.5 50q65 1 112 -44t48 -110q1 -70 -46 -118.5t-118 -49.5zM747 908l-186 -908h-230l318 1536h232l-64 -262l11 1q85 136 210.5 210.5t280.5 70.5q94 -2 168 -35.5t118 -89.5t71.5 -130t30 -156.5t-7.5 -168.5
l-199 -976h-230l196 961q13 67 3.5 131.5t-35 116t-78.5 84.5t-127 36q-177 7 -312 -118t-170 -303zM2286 1536h231l-338 -1647q-36 -221 -165 -345.5t-348 -125.5h-54l29 221l39 -2q113 0 179.5 67.5t88.5 183.5z" />
    <glyph glyph-name="Acaron" unicode="&#x1cd;" horiz-adv-x="1896" 
d="M1102 2628l181 -239l287 238l195 4l-1 -22l-422 -373h-132l-290 374l1 22zM197 0h-266l1154 2048h250l305 -2048h-242l-74 548h-826zM1146 1726l-528 -958h677l-125 957z" />
    <glyph glyph-name="acaron" unicode="&#x1ce;" horiz-adv-x="1579" 
d="M847 2116l181 -239l287 238l195 4l-1 -22l-422 -373h-132l-290 374l1 22zM975 0l44 210h-7q-82 -122 -208.5 -186t-275.5 -61q-205 4 -328 132t-105 331q6 73 31 134t60.5 104.5t87 79t104.5 58.5t120 41t124.5 28t127.5 18q21 2 79 4t106 6t101.5 14t90 34.5t48.5 62.5
l-1 4q2 56 1.5 105t-14 90.5t-37 72t-68 48t-108.5 19.5q-136 3 -253.5 -58t-182.5 -174l-214 80q89 181 264 272t387 87q244 -4 364 -151t89 -393l-205 -1012h-222zM1083 556l56 218q-32 -30 -89 -48t-103 -23.5t-120.5 -10t-97.5 -7.5q-369 -39 -404 -271
q-18 -115 56 -176t195 -63q118 -3 224 43t182 134.5t101 203.5z" />
    <glyph glyph-name="Icaron" unicode="&#x1cf;" horiz-adv-x="736" 
d="M505 2628l181 -239l287 238l195 4l-1 -22l-422 -373h-132l-290 374l1 22zM773 2048l-425 -2048h-242l425 2048h242z" />
    <glyph glyph-name="icaron" unicode="&#x1d0;" horiz-adv-x="660" 
d="M388 2120l181 -239l287 238l195 4l-1 -22l-422 -373h-132l-290 374l1 22zM624 1536l-319 -1536h-230l318 1536h231z" />
    <glyph glyph-name="Ocaron" unicode="&#x1d1;" horiz-adv-x="2135" 
d="M1221 2628l181 -239l287 238l195 4l-1 -22l-422 -373h-132l-290 374l1 22zM1995 1031q-27 -164 -88.5 -319t-158.5 -290.5t-219 -236.5t-279.5 -158t-330.5 -55q-121 2 -224 34.5t-178.5 89t-133.5 134.5t-92.5 169.5t-52 194.5t-16.5 209t19 214q27 164 89 319
t159 290.5t219 236.5t279.5 158t330.5 55q121 -2 224 -34.5t178.5 -89t133 -134.5t92 -169.5t52 -194.5t16.5 -209t-19 -214zM1760 1032q14 79 18 157.5t-3.5 158.5t-27.5 151t-58 134t-90 108.5t-127.5 73t-168.5 29.5q-134 3 -255.5 -42.5t-214.5 -125.5t-167 -187.5
t-121 -227t-69 -245.5q-14 -79 -18 -157.5t3.5 -158.5t27.5 -151t58 -134t90 -108.5t127.5 -73t168.5 -29.5q134 -3 256 42.5t214.5 125.5t166.5 187.5t121 227t69 245.5z" />
    <glyph glyph-name="ocaron" unicode="&#x1d2;" horiz-adv-x="1672" 
d="M844 2116l181 -239l287 238l195 4l-1 -22l-422 -373h-132l-290 374l1 22zM713 -32q-91 1 -170.5 25t-138.5 66t-107.5 99.5t-77.5 126t-48 145.5t-20 158.5t8 165.5q16 126 59 244t114 220.5t162 178.5t210 118.5t251 40.5q107 -2 196.5 -34t152.5 -87.5t110.5 -130.5
t70 -162t31 -183t-6.5 -193q-20 -158 -84 -301.5t-163.5 -256t-242 -178t-306.5 -62.5zM725 180q95 -3 179 30t145.5 89.5t109.5 133.5t77 161t42 173q10 66 10 130.5t-10.5 129.5t-36 120.5t-64 99.5t-98.5 69.5t-136 27.5q-118 3 -217.5 -47.5t-166.5 -137t-110 -190
t-60 -216.5q-12 -63 -9.5 -130t11.5 -130t35.5 -119t64.5 -98.5t98.5 -68t135.5 -27.5z" />
    <glyph glyph-name="Ucaron" unicode="&#x1d3;" horiz-adv-x="2081" 
d="M1194 2628l181 -239l287 238l195 4l-1 -22l-422 -373h-132l-290 374l1 22zM1836 2048h243l-280 -1355q-40 -217 -171 -385.5t-324 -259t-414 -87.5q-154 3 -283.5 59t-215.5 151.5t-123.5 231t-13.5 289.5l279 1356h242l-279 -1357q-37 -214 79 -352t334 -143
q154 -4 290 55.5t231.5 175t125.5 265.5z" />
    <glyph glyph-name="ucaron" unicode="&#x1d4;" horiz-adv-x="1627" 
d="M863 2116l181 -239l287 238l195 4l-1 -22l-422 -373h-132l-290 374l1 22zM1143 607l189 929h231l-319 -1536h-231l54 218l-10 -1q-94 -116 -217.5 -179.5t-265.5 -58.5q-75 2 -138 27.5t-106 68t-75.5 99t-46.5 120t-19.5 132t6.5 134.5l198 976h231l-199 -977
q-22 -145 38 -245t202 -106q178 -8 311 107t167 292z" />
    <glyph glyph-name="Udieresismacron" unicode="&#x1d5;" horiz-adv-x="2081" 
d="M1996 2885l-44 -206h-912l43 206h913zM976 2410q-1 70 42 114t113 46q66 2 108.5 -39t43.5 -108q1 -68 -42.5 -112.5t-111.5 -46.5q-66 -2 -109 39t-44 107zM1600 2408q0 69 43 114t112 46q67 1 110 -40t44 -107q1 -69 -42.5 -113t-112.5 -46q-66 -2 -109.5 39t-44.5 107
zM1836 2048h243l-280 -1355q-40 -217 -171 -385.5t-324 -259t-414 -87.5q-154 3 -283.5 59t-215.5 151.5t-123.5 231t-13.5 289.5l279 1356h242l-279 -1357q-37 -214 79 -352t334 -143q154 -4 290 55.5t231.5 175t125.5 265.5z" />
    <glyph glyph-name="udieresismacron" unicode="&#x1d6;" horiz-adv-x="1628" 
d="M1681 2416l-43 -206h-914l43 206h914zM673 1892q0 69 42.5 113.5t111.5 45.5q67 2 110 -38.5t44 -107.5q1 -69 -42.5 -113t-112.5 -46q-66 -2 -109 39t-44 107zM1245 1889q-1 69 42 114t112 46q67 2 109.5 -39t43.5 -108q1 -69 -42 -114t-112 -46q-67 -2 -109.5 39
t-43.5 108zM1143 607l189 929h231l-319 -1536h-231l54 218l-10 -1q-94 -116 -217.5 -179.5t-265.5 -58.5q-75 2 -138 27.5t-106 68t-75.5 99t-46.5 120t-19.5 132t6.5 134.5l198 976h231l-199 -977q-22 -145 38 -245t202 -106q178 -8 311 107t167 292z" />
    <glyph glyph-name="Udieresisacute" unicode="&#x1d7;" horiz-adv-x="2081" 
d="M1346 2493l235 313l265 -1l-309 -312h-191zM1170 2245q-61 0 -106 46.5t-47 107.5q-1 67 45 118t112 52t109 -44t44 -111q1 -67 -44.5 -117.5t-112.5 -51.5zM1721 2245q-61 0 -106 46.5t-47 107.5q-1 67 45 118t112 52t109 -44t44 -111q1 -67 -45 -117.5t-112 -51.5z
M1836 2048h243l-280 -1355q-40 -217 -171 -385.5t-324 -259t-414 -87.5q-154 3 -283.5 59t-215.5 151.5t-123.5 231t-13.5 289.5l279 1356h242l-279 -1357q-37 -214 79 -352t334 -143q154 -4 290 55.5t231.5 175t125.5 265.5z" />
    <glyph glyph-name="udieresisacute" unicode="&#x1d8;" horiz-adv-x="1628" 
d="M1000 2122l343 407l345 -1l-454 -406h-234zM673 1892q0 69 42.5 113.5t111.5 45.5q67 2 110 -38.5t44 -107.5q1 -69 -42.5 -113t-112.5 -46q-66 -2 -109 39t-44 107zM1245 1889q-1 69 42 114t112 46q67 2 109.5 -39t43.5 -108q1 -69 -42 -114t-112 -46q-67 -2 -109.5 39
t-43.5 108zM1143 607l189 929h231l-319 -1536h-231l54 218l-10 -1q-94 -116 -217.5 -179.5t-265.5 -58.5q-75 2 -138 27.5t-106 68t-75.5 99t-46.5 120t-19.5 132t6.5 134.5l198 976h231l-199 -977q-22 -145 38 -245t202 -106q178 -8 311 107t167 292z" />
    <glyph glyph-name="Udieresiscaron" unicode="&#x1d9;" horiz-adv-x="2081" 
d="M1327 2874l158 -172l230 171l239 3l-1 -28l-393 -298h-161l-292 294l3 32zM976 2410q-1 70 42 114.5t112 45.5q67 2 109.5 -39t43.5 -108q1 -68 -42.5 -112.5t-111.5 -46.5q-66 -1 -109 39.5t-44 106.5zM1600 2408q0 69 43 114t112 46q67 1 110 -40t44 -107
q1 -69 -42.5 -113t-112.5 -46q-66 -2 -109.5 39t-44.5 107zM1836 2048h243l-280 -1355q-40 -217 -171 -385.5t-324 -259t-414 -87.5q-154 3 -283.5 59t-215.5 151.5t-123.5 231t-13.5 289.5l279 1356h242l-279 -1357q-37 -214 79 -352t334 -143q154 -4 290 55.5t231.5 175
t125.5 265.5z" />
    <glyph glyph-name="udieresiscaron" unicode="&#x1da;" horiz-adv-x="1628" 
d="M1034 2532l146 -228l243 227l237 4v-20l-410 -377h-161l-275 377l1 21zM673 1892q0 69 42.5 113.5t111.5 45.5q67 2 110 -38.5t44 -107.5q1 -69 -42.5 -113t-112.5 -46q-66 -2 -109 39t-44 107zM1245 1889q-1 69 42 114t112 46q67 2 109.5 -39t43.5 -108q1 -69 -42 -114
t-112 -46q-67 -2 -109.5 39t-43.5 108zM1143 607l189 929h231l-319 -1536h-231l54 218l-10 -1q-94 -116 -217.5 -179.5t-265.5 -58.5q-75 2 -138 27.5t-106 68t-75.5 99t-46.5 120t-19.5 132t6.5 134.5l198 976h231l-199 -977q-22 -145 38 -245t202 -106q178 -8 311 107
t167 292z" />
    <glyph glyph-name="Udieresisgrave" unicode="&#x1db;" horiz-adv-x="2081" 
d="M1445 2806l108 -312l-156 -1l-184 312zM976 2410q-1 69 42 114t112 46q67 2 109.5 -39t43.5 -108q1 -68 -42 -112t-112 -46q-66 -2 -109 38.5t-44 106.5zM1601 2408q-1 69 42 114t112 46q67 1 110 -40t44 -107q1 -69 -42.5 -113t-112.5 -46q-67 -2 -110 39t-43 107z
M1836 2048h243l-280 -1355q-40 -217 -171 -385.5t-324 -259t-414 -87.5q-154 3 -283.5 59t-215.5 151.5t-123.5 231t-13.5 289.5l279 1356h242l-279 -1357q-37 -214 79 -352t334 -143q154 -4 290 55.5t231.5 175t125.5 265.5z" />
    <glyph glyph-name="udieresisgrave" unicode="&#x1dc;" horiz-adv-x="1627" 
d="M1122 2529l177 -406l-210 -1l-274 405zM673 1892q0 69 42.5 114t111.5 46q67 1 110 -40t44 -107q1 -69 -42.5 -113t-112.5 -46q-66 -2 -109 39t-44 107zM1245 1889q-1 69 42 114.5t112 46.5q67 1 109.5 -40t43.5 -108q1 -69 -42.5 -113t-111.5 -46q-67 -2 -109.5 38.5
t-43.5 107.5zM1143 607l189 929h231l-319 -1536h-231l54 218l-10 -1q-94 -116 -217.5 -179.5t-265.5 -58.5q-75 2 -138 27.5t-106 68t-75.5 99t-46.5 120t-19.5 132t6.5 134.5l198 976h231l-199 -977q-22 -145 38 -245t202 -106q178 -8 311 107t167 292z" />
    <glyph glyph-name="eturn" unicode="&#x1dd;" horiz-adv-x="1510" 
d="M845 1519q88 -1 164 -23.5t133 -62t103 -93.5t73 -119t44 -138.5t16.5 -151.5t-10.5 -159l-9 -55q-19 -110 -63 -217.5t-113 -204t-155 -169.5t-195 -114.5t-226 -39.5q-114 2 -205 39t-147.5 99t-92 146.5t-40 182.5t10.5 205l33 172l936 -1q9 65 11.5 130.5t-15.5 128
t-48.5 112t-87 80t-131.5 33.5q-231 7 -437 -147l-81 186q94 96 238 140t294 41zM626 195q263 -10 437 402h-666l-9 -39q-16 -69 -7 -133t35 -114.5t80.5 -81.5t129.5 -34z" />
    <glyph glyph-name="Adieresismacron" unicode="&#x1de;" horiz-adv-x="1897" 
d="M1904 2885l-44 -206h-912l43 206h913zM884 2410q-1 70 42 114t113 46q66 2 108.5 -39t43.5 -108q1 -68 -42.5 -112.5t-111.5 -46.5q-66 -2 -109 39t-44 107zM1508 2408q0 69 43 114t112 46q67 1 110 -40t44 -107q1 -69 -42.5 -113t-112.5 -46q-66 -2 -109.5 39t-44.5 107
zM197 0h-266l1154 2048h250l305 -2048h-242l-74 548h-826zM1146 1726l-528 -958h677l-125 957z" />
    <glyph glyph-name="adieresismacron" unicode="&#x1df;" horiz-adv-x="1580" 
d="M1665 2416l-43 -206h-914l43 206h914zM657 1892q0 69 42.5 113.5t111.5 45.5q67 2 110 -38.5t44 -107.5q1 -69 -42.5 -113t-112.5 -46q-66 -2 -109 39t-44 107zM1229 1889q-1 69 42 114t112 46q67 2 109.5 -39t43.5 -108q1 -69 -42 -114t-112 -46q-67 -2 -109.5 39
t-43.5 108zM975 0l44 210h-7q-82 -122 -208.5 -186t-275.5 -61q-205 4 -328 132t-105 331q6 73 31 134t60.5 104.5t87 79t104.5 58.5t120 41t124.5 28t127.5 18q21 2 79 4t106 6t101.5 14t90 34.5t48.5 62.5l-1 4q2 56 1.5 105t-14 90.5t-37 72t-68 48t-108.5 19.5
q-136 3 -253.5 -58t-182.5 -174l-214 80q89 181 264 272t387 87q244 -4 364 -151t89 -393l-205 -1012h-222zM1083 556l56 218q-32 -30 -89 -48t-103 -23.5t-120.5 -10t-97.5 -7.5q-369 -39 -404 -271q-18 -115 56 -176t195 -63q118 -3 224 43t182 134.5t101 203.5z" />
    <glyph glyph-name="Adotmacron" unicode="&#x1e0;" horiz-adv-x="1897" 
d="M1904 2885l-44 -206h-912l43 206h913zM1195 2408q-1 69 42.5 113.5t112.5 45.5q66 2 109 -39t44 -107q1 -69 -42.5 -114t-112.5 -46q-66 -2 -109 39.5t-44 107.5zM197 0h-266l1154 2048h250l305 -2048h-242l-74 548h-826zM1146 1726l-528 -958h677l-125 957z" />
    <glyph glyph-name="adotmacron" unicode="&#x1e1;" horiz-adv-x="1579" 
d="M1664 2412l-43 -206h-914l44 206h913zM939 1889q-1 69 42 114t112 46q67 2 110 -39t44 -108q1 -69 -42.5 -113.5t-112.5 -46.5q-66 -2 -109 39.5t-44 107.5zM975 0l44 210h-7q-82 -122 -208.5 -186t-275.5 -61q-205 4 -328 132t-105 331q6 73 31 134t60.5 104.5t87 79
t104.5 58.5t120 41t124.5 28t127.5 18q21 2 79 4t106 6t101.5 14t90 34.5t48.5 62.5l-1 4q2 56 1.5 105t-14 90.5t-37 72t-68 48t-108.5 19.5q-136 3 -253.5 -58t-182.5 -174l-214 80q89 181 264 272t387 87q244 -4 364 -151t89 -393l-205 -1012h-222zM1083 556l56 218
q-32 -30 -89 -48t-103 -23.5t-120.5 -10t-97.5 -7.5q-369 -39 -404 -271q-18 -115 56 -176t195 -63q118 -3 224 43t182 134.5t101 203.5z" />
    <glyph glyph-name="AEmacron" unicode="&#x1e2;" horiz-adv-x="2840" 
d="M2307 2528l-36 -204h-913l36 204h913zM2526 220l-46 -220h-1169l93 552h-759l-422 -552h-306l1600 2048h1307l-47 -220h-923l-113 -676h788l-46 -220h-778l-120 -712h941zM805 770l635 -2l177 1056z" />
    <glyph glyph-name="aemacron" unicode="&#x1e3;" horiz-adv-x="2595" 
d="M2009 2016l-36 -204h-914l36 204h914zM297 1198q60 121 164 204t227 120t261 34q68 -2 134 -16.5t129 -43t107.5 -81t56.5 -121.5q224 269 539 263q90 -2 166 -25.5t131.5 -65t97.5 -98t67 -123.5t37.5 -143t12 -154.5t-13.5 -159.5l-14 -81l-1084 -85
q-15 -189 73.5 -313t272.5 -130q138 -4 248.5 58t171.5 182l219 -64q-48 -128 -152.5 -218t-232.5 -131t-266 -38q-120 2 -222 41.5t-178.5 122t-104.5 197.5l-8 1q-77 -171 -247 -271t-361 -96q-205 4 -328 132t-105 331q6 73 31 134t60.5 104.5t87 79t104.5 58.5t120 41
t124.5 28t127.5 18q21 2 79 4t106 6t101.5 14t90 34.5t48.5 62.5l-1 4q2 56 1.5 105t-14 90.5t-37.5 72t-68.5 48t-108.5 19.5q-135 4 -252 -57t-183 -175zM1902 1344q-90 3 -170 -25t-139 -77t-109.5 -119t-84 -143t-59.5 -157l857 68q12 68 11.5 132t-22.5 121t-58 100.5
t-94.5 70t-131.5 29.5zM1083 556l56 218q-32 -30 -89 -48t-103 -23.5t-120.5 -10t-97.5 -7.5q-369 -39 -404 -271q-18 -115 56 -176t195 -63q118 -3 224 43t182 134.5t101 203.5z" />
    <glyph glyph-name="Gbar" unicode="&#x1e4;" horiz-adv-x="2155" 
d="M1943 1016l-47 -219q-17 -84 -54 -168l223 3l-47 -220h-267q-148 -211 -358 -327.5t-460 -112.5q-122 2 -225.5 34t-180 88.5t-135 133.5t-94 168.5t-53.5 194.5t-17 210t19 216q27 163 88 317t157.5 290t217.5 237.5t278 159.5t329 56q149 -2 270 -54t204.5 -144.5
t138.5 -210.5t82 -263l-241 1q-39 195 -158.5 314t-311.5 124q-133 4 -254 -42t-212.5 -126.5t-165 -188.5t-120 -227t-68.5 -244q-16 -94 -18 -186t11 -184t49 -170t90.5 -139t140 -96.5t193.5 -37.5q267 -4 515 212l-365 -3l46 220l458 -3q29 60 64 162l6 17l-494 -8
l46 216h720z" />
    <glyph glyph-name="gbar" unicode="&#x1e5;" horiz-adv-x="1739" 
d="M1743 884l-38 -184h-233l-144 -712q-32 -184 -142 -314.5t-267 -192t-344 -57.5q-186 3 -331 79.5t-229 230.5l198 132q72 -112 159.5 -169t214.5 -61q190 -6 334.5 94.5t179.5 281.5l62 274h-14q-103 -132 -214.5 -199t-264.5 -65q-101 1 -184.5 32t-140.5 84
t-99.5 124.5t-60.5 153.5t-24 172t10 179q22 152 85 293t159.5 254t235.5 179t298 62q286 -9 390 -264h27l57 245h223l-136 -652h233zM403 771q-11 -64 -12 -125t7.5 -121.5t32 -111t60 -90t93 -63t129.5 -25.5q106 -4 194.5 32t153 104t110.5 149t80 181l-402 -1l39 184
l385 -1q10 87 -2 166t-46.5 145t-102 107t-159.5 44q-93 3 -177 -28.5t-146.5 -87t-111.5 -130.5t-80 -157.5t-45 -170.5z" />
    <glyph glyph-name="Gcaron" unicode="&#x1e6;" horiz-adv-x="2084" 
d="M1214 2628l181 -239l287 238l195 4l-1 -22l-422 -373h-132l-290 374l1 22zM1938 1016l-44 -218q-34 -178 -120 -330.5t-210 -263t-288.5 -172.5t-347.5 -60q-122 1 -225.5 33.5t-180 89t-135 134t-93.5 169t-53 194.5t-17 209.5t19 215.5q27 163 88 317t157.5 290
t218 238t278 160t328.5 55q120 -2 222 -37t178.5 -94.5t136 -144t98 -183t60.5 -213.5l-241 1q-39 195 -158.5 314t-311.5 124q-133 3 -253.5 -43t-212.5 -126t-165.5 -188t-119.5 -227t-68 -244q-14 -81 -18.5 -160t4 -159.5t29 -151.5t59 -133t92 -107.5t130 -72.5
t170.5 -29q134 -3 254 42t210.5 126.5t156 190t102.5 235.5l-494 -1l46 220h719z" />
    <glyph glyph-name="gcaron" unicode="&#x1e7;" horiz-adv-x="1707" 
d="M931 2116l181 -239l287 238l195 4l-1 -22l-422 -373h-132l-290 374l1 22zM1418 1536h223l-318 -1546q-32 -184 -142 -315t-266.5 -193t-344.5 -58q-186 3 -330.5 79.5t-229.5 230.5l198 132q70 -112 158.5 -169t215.5 -61q190 -5 334.5 95t179.5 281l62 274h-14
q-103 -132 -214.5 -199t-264.5 -65q-87 1 -161 24.5t-128 63.5t-97.5 95.5t-68 120.5t-40 138.5t-14 150t10.5 153.5q17 121 60 235.5t112 216.5t157 177.5t204 118t244 39.5q286 -9 390 -264h27zM399 771q-11 -64 -12.5 -125t7 -121.5t31.5 -111t59 -90t93 -63t130 -25.5
q94 -3 176 26t143 81.5t109 124.5t77.5 152.5t43.5 168.5q13 77 14 150t-15 147t-49.5 129.5t-97 91.5t-150.5 39q-94 3 -177.5 -28.5t-145.5 -87t-111.5 -130.5t-80 -157.5t-44.5 -170.5z" />
    <glyph glyph-name="Kcaron" unicode="&#x1e8;" horiz-adv-x="1827" 
d="M989 2628l181 -239l287 238l195 4l-1 -22l-422 -373h-132l-290 374l1 22zM1296 0l-491 951l-322 -298l-135 -653h-242l425 2048h242l-219 -1018h19l1102 1018l339 -1l-1039 -936l597 -1111h-276z" />
    <glyph glyph-name="kcaron" unicode="&#x1e9;" horiz-adv-x="1492" 
d="M881 2628l181 -239l287 238l195 4l-1 -22l-422 -373h-132l-290 374l1 22zM1024 0l-381 730l-229 -206l-109 -524h-230l425 2048h230l-258 -1206h23l748 694h308l-737 -668l463 -868h-253z" />
    <glyph glyph-name="Oogonek" unicode="&#x1ea;" horiz-adv-x="2136" 
d="M1996 1031q-26 -156 -83 -304t-146.5 -279.5t-202 -233t-257.5 -165.5t-305 -75q-49 -35 -79.5 -59t-70 -62t-62.5 -79.5t-29 -86.5q-12 -86 74 -87q59 0 135 36v-178q-88 -59 -215 -57q-111 1 -176 72.5t-60 182.5q9 191 232 335q-109 25 -197.5 80t-149 132t-102 171.5
t-60 201t-18.5 217.5t18 224q27 164 89 319t159 290.5t219 236.5t279.5 158t330.5 55q121 -2 224 -34.5t178.5 -89t133 -134.5t92 -169.5t52 -194.5t16.5 -209t-19 -214zM1761 1032q14 79 18 157.5t-3.5 158.5t-27.5 151t-58 134t-90 108.5t-127.5 73t-168.5 29.5
q-134 3 -255.5 -42.5t-214.5 -125.5t-167 -187.5t-121 -227t-69 -245.5q-14 -79 -18 -157.5t3.5 -158.5t27.5 -151t58 -134t90 -108.5t127.5 -73t168.5 -29.5q134 -3 256 42.5t214.5 125.5t166.5 187.5t121 227t69 245.5z" />
    <glyph glyph-name="oogonek" unicode="&#x1eb;" horiz-adv-x="1671" 
d="M758 -542q-89 -59 -216 -57q-111 1 -176 72.5t-60 182.5q9 193 236 337q-90 28 -162.5 83.5t-118.5 129t-75 164t-33.5 187t5.5 197.5q16 126 59 244t114 220.5t162 178.5t210 118.5t251 40.5q107 -2 196.5 -34t152.5 -87.5t110.5 -130.5t70 -162t31 -183t-6.5 -193
q-19 -149 -77.5 -286t-149 -247t-220 -180.5t-278.5 -82.5q-47 -33 -78 -57.5t-68.5 -61.5t-60 -78.5t-28.5 -85.5q-12 -86 74 -87q59 0 135 36zM724 180q95 -3 179 30t145.5 89.5t109.5 133.5t77 161t42 173q10 66 10 130.5t-10.5 129.5t-36 120.5t-64 99.5t-98.5 69.5
t-136 27.5q-118 3 -217.5 -47.5t-166.5 -137t-110 -190t-60 -216.5q-12 -63 -9.5 -130t11.5 -130t35.5 -119t64.5 -98.5t98.5 -68t135.5 -27.5z" />
    <glyph glyph-name="Oogonekmacron" unicode="&#x1ec;" horiz-adv-x="2135" 
d="M1903 2528l-36 -204h-913l36 204h913zM1996 1031q-26 -156 -83 -304t-146.5 -279.5t-202 -233t-257.5 -165.5t-305 -75q-49 -35 -79.5 -59t-70 -62t-62.5 -79.5t-29 -86.5q-12 -86 74 -87q59 0 135 36v-178q-88 -59 -215 -57q-111 1 -176 72.5t-60 182.5q9 191 232 335
q-109 25 -197.5 80t-149 132t-102 171.5t-60 201t-18.5 217.5t18 224q27 164 89 319t159 290.5t219 236.5t279.5 158t330.5 55q121 -2 224 -34.5t178.5 -89t133 -134.5t92 -169.5t52 -194.5t16.5 -209t-19 -214zM1761 1032q14 79 18 157.5t-3.5 158.5t-27.5 151t-58 134
t-90 108.5t-127.5 73t-168.5 29.5q-134 3 -255.5 -42.5t-214.5 -125.5t-167 -187.5t-121 -227t-69 -245.5q-14 -79 -18 -157.5t3.5 -158.5t27.5 -151t58 -134t90 -108.5t127.5 -73t168.5 -29.5q134 -3 256 42.5t214.5 125.5t166.5 187.5t121 227t69 245.5z" />
    <glyph glyph-name="oogonekmacron" unicode="&#x1ed;" horiz-adv-x="1671" 
d="M1525 2016l-36 -204h-914l36 204h914zM758 -542q-89 -59 -216 -57q-111 1 -176 72.5t-60 182.5q9 193 236 337q-90 28 -162.5 83.5t-118.5 129t-75 164t-33.5 187t5.5 197.5q16 126 59 244t114 220.5t162 178.5t210 118.5t251 40.5q107 -2 196.5 -34t152.5 -87.5
t110.5 -130.5t70 -162t31 -183t-6.5 -193q-19 -149 -77.5 -286t-149 -247t-220 -180.5t-278.5 -82.5q-47 -33 -78 -57.5t-68.5 -61.5t-60 -78.5t-28.5 -85.5q-12 -86 74 -87q59 0 135 36zM724 180q95 -3 179 30t145.5 89.5t109.5 133.5t77 161t42 173q10 66 10 130.5
t-10.5 129.5t-36 120.5t-64 99.5t-98.5 69.5t-136 27.5q-118 3 -217.5 -47.5t-166.5 -137t-110 -190t-60 -216.5q-12 -63 -9.5 -130t11.5 -130t35.5 -119t64.5 -98.5t98.5 -68t135.5 -27.5z" />
    <glyph glyph-name="Ezhcaron" unicode="&#x1ee;" horiz-adv-x="1766" 
d="M959 2452l181 -239l287 238l195 4l-1 -22l-422 -373h-133l-289 374l1 21zM-23 93h279q4 -84 14.5 -145t35 -118t63.5 -92.5t101.5 -58t147.5 -24.5q134 -3 243.5 37.5t186 117.5t125 183t67.5 237q13 97 13.5 181.5t-23 154.5t-67.5 120.5t-120.5 79t-182.5 30.5h-317
l46 221l816 753l-1024 2l49 232h1355l-45 -217l-843 -775q120 2 219.5 -24t171.5 -76t125 -121t79 -159t33.5 -190.5t-11.5 -215.5q-36 -245 -156.5 -425.5t-315.5 -277.5t-442 -93q-153 3 -270.5 51t-193 135.5t-115 207t-44.5 269.5z" />
    <glyph glyph-name="ezhcaron" unicode="&#x1ef;" horiz-adv-x="1511" 
d="M798 2088l155 -199l236 198l238 3l-2 -28l-403 -338h-160l-281 335l2 31zM331 1488h1162l-38 -182l-661 -663q248 -19 373.5 -181t95.5 -409q-13 -113 -61 -210.5t-121 -168.5t-166 -121t-199 -74t-217 -22q-259 5 -404.5 165t-126.5 419l268 -1q-13 -151 60.5 -255.5
t221.5 -109.5q115 -4 218 40.5t173.5 132.5t88.5 203q28 186 -55.5 285t-271.5 103l-220 1l48 230l600 596l-814 2z" />
    <glyph glyph-name="jcaron" unicode="&#x1f0;" horiz-adv-x="660" 
d="M364 2040l181 -239l288 238l194 4v-22l-422 -373h-133l-289 374v22zM395 1536h231l-339 -1647q-37 -220 -166 -345.5t-346 -126.5l-54 1l29 221l39 -1q112 -1 179 67t88 183z" />
    <glyph glyph-name="DZ" unicode="&#x1f1;" horiz-adv-x="4031" 
d="M993 0h-631l424 2048h624q146 -2 267 -40.5t206 -106t146.5 -161.5t89.5 -206t34.5 -239t-18.5 -262q-37 -224 -133.5 -413.5t-240.5 -327.5t-341.5 -215.5t-426.5 -76.5zM3737 220l-46 -220h-1371l40 194l1405 1632l-1078 2l46 220h1371l-40 -195l-1406 -1631z
M1383 1828h-400l-333 -1608l339 -1q184 0 340.5 60t271 168.5t191.5 257.5t109 329q19 105 20 201.5t-16 185.5t-58.5 161.5t-103 127t-153.5 85.5t-207 33z" />
    <glyph glyph-name="Dz" unicode="&#x1f2;" horiz-adv-x="3794" 
d="M993 0h-631l424 2048h624q146 -2 267 -40.5t206 -106t146.5 -161.5t89.5 -206t34.5 -239t-18.5 -262q-37 -224 -133.5 -413.5t-240.5 -327.5t-341.5 -215.5t-426.5 -76.5zM1383 1828h-400l-333 -1608l339 -1q184 0 340.5 60t271 168.5t191.5 257.5t109 329
q19 105 20 201.5t-16 185.5t-58.5 161.5t-103 127t-153.5 85.5t-207 33zM3516 220l-46 -220h-1154l44 214l1060 1100l-847 2l46 220h1150l-42 -202l-1060 -1112z" />
    <glyph glyph-name="Gacute" unicode="&#x1f4;" horiz-adv-x="2084" 
d="M1257 2232l304 408h254l-370 -408h-188zM1938 1016l-44 -218q-34 -178 -120 -330.5t-210 -263t-288.5 -172.5t-347.5 -60q-122 1 -225.5 33.5t-180 89t-135 134t-93.5 169t-53 194.5t-17 209.5t19 215.5q27 163 88 317t157.5 290t218 238t278 160t328.5 55
q120 -2 222 -37t178.5 -94.5t136 -144t98 -183t60.5 -213.5l-241 1q-39 195 -158.5 314t-311.5 124q-133 3 -253.5 -43t-212.5 -126t-165.5 -188t-119.5 -227t-68 -244q-14 -81 -18.5 -160t4 -159.5t29 -151.5t59 -133t92 -107.5t130 -72.5t170.5 -29q134 -3 254 42
t210.5 126.5t156 190t102.5 235.5l-494 -1l46 220h719z" />
    <glyph glyph-name="gacute" unicode="&#x1f5;" horiz-adv-x="1707" 
d="M974 1720l304 408h255l-370 -408h-189zM1418 1536h223l-318 -1546q-32 -184 -142 -315t-266.5 -193t-344.5 -58q-186 3 -330.5 79.5t-229.5 230.5l198 132q70 -112 158.5 -169t215.5 -61q190 -5 334.5 95t179.5 281l62 274h-14q-103 -132 -214.5 -199t-264.5 -65
q-87 1 -161 24.5t-128 63.5t-97.5 95.5t-68 120.5t-40 138.5t-14 150t10.5 153.5q17 121 60 235.5t112 216.5t157 177.5t204 118t244 39.5q286 -9 390 -264h27zM399 771q-11 -64 -12.5 -125t7 -121.5t31.5 -111t59 -90t93 -63t130 -25.5q94 -3 176 26t143 81.5t109 124.5
t77.5 152.5t43.5 168.5q13 77 14 150t-15 147t-49.5 129.5t-97 91.5t-150.5 39q-94 3 -177.5 -28.5t-145.5 -87t-111.5 -130.5t-80 -157.5t-44.5 -170.5z" />
    <glyph glyph-name="uni01F6" unicode="&#x1f6;" horiz-adv-x="3127" 
d="M779 2048l-190 -912h1058l189 912h243l-288 -1401q-10 -74 -9 -140t22.5 -121t57.5 -96t96.5 -64.5t139.5 -26.5q208 -6 335.5 115.5t166.5 333.5l182 888h242l-182 -888q-27 -148 -91 -273t-159.5 -217t-227 -142.5t-284.5 -47.5q-195 3 -327 94t-183 243t-21 343
l52 268h-1057l-190 -916h-242l425 2048h242z" />
    <glyph glyph-name="uni01F7" unicode="&#x1f7;" horiz-adv-x="1767" 
d="M706 2008l-12 -58q161 83 365 81q123 -1 226 -30.5t177 -83t128 -128.5t80 -167t33 -199t-14 -224l-12 -74q-44 -250 -177.5 -480t-324 -404t-426.5 -295.5t-484 -167.5l-80 -350h-281l534 2576zM1042 1802q-236 4 -398 -170l-347 -1623q198 58 378 162t327 245
t251 323.5t146 384.5l14 77q17 99 18 183t-19.5 161.5t-64.5 132.5t-121 88.5t-184 35.5z" />
    <glyph glyph-name="uni01F8" unicode="&#x1f8;" horiz-adv-x="2072" 
d="M1303 2640l189 -408h-212l-283 408h306zM2069 2048l-425 -2048h-225l-710 1604l-22 1l-339 -1605h-242l424 2048h225l713 -1612l22 -1l340 1613h239z" />
    <glyph glyph-name="uni01F9" unicode="&#x1f9;" horiz-adv-x="1627" 
d="M989 2128l190 -408h-213l-283 408h306zM491 908l-186 -908h-230l318 1536h232l-64 -262l11 1q85 136 210.5 210.5t280.5 70.5q94 -2 168 -35.5t118 -89.5t71.5 -130t30 -156.5t-7.5 -168.5l-199 -976h-230l196 961q13 67 3.5 131.5t-35 116t-78.5 84.5t-127 36
q-177 7 -312 -118t-170 -303z" />
    <glyph glyph-name="Aringacute" unicode="&#x1fa;" horiz-adv-x="1895" 
d="M1267 2525l243 251l293 -1l-351 -251zM197 0h-266l1154 2048h34q-78 65 -75 167q2 102 74.5 175t174.5 72q92 -1 152.5 -68.5t58.5 -160.5q-1 -77 -46.5 -137.5t-116.5 -84.5l299 -2011h-242l-74 548h-826zM1160 2216q-7 -43 19.5 -74t69.5 -31q49 0 87.5 36t46.5 85
q7 46 -14.5 81.5t-66.5 35.5q-51 0 -92.5 -40.5t-49.5 -92.5zM1146 1726l-528 -958h677l-125 957z" />
    <glyph glyph-name="aringacute" unicode="&#x1fb;" horiz-adv-x="1578" 
d="M1013 2013l242 251l293 -1l-351 -251zM975 0l44 210h-7q-82 -122 -208.5 -186t-275.5 -61q-205 4 -328 132t-105 331q6 73 31 134t60.5 104.5t87 79t104.5 58.5t120 41t124.5 28t127.5 18q21 2 79 4t106 6t101.5 14t90 34.5t48.5 62.5l-1 4q2 56 1.5 105t-14 90.5t-37 72
t-68 48t-108.5 19.5q-136 3 -253.5 -58t-182.5 -174l-214 80q52 107 138 184t189 118.5t221 52.5q-58 62 -57 151q2 102 74.5 175t174.5 72q92 -1 152.5 -68.5t58.5 -160.5q-1 -61 -31 -113t-80 -84q150 -53 219 -187t45 -325l-205 -1012h-222zM905 1704q-7 -43 19.5 -74
t70.5 -31q49 0 87 36t46 85q7 45 -14 81t-66 36q-52 0 -93.5 -40.5t-49.5 -92.5zM1083 556l56 218q-32 -30 -89 -48t-103 -23.5t-120.5 -10t-97.5 -7.5q-369 -39 -404 -271q-18 -115 56 -176t195 -63q118 -3 224 43t182 134.5t101 203.5z" />
    <glyph glyph-name="AEacute" unicode="&#x1fc;" horiz-adv-x="2840" 
d="M1669 2232l304 408h254l-370 -408h-188zM2526 220l-46 -220h-1169l93 552h-759l-422 -552h-306l1600 2048h1307l-47 -220h-923l-113 -676h788l-46 -220h-778l-120 -712h941zM805 770l635 -2l177 1056z" />
    <glyph glyph-name="aeacute" unicode="&#x1fd;" horiz-adv-x="2595" 
d="M1370 1720l304 408h255l-370 -408h-189zM297 1198q60 121 164 204t227 120t261 34q68 -2 134 -16.5t129 -43t107.5 -81t56.5 -121.5q224 269 539 263q90 -2 166 -25.5t131.5 -65t97.5 -98t67 -123.5t37.5 -143t12 -154.5t-13.5 -159.5l-14 -81l-1084 -85
q-15 -189 73.5 -313t272.5 -130q138 -4 248.5 58t171.5 182l219 -64q-48 -128 -152.5 -218t-232.5 -131t-266 -38q-120 2 -222 41.5t-178.5 122t-104.5 197.5l-8 1q-77 -171 -247 -271t-361 -96q-205 4 -328 132t-105 331q6 73 31 134t60.5 104.5t87 79t104.5 58.5t120 41
t124.5 28t127.5 18q21 2 79 4t106 6t101.5 14t90 34.5t48.5 62.5l-1 4q2 56 1.5 105t-14 90.5t-37.5 72t-68.5 48t-108.5 19.5q-135 4 -252 -57t-183 -175zM1902 1344q-90 3 -170 -25t-139 -77t-109.5 -119t-84 -143t-59.5 -157l857 68q12 68 11.5 132t-22.5 121t-58 100.5
t-94.5 70t-131.5 29.5zM1083 556l56 218q-32 -30 -89 -48t-103 -23.5t-120.5 -10t-97.5 -7.5q-369 -39 -404 -271q-18 -115 56 -176t195 -63q118 -3 224 43t182 134.5t101 203.5z" />
    <glyph glyph-name="Oslashacute" unicode="&#x1fe;" horiz-adv-x="2135" 
d="M1261 2232l304 408h254l-370 -408h-188zM280 -82l-138 114l198 216q-168 339 -96 769q28 165 89.5 319t158 290t217.5 237t278.5 158t331.5 55q271 -3 454 -149l176 199l139 -114l-192 -209q171 -341 98 -772q-28 -164 -89.5 -318.5t-158 -290.5t-218 -237t-279 -158.5
t-330.5 -54.5q-270 3 -458 152zM479 1017q-62 -342 24 -567l1117 1286q-113 105 -316 109q-135 2 -256.5 -43.5t-213.5 -125.5t-165.5 -187t-120 -226t-69.5 -246zM1759 1031q63 341 -25 570l-1117 -1288q112 -106 317 -110q135 -3 256.5 43t213.5 125.5t165.5 187
t120 226.5t69.5 246z" />
    <glyph glyph-name="oslashacute" unicode="&#x1ff;" horiz-adv-x="1672" 
d="M939 1720l304 408h255l-370 -408h-189zM231 -82l-138 114l144 154q-119 253 -70 566q20 128 66 246t119 221t166 178.5t213.5 118t254.5 40.5q191 -2 335 -98l129 148l139 -115l-145 -153q119 -251 70 -571q-25 -160 -92.5 -303.5t-169.5 -256t-247 -178t-310 -62.5
q-193 3 -332 98zM397 754q-40 -216 -2 -372l783 900q-74 61 -204 65q-97 2 -182.5 -31t-149 -90t-114 -135t-82.5 -162t-49 -175zM708 178q120 -3 222 47t172 136t115.5 188.5t67.5 217.5q40 215 1 374l-783 -900q76 -61 205 -63z" />
    <glyph glyph-name="Adblgrave" unicode="&#x200;" horiz-adv-x="1896" 
d="M1587 2245l-191 1l-257 362l280 2zM1235 2247l-220 -2l-338 363l303 2zM197 0h-266l1154 2048h250l305 -2048h-242l-74 548h-826zM1146 1726l-528 -958h677l-125 957z" />
    <glyph glyph-name="adblgrave" unicode="&#x201;" horiz-adv-x="1578" 
d="M1332 1733l-191 1l-257 362l281 2zM981 1735l-221 -2l-338 363l304 2zM975 0l44 210h-7q-82 -122 -208.5 -186t-275.5 -61q-205 4 -328 132t-105 331q6 73 31 134t60.5 104.5t87 79t104.5 58.5t120 41t124.5 28t127.5 18q21 2 79 4t106 6t101.5 14t90 34.5t48.5 62.5
l-1 4q2 56 1.5 105t-14 90.5t-37 72t-68 48t-108.5 19.5q-136 3 -253.5 -58t-182.5 -174l-214 80q89 181 264 272t387 87q244 -4 364 -151t89 -393l-205 -1012h-222zM1083 556l56 218q-32 -30 -89 -48t-103 -23.5t-120.5 -10t-97.5 -7.5q-369 -39 -404 -271
q-18 -115 56 -176t195 -63q118 -3 224 43t182 134.5t101 203.5z" />
    <glyph glyph-name="Ainvertedbreve" unicode="&#x202;" horiz-adv-x="1895" 
d="M1730 2289l-216 1q7 88 -27 143.5t-120 58.5q-92 3 -150 -53t-74 -149h-215q16 174 143 275t306 96q167 -5 263.5 -105.5t89.5 -266.5zM197 0h-266l1154 2048h250l305 -2048h-242l-74 548h-826zM1146 1726l-528 -958h677l-125 957z" />
    <glyph glyph-name="ainvertedbreve" unicode="&#x203;" horiz-adv-x="1578" 
d="M1475 1777l-216 1q7 88 -27 143.5t-119 58.5q-93 3 -151 -53t-74 -149h-215q16 174 143.5 275t305.5 96q167 -5 263.5 -105.5t89.5 -266.5zM975 0l44 210h-7q-82 -122 -208.5 -186t-275.5 -61q-205 4 -328 132t-105 331q6 73 31 134t60.5 104.5t87 79t104.5 58.5t120 41
t124.5 28t127.5 18q21 2 79 4t106 6t101.5 14t90 34.5t48.5 62.5l-1 4q2 56 1.5 105t-14 90.5t-37 72t-68 48t-108.5 19.5q-136 3 -253.5 -58t-182.5 -174l-214 80q89 181 264 272t387 87q244 -4 364 -151t89 -393l-205 -1012h-222zM1083 556l56 218q-32 -30 -89 -48
t-103 -23.5t-120.5 -10t-97.5 -7.5q-369 -39 -404 -271q-18 -115 56 -176t195 -63q118 -3 224 43t182 134.5t101 203.5z" />
    <glyph glyph-name="Edblgrave" unicode="&#x204;" horiz-adv-x="1675" 
d="M1522 2245l-191 1l-257 362l280 2zM1170 2247l-220 -2l-338 363l303 2zM1368 220l-46 -220h-1216l424 2048h1201l-46 -220h-958l-144 -692h858l-46 -220h-857l-145 -696h975z" />
    <glyph glyph-name="edblgrave" unicode="&#x205;" horiz-adv-x="1634" 
d="M1324 1733l-191 1l-257 362l280 2zM972 1735l-220 -2l-338 363l303 2zM732 -32q-108 2 -200 32.5t-157.5 83.5t-115.5 126t-74.5 159.5t-33.5 183t6 196.5q16 125 59 243.5t113.5 222t161 180.5t209.5 120.5t251 41.5q90 -1 167 -25t133 -65t101 -97t71 -123t42.5 -143
t16 -155.5t-9.5 -160.5l-15 -100h-1074q-6 -78 -1 -151t32 -137t68.5 -112.5t108 -77t151.5 -30.5q136 -4 244 57.5t170 180.5l217 -62q-46 -128 -149 -218.5t-229 -131.5t-263 -38zM939 1344q-100 3 -186.5 -33t-150.5 -102.5t-110.5 -145t-80.5 -172.5h842q20 116 -7 216
t-106.5 166.5t-200.5 70.5z" />
    <glyph glyph-name="Einvertedbreve" unicode="&#x206;" horiz-adv-x="1675" 
d="M1666 2289l-216 1q7 88 -27 143.5t-120 58.5q-92 3 -150 -53t-74 -149h-215q16 174 143 275t306 96q167 -5 263.5 -105.5t89.5 -266.5zM1369 220l-46 -220h-1216l424 2048h1201l-46 -220h-958l-144 -692h858l-46 -220h-857l-145 -696h975z" />
    <glyph glyph-name="einvertedbreve" unicode="&#x207;" horiz-adv-x="1634" 
d="M1467 1777l-216 1q7 88 -27 143.5t-119 58.5q-93 3 -151 -53t-74 -149h-215q16 174 143.5 275t305.5 96q167 -5 263.5 -105.5t89.5 -266.5zM732 -32q-108 2 -200 32.5t-157.5 83.5t-115.5 126t-74.5 159.5t-33.5 183t6 196.5q16 125 59 243.5t113.5 222t161 180.5
t209.5 120.5t251 41.5q90 -1 167 -25t133 -65t101 -97t71 -123t42.5 -143t16 -155.5t-9.5 -160.5l-15 -100h-1074q-6 -78 -1 -151t32 -137t68.5 -112.5t108 -77t151.5 -30.5q136 -4 244 57.5t170 180.5l217 -62q-46 -128 -149 -218.5t-229 -131.5t-263 -38zM939 1344
q-100 3 -186.5 -33t-150.5 -102.5t-110.5 -145t-80.5 -172.5h842q20 116 -7 216t-106.5 166.5t-200.5 70.5z" />
    <glyph glyph-name="Idblgrave" unicode="&#x208;" horiz-adv-x="735" 
d="M990 2245l-191 1l-257 362l280 2zM638 2247l-220 -2l-338 363l303 2zM773 2048l-425 -2048h-242l425 2048h242z" />
    <glyph glyph-name="idblgrave" unicode="&#x209;" horiz-adv-x="660" 
d="M874 1737l-191 1l-257 362l280 2zM522 1739l-220 -2l-338 363l303 2zM625 1536l-319 -1536h-230l318 1536h231z" />
    <glyph glyph-name="Iinvertedbreve" unicode="&#x20a;" horiz-adv-x="736" 
d="M1134 2289l-216 1q7 88 -27 143.5t-120 58.5q-92 3 -150 -53t-74 -149h-215q16 174 143 275t306 96q167 -5 263.5 -105.5t89.5 -266.5zM774 2048l-425 -2048h-242l425 2048h242z" />
    <glyph glyph-name="iinvertedbreve" unicode="&#x20b;" horiz-adv-x="659" 
d="M1016 1781l-216 1q7 88 -27 143.5t-119 58.5q-93 3 -151 -53t-74 -149h-215q16 174 143.5 275t305.5 96q167 -5 263.5 -105.5t89.5 -266.5zM624 1536l-319 -1536h-230l318 1536h231z" />
    <glyph glyph-name="Odblgrave" unicode="&#x20c;" horiz-adv-x="2134" 
d="M1706 2245l-191 1l-257 362l280 2zM1354 2247l-220 -2l-338 363l303 2zM1995 1031q-27 -164 -88.5 -319t-158.5 -290.5t-219 -236.5t-279.5 -158t-330.5 -55q-121 2 -224 34.5t-178.5 89t-133.5 134.5t-92.5 169.5t-52 194.5t-16.5 209t19 214q27 164 89 319t159 290.5
t219 236.5t279.5 158t330.5 55q121 -2 224 -34.5t178.5 -89t133 -134.5t92 -169.5t52 -194.5t16.5 -209t-19 -214zM1760 1032q14 79 18 157.5t-3.5 158.5t-27.5 151t-58 134t-90 108.5t-127.5 73t-168.5 29.5q-134 3 -255.5 -42.5t-214.5 -125.5t-167 -187.5t-121 -227
t-69 -245.5q-14 -79 -18 -157.5t3.5 -158.5t27.5 -151t58 -134t90 -108.5t127.5 -73t168.5 -29.5q134 -3 256 42.5t214.5 125.5t166.5 187.5t121 227t69 245.5z" />
    <glyph glyph-name="odblgrave" unicode="&#x20d;" horiz-adv-x="1670" 
d="M1328 1733l-191 1l-257 362l280 2zM976 1735l-220 -2l-338 363l303 2zM712 -32q-91 1 -170.5 25t-138.5 66t-107.5 99.5t-77.5 126t-48 145.5t-20 158.5t8 165.5q16 126 59 244t114 220.5t162 178.5t210 118.5t251 40.5q107 -2 196.5 -34t152.5 -87.5t110.5 -130.5
t70 -162t31 -183t-6.5 -193q-20 -158 -84 -301.5t-163.5 -256t-242 -178t-306.5 -62.5zM724 180q95 -3 179 30t145.5 89.5t109.5 133.5t77 161t42 173q10 66 10 130.5t-10.5 129.5t-36 120.5t-64 99.5t-98.5 69.5t-136 27.5q-118 3 -217.5 -47.5t-166.5 -137t-110 -190
t-60 -216.5q-12 -63 -9.5 -130t11.5 -130t35.5 -119t64.5 -98.5t98.5 -68t135.5 -27.5z" />
    <glyph glyph-name="Oinvertedbreve" unicode="&#x20e;" horiz-adv-x="2135" 
d="M1850 2289l-216 1q7 88 -27 143.5t-120 58.5q-92 3 -150 -53t-74 -149h-215q16 174 143 275t306 96q167 -5 263.5 -105.5t89.5 -266.5zM1996 1031q-27 -164 -88.5 -319t-158.5 -290.5t-219 -236.5t-279.5 -158t-330.5 -55q-121 2 -224 34.5t-178.5 89t-133.5 134.5
t-92.5 169.5t-52 194.5t-16.5 209t19 214q27 164 89 319t159 290.5t219 236.5t279.5 158t330.5 55q121 -2 224 -34.5t178.5 -89t133 -134.5t92 -169.5t52 -194.5t16.5 -209t-19 -214zM1761 1032q14 79 18 157.5t-3.5 158.5t-27.5 151t-58 134t-90 108.5t-127.5 73
t-168.5 29.5q-134 3 -255.5 -42.5t-214.5 -125.5t-167 -187.5t-121 -227t-69 -245.5q-14 -79 -18 -157.5t3.5 -158.5t27.5 -151t58 -134t90 -108.5t127.5 -73t168.5 -29.5q134 -3 256 42.5t214.5 125.5t166.5 187.5t121 227t69 245.5z" />
    <glyph glyph-name="oinvertedbreve" unicode="&#x20f;" horiz-adv-x="1670" 
d="M1471 1777l-216 1q7 88 -27 143.5t-119 58.5q-93 3 -151 -53t-74 -149h-215q16 174 143.5 275t305.5 96q167 -5 263.5 -105.5t89.5 -266.5zM712 -32q-91 1 -170.5 25t-138.5 66t-107.5 99.5t-77.5 126t-48 145.5t-20 158.5t8 165.5q16 126 59 244t114 220.5t162 178.5
t210 118.5t251 40.5q107 -2 196.5 -34t152.5 -87.5t110.5 -130.5t70 -162t31 -183t-6.5 -193q-20 -158 -84 -301.5t-163.5 -256t-242 -178t-306.5 -62.5zM724 180q95 -3 179 30t145.5 89.5t109.5 133.5t77 161t42 173q10 66 10 130.5t-10.5 129.5t-36 120.5t-64 99.5
t-98.5 69.5t-136 27.5q-118 3 -217.5 -47.5t-166.5 -137t-110 -190t-60 -216.5q-12 -63 -9.5 -130t11.5 -130t35.5 -119t64.5 -98.5t98.5 -68t135.5 -27.5z" />
    <glyph glyph-name="Rdblgrave" unicode="&#x210;" horiz-adv-x="1775" 
d="M1538 2245l-191 1l-257 362l280 2zM1186 2247l-220 -2l-338 363l303 2zM1235 0l-230 796h-492l-165 -796h-242l425 2048l646 -1q140 -3 252 -47t185.5 -122.5t104.5 -194t12 -255.5q-28 -213 -150 -360t-326 -220l245 -848h-265zM727 1828l-167 -804l379 -2
q107 0 197.5 23t165 71t124.5 127.5t68 185.5q32 185 -53 289t-275 109z" />
    <glyph glyph-name="rdblgrave" unicode="&#x211;" horiz-adv-x="1079" 
d="M1080 1733l-191 1l-257 362l281 2zM729 1735l-221 -2l-338 363l304 2zM1207 1502l-107 -217q-54 31 -122 33q-90 2 -174.5 -36t-147 -102t-107.5 -145t-64 -167l-180 -868h-230l318 1536h232l-65 -266l12 1q63 128 179 211.5t252 79.5q95 -1 204 -60z" />
    <glyph glyph-name="Rinvertedbreve" unicode="&#x212;" horiz-adv-x="1775" 
d="M1682 2289l-216 1q7 88 -27 143.5t-120 58.5q-92 3 -150 -53t-74 -149h-215q16 174 143 275t306 96q167 -5 263.5 -105.5t89.5 -266.5zM1236 0l-230 796h-492l-165 -796h-242l425 2048l646 -1q140 -3 252 -47t185.5 -122.5t104.5 -194t12 -255.5q-28 -213 -150 -360
t-326 -220l245 -848h-265zM728 1828l-167 -804l379 -2q107 0 197.5 23t165 71t124.5 127.5t68 185.5q32 185 -53 289t-275 109z" />
    <glyph glyph-name="rinvertedbreve" unicode="&#x213;" horiz-adv-x="1078" 
d="M1223 1777l-216 1q7 88 -27 143.5t-119 58.5q-93 3 -151 -53t-74 -149h-215q16 174 143.5 275t305.5 96q167 -5 263.5 -105.5t89.5 -266.5zM1207 1502l-107 -217q-54 31 -122 33q-90 2 -174.5 -36t-147 -102t-107.5 -145t-64 -167l-180 -868h-230l318 1536h232l-65 -266
l12 1q63 128 179 211.5t252 79.5q95 -1 204 -60z" />
    <glyph glyph-name="Udblgrave" unicode="&#x214;" horiz-adv-x="2079" 
d="M1678 2245l-191 1l-257 362l280 2zM1326 2247l-220 -2l-338 363l303 2zM1835 2048h243l-280 -1355q-40 -217 -171 -385.5t-324 -259t-414 -87.5q-154 3 -283.5 59t-215.5 151.5t-123.5 231t-13.5 289.5l279 1356h242l-279 -1357q-37 -214 79 -352t334 -143
q154 -4 290 55.5t231.5 175t125.5 265.5z" />
    <glyph glyph-name="udblgrave" unicode="&#x215;" horiz-adv-x="1628" 
d="M1349 1733l-191 1l-257 362l281 2zM998 1735l-221 -2l-338 363l304 2zM1144 607l189 929h231l-319 -1536h-231l54 218l-10 -1q-94 -116 -217.5 -179.5t-265.5 -58.5q-75 2 -138 27.5t-106 68t-75.5 99t-46.5 120t-19.5 132t6.5 134.5l198 976h231l-199 -977
q-22 -145 38 -245t202 -106q178 -8 311 107t167 292z" />
    <glyph glyph-name="Uinvertedbreve" unicode="&#x216;" horiz-adv-x="2079" 
d="M1822 2289l-216 1q7 88 -27 143.5t-120 58.5q-92 3 -150 -53t-74 -149h-215q16 174 143 275t306 96q167 -5 263.5 -105.5t89.5 -266.5zM1836 2048h243l-280 -1355q-40 -217 -171 -385.5t-324 -259t-414 -87.5q-154 3 -283.5 59t-215.5 151.5t-123.5 231t-13.5 289.5
l279 1356h242l-279 -1357q-37 -214 79 -352t334 -143q154 -4 290 55.5t231.5 175t125.5 265.5z" />
    <glyph glyph-name="uinvertedbreve" unicode="&#x217;" horiz-adv-x="1626" 
d="M1491 1777l-216 1q7 88 -27 143.5t-119 58.5q-93 3 -151 -53t-74 -149h-215q16 174 143.5 275t305.5 96q167 -5 263.5 -105.5t89.5 -266.5zM1143 607l189 929h231l-319 -1536h-231l54 218l-10 -1q-94 -116 -217.5 -179.5t-265.5 -58.5q-75 2 -138 27.5t-106 68t-75.5 99
t-46.5 120t-19.5 132t6.5 134.5l198 976h231l-199 -977q-22 -145 38 -245t202 -106q178 -8 311 107t167 292z" />
    <glyph glyph-name="Scommaaccent" unicode="&#x218;" horiz-adv-x="1780" 
d="M1508 1519q-9 161 -107.5 247.5t-263.5 90.5q-87 2 -171 -19.5t-156.5 -64t-124 -112.5t-66.5 -158q-10 -56 3 -104t39.5 -80.5t70.5 -61t85.5 -46t95.5 -34.5l190 -58q505 -156 458 -551q-18 -147 -95.5 -265.5t-192.5 -191.5t-252 -111t-281 -36q-134 2 -246.5 39
t-196.5 106t-131 176.5t-47 243.5h248q-1 -85 28.5 -150.5t83.5 -106t123.5 -61.5t152.5 -23q94 -2 186 21t173 68t138.5 121.5t73.5 171.5q27 162 -124 253q-61 36 -182 76l-228 74q-96 32 -172 77.5t-135.5 108.5t-86.5 149t-16 187q12 110 63 206t127.5 164.5
t172.5 117.5t201.5 72t212.5 21q258 -5 419.5 -154.5t160.5 -402.5h-231zM829 -164l-24 -123q-66 -322 -259 -560l-197 40q5 11 31 61l33.5 65l30 60t31.5 66.5l26 61.5t26.5 68t20.5 64t19 69l28 128h234z" />
    <glyph glyph-name="scommaaccent" unicode="&#x219;" horiz-adv-x="1451" 
d="M1333 1189l-208 -59q-34 109 -99.5 165.5t-177.5 59.5q-79 2 -155.5 -22.5t-137.5 -81t-73 -135.5q-13 -87 45.5 -145t151.5 -86l210 -58q99 -29 173 -79.5t118.5 -132.5t36.5 -183q-9 -113 -68.5 -205t-149.5 -147.5t-195.5 -84.5t-214.5 -27q-202 3 -341.5 102
t-206.5 288l220 80q78 -260 334 -266q62 -1 124.5 13.5t118.5 44t95.5 80t48.5 114.5q21 142 -163 195l-236 66q-157 47 -250.5 155.5t-81.5 263.5q9 109 66 198t143.5 144t189 83.5t207.5 26.5q182 -4 303.5 -98.5t172.5 -268.5zM707 -128l-23 -123q-68 -322 -259 -560
l-197 40l35.5 69.5l38 75l33 68t35 77l28 70.5t28 79.5t20.5 75.5l28 128h233z" />
    <glyph glyph-name="uni021A" unicode="&#x21a;" horiz-adv-x="1800" 
d="M1914 2048l-47 -220h-624l-379 -1828h-242l379 1828h-625l46 220h1492zM851 -128l-23 -123q-68 -322 -259 -560l-197 40q6 13 35 69.5l38.5 75.5l33 68t35 77l28 70t27.5 79.5t20 75.5l28 128h234z" />
    <glyph glyph-name="uni021B" unicode="&#x21b;" horiz-adv-x="991" 
d="M1020 1536l-46 -220h-318l-177 -877q-8 -44 -5.5 -84.5t14.5 -72t44 -51t81 -20.5q40 -1 103 10l21 -216q-66 -25 -164 -23q-164 3 -259.5 116.5t-77.5 277.5l189 940h-225l46 220h225l68 328h231l-69 -328h319zM543 -128l-23 -123q-68 -322 -259 -560l-197 40
q6 13 35 69.5l38.5 75.5l33 68t35 77l28 70t27.5 79.5t20 75.5l28 128h234z" />
    <glyph glyph-name="uni021C" unicode="&#x21c;" horiz-adv-x="1767" 
d="M267 443l27 209q304 94 425 141q389 151 558 366q110 139 139 314q13 80 -7.5 143.5t-68 102.5t-112 59.5t-142.5 22.5q-103 3 -198 -34t-165 -113.5t-87 -177.5l-275 -1q10 106 58 198t121.5 157.5t166.5 112.5t194 69t203 21q133 -2 246 -37.5t198 -103t125 -176.5
t22 -248q-36 -277 -309 -501q176 -181 130 -512q-21 -148 -82 -276.5t-145 -224t-201.5 -177.5t-235.5 -138.5t-264 -104.5t-269 -78t-268 -57l31 229q117 25 210.5 49t209.5 62.5t206.5 82.5t183.5 108t159 138.5t116 174.5t70 216q10 57 14 93t5.5 90.5t-10.5 99.5t-38 80
q-405 -259 -941 -379z" />
    <glyph glyph-name="uni021D" unicode="&#x21d;" horiz-adv-x="1512" 
d="M231 287l26 205q82 20 145.5 38t149.5 48.5t151 62.5t135.5 78.5t119.5 99t86 122.5t50 149q16 101 -46 153.5t-168 54.5q-116 3 -215 -57.5t-120 -167.5l-265 -2q10 110 69 198t147.5 141.5t192 81t210.5 25.5q81 -2 153 -18t134.5 -50t105.5 -82.5t63.5 -120
t10.5 -157.5q-24 -213 -237 -395q130 -172 95 -426q-17 -125 -63.5 -232.5t-113 -189.5t-156 -150t-185.5 -115.5t-210 -84.5t-222 -59.5t-227 -37.5l29 217q93 21 164.5 40.5t160.5 50.5t156 65t137.5 84t120 108t88 136t54.5 168q32 173 -9 284q-309 -194 -717 -265z" />
    <glyph glyph-name="uni021E" unicode="&#x21e;" horiz-adv-x="2076" 
d="M1189 2628l181 -239l287 238l195 4l-1 -22l-422 -373h-132l-290 374l1 22zM773 2048l-190 -912h1058l189 912h243l-425 -2048h-243l191 916h-1058l-190 -916h-242l425 2048h242z" />
    </font>
</defs>
</svg>
